<svg width="375" height="812" viewBox="0 0 375 812" fill="none" xmlns="http://www.w3.org/2000/svg">
<g opacity="0.08">
<path d="M18 0V812" stroke="#2B2B2B" stroke-linecap="round" stroke-linejoin="round"/>
<path d="M44 0V812" stroke="#2B2B2B" stroke-linecap="round" stroke-linejoin="round"/>
<path d="M70 0V812" stroke="#2B2B2B" stroke-linecap="round" stroke-linejoin="round"/>
<path d="M96 0V812" stroke="#2B2B2B" stroke-linecap="round" stroke-linejoin="round"/>
<path d="M122 0V812" stroke="#2B2B2B" stroke-linecap="round" stroke-linejoin="round"/>
<path d="M148 0V812" stroke="#2B2B2B" stroke-linecap="round" stroke-linejoin="round"/>
<path d="M174 0V812" stroke="#2B2B2B" stroke-linecap="round" stroke-linejoin="round"/>
<path d="M200 0V812" stroke="#2B2B2B" stroke-linecap="round" stroke-linejoin="round"/>
<path d="M226 0V812" stroke="#2B2B2B" stroke-linecap="round" stroke-linejoin="round"/>
<path d="M252 0V812" stroke="#2B2B2B" stroke-linecap="round" stroke-linejoin="round"/>
<path d="M278 0V812" stroke="#2B2B2B" stroke-linecap="round" stroke-linejoin="round"/>
<path d="M304 0V812" stroke="#2B2B2B" stroke-linecap="round" stroke-linejoin="round"/>
<path d="M330 0V812" stroke="#2B2B2B" stroke-linecap="round" stroke-linejoin="round"/>
<path d="M356 0V812" stroke="#2B2B2B" stroke-linecap="round" stroke-linejoin="round"/>
</g>
<g clip-path="url(#clip0_896_4057)">
<path fill-rule="evenodd" clip-rule="evenodd" d="M110.874 228.613C110.874 232.653 110.023 236.276 108.342 239.381C106.677 242.459 104.336 244.896 101.38 246.619C98.4084 248.353 94.8976 249.232 90.9451 249.232C86.9878 249.232 83.4584 248.351 80.4495 246.613C77.4656 244.892 75.1094 242.459 73.4445 239.381C71.7657 236.276 70.9126 232.653 70.9126 228.613C70.9126 224.645 71.7657 221.058 73.4428 217.952C75.1094 214.876 77.4655 212.442 80.4518 210.718C83.4607 208.98 86.9919 208.099 90.9451 208.099C94.8953 208.099 98.4059 208.979 101.38 210.712C104.333 212.44 106.677 214.876 108.342 217.952C110.023 221.058 110.874 224.645 110.874 228.613ZM106.797 201.966C102.332 199.333 97.2083 198 91.5644 198C86.2941 198 81.4697 199.161 77.2262 201.452C74.6796 202.828 72.4265 204.551 70.4872 206.599L70.0743 199.368H61V273.714H71.1193V251.311C73.0067 253.154 75.1544 254.72 77.5481 255.99C81.7173 258.208 86.4345 259.332 91.5644 259.332C97.2083 259.332 102.332 257.998 106.797 255.366C111.277 252.727 114.805 249.02 117.286 244.343C119.746 239.703 120.993 234.412 120.993 228.613C120.993 222.812 119.746 217.538 117.282 212.932C114.804 208.297 111.277 204.606 106.797 201.966V201.966Z" fill="#2B2B2B"/>
<path fill-rule="evenodd" clip-rule="evenodd" d="M174.397 239.381C174.057 240.01 173.669 240.593 173.272 241.169C171.723 243.403 169.766 245.24 167.391 246.614C164.382 248.352 160.85 249.234 156.898 249.234C152.947 249.234 149.436 248.354 146.462 246.619C143.507 244.893 141.165 242.457 139.501 239.381C137.828 236.288 136.979 232.684 136.971 228.665C136.979 224.649 137.828 221.042 139.501 217.952C141.165 214.875 143.507 212.439 146.462 210.714C149.436 208.978 152.947 208.098 156.898 208.098C160.85 208.098 164.382 208.98 167.391 210.718C169.766 212.089 171.723 213.929 173.272 216.163C173.669 216.737 174.057 217.322 174.397 217.952C176.071 221.042 176.917 224.649 176.925 228.665C176.917 232.684 176.071 236.288 174.397 239.381V239.381ZM177.768 199.367L177.413 205.567L176.746 206.007C174.945 204.225 172.907 202.691 170.616 201.452C167.409 199.721 163.87 198.641 160.057 198.214C158.822 198.073 157.564 198.001 156.278 198.001C150.634 198.001 145.51 199.333 141.045 201.965C136.566 204.606 133.039 208.296 130.56 212.931C128.097 217.539 126.85 222.812 126.85 228.612C126.85 228.631 126.851 228.648 126.851 228.665C126.851 228.684 126.85 228.701 126.85 228.717C126.85 234.518 128.097 239.793 130.56 244.401C133.039 249.036 136.566 252.727 141.045 255.367C145.51 257.999 150.634 259.331 156.278 259.331C157.564 259.331 158.822 259.26 160.057 259.118C163.87 258.694 167.409 257.61 170.616 255.88C172.907 254.641 174.945 253.107 176.746 251.325L177.413 251.765L177.768 257.965H186.84V199.367H177.768V199.367Z" fill="#2B2B2B"/>
<path fill-rule="evenodd" clip-rule="evenodd" d="M301.233 239.381C300.893 240.01 300.502 240.593 300.106 241.169C298.559 243.403 296.601 245.24 294.226 246.614C291.215 248.352 287.686 249.234 283.731 249.234C279.782 249.234 276.272 248.354 273.298 246.619C270.342 244.893 267.998 242.457 266.336 239.381C264.661 236.288 263.814 232.684 263.806 228.665C263.814 224.649 264.661 221.042 266.336 217.952C267.998 214.875 270.342 212.439 273.298 210.714C276.272 208.978 279.782 208.098 283.731 208.098C287.686 208.098 291.215 208.98 294.226 210.718C296.601 212.089 298.559 213.929 300.106 216.163C300.502 216.737 300.893 217.322 301.233 217.952C302.906 221.042 303.753 224.649 303.761 228.665C303.753 232.684 302.906 236.288 301.233 239.381V239.381ZM304.603 199.367L304.248 205.567L303.581 206.007C301.781 204.225 299.742 202.691 297.452 201.452C294.245 199.721 290.703 198.641 286.893 198.214C285.658 198.073 284.4 198.001 283.113 198.001C277.47 198.001 272.345 199.333 267.881 201.965C263.402 204.606 259.874 208.296 257.394 212.931C254.932 217.539 253.685 222.812 253.685 228.612C253.685 228.631 253.687 228.648 253.687 228.665C253.687 228.684 253.685 228.701 253.685 228.717C253.685 234.518 254.932 239.793 257.394 244.401C259.874 249.036 263.402 252.727 267.881 255.367C272.345 257.999 277.47 259.331 283.113 259.331C284.4 259.331 285.658 259.26 286.893 259.118C290.703 258.694 294.245 257.61 297.452 255.88C299.742 254.641 301.781 253.107 303.581 251.325L304.248 251.765L304.603 257.965H313.676V199.367H304.603V199.367Z" fill="#2B2B2B"/>
<path fill-rule="evenodd" clip-rule="evenodd" d="M223.501 198C218.826 198 214.508 199.117 210.665 201.322C208.554 202.531 206.67 204.053 205.031 205.862L204.711 199.365H195.622V257.964H205.741V227.666C205.741 223.738 206.484 220.254 207.947 217.306C209.38 214.413 211.404 212.128 213.954 210.519C216.501 208.913 219.47 208.099 222.779 208.099C227.494 208.099 231.103 209.65 233.815 212.841C236.564 216.08 237.958 220.608 237.958 226.298V257.964H248.077V225.772C248.077 217.424 245.869 210.655 241.518 205.652C237.101 200.575 231.037 198 223.501 198Z" fill="#2B2B2B"/>
</g>
<path d="M89.5923 170.29H87.4673C87.4067 169.941 87.295 169.633 87.1321 169.364C86.9692 169.091 86.7666 168.86 86.5241 168.67C86.2817 168.481 86.0052 168.339 85.6946 168.244C85.3878 168.146 85.0563 168.097 84.7003 168.097C84.0677 168.097 83.5071 168.256 83.0185 168.574C82.5298 168.888 82.1473 169.35 81.8707 169.96C81.5942 170.566 81.456 171.307 81.456 172.182C81.456 173.072 81.5942 173.822 81.8707 174.432C82.151 175.038 82.5336 175.496 83.0185 175.807C83.5071 176.114 84.0658 176.267 84.6946 176.267C85.0431 176.267 85.3688 176.222 85.6719 176.131C85.9787 176.036 86.2533 175.898 86.4957 175.716C86.742 175.534 86.9484 175.311 87.1151 175.045C87.2855 174.78 87.4029 174.477 87.4673 174.136L89.5923 174.148C89.5128 174.701 89.3404 175.22 89.0753 175.705C88.8139 176.189 88.4711 176.617 88.0469 176.989C87.6226 177.356 87.1264 177.644 86.5582 177.852C85.9901 178.057 85.3594 178.159 84.6662 178.159C83.6435 178.159 82.7306 177.922 81.9276 177.449C81.1245 176.975 80.492 176.292 80.0298 175.398C79.5677 174.504 79.3366 173.432 79.3366 172.182C79.3366 170.928 79.5696 169.856 80.0355 168.966C80.5014 168.072 81.1359 167.388 81.9389 166.915C82.742 166.441 83.651 166.205 84.6662 166.205C85.3139 166.205 85.9162 166.295 86.473 166.477C87.0298 166.659 87.526 166.926 87.9616 167.278C88.3973 167.627 88.7552 168.055 89.0355 168.562C89.3196 169.066 89.5052 169.642 89.5923 170.29ZM95.2386 178.17C94.3864 178.17 93.6477 177.983 93.0227 177.608C92.3977 177.233 91.9129 176.708 91.5682 176.034C91.2273 175.36 91.0568 174.572 91.0568 173.67C91.0568 172.769 91.2273 171.979 91.5682 171.301C91.9129 170.623 92.3977 170.097 93.0227 169.722C93.6477 169.347 94.3864 169.159 95.2386 169.159C96.0909 169.159 96.8295 169.347 97.4545 169.722C98.0795 170.097 98.5625 170.623 98.9034 171.301C99.2481 171.979 99.4205 172.769 99.4205 173.67C99.4205 174.572 99.2481 175.36 98.9034 176.034C98.5625 176.708 98.0795 177.233 97.4545 177.608C96.8295 177.983 96.0909 178.17 95.2386 178.17ZM95.25 176.523C95.7121 176.523 96.0985 176.396 96.4091 176.142C96.7197 175.884 96.9508 175.54 97.1023 175.108C97.2576 174.676 97.3352 174.195 97.3352 173.665C97.3352 173.131 97.2576 172.648 97.1023 172.216C96.9508 171.78 96.7197 171.434 96.4091 171.176C96.0985 170.919 95.7121 170.79 95.25 170.79C94.7765 170.79 94.3826 170.919 94.0682 171.176C93.7576 171.434 93.5246 171.78 93.3693 172.216C93.2178 172.648 93.142 173.131 93.142 173.665C93.142 174.195 93.2178 174.676 93.3693 175.108C93.5246 175.54 93.7576 175.884 94.0682 176.142C94.3826 176.396 94.7765 176.523 95.25 176.523ZM100.683 175.608H102.723C102.742 175.934 102.888 176.186 103.161 176.364C103.433 176.542 103.787 176.631 104.223 176.631C104.666 176.631 105.039 176.534 105.342 176.341C105.649 176.144 105.803 175.847 105.803 175.449C105.803 175.214 105.744 175.008 105.626 174.83C105.509 174.648 105.344 174.508 105.132 174.409C104.92 174.311 104.67 174.261 104.382 174.261H103.047V172.801H104.382C104.81 172.801 105.134 172.703 105.354 172.506C105.577 172.309 105.689 172.061 105.689 171.761C105.689 171.439 105.571 171.178 105.337 170.977C105.106 170.777 104.786 170.676 104.376 170.676C103.967 170.676 103.626 170.769 103.354 170.955C103.085 171.14 102.945 171.379 102.933 171.67H100.905C100.912 171.163 101.064 170.722 101.359 170.347C101.659 169.972 102.06 169.68 102.564 169.472C103.071 169.263 103.643 169.159 104.28 169.159C104.962 169.159 105.551 169.261 106.047 169.466C106.543 169.67 106.926 169.956 107.195 170.324C107.464 170.687 107.598 171.116 107.598 171.608C107.598 172.081 107.45 172.473 107.155 172.784C106.859 173.091 106.462 173.311 105.962 173.443V173.534C106.306 173.553 106.617 173.652 106.893 173.83C107.17 174.004 107.39 174.241 107.553 174.54C107.715 174.839 107.797 175.186 107.797 175.58C107.797 176.114 107.643 176.576 107.337 176.966C107.03 177.352 106.607 177.65 106.07 177.858C105.536 178.066 104.924 178.17 104.234 178.17C103.564 178.17 102.964 178.07 102.433 177.869C101.907 177.665 101.488 177.371 101.178 176.989C100.867 176.606 100.702 176.146 100.683 175.608ZM108.643 180.534V176.307H109.337C109.522 176.163 109.678 175.968 109.803 175.722C109.928 175.472 110.03 175.178 110.109 174.841C110.193 174.5 110.261 174.119 110.314 173.699C110.367 173.275 110.414 172.818 110.456 172.33L110.706 169.273H117.013V176.307H118.365V180.534H116.376V178H110.666V180.534H108.643ZM111.45 176.307H115.047V170.932H112.49L112.354 172.33C112.278 173.254 112.178 174.045 112.053 174.705C111.928 175.364 111.727 175.898 111.45 176.307ZM122.412 178.176C121.859 178.176 121.361 178.078 120.918 177.881C120.478 177.68 120.13 177.384 119.872 176.994C119.618 176.604 119.491 176.123 119.491 175.551C119.491 175.059 119.582 174.652 119.764 174.33C119.946 174.008 120.194 173.75 120.509 173.557C120.823 173.364 121.177 173.218 121.571 173.119C121.969 173.017 122.38 172.943 122.804 172.898C123.315 172.845 123.73 172.797 124.048 172.756C124.366 172.71 124.598 172.642 124.741 172.551C124.889 172.456 124.963 172.311 124.963 172.114V172.08C124.963 171.652 124.836 171.32 124.582 171.085C124.329 170.85 123.963 170.733 123.486 170.733C122.982 170.733 122.582 170.843 122.287 171.062C121.995 171.282 121.798 171.542 121.696 171.841L119.776 171.568C119.927 171.038 120.177 170.595 120.526 170.239C120.874 169.879 121.3 169.61 121.804 169.432C122.308 169.25 122.865 169.159 123.474 169.159C123.895 169.159 124.313 169.208 124.73 169.307C125.147 169.405 125.527 169.568 125.872 169.795C126.217 170.019 126.493 170.324 126.702 170.71C126.914 171.097 127.02 171.58 127.02 172.159V178H125.043V176.801H124.974C124.849 177.044 124.673 177.271 124.446 177.483C124.223 177.691 123.94 177.86 123.599 177.989C123.262 178.114 122.866 178.176 122.412 178.176ZM122.946 176.665C123.359 176.665 123.717 176.583 124.02 176.42C124.323 176.254 124.556 176.034 124.719 175.761C124.885 175.489 124.969 175.191 124.969 174.869V173.841C124.904 173.894 124.795 173.943 124.639 173.989C124.488 174.034 124.317 174.074 124.128 174.108C123.938 174.142 123.751 174.172 123.565 174.199C123.38 174.225 123.219 174.248 123.082 174.267C122.776 174.309 122.501 174.377 122.259 174.472C122.016 174.566 121.825 174.699 121.685 174.869C121.545 175.036 121.474 175.252 121.474 175.517C121.474 175.896 121.613 176.182 121.889 176.375C122.166 176.568 122.518 176.665 122.946 176.665ZM129.088 178V169.273H132.753C133.787 169.273 134.603 169.479 135.202 169.892C135.804 170.305 136.105 170.881 136.105 171.619C136.105 172.108 135.935 172.508 135.594 172.818C135.257 173.125 134.796 173.331 134.213 173.438C134.671 173.475 135.073 173.591 135.418 173.784C135.766 173.977 136.039 174.231 136.236 174.545C136.433 174.86 136.531 175.222 136.531 175.631C136.531 176.112 136.404 176.53 136.151 176.886C135.901 177.239 135.535 177.513 135.054 177.71C134.577 177.903 133.997 178 133.315 178H129.088ZM131.014 176.381H133.315C133.694 176.381 133.991 176.292 134.207 176.114C134.423 175.932 134.531 175.686 134.531 175.375C134.531 175.015 134.423 174.733 134.207 174.528C133.991 174.32 133.694 174.216 133.315 174.216H131.014V176.381ZM131.014 172.886H132.793C133.073 172.886 133.313 172.847 133.514 172.767C133.715 172.684 133.868 172.568 133.974 172.42C134.08 172.269 134.134 172.089 134.134 171.881C134.134 171.581 134.01 171.347 133.764 171.176C133.522 171.006 133.185 170.92 132.753 170.92H131.014V172.886ZM140.74 178.176C140.187 178.176 139.689 178.078 139.246 177.881C138.806 177.68 138.458 177.384 138.2 176.994C137.946 176.604 137.82 176.123 137.82 175.551C137.82 175.059 137.911 174.652 138.092 174.33C138.274 174.008 138.522 173.75 138.837 173.557C139.151 173.364 139.505 173.218 139.899 173.119C140.297 173.017 140.708 172.943 141.132 172.898C141.643 172.845 142.058 172.797 142.376 172.756C142.695 172.71 142.926 172.642 143.07 172.551C143.217 172.456 143.291 172.311 143.291 172.114V172.08C143.291 171.652 143.164 171.32 142.911 171.085C142.657 170.85 142.291 170.733 141.814 170.733C141.31 170.733 140.911 170.843 140.615 171.062C140.323 171.282 140.126 171.542 140.024 171.841L138.104 171.568C138.255 171.038 138.505 170.595 138.854 170.239C139.202 169.879 139.628 169.61 140.132 169.432C140.636 169.25 141.193 169.159 141.803 169.159C142.223 169.159 142.642 169.208 143.058 169.307C143.475 169.405 143.856 169.568 144.2 169.795C144.545 170.019 144.821 170.324 145.03 170.71C145.242 171.097 145.348 171.58 145.348 172.159V178H143.371V176.801H143.303C143.178 177.044 143.001 177.271 142.774 177.483C142.551 177.691 142.268 177.86 141.928 177.989C141.59 178.114 141.195 178.176 140.74 178.176ZM141.274 176.665C141.687 176.665 142.045 176.583 142.348 176.42C142.651 176.254 142.884 176.034 143.047 175.761C143.214 175.489 143.297 175.191 143.297 174.869V173.841C143.232 173.894 143.123 173.943 142.967 173.989C142.816 174.034 142.645 174.074 142.456 174.108C142.267 174.142 142.079 174.172 141.893 174.199C141.708 174.225 141.547 174.248 141.411 174.267C141.104 174.309 140.829 174.377 140.587 174.472C140.344 174.566 140.153 174.699 140.013 174.869C139.873 175.036 139.803 175.252 139.803 175.517C139.803 175.896 139.941 176.182 140.217 176.375C140.494 176.568 140.846 176.665 141.274 176.665ZM149.399 175.216L152.893 169.273H155.007V178H153.018V172.051L149.536 178H147.416V169.273H149.399V175.216ZM152.331 166.273H153.871C153.871 166.936 153.63 167.473 153.149 167.886C152.672 168.295 152.024 168.5 151.206 168.5C150.395 168.5 149.75 168.295 149.268 167.886C148.791 167.473 148.554 166.936 148.558 166.273H150.087C150.087 166.545 150.17 166.79 150.337 167.006C150.507 167.218 150.797 167.324 151.206 167.324C151.607 167.324 151.893 167.218 152.064 167.006C152.238 166.794 152.327 166.549 152.331 166.273ZM164.202 170.852C163.914 170.856 163.649 170.919 163.406 171.04C163.164 171.161 162.969 171.326 162.821 171.534C162.677 171.739 162.605 171.977 162.605 172.25H160.713C160.713 171.811 160.804 171.402 160.986 171.023C161.168 170.644 161.418 170.314 161.736 170.034C162.058 169.754 162.429 169.536 162.849 169.381C163.274 169.222 163.724 169.142 164.202 169.142C165.05 169.142 165.766 169.339 166.349 169.733C166.937 170.127 167.38 170.657 167.679 171.324C167.982 171.987 168.134 172.722 168.134 173.528V173.773C168.134 174.58 167.984 175.316 167.685 175.983C167.385 176.646 166.942 177.174 166.355 177.568C165.772 177.962 165.054 178.159 164.202 178.159C163.52 178.159 162.916 178.021 162.389 177.744C161.866 177.464 161.455 177.074 161.156 176.574C160.861 176.074 160.713 175.491 160.713 174.824H162.605C162.605 175.112 162.673 175.379 162.81 175.625C162.946 175.867 163.134 176.062 163.372 176.21C163.615 176.358 163.891 176.434 164.202 176.438C164.668 176.434 165.043 176.295 165.327 176.023C165.615 175.75 165.823 175.409 165.952 175C166.084 174.591 166.151 174.182 166.151 173.773V173.528C166.151 173.089 166.084 172.667 165.952 172.261C165.823 171.852 165.615 171.517 165.327 171.256C165.043 170.991 164.668 170.856 164.202 170.852ZM166.793 172.943V174.307H163.469V172.943H166.793ZM174.892 175.608L177.483 169.273H179.142L175.614 178H174.176L170.727 169.273H172.369L174.892 175.608ZM171.852 169.273V178H169.869V169.273H171.852ZM178.017 178V169.273H179.983V178H178.017ZM185.864 178.17C185.011 178.17 184.273 177.983 183.648 177.608C183.023 177.233 182.538 176.708 182.193 176.034C181.852 175.36 181.682 174.572 181.682 173.67C181.682 172.769 181.852 171.979 182.193 171.301C182.538 170.623 183.023 170.097 183.648 169.722C184.273 169.347 185.011 169.159 185.864 169.159C186.716 169.159 187.455 169.347 188.08 169.722C188.705 170.097 189.188 170.623 189.528 171.301C189.873 171.979 190.045 172.769 190.045 173.67C190.045 174.572 189.873 175.36 189.528 176.034C189.188 176.708 188.705 177.233 188.08 177.608C187.455 177.983 186.716 178.17 185.864 178.17ZM185.875 176.523C186.337 176.523 186.723 176.396 187.034 176.142C187.345 175.884 187.576 175.54 187.727 175.108C187.883 174.676 187.96 174.195 187.96 173.665C187.96 173.131 187.883 172.648 187.727 172.216C187.576 171.78 187.345 171.434 187.034 171.176C186.723 170.919 186.337 170.79 185.875 170.79C185.402 170.79 185.008 170.919 184.693 171.176C184.383 171.434 184.15 171.78 183.994 172.216C183.843 172.648 183.767 173.131 183.767 173.665C183.767 174.195 183.843 174.676 183.994 175.108C184.15 175.54 184.383 175.884 184.693 176.142C185.008 176.396 185.402 176.523 185.875 176.523ZM199.161 169.273V176.466H200.496V180.807H198.484V178H191.791V169.273H193.774V176.312H197.195V169.273H199.161ZM204.165 175.216L207.659 169.273H209.773V178H207.784V172.051L204.301 178H202.182V169.273H204.165V175.216ZM213.868 175.216L217.362 169.273H219.476V178H217.487V172.051L214.004 178H211.885V169.273H213.868V175.216ZM225.557 178V169.273H229.222C230.256 169.273 231.072 169.479 231.67 169.892C232.273 170.305 232.574 170.881 232.574 171.619C232.574 172.108 232.403 172.508 232.062 172.818C231.725 173.125 231.265 173.331 230.682 173.438C231.14 173.475 231.542 173.591 231.886 173.784C232.235 173.977 232.508 174.231 232.705 174.545C232.902 174.86 233 175.222 233 175.631C233 176.112 232.873 176.53 232.619 176.886C232.369 177.239 232.004 177.513 231.523 177.71C231.045 177.903 230.466 178 229.784 178H225.557ZM227.483 176.381H229.784C230.163 176.381 230.46 176.292 230.676 176.114C230.892 175.932 231 175.686 231 175.375C231 175.015 230.892 174.733 230.676 174.528C230.46 174.32 230.163 174.216 229.784 174.216H227.483V176.381ZM227.483 172.886H229.261C229.542 172.886 229.782 172.847 229.983 172.767C230.184 172.684 230.337 172.568 230.443 172.42C230.549 172.269 230.602 172.089 230.602 171.881C230.602 171.581 230.479 171.347 230.233 171.176C229.991 171.006 229.653 170.92 229.222 170.92H227.483V172.886ZM239.72 175.608L242.311 169.273H243.97L240.442 178H239.004L235.555 169.273H237.197L239.72 175.608ZM236.68 169.273V178H234.697V169.273H236.68ZM242.845 178V169.273H244.811V178H242.845ZM250.749 178.17C249.874 178.17 249.118 177.989 248.482 177.625C247.849 177.258 247.362 176.739 247.021 176.068C246.68 175.394 246.51 174.6 246.51 173.688C246.51 172.79 246.68 172.002 247.021 171.324C247.366 170.642 247.847 170.112 248.464 169.733C249.082 169.35 249.807 169.159 250.641 169.159C251.179 169.159 251.686 169.246 252.163 169.42C252.644 169.591 253.069 169.856 253.436 170.216C253.807 170.576 254.099 171.034 254.311 171.591C254.523 172.144 254.629 172.803 254.629 173.568V174.199H247.476V172.812H252.658C252.654 172.419 252.569 172.068 252.402 171.761C252.235 171.451 252.002 171.206 251.703 171.028C251.408 170.85 251.063 170.761 250.669 170.761C250.249 170.761 249.879 170.864 249.561 171.068C249.243 171.269 248.995 171.534 248.817 171.864C248.643 172.189 248.554 172.547 248.55 172.938V174.148C248.55 174.655 248.643 175.091 248.828 175.455C249.014 175.814 249.273 176.091 249.607 176.284C249.94 176.473 250.33 176.568 250.777 176.568C251.076 176.568 251.347 176.527 251.589 176.443C251.832 176.356 252.042 176.229 252.22 176.062C252.398 175.896 252.533 175.689 252.624 175.443L254.544 175.659C254.423 176.167 254.192 176.61 253.851 176.989C253.514 177.364 253.082 177.655 252.555 177.864C252.029 178.068 251.427 178.17 250.749 178.17ZM260.176 178.17C259.305 178.17 258.557 177.979 257.932 177.597C257.311 177.214 256.831 176.686 256.494 176.011C256.161 175.333 255.994 174.553 255.994 173.67C255.994 172.784 256.165 172.002 256.506 171.324C256.847 170.642 257.328 170.112 257.949 169.733C258.574 169.35 259.313 169.159 260.165 169.159C260.873 169.159 261.5 169.29 262.045 169.551C262.595 169.809 263.032 170.174 263.358 170.648C263.684 171.117 263.869 171.667 263.915 172.295H261.949C261.869 171.875 261.68 171.525 261.381 171.244C261.085 170.96 260.689 170.818 260.193 170.818C259.773 170.818 259.403 170.932 259.085 171.159C258.767 171.383 258.519 171.705 258.341 172.125C258.167 172.545 258.08 173.049 258.08 173.636C258.08 174.231 258.167 174.742 258.341 175.17C258.515 175.595 258.759 175.922 259.074 176.153C259.392 176.381 259.765 176.494 260.193 176.494C260.496 176.494 260.767 176.437 261.006 176.324C261.248 176.206 261.451 176.038 261.614 175.818C261.777 175.598 261.888 175.331 261.949 175.017H263.915C263.866 175.634 263.684 176.182 263.369 176.659C263.055 177.133 262.627 177.504 262.085 177.773C261.544 178.038 260.907 178.17 260.176 178.17ZM264.97 170.96V169.273H272.607V170.96H269.783V178H267.794V170.96H264.97ZM277.749 178.17C276.874 178.17 276.118 177.989 275.482 177.625C274.849 177.258 274.362 176.739 274.021 176.068C273.68 175.394 273.51 174.6 273.51 173.688C273.51 172.79 273.68 172.002 274.021 171.324C274.366 170.642 274.847 170.112 275.464 169.733C276.082 169.35 276.807 169.159 277.641 169.159C278.179 169.159 278.686 169.246 279.163 169.42C279.644 169.591 280.069 169.856 280.436 170.216C280.807 170.576 281.099 171.034 281.311 171.591C281.523 172.144 281.629 172.803 281.629 173.568V174.199H274.476V172.812H279.658C279.654 172.419 279.569 172.068 279.402 171.761C279.235 171.451 279.002 171.206 278.703 171.028C278.408 170.85 278.063 170.761 277.669 170.761C277.249 170.761 276.879 170.864 276.561 171.068C276.243 171.269 275.995 171.534 275.817 171.864C275.643 172.189 275.554 172.547 275.55 172.938V174.148C275.55 174.655 275.643 175.091 275.828 175.455C276.014 175.814 276.273 176.091 276.607 176.284C276.94 176.473 277.33 176.568 277.777 176.568C278.076 176.568 278.347 176.527 278.589 176.443C278.832 176.356 279.042 176.229 279.22 176.062C279.398 175.896 279.533 175.689 279.624 175.443L281.544 175.659C281.423 176.167 281.192 176.61 280.851 176.989C280.514 177.364 280.082 177.655 279.555 177.864C279.029 178.068 278.427 178.17 277.749 178.17ZM291.145 178.17C290.274 178.17 289.526 177.979 288.901 177.597C288.279 177.214 287.8 176.686 287.463 176.011C287.13 175.333 286.963 174.553 286.963 173.67C286.963 172.784 287.134 172.002 287.474 171.324C287.815 170.642 288.296 170.112 288.918 169.733C289.543 169.35 290.281 169.159 291.134 169.159C291.842 169.159 292.469 169.29 293.014 169.551C293.563 169.809 294.001 170.174 294.327 170.648C294.652 171.117 294.838 171.667 294.884 172.295H292.918C292.838 171.875 292.649 171.525 292.349 171.244C292.054 170.96 291.658 170.818 291.162 170.818C290.741 170.818 290.372 170.932 290.054 171.159C289.736 171.383 289.488 171.705 289.31 172.125C289.135 172.545 289.048 173.049 289.048 173.636C289.048 174.231 289.135 174.742 289.31 175.17C289.484 175.595 289.728 175.922 290.043 176.153C290.361 176.381 290.734 176.494 291.162 176.494C291.465 176.494 291.736 176.437 291.974 176.324C292.217 176.206 292.42 176.038 292.582 175.818C292.745 175.598 292.857 175.331 292.918 175.017H294.884C294.834 175.634 294.652 176.182 294.338 176.659C294.024 177.133 293.596 177.504 293.054 177.773C292.512 178.038 291.876 178.17 291.145 178.17Z" fill="#E56553"/>
<g filter="url(#filter0_d_896_4057)">
<path d="M119.003 383.976L0 455.085V732H375V455.085L255.986 383.976C213.644 358.675 161.346 358.675 119.003 383.976Z" fill="white"/>
<rect y="713" width="375" height="99" fill="white"/>
</g>
<g clip-path="url(#clip1_896_4057)">
<path d="M165 414C165 409.029 169.029 405 174 405H201C205.971 405 210 409.029 210 414V441.5C210 446.471 205.971 450.5 201 450.5H174C169.029 450.5 165 446.471 165 441.5V414Z" fill="#E56553"/>
<path d="M200.147 446.011C203.259 446.011 205.781 443.379 205.781 440.133V427.218C205.781 425.124 204.714 423.189 202.978 422.136L193.154 416.177C189.658 414.057 185.341 414.057 181.846 416.177L172.022 422.136C170.286 423.189 169.219 425.124 169.219 427.218V440.133C169.219 443.379 171.741 446.011 174.854 446.011H200.147Z" fill="#F5F5F5"/>
</g>
<path d="M112.002 486H108.627L114.772 468.545H118.675L124.829 486H121.454L116.792 472.125H116.656L112.002 486ZM112.113 479.156H121.317V481.696H112.113V479.156ZM126.991 486V472.909H132.489C134.04 472.909 135.264 473.219 136.162 473.838C137.065 474.457 137.517 475.321 137.517 476.429C137.517 477.162 137.261 477.761 136.75 478.227C136.244 478.687 135.554 478.997 134.679 479.156C135.366 479.213 135.969 479.386 136.486 479.676C137.009 479.966 137.418 480.347 137.713 480.818C138.009 481.29 138.156 481.832 138.156 482.446C138.156 483.168 137.966 483.795 137.585 484.33C137.21 484.858 136.662 485.27 135.94 485.565C135.224 485.855 134.355 486 133.332 486H126.991ZM129.881 483.571H133.332C133.901 483.571 134.347 483.437 134.67 483.17C134.994 482.898 135.156 482.528 135.156 482.062C135.156 481.523 134.994 481.099 134.67 480.793C134.347 480.48 133.901 480.324 133.332 480.324H129.881V483.571ZM129.881 478.33H132.548C132.969 478.33 133.33 478.27 133.631 478.151C133.932 478.026 134.162 477.852 134.321 477.631C134.48 477.403 134.56 477.134 134.56 476.821C134.56 476.372 134.375 476.02 134.006 475.764C133.642 475.509 133.136 475.381 132.489 475.381H129.881V478.33ZM139.987 475.44V472.909H151.441V475.44H147.205V486H144.222V475.44H139.987ZM159.069 486.256C157.79 486.256 156.683 485.974 155.745 485.412C154.808 484.849 154.08 484.062 153.563 483.051C153.052 482.04 152.796 480.858 152.796 479.506C152.796 478.153 153.052 476.969 153.563 475.952C154.08 474.935 154.808 474.145 155.745 473.582C156.683 473.02 157.79 472.739 159.069 472.739C160.347 472.739 161.455 473.02 162.393 473.582C163.33 474.145 164.055 474.935 164.566 475.952C165.083 476.969 165.342 478.153 165.342 479.506C165.342 480.858 165.083 482.04 164.566 483.051C164.055 484.062 163.33 484.849 162.393 485.412C161.455 485.974 160.347 486.256 159.069 486.256ZM159.086 483.784C159.779 483.784 160.359 483.594 160.825 483.213C161.29 482.827 161.637 482.31 161.864 481.662C162.097 481.014 162.214 480.293 162.214 479.497C162.214 478.696 162.097 477.972 161.864 477.324C161.637 476.67 161.29 476.151 160.825 475.764C160.359 475.378 159.779 475.185 159.086 475.185C158.376 475.185 157.785 475.378 157.313 475.764C156.847 476.151 156.498 476.67 156.265 477.324C156.038 477.972 155.924 478.696 155.924 479.497C155.924 480.293 156.038 481.014 156.265 481.662C156.498 482.31 156.847 482.827 157.313 483.213C157.785 483.594 158.376 483.784 159.086 483.784ZM167.96 490.909V472.909H170.994V475.074H171.173C171.332 474.756 171.557 474.418 171.847 474.06C172.136 473.696 172.528 473.386 173.023 473.131C173.517 472.869 174.148 472.739 174.915 472.739C175.926 472.739 176.838 472.997 177.651 473.514C178.469 474.026 179.116 474.784 179.594 475.79C180.077 476.79 180.318 478.017 180.318 479.472C180.318 480.909 180.082 482.131 179.611 483.136C179.139 484.142 178.497 484.909 177.685 485.438C176.872 485.966 175.952 486.23 174.923 486.23C174.173 486.23 173.551 486.105 173.057 485.855C172.563 485.605 172.165 485.304 171.864 484.952C171.568 484.594 171.338 484.256 171.173 483.938H171.045V490.909H167.96ZM170.986 479.455C170.986 480.301 171.105 481.043 171.344 481.679C171.588 482.315 171.938 482.812 172.392 483.17C172.852 483.523 173.409 483.699 174.062 483.699C174.744 483.699 175.315 483.517 175.776 483.153C176.236 482.784 176.582 482.281 176.815 481.645C177.054 481.003 177.173 480.273 177.173 479.455C177.173 478.642 177.057 477.92 176.824 477.29C176.591 476.659 176.244 476.165 175.784 475.807C175.324 475.449 174.75 475.27 174.062 475.27C173.403 475.27 172.844 475.443 172.384 475.79C171.923 476.136 171.574 476.622 171.335 477.247C171.102 477.872 170.986 478.608 170.986 479.455ZM185.935 481.824L191.176 472.909H194.347V486H191.364V477.077L186.139 486H182.96V472.909H185.935V481.824ZM196.79 482.412H199.85C199.879 482.901 200.097 483.278 200.506 483.545C200.915 483.812 201.447 483.946 202.1 483.946C202.765 483.946 203.325 483.801 203.779 483.511C204.239 483.216 204.469 482.77 204.469 482.173C204.469 481.821 204.381 481.511 204.205 481.244C204.029 480.972 203.782 480.761 203.464 480.614C203.146 480.466 202.771 480.392 202.339 480.392H200.336V478.202H202.339C202.981 478.202 203.467 478.054 203.796 477.759C204.131 477.463 204.299 477.091 204.299 476.642C204.299 476.159 204.123 475.767 203.771 475.466C203.424 475.165 202.944 475.014 202.33 475.014C201.717 475.014 201.205 475.153 200.796 475.432C200.393 475.71 200.183 476.068 200.165 476.506H197.123C197.134 475.744 197.362 475.082 197.805 474.52C198.254 473.957 198.856 473.52 199.612 473.207C200.373 472.895 201.231 472.739 202.185 472.739C203.208 472.739 204.092 472.892 204.836 473.199C205.58 473.506 206.154 473.935 206.558 474.486C206.961 475.031 207.163 475.673 207.163 476.412C207.163 477.122 206.941 477.71 206.498 478.176C206.055 478.636 205.458 478.966 204.708 479.165V479.301C205.225 479.33 205.691 479.477 206.106 479.744C206.521 480.006 206.85 480.361 207.094 480.81C207.339 481.259 207.461 481.778 207.461 482.369C207.461 483.17 207.231 483.864 206.771 484.449C206.31 485.028 205.677 485.474 204.87 485.787C204.069 486.099 203.151 486.256 202.117 486.256C201.112 486.256 200.211 486.105 199.415 485.804C198.626 485.497 197.998 485.057 197.532 484.483C197.066 483.909 196.819 483.219 196.79 482.412ZM213.657 486.264C212.827 486.264 212.08 486.116 211.415 485.821C210.756 485.52 210.234 485.077 209.847 484.491C209.467 483.906 209.276 483.185 209.276 482.327C209.276 481.588 209.413 480.977 209.685 480.494C209.958 480.011 210.33 479.625 210.802 479.335C211.273 479.045 211.805 478.827 212.396 478.679C212.992 478.526 213.609 478.415 214.245 478.347C215.012 478.267 215.634 478.196 216.112 478.134C216.589 478.065 216.935 477.963 217.151 477.827C217.373 477.685 217.484 477.466 217.484 477.17V477.119C217.484 476.477 217.293 475.98 216.913 475.628C216.532 475.276 215.984 475.099 215.268 475.099C214.512 475.099 213.913 475.264 213.469 475.594C213.032 475.923 212.737 476.312 212.583 476.761L209.702 476.352C209.93 475.557 210.305 474.892 210.827 474.358C211.35 473.818 211.989 473.415 212.745 473.148C213.501 472.875 214.336 472.739 215.251 472.739C215.881 472.739 216.509 472.812 217.134 472.96C217.759 473.108 218.33 473.352 218.847 473.693C219.364 474.028 219.779 474.486 220.092 475.065C220.41 475.645 220.569 476.369 220.569 477.239V486H217.603V484.202H217.501C217.313 484.565 217.049 484.906 216.708 485.224C216.373 485.537 215.95 485.79 215.438 485.983C214.933 486.17 214.339 486.264 213.657 486.264ZM214.458 483.997C215.077 483.997 215.614 483.875 216.069 483.631C216.523 483.381 216.873 483.051 217.117 482.642C217.367 482.233 217.492 481.787 217.492 481.304V479.761C217.396 479.841 217.231 479.915 216.998 479.983C216.771 480.051 216.515 480.111 216.231 480.162C215.947 480.213 215.665 480.259 215.387 480.298C215.109 480.338 214.867 480.372 214.663 480.401C214.202 480.463 213.79 480.565 213.427 480.707C213.063 480.849 212.776 481.048 212.566 481.304C212.356 481.554 212.251 481.878 212.251 482.276C212.251 482.844 212.458 483.273 212.873 483.562C213.288 483.852 213.816 483.997 214.458 483.997ZM234.725 472.909V483.699H236.728V490.21H233.711V486H223.671V472.909H226.646V483.469H231.776V472.909H234.725ZM242.232 481.824L247.473 472.909H250.643V486H247.661V477.077L242.436 486H239.257V472.909H242.232V481.824ZM261.55 486V475.415H258.755C258.045 475.415 257.499 475.58 257.119 475.909C256.738 476.239 256.55 476.648 256.556 477.136C256.55 477.625 256.729 478.028 257.093 478.347C257.457 478.665 257.977 478.824 258.653 478.824H262.522V481.074H258.653C257.607 481.074 256.704 480.909 255.942 480.58C255.181 480.25 254.596 479.784 254.187 479.182C253.778 478.58 253.573 477.875 253.573 477.068C253.573 476.227 253.781 475.497 254.195 474.878C254.616 474.253 255.212 473.77 255.985 473.429C256.763 473.082 257.687 472.909 258.755 472.909H264.44V486H261.55ZM253.096 486L256.752 479.284H259.795L256.13 486H253.096Z" fill="#2B2B2B"/>
<defs>
<filter id="filter0_d_896_4057" x="-12" y="351" width="399" height="471" filterUnits="userSpaceOnUse" color-interpolation-filters="sRGB">
<feFlood flood-opacity="0" result="BackgroundImageFix"/>
<feColorMatrix in="SourceAlpha" type="matrix" values="0 0 0 0 0 0 0 0 0 0 0 0 0 0 0 0 0 0 127 0" result="hardAlpha"/>
<feOffset dy="-2"/>
<feGaussianBlur stdDeviation="6"/>
<feComposite in2="hardAlpha" operator="out"/>
<feColorMatrix type="matrix" values="0 0 0 0 0 0 0 0 0 0 0 0 0 0 0 0 0 0 0.02 0"/>
<feBlend mode="normal" in2="BackgroundImageFix" result="effect1_dropShadow_896_4057"/>
<feBlend mode="normal" in="SourceGraphic" in2="effect1_dropShadow_896_4057" result="shape"/>
</filter>
<clipPath id="clip0_896_4057">
<rect width="253" height="75" fill="white" transform="translate(61 198)"/>
</clipPath>
<clipPath id="clip1_896_4057">
<rect width="45" height="45.5" fill="white" transform="translate(165 405)"/>
</clipPath>
</defs>
</svg>
