<svg width="154" height="110" viewBox="0 0 154 110" fill="none" xmlns="http://www.w3.org/2000/svg">
<path fill-rule="evenodd" clip-rule="evenodd" d="M43.4524 25.6085C44.955 25.5933 59.796 24.561 76.4324 23.3146C93.0688 22.0679 106.992 21.0271 107.373 21.0014C107.77 20.9745 108.217 21.3502 108.42 21.8829C108.614 22.3934 108.893 24.54 109.04 26.6528C109.286 30.1976 109.594 31.2914 113.014 40.8128C115.053 46.488 118.288 55.7746 120.203 61.4498C122.118 67.1249 124.205 73.5465 124.842 75.72C125.479 77.8935 126 80.2072 126 80.8618C126 81.8994 125.838 82.0793 124.732 82.2709C124.034 82.392 118.057 83.1022 111.449 83.8498C104.841 84.5974 92.5466 85.8995 84.1279 86.7441C75.7096 87.5882 65.958 88.4795 62.4586 88.724C56.1597 89.1644 56.0473 89.1582 51.3352 88.1069C48.7167 87.5228 46.3554 86.8718 46.0869 86.66C45.8188 86.4477 45.5963 85.8142 45.5932 85.2516C45.5897 84.6885 45.4371 83.9919 45.2536 83.7034C44.9871 83.2841 43.3455 83.205 37.0937 83.3117C32.7895 83.3853 29.1504 83.3284 29.0068 83.1856C28.8635 83.0423 31.009 72.1794 33.775 59.0462L38.8036 35.1669L38.3832 30.6287L37.9633 26.0909L39.3418 25.8631C40.1002 25.7381 41.9498 25.6233 43.4524 25.6085ZM107.262 28.0607C107.261 27.472 107.148 26.0703 107.013 24.9457C106.876 23.8072 106.575 22.9214 106.333 22.9463C106.095 22.9712 92.0427 24.0194 75.1058 25.2759C58.1693 26.5321 44.29 27.6071 44.2631 27.6644C44.2365 27.7216 44.2752 28.998 44.3497 30.5002L44.4851 33.2321L49.0426 32.9396C51.5491 32.7788 58.3422 32.2929 64.1381 31.8599C69.934 31.4269 80.5598 30.6376 87.751 30.1061C94.9422 29.5746 102.275 29.1378 104.046 29.1354L107.266 29.1315L107.262 28.0607ZM116.544 56.7773C114.578 51.1021 111.721 43.042 110.195 38.8659L107.421 31.2731L104.709 31.2151C103.217 31.1832 95.0593 31.6461 86.5801 32.2438C78.1009 32.8419 65.3543 33.7289 58.254 34.2145L45.3446 35.0979L46.2633 39.9998C46.7684 42.6955 49.0411 54.2755 51.313 65.7329C53.5853 77.1903 55.5937 86.7246 55.7764 86.9201C55.9762 87.1346 58.7899 87.0879 62.8552 86.8029C66.5661 86.5428 74.7834 85.8111 81.116 85.1772C87.4485 84.5433 98.9041 83.323 106.573 82.4656C114.241 81.6082 121.319 80.7967 122.301 80.6624C124.058 80.4221 124.082 80.3996 123.821 79.2166C123.676 78.5555 122.783 75.5581 121.837 72.5552C120.891 69.5527 118.509 62.4524 116.544 56.7773ZM49.3478 65.6987C47.1146 54.4741 44.8832 43.0568 44.3887 40.3261C43.6066 36.0048 43.3935 35.3616 42.7421 35.3616C42.0415 35.3616 42.011 35.5777 42.2616 38.7686C42.4088 40.6427 42.9599 46.2933 43.486 51.326C44.0125 56.3587 45.0546 65.5406 45.8016 71.7301C46.549 77.92 47.1602 83.2953 47.1602 83.6758C47.1602 84.0562 47.4092 84.6157 47.7133 84.9191C48.0177 85.2228 49.3392 85.6982 50.6502 85.9758C51.9613 86.2534 53.1181 86.3963 53.2211 86.2935C53.3242 86.1908 51.5815 76.9232 49.3478 65.6987ZM44.5659 77.3959C44.2951 75.3038 43.4466 68.1003 42.6796 61.3883C41.9127 54.6762 41.047 46.5561 40.7559 43.3438C40.4647 40.1314 40.2055 37.6538 40.1806 37.8376C40.1556 38.0218 38.0917 47.8839 35.5946 59.7533C33.0975 71.6226 31.1214 81.3979 31.2038 81.4758C31.2861 81.5537 34.437 81.5237 38.2057 81.4084L45.0577 81.1997L44.5659 77.3959Z" fill="#2B2B2B"/>
<path fill-rule="evenodd" clip-rule="evenodd" d="M93.9957 37.148C90.0245 37.4315 80.7159 38.1156 73.31 38.6685C65.9042 39.2214 59.6032 39.7576 59.3082 39.8604C58.9214 39.9947 58.8371 40.4534 59.0065 41.5009C59.1361 42.3002 61.5379 51.5401 64.3438 62.0338C67.15 72.5275 69.6623 81.3313 69.9266 81.5981C70.3098 81.9851 71.8258 81.9224 77.4203 81.2893C81.2775 80.8532 89.7903 79.8147 96.3375 78.9818C102.885 78.149 110.561 77.1627 113.397 76.79C116.873 76.3333 118.618 75.9404 118.755 75.5841C118.867 75.2937 118.093 72.1907 117.034 68.6894C115.976 65.1878 113.449 57.3516 111.42 51.2758C109.391 45.1999 107.369 39.3963 106.927 38.3792L106.123 36.5297L103.67 36.5811C102.32 36.6095 97.967 36.8645 93.9957 37.148ZM106.485 42.9692C106.485 42.8699 106.121 41.8186 105.677 40.6329L104.868 38.4766H102.58H100.292L101.082 40.8128L101.873 43.1491H104.179C105.447 43.1491 106.485 43.0681 106.485 42.9692ZM99.7514 43.3574C99.8045 43.3157 99.5251 42.3318 99.1305 41.1711L98.4131 39.0606L96.302 39.0174C95.1409 38.9937 93.6199 39.0486 92.9224 39.1393C92.225 39.2304 91.654 39.3745 91.654 39.4601C91.654 39.5454 92.0115 40.5687 92.4486 41.7337L93.2429 43.8523L96.4491 43.6432C98.2125 43.5279 99.6983 43.3995 99.7514 43.3574ZM91.1813 43.8468L90.3441 41.5515C89.884 40.2891 89.3317 39.2896 89.117 39.3309C88.9024 39.3717 87.6292 39.4675 86.2874 39.5435C84.9459 39.6198 83.848 39.7895 83.848 39.9212C83.848 40.0528 84.1435 41.0955 84.5049 42.2387L85.1614 44.3172H86.993C88 44.3172 89.3547 44.2113 90.0026 44.082L91.1813 43.8468ZM82.941 44.573C83.0444 44.4699 82.8196 43.4065 82.4414 42.2099L81.7541 40.0341L79.7761 40.0613C78.6883 40.0765 77.512 40.2077 77.1615 40.3534C76.5737 40.5975 76.5757 40.7836 77.1833 42.7597L77.8426 44.9013L80.2979 44.8308C81.6483 44.7923 82.8376 44.6762 82.941 44.573ZM75.8969 45.2907L75.1749 42.8571C74.5563 40.7712 74.3295 40.4336 73.5887 40.4955C73.1133 40.5352 71.8285 40.631 70.7333 40.7085L68.7416 40.8494L69.3442 43.3621L69.9469 45.8747L71.5311 45.8521C72.4022 45.8401 73.7409 45.7085 74.5059 45.5601L75.8969 45.2907ZM67.4412 46.2731C67.7917 46.0569 67.7831 45.4242 67.4049 43.5961L66.9092 41.2022L64.9382 41.2606C63.854 41.2925 62.4981 41.3907 61.9251 41.4783L60.8826 41.6371L61.5848 44.163C61.9708 45.5519 62.3712 46.7726 62.4743 46.8754C62.5773 46.9782 63.6338 46.9486 64.8219 46.8092C66.01 46.6698 67.1886 46.4288 67.4412 46.2731ZM109.941 52.8835L108.569 48.795C107.525 45.6835 107.042 44.7229 106.548 44.7747C106.192 44.8121 105.139 44.9106 104.209 44.9932C103.109 45.0913 102.579 45.3058 102.693 45.6068C102.79 45.8611 103.337 47.6028 103.909 49.4764L104.949 52.8835H107.445H109.941ZM102.848 52.7476C102.906 52.6908 102.392 50.9456 101.707 48.8698C101.021 46.794 100.279 45.1306 100.058 45.1735C99.8361 45.2159 98.3819 45.3113 96.8254 45.3853C95.2689 45.4589 93.9957 45.6294 93.9957 45.7634C93.9957 45.8977 94.5667 47.6608 95.2642 49.6813L96.5327 53.3554L99.6382 53.1035C101.347 52.9653 102.791 52.8048 102.848 52.7476ZM94.233 53.1658C94.322 53.077 93.8357 51.4004 93.1519 49.4398L91.9096 45.8747L90.5131 45.9429C89.7454 45.9802 88.3891 46.0768 87.4996 46.1578L85.8823 46.305L87.1094 50.0313L88.3364 53.758L91.2039 53.5427C92.7811 53.424 94.144 53.2546 94.233 53.1658ZM85.9701 53.6221C86.0868 53.5053 85.6859 51.9338 85.0794 50.129L83.9764 46.8482L82.2533 46.8007C81.3057 46.7742 80.0774 46.8267 79.5236 46.9175L78.5166 47.0818L79.5236 50.5998L80.5305 54.1182L83.1439 53.9761C84.5814 53.8978 85.853 53.7386 85.9701 53.6221ZM78.1934 53.9819C78.3324 53.8433 78.0389 52.3131 77.5412 50.5811L76.6365 47.4322L75.0707 47.4976C74.2097 47.5339 72.8292 47.6328 72.0029 47.718C70.8188 47.8403 70.5397 48.0124 70.6857 48.5287C70.788 48.8893 71.1978 50.3841 71.597 51.8505L72.3226 54.5169L75.1319 54.3752C76.6767 54.2973 78.0549 54.1205 78.1934 53.9819ZM69.8583 52.8122C69.6342 52.102 69.2588 50.7762 69.0238 49.8658C68.7206 48.6915 68.4025 48.225 67.9283 48.2596C67.561 48.2861 66.3269 48.4438 65.186 48.6093C64.0448 48.7752 63.0609 48.9726 62.9996 49.0477C62.9383 49.1229 63.2455 50.4775 63.683 52.0576L64.478 54.9312L67.184 54.705C68.6722 54.5804 69.9742 54.3943 70.0776 54.2911C70.181 54.1883 70.0823 53.5225 69.8583 52.8122ZM111.892 59.2786C111.968 59.2144 111.691 58.1436 111.277 56.8991C110.56 54.7478 110.457 54.6334 109.187 54.5878C108.452 54.5617 107.354 54.6186 106.747 54.714C106.11 54.8144 105.717 55.0815 105.819 55.3459C105.915 55.5978 106.32 56.7204 106.719 57.841L107.444 59.8783L109.599 59.6365C110.784 59.5037 111.816 59.3425 111.892 59.2786ZM105.158 59.7887C105.241 59.7058 104.943 58.5563 104.495 57.2344L103.681 54.8304L101.278 54.8755C99.9559 54.9005 98.5673 55.0009 98.1914 55.0987C97.8156 55.1968 97.5221 55.483 97.5388 55.7349C97.5552 55.9868 97.8811 57.0693 98.2628 58.1401L98.9572 60.087L101.982 60.013C103.646 59.9725 105.075 59.8716 105.158 59.7887ZM97.067 60.671L96.1798 58.0427L95.2927 55.4144L93.1808 55.3673C92.0189 55.3412 90.5717 55.3981 89.9644 55.4935C89.3294 55.5932 88.934 55.8614 89.0335 56.1247C89.1283 56.3766 89.5038 57.6078 89.8672 58.8612C90.4565 60.8937 90.6201 61.1149 91.3835 60.9105C91.8542 60.7847 93.3256 60.6792 94.653 60.6765L97.067 60.671ZM87.7108 58.3889C87.3037 56.9684 86.9704 55.7618 86.9704 55.7076C86.9704 55.6535 86.2242 55.6372 85.3116 55.6714C84.3991 55.7057 83.0975 55.8034 82.4184 55.8883L81.1839 56.0429L81.9305 58.6478C82.3411 60.0803 82.6772 61.2971 82.6772 61.3513C82.6772 61.4054 83.336 61.4478 84.1408 61.4455C84.9459 61.4432 86.2448 61.3357 87.0278 61.2064L88.4512 60.9716L87.7108 58.3889ZM80.6449 61.6604C80.7155 61.59 80.3943 60.2871 79.931 58.7654L79.0884 55.9985L77.4679 56.0639C76.5764 56.1001 75.21 56.1967 74.4318 56.2792L73.0165 56.4292L73.915 59.2315L74.8139 62.0338L77.665 61.9112C79.2332 61.8434 80.5742 61.7309 80.6449 61.6604ZM72.7855 62.4925C72.8554 62.4228 72.4592 61.0207 71.905 59.3767L70.8976 56.3879H68.1886C66.3753 56.3879 65.4218 56.5487 65.3043 56.8746C65.2079 57.1425 65.4475 58.5879 65.837 60.087L66.5454 62.8126L69.6018 62.7156C71.2828 62.6627 72.7156 62.5618 72.7855 62.4925ZM114.54 67.561C114.614 67.4878 114.221 66.0826 113.667 64.4386L112.659 61.4498H110.326C108.085 61.4498 108.005 61.484 108.271 62.3259C108.424 62.8075 108.948 64.2533 109.437 65.5382L110.325 67.8745L112.366 67.7845C113.488 67.7351 114.467 67.6346 114.54 67.561ZM107.936 67.9204C108.048 67.8083 107.656 66.3945 107.065 64.7782L105.99 61.8392L103.994 61.8976C102.895 61.9295 101.5 62.0303 100.893 62.1211C100.264 62.2149 99.8588 62.4832 99.9509 62.7441C100.04 62.996 100.534 64.4071 101.047 65.8797L101.981 68.5574L104.856 68.3406C106.438 68.221 107.824 68.0322 107.936 67.9204ZM99.7467 68.6914C99.8244 68.6143 99.3963 67.1284 98.7956 65.3899C97.8913 62.7725 97.5693 62.2422 96.923 62.3048C96.4936 62.3469 94.982 62.4419 93.5641 62.5159L90.9858 62.651L91.9908 65.995L92.9958 69.3389L96.3008 69.0858C98.1184 68.9464 99.6691 68.7689 99.7467 68.6914ZM90.7391 69.5013C90.8472 69.3934 90.5283 67.8881 90.0307 66.1562L89.126 63.0073L87.5601 63.0696C86.6992 63.1038 85.4237 63.2027 84.7262 63.2888C84.0287 63.3752 83.4589 63.5664 83.4601 63.7132C83.4613 63.8604 83.8672 65.2949 84.3621 66.901L85.2625 69.8214L87.9024 69.7595C89.3543 69.7252 90.6306 69.6092 90.7391 69.5013ZM83.3274 70.3124L82.3466 67.049L81.3661 63.786L79.387 63.839C78.2988 63.8682 77.0128 63.9679 76.53 64.0609C76.0472 64.1536 75.6518 64.3483 75.6518 64.4931C75.6518 64.6384 76.1053 66.1153 76.6596 67.776C77.5046 70.3069 77.8043 70.7944 78.5135 70.7913C78.9787 70.7897 80.2522 70.6811 81.3435 70.5503L83.3274 70.3124ZM71.7309 71.1783C73.3506 71.1748 74.8642 71.0436 75.0941 70.8863C75.3786 70.6916 75.1917 69.6057 74.5086 67.4851L73.5052 64.3701L70.3321 64.6964L67.1594 65.0227L67.9724 68.1034L68.7853 71.1842L71.7309 71.1783ZM116.335 74.3506C116.493 74.1999 116.337 73.0754 115.988 71.8516L115.353 69.6267H113.261C112.11 69.6267 111.169 69.7645 111.169 69.9327C111.169 70.1013 111.574 71.2823 112.069 72.5579L112.97 74.8766L114.509 74.7509C115.355 74.6816 116.177 74.5013 116.335 74.3506ZM110.495 75.1075C110.661 74.953 110.406 73.7439 109.929 72.4212L109.062 70.0161L107.286 70.0714C106.309 70.1017 104.87 70.2329 104.089 70.3634L102.668 70.6001L103.658 73.2623L104.647 75.9245L107.42 75.6566C108.945 75.5094 110.329 75.2621 110.495 75.1075ZM102.442 76.1262C102.535 76.0343 102.192 74.8408 101.68 73.4741L100.751 70.9895L98.6418 70.9494C97.4819 70.9272 95.8895 70.9809 95.103 71.0682L93.6737 71.227L94.6506 74.1259C95.4648 76.5428 95.7677 77.0237 96.4702 77.017C96.9339 77.0128 98.4295 76.8481 99.794 76.6514C101.158 76.4548 102.35 76.2184 102.442 76.1262ZM93.4813 77.2783C93.5465 77.2133 93.1906 75.947 92.6906 74.4643L91.7812 71.7682L90.254 71.7278C89.414 71.7052 88.0835 71.7589 87.2971 71.8465L85.8678 72.0058L86.8646 75.002C87.413 76.6499 87.8872 78.0341 87.9188 78.0781C87.95 78.1217 89.1881 77.9862 90.6692 77.7771C92.1508 77.5676 93.4161 77.3433 93.4813 77.2783ZM85.7421 78.3799C85.8182 78.3039 85.4537 76.9602 84.9315 75.3945L83.9823 72.547L82.2564 72.4995C81.3072 72.473 80.0395 72.5295 79.4396 72.6241C78.6345 72.7514 78.4022 72.9679 78.5521 73.4507C78.6641 73.8101 79.0778 75.1558 79.4716 76.4408L80.1878 78.777L82.8957 78.6478C84.3851 78.5765 85.666 78.4562 85.7421 78.3799ZM78.2438 79.1664L77.2797 75.9541L76.3153 72.7417L74.7151 72.8118C73.835 72.8503 72.2804 72.9477 71.261 73.0279C70.2415 73.1081 69.4126 73.2954 69.4188 73.4445C69.4254 73.5933 69.827 75.1169 70.3114 76.8301L71.1923 79.9452L73.3245 79.8104C74.4973 79.7361 76.0839 79.5608 76.8504 79.4211L78.2438 79.1664Z" fill="#2B2B2B"/>
<path d="M17.5997 20.8418C18.4941 20.8418 19.7188 22.5753 20.3282 23.1847C21.263 24.1195 23.0524 25.1886 23.4718 26.447" stroke="#E56553" stroke-width="3" stroke-linecap="round"/>
<path d="M11.9946 30.1842C14.5953 30.1842 17.1677 29.6504 19.7351 29.6504" stroke="#E56553" stroke-width="3" stroke-linecap="round"/>
<path d="M122 26.3383C122.157 24.9265 125.131 23.1524 126.152 22.3939C127.113 21.6802 128.613 21.3759 129.741 21" stroke="#E56553" stroke-width="3" stroke-linecap="round"/>
<path d="M126.804 30.0748C126.887 29.4116 131.939 29.8079 132.677 29.8079" stroke="#E56553" stroke-width="3" stroke-linecap="round"/>
<path d="M128.139 35.9473C128.965 35.9473 130.38 36.9141 131.075 37.3412C132.396 38.1523 133.796 38.829 135.079 39.6841" stroke="#E56553" stroke-width="3" stroke-linecap="round"/>
<path d="M13.9311 83.4543C11.8166 83.8785 2.08526 87.2872 2.43474 87.9998" stroke="#E56553" stroke-width="3" stroke-linecap="round"/>
<path d="M17.5672 88C16.6953 88.9809 15.7493 90.4672 15.4319 91.7368" stroke="#E56553" stroke-width="3" stroke-linecap="round"/>
<path d="M127.051 85.3183C127.608 85.4161 128.872 85.4413 129.41 85.2851C130.391 85.0006 131.874 85.2673 132.922 85.25C135.073 85.2145 137.242 85.5553 139.409 85.4743" stroke="#E56553" stroke-width="3" stroke-linecap="round"/>
<path d="M132.215 78.085C132.823 79.3687 132.663 80.9914 132.91 82.3548C133.183 83.8619 133.206 85.4178 133.599 86.9165C133.805 87.7065 133.586 88.8751 133.941 89.5696C134.311 90.2931 134.807 91.2574 134.838 92.0683" stroke="#E56553" stroke-width="3" stroke-linecap="round"/>
<path d="M6.43188 76.0172C6.67489 75.9564 6.96028 76.0721 7.19715 76.1257C7.86106 76.2762 8.53134 76.3988 9.20531 76.4948C9.93671 76.599 10.8196 76.5218 11.512 76.7987" stroke="#E56553" stroke-width="3" stroke-linecap="round"/>
</svg>
