<svg width="335" height="167" viewBox="0 0 335 167" fill="none" xmlns="http://www.w3.org/2000/svg">
<path d="M160.575 144.874C161.71 145.523 166.317 151.21 166.717 149.766C166.717 149.766 169.471 145.159 170.25 143.407C171.674 140.203 172.336 135.781 172.587 132.264C172.903 127.845 174.984 123.309 175.903 118.947C176.504 116.091 177.312 113.217 177.941 110.386C178.173 109.341 175.232 108.346 174.544 107.696C171.953 105.249 169.286 102.927 166.717 100.358C164.556 98.1977 161.824 95.2464 160.466 92.5309C158.956 89.5113 154.482 86.0601 151.552 84.5951C150.138 83.8884 150.457 84.3076 151.796 83.2362C152.954 82.3099 154.136 81.6307 155.221 80.5457C159.287 76.4795 164.967 73.7885 168.945 69.8106C170.159 68.5972 171.833 67.916 173.076 66.6037C174.277 65.3361 175.414 63.8034 176.5 62.4456C177.509 61.1846 177.662 60.7861 176.392 59.3745C175.438 58.3143 174.988 56.8853 174.055 55.8415C172.244 53.8176 171.115 51.0617 169.869 48.7482C168.961 47.0611 167.523 45.7475 166.608 44.1009C165.796 42.64 164.441 41.594 163.537 40.1873C162.28 38.2326 160.884 36.1038 159.27 34.4258C157.965 33.0686 157.038 31.4332 155.737 30.1317C154.68 29.0749 153.62 28.0695 152.53 26.9792C149.641 24.0904 145.608 20.9173 141.768 19.4239C136.8 17.492 131.262 18.1737 125.869 18.1737C123.044 18.1737 120.515 19.5614 117.797 19.6413C115.428 19.711 112.593 20.2866 110.46 21.3535C108.189 22.4888 106.094 23.7624 103.72 24.6419C101.415 25.4953 100.253 27.8965 98.5016 29.3979C96.1606 31.4045 95.4259 35.581 93.5553 37.986C91.6412 40.447 88.5039 44.6385 87.9296 47.797C87.4749 50.2976 86 52.1826 86 54.8631V59.9996C86 65.0217 89.4602 69.044 90.8919 73.697C91.7784 76.5781 93.6482 80.6036 95.6751 82.8558C100.904 88.6656 104.452 96.0002 109.97 101.826C112.753 104.763 115.345 108.509 119.048 110.414C123.734 112.824 127.087 116.496 130.761 120.17C137.575 126.984 146.388 131.395 153.264 138.27C155.352 140.359 158.061 143.438 160.575 144.874Z" stroke="#E56553" stroke-width="4" stroke-linecap="round"/>
<path d="M179.88 143.896C178.988 145.68 176.836 147.729 176.836 149.766C176.218 150.364 180.095 146.997 181.484 145.608C183.778 143.313 187.012 142.036 189.311 139.738C196.652 132.397 205.953 127.691 213.526 120.659C217.167 117.278 220.419 112.505 223.554 108.647C226.902 104.526 230.12 100.302 233.311 96.1997C234.72 94.388 235.662 91.4546 236.789 89.4325C237.991 87.2775 239.588 84.7939 240.431 82.4751C241.966 78.2552 243.967 74.2147 245.595 70.0279C248.459 62.6642 250.677 54.8367 249.21 46.7641C248.011 40.1734 246.175 33.212 241.165 28.202C237.146 24.1831 233.455 18.1127 227.223 17.2223C222.493 16.5466 215.932 16.5538 211.324 17.9561C206.596 19.3951 201.36 20.0982 196.893 22.3317C193.691 23.933 189.661 25.4053 187.109 27.9574C185.589 29.4777 181.95 33.0206 183.087 35.2953C184.556 38.2334 185.03 41.6109 186.022 44.6986C187.276 48.5997 187.921 52.6886 189.311 56.5479C190.205 59.0323 191.63 60.9454 192.871 63.1792C193.076 63.5485 195.037 65.8411 194.175 66.0872C193.05 66.4088 192.125 67.4112 191.023 67.9624C188.322 69.3129 185.404 71.7265 182.815 73.4522C180.98 74.6761 179.125 75.3429 177.081 76.1428C174.888 77.0007 172.817 79.8117 170.477 79.8117C168.848 79.8117 168.453 79.5936 169.254 81.0347C169.918 82.2297 170.461 83.4766 171.075 84.7036C171.636 85.8265 172.413 86.7364 172.923 87.8834C173.6 89.4066 175.643 90.1129 176.238 91.661C177.55 95.071 181.279 97.5265 182.598 100.956C183.696 103.81 186.888 105.567 188.196 108.185C188.888 109.568 189.815 110.65 190.751 111.854C191.834 113.246 191.023 113.694 191.023 115.034C191.023 117.687 189.123 120.344 188.196 122.752C186.637 126.805 184.95 130.928 183.794 135.09C182.907 138.281 181.331 140.993 179.88 143.896Z" stroke="#E56553" stroke-width="4" stroke-linecap="round"/>
<path d="M68.7063 39.7781C70.5036 39.9778 75.0137 46.9309 74.3055 47.3474C72.1762 48.5999 69.7481 52.1986 68.4989 54.2427C68.0402 54.9933 65.2248 57.9755 66.8399 57.9755C68.9928 57.9755 72.8509 60.59 74.2018 62.2786C75.0348 63.3199 71.4622 69.0888 71.0393 70.0553C70.3929 71.5329 69.6511 75.9339 68.2397 76.6396" stroke="#2B2B2B" stroke-width="3" stroke-linecap="round"/>
<path d="M263.746 56.5757C262.181 56.7495 262.014 58.9703 260.687 59.3494C259.833 59.5934 258.257 60.5936 257.576 61.138C256.303 62.1569 258.374 63.0474 259.313 64.5079C260.179 65.8551 261.675 67.4394 261.879 69.1739C261.99 70.1118 262.617 69.7643 261.413 70.3664C260.167 70.9893 258.934 71.5797 257.68 72.2068C256.604 72.7446 253.48 73.7324 253.48 74.7731C253.48 78.5121 254.88 82.3514 254.88 85.9716" stroke="#2B2B2B" stroke-width="3" stroke-linecap="round"/>
</svg>
