<svg width="45" height="46" viewBox="0 0 45 46" fill="none" xmlns="http://www.w3.org/2000/svg">
<g clip-path="url(#clip0_675_4570)">
<path d="M0 9C0 4.02944 4.02944 0 9 0H36C40.9706 0 45 4.02944 45 9V36.5C45 41.4706 40.9706 45.5 36 45.5H9C4.02944 45.5 0 41.4706 0 36.5V9Z" fill="#E56553"/>
<path d="M35.1467 41.0114C38.259 41.0114 40.7812 38.3792 40.7812 35.1334V22.2181C40.7812 20.1245 39.7136 18.1889 37.9783 17.1359L28.1536 11.1771C24.6582 9.05685 20.3409 9.05685 16.8456 11.1771L7.02175 17.1359C5.28641 18.1889 4.21881 20.1245 4.21881 22.2181V35.1334C4.21881 38.3792 6.74106 41.0114 9.85367 41.0114H35.1467Z" fill="#F5F5F5"/>
</g>
<defs>
<clipPath id="clip0_675_4570">
<rect width="45" height="45.5" fill="white"/>
</clipPath>
</defs>
</svg>
