<svg width="253" height="75" viewBox="0 0 253 75" fill="none" xmlns="http://www.w3.org/2000/svg">
<g clip-path="url(#clip0_685_3542)">
<path fill-rule="evenodd" clip-rule="evenodd" d="M49.8739 30.6131C49.8739 34.6525 49.0226 38.2758 47.342 41.3813C45.677 44.4593 43.3356 46.8958 40.3797 48.6194C37.4084 50.3531 33.8976 51.2321 29.9451 51.2321C25.9878 51.2321 22.4584 50.3507 19.4495 48.6128C16.4655 46.8915 14.1094 44.4593 12.4445 41.3813C10.7657 38.2758 9.91256 34.6525 9.91256 30.6131C9.91256 26.6451 10.7657 23.0578 12.4428 19.9523C14.1094 16.876 16.4655 14.4421 19.4518 12.7183C22.4607 10.9804 25.9919 10.099 29.9451 10.099C33.8953 10.099 37.4059 10.9787 40.3797 12.7124C43.3331 14.4396 45.677 16.876 47.342 19.9523C49.0226 23.0578 49.8739 26.6451 49.8739 30.6131ZM45.797 3.96601C41.3322 1.33348 36.2083 0 30.5644 0C25.2941 0 20.4697 1.1612 16.2262 3.45246C13.6796 4.82848 11.4265 6.5514 9.48715 8.59902L9.07432 1.36759H0V75.7143H10.1193V53.3113C12.0067 55.1542 14.1544 56.7198 16.5481 57.9902C20.7173 60.2082 25.4345 61.3317 30.5644 61.3317C36.2083 61.3317 41.3322 59.9976 45.797 57.3657C50.2766 54.727 53.8053 51.0198 56.2858 46.3428C58.7456 41.7033 59.993 36.4119 59.993 30.6131C59.993 24.8123 58.7456 19.5378 56.2816 14.9317C53.8037 10.297 50.2766 6.60632 45.797 3.96601Z" fill="#2B2B2B"/>
<path fill-rule="evenodd" clip-rule="evenodd" d="M113.397 41.3806C113.057 42.0097 112.669 42.5926 112.272 43.1693C110.723 45.4033 108.766 47.2403 106.391 48.6144C103.382 50.3523 99.8502 51.2339 95.8977 51.2339C91.9468 51.2339 88.436 50.3543 85.4622 48.6187C82.5072 46.8932 80.1651 44.4569 78.5008 41.3806C76.8276 38.2875 75.9794 34.6836 75.9705 30.665C75.9788 26.6486 76.8276 23.0422 78.5008 19.9516C80.1651 16.8753 82.5072 14.4388 85.4622 12.7136C88.436 10.978 91.9468 10.0983 95.8977 10.0983C99.8502 10.0983 103.382 10.9797 106.391 12.7178C108.766 14.0894 110.723 15.9287 112.272 18.163C112.669 18.7374 113.057 19.3223 113.397 19.9516C115.071 23.0422 115.917 26.6486 115.925 30.665C115.917 34.6836 115.071 38.2875 113.397 41.3806ZM116.768 1.3669L116.413 7.56719L115.746 8.00735C113.945 6.22462 111.907 4.69122 109.616 3.45196C106.409 1.72058 102.87 0.641007 99.057 0.213894C97.8224 0.0727153 96.5643 0.000976562 95.2783 0.000976562C89.6338 0.000976562 84.5104 1.33278 80.0455 3.96531C75.5661 6.60563 72.0391 10.2963 69.5605 14.931C67.0971 19.5388 65.8496 24.8118 65.8496 30.6124C65.8496 30.6313 65.8514 30.6481 65.8514 30.665C65.8514 30.6839 65.8496 30.7007 65.8496 30.7174C65.8496 36.5181 67.0971 41.7933 69.5605 46.4006C72.0391 51.036 75.5661 54.7266 80.0455 57.3669C84.5104 59.9988 89.6338 61.3311 95.2783 61.3311C96.5643 61.3311 97.8224 61.2595 99.057 61.1181C102.87 60.6936 106.409 59.61 109.616 57.8803C111.907 56.641 113.945 55.107 115.746 53.3249L116.413 53.765L116.768 59.9653H125.84V1.3669H116.768Z" fill="#2B2B2B"/>
<path fill-rule="evenodd" clip-rule="evenodd" d="M240.233 41.3806C239.893 42.0097 239.502 42.5926 239.106 43.1693C237.559 45.4033 235.601 47.2403 233.226 48.6144C230.215 50.3524 226.686 51.2339 222.731 51.2339C218.782 51.2339 215.272 50.3543 212.298 48.6187C209.342 46.8932 206.998 44.4569 205.336 41.3806C203.661 38.2875 202.814 34.6836 202.806 30.665C202.814 26.6486 203.661 23.0422 205.336 19.9516C206.998 16.8753 209.342 14.4388 212.298 12.7136C215.272 10.978 218.782 10.0983 222.731 10.0983C226.686 10.0983 230.215 10.9797 233.226 12.7178C235.601 14.0894 237.559 15.9287 239.106 18.163C239.502 18.7374 239.893 19.3223 240.233 19.9516C241.906 23.0422 242.753 26.6486 242.761 30.665C242.753 34.6836 241.906 38.2875 240.233 41.3806ZM243.603 1.3669L243.248 7.56719L242.581 8.00735C240.781 6.22462 238.742 4.69122 236.452 3.45196C233.245 1.72058 229.703 0.641007 225.893 0.213894C224.658 0.0727154 223.4 0.000976562 222.113 0.000976562C216.47 0.000976562 211.345 1.33278 206.881 3.96531C202.402 6.60563 198.874 10.2963 196.394 14.931C193.932 19.5388 192.685 24.8118 192.685 30.6124C192.685 30.6313 192.687 30.6481 192.687 30.665C192.687 30.6839 192.685 30.7007 192.685 30.7174C192.685 36.5181 193.932 41.7933 196.394 46.4006C198.874 51.036 202.402 54.7266 206.881 57.3669C211.345 59.9988 216.47 61.3311 222.113 61.3311C223.4 61.3311 224.658 61.2595 225.893 61.1182C229.703 60.6936 233.245 59.61 236.452 57.8803C238.742 56.641 240.781 55.107 242.581 53.3249L243.248 53.765L243.603 59.9653H252.676V1.3669H243.603Z" fill="#2B2B2B"/>
<path fill-rule="evenodd" clip-rule="evenodd" d="M162.501 0C157.826 0 153.508 1.11707 149.665 3.32186C147.554 4.53145 145.67 6.05282 144.031 7.86248L143.711 1.36509H134.622V59.9636H144.741V29.6661C144.741 25.7381 145.484 22.2539 146.947 19.3058C148.38 16.4132 150.404 14.1282 152.954 12.5187C155.501 10.9131 158.47 10.0991 161.779 10.0991C166.494 10.0991 170.103 11.6497 172.815 14.841C175.564 18.0795 176.958 22.6075 176.958 28.2985V59.9636H187.077V27.7725C187.077 19.4238 184.869 12.6552 180.518 7.65187C176.101 2.57532 170.037 0 162.501 0Z" fill="#2B2B2B"/>
</g>
<defs>
<clipPath id="clip0_685_3542">
<rect width="253" height="75" fill="white"/>
</clipPath>
</defs>
</svg>
