<svg width="118" height="118" viewBox="0 0 118 118" fill="none" xmlns="http://www.w3.org/2000/svg">
<g opacity="0.1">
<path fill-rule="evenodd" clip-rule="evenodd" d="M9.83331 24.5833C9.83331 19.1525 14.2358 14.75 19.6666 14.75H98.3333C103.764 14.75 108.167 19.1525 108.167 24.5833V93.4167C108.167 98.8475 103.764 103.25 98.3333 103.25H19.6666C14.2359 103.25 9.83331 98.8475 9.83331 93.4167V24.5833ZM98.3333 24.5833H19.6666V93.4167H98.3333V24.5833Z" fill="black"/>
<path fill-rule="evenodd" clip-rule="evenodd" d="M36.7311 50.3841C40.6915 45.7636 47.8554 45.8134 51.7513 50.4884L69.1637 71.3833L76.2224 64.3246C80.3666 60.1804 87.193 60.5585 90.8542 65.135L107.089 85.4288C108.786 87.5492 108.442 90.6432 106.321 92.3395C104.201 94.0358 101.107 93.692 99.4107 91.5717L83.1756 71.2778L76.1169 78.3365C72.0282 82.4252 65.3113 82.1206 61.6096 77.6785L44.1971 56.7835L18.483 86.7833C16.7159 88.845 13.612 89.0838 11.5503 87.3166C9.4886 85.5494 9.24984 82.4456 11.017 80.3839L36.7311 50.3841Z" fill="black"/>
<path fill-rule="evenodd" clip-rule="evenodd" d="M63.9167 44.2503C63.9167 38.8195 68.3192 34.417 73.75 34.417C79.1808 34.417 83.5834 38.8195 83.5834 44.2503C83.5834 49.6811 79.1808 54.0837 73.75 54.0837C68.3192 54.0837 63.9167 49.6811 63.9167 44.2503Z" fill="black"/>
</g>
</svg>
