<svg width="139" height="147" viewBox="0 0 139 147" fill="none" xmlns="http://www.w3.org/2000/svg">
<path fill-rule="evenodd" clip-rule="evenodd" d="M68.4433 76.4062C65.9703 76.4062 63.8274 76.6723 61.566 77.4124C61.0185 77.5916 60.4502 77.7623 59.8941 77.9292C59.8606 77.9393 59.8271 77.9494 59.7936 77.9594C59.1987 78.1381 58.6156 78.3142 58.0433 78.5041C56.8915 78.8862 55.8576 79.3006 55.0004 79.8267C53.2986 80.8709 51.7948 82.4462 50.2323 84.0831C50.014 84.3117 49.7946 84.5416 49.5733 84.7714C47.7905 86.6227 46.4185 88.8814 46.3908 91.0935C46.3897 91.1833 46.3885 91.2743 46.3872 91.3663C46.3739 92.3591 46.3591 93.4699 46.4456 94.5522C46.5424 95.7621 46.7547 96.7394 47.1048 97.3739C47.2404 97.6197 47.3916 97.9536 47.5264 98.2514C47.5535 98.3111 47.5798 98.3693 47.6053 98.4251C47.7765 98.8003 47.9513 99.1697 48.1407 99.5016C48.3358 99.8432 48.5056 100.071 48.6395 100.201C48.6593 100.22 48.6756 100.234 48.6886 100.245C48.9142 100.253 49.1368 100.263 49.3564 100.272C50.7832 100.332 52.0819 100.387 53.2101 100.136C54.1535 99.9264 55.1079 99.7692 56.014 99.6199C56.1906 99.5908 56.3654 99.562 56.5379 99.5332C57.617 99.3529 58.6326 99.168 59.6174 98.8944C61.2535 98.4399 63.0059 97.7994 64.4908 97.057C65.0161 96.7943 65.5291 96.4704 66.115 96.0985L66.1485 96.0772C66.7031 95.7251 67.329 95.3277 67.9926 94.9959C68.9046 94.5399 69.7713 94.0259 70.534 93.4326C70.5615 93.4113 70.6043 93.3764 70.6582 93.3326C70.8394 93.1854 71.1457 92.9365 71.4136 92.755C71.7036 92.5587 72.2129 92.2454 72.8388 92.1589C72.8982 92.0899 72.9595 92.0189 73.0227 91.9458C73.4884 91.4076 74.1165 90.692 74.8126 90.2042C75.7443 88.688 76.08 88.0194 76.219 87.6342C76.3018 87.4047 76.3075 87.3393 76.3246 87.1426C76.3365 87.0059 76.3539 86.8058 76.4065 86.4431C76.6207 84.9678 76.6294 84.5876 76.5747 84.2545C76.5448 84.0719 76.4883 83.8669 76.3632 83.4691C76.3417 83.401 76.3187 83.3284 76.2941 83.251C76.1808 82.8939 76.0353 82.4352 75.8657 81.8418C75.5832 80.853 75.1122 80.0411 74.5253 79.0293C74.371 78.7633 74.2086 78.4835 74.0396 78.183C73.6128 77.4242 73.3503 77.1206 73.0869 77.0103C72.8423 76.9079 72.6304 76.8025 72.4601 76.7163C72.4299 76.701 72.4016 76.6866 72.3749 76.6731C72.2394 76.6043 72.146 76.5569 72.0501 76.5138C71.8647 76.4306 71.7608 76.4062 71.625 76.4062H68.4433ZM68.7553 97.9938C68.428 98.1841 68.091 98.3975 67.7229 98.6312L67.7006 98.6454C67.1419 99.0001 66.5085 99.4022 65.8324 99.7403C64.1428 100.585 62.2039 101.289 60.4204 101.785C59.2721 102.104 58.1231 102.31 57.0323 102.492C56.8459 102.523 56.6619 102.554 56.4797 102.584C55.5742 102.733 54.7157 102.875 53.8609 103.065C52.3101 103.409 50.5477 103.33 49.1471 103.267C48.9135 103.257 48.6901 103.247 48.4793 103.239C47.6294 103.209 46.9847 102.773 46.5555 102.359C46.126 101.944 45.7911 101.437 45.5353 100.989C45.274 100.531 45.0521 100.056 44.876 99.6704C44.8385 99.5884 44.8042 99.5127 44.7724 99.4428C44.6386 99.1483 44.551 98.9554 44.478 98.8231C43.8118 97.6156 43.5611 96.1156 43.4552 94.7913C43.3568 93.5612 43.3739 92.3121 43.3873 91.3365C43.3886 91.2402 43.3899 91.1467 43.391 91.056C43.4329 87.7098 45.4311 84.7479 47.4124 82.6904C47.6171 82.4778 47.8272 82.257 48.0427 82.0306C49.5714 80.4243 51.3694 78.535 53.4313 77.2697C54.5806 76.5644 55.8698 76.0644 57.0988 75.6567C57.7169 75.4516 58.3386 75.264 58.9306 75.0862L59.0205 75.0592C59.5863 74.8893 60.1217 74.7285 60.6329 74.5612C63.261 73.7011 65.7305 73.4062 68.4433 73.4062H71.625C72.3107 73.4062 72.842 73.5808 73.2791 73.7771C73.4466 73.8523 73.6143 73.9376 73.7484 74.0058C73.7717 74.0177 73.7939 74.029 73.815 74.0396C73.9713 74.1188 74.1045 74.184 74.2453 74.243C75.5763 74.8001 76.2719 76.0323 76.6543 76.7122C76.7755 76.9276 76.906 77.1512 77.0414 77.3832C77.6491 78.4244 78.3548 79.6334 78.7503 81.0176C78.9069 81.5656 79.0378 81.9784 79.1506 82.334C79.1763 82.415 79.2011 82.4931 79.225 82.5691C79.3491 82.9638 79.4668 83.3524 79.5351 83.7687C79.6771 84.6337 79.5788 85.4731 79.3754 86.874C79.3649 86.9462 79.3562 87.0352 79.3461 87.1381C79.3101 87.5069 79.2565 88.0551 79.0408 88.6527C78.7721 89.3971 78.2382 90.3743 77.183 92.0753L76.9763 92.4086L76.633 92.598C76.3446 92.7571 75.9167 93.186 75.2912 93.9089C75.2153 93.9966 75.1353 94.0902 75.0521 94.1875C74.57 94.7514 73.9783 95.4433 73.4225 95.888C73.2941 95.9907 73.1627 96.1047 73 96.2458C72.9724 96.2698 72.9439 96.2945 72.9143 96.3201C72.7229 96.4859 72.4962 96.6802 72.2522 96.8659C71.7784 97.2265 71.1161 97.6536 70.2925 97.8033C70.0702 97.8438 69.8658 97.8431 69.7356 97.838C69.4398 97.9972 69.0939 98.0555 68.7553 97.9938Z" fill="#E56553"/>
<path fill-rule="evenodd" clip-rule="evenodd" d="M113.513 8.57977C111.38 9.83168 109.667 11.1459 108.091 12.9289C107.71 13.3606 107.306 13.7955 106.911 14.221C106.887 14.2467 106.863 14.2723 106.84 14.2979C106.417 14.7531 106.003 15.2003 105.606 15.6536C104.806 16.5662 104.124 17.447 103.651 18.3346C102.712 20.0967 102.213 22.2165 101.694 24.4191C101.621 24.7268 101.548 25.0361 101.474 25.3463C100.874 27.8454 100.834 30.4879 101.93 32.4096C101.974 32.4876 102.019 32.5667 102.065 32.6466C102.556 33.5095 103.105 34.475 103.728 35.3646C104.424 36.359 105.102 37.0944 105.725 37.4643C105.966 37.6077 106.266 37.8191 106.533 38.0077C106.586 38.0455 106.638 38.0823 106.688 38.1176C107.026 38.3545 107.364 38.5845 107.695 38.7749C108.036 38.9708 108.298 39.0816 108.479 39.1253C108.506 39.1319 108.528 39.1361 108.545 39.1389C109.071 38.8635 109.832 38.531 110.594 38.198C110.96 38.0377 111.328 37.8774 111.669 37.7231C112.253 37.4593 112.801 37.1978 113.265 36.9441C113.747 36.68 114.053 36.4695 114.208 36.3254C115.792 34.8517 116.908 33.7003 118.448 32.1095C119.597 30.9215 120.973 29.1154 121.903 27.6843C122.195 27.2339 122.419 26.738 122.693 26.1181L122.713 26.072C122.968 25.4954 123.275 24.8015 123.703 24.1423C124.214 23.3562 124.482 22.7542 124.871 21.7788C125.306 20.6443 125.923 19.6293 126.465 18.7362C126.581 18.5453 126.694 18.3601 126.801 18.1804C126.798 18.184 126.799 18.1818 126.802 18.1729C126.816 18.1335 126.875 17.9637 126.923 17.5988C126.975 17.2026 126.999 16.7118 126.991 16.1923C126.973 15.0816 126.821 14.1624 126.701 13.8674C125.789 11.6279 124.977 10.8551 123.108 9.07677C123.004 8.97774 122.897 8.87559 122.786 8.76989C122.498 8.4954 122.152 8.34139 121.546 8.15789C121.464 8.13326 121.375 8.10738 121.278 8.07953C120.729 7.92094 119.958 7.69839 119.239 7.27909C118.486 6.84078 118.106 6.7118 117.823 6.75005C117.561 6.78556 117.324 6.80191 117.134 6.81377C117.1 6.81588 117.069 6.81782 117.039 6.81964C116.887 6.82892 116.782 6.83532 116.678 6.84672C116.476 6.86877 116.374 6.9004 116.257 6.96915L113.513 8.57977ZM126.128 25.9223C126.646 25.4065 126.952 24.79 127.155 24.2962C127.271 24.0125 127.368 23.7302 127.45 23.4903C127.462 23.4533 127.474 23.4175 127.486 23.3829C127.555 23.1788 127.61 23.014 127.669 22.8604C127.999 21.9987 128.446 21.2589 128.98 20.3773C129.109 20.165 129.242 19.9445 129.38 19.7121C129.694 19.1838 129.827 18.5204 129.897 17.9918C129.974 17.4121 130 16.7685 129.99 16.1461C129.972 14.9731 129.822 13.5784 129.48 12.7362C128.322 9.89254 127.105 8.7364 125.215 6.94004C125.098 6.82896 124.979 6.71543 124.856 6.59891C124.037 5.81781 123.121 5.50033 122.415 5.28665C122.277 5.24486 122.15 5.20729 122.031 5.17223C121.488 5.01237 121.123 4.90472 120.749 4.68706C120.075 4.29431 118.851 3.58381 117.422 3.77709C117.27 3.79754 117.122 3.80868 116.947 3.81958C116.924 3.82105 116.899 3.82255 116.873 3.82412C116.723 3.83318 116.535 3.84451 116.352 3.86443C115.876 3.91643 115.33 4.03482 114.738 4.38193L111.994 5.99256C109.655 7.36586 107.674 8.87025 105.843 10.9424C105.487 11.3455 105.107 11.7552 104.705 12.1881L104.641 12.2569C104.22 12.7099 103.779 13.1864 103.35 13.6762C102.496 14.6499 101.638 15.7338 101.004 16.9238C99.8659 19.0588 99.2717 21.5983 98.7665 23.7575C98.6953 24.0618 98.6259 24.3586 98.5569 24.6456C97.8898 27.4229 97.6659 30.9888 99.3238 33.8958C99.3687 33.9745 99.4149 34.0559 99.4625 34.1395C99.9449 34.9877 100.562 36.0735 101.27 37.0847C102.032 38.1731 103.007 39.3398 104.193 40.0439C104.323 40.121 104.496 40.243 104.761 40.4293C104.823 40.4735 104.891 40.5214 104.965 40.5732C105.312 40.8169 105.744 41.1138 106.201 41.3764C106.648 41.6333 107.194 41.9011 107.774 42.0414C108.354 42.1815 109.131 42.2311 109.879 41.827C110.296 41.6019 110.897 41.3397 111.619 41.025C112.014 40.8523 112.446 40.6638 112.904 40.457C113.513 40.182 114.142 39.8839 114.705 39.5759C115.249 39.2783 115.818 38.9249 116.252 38.5216C117.899 36.9888 119.064 35.7866 120.603 34.1958C121.922 32.8335 123.414 30.8641 124.418 29.3192C124.854 28.6485 125.164 27.9473 125.421 27.3661L125.436 27.3315C125.682 26.7765 125.883 26.3265 126.128 25.9223Z" fill="#E56553"/>
<path fill-rule="evenodd" clip-rule="evenodd" d="M60.1862 89.4369C60.5567 90.1779 60.2563 91.0789 59.5154 91.4494C59.4098 91.5022 59.3134 91.5377 59.2541 91.5584C59.1959 91.5786 59.1403 91.5958 59.0986 91.6084C58.7891 91.8726 58.3738 92.0108 57.9381 91.9564C57.1161 91.8536 56.533 91.1039 56.6358 90.2819C56.7224 89.5886 57.1961 89.2194 57.3907 89.09C57.6078 88.9456 57.8259 88.8662 57.9347 88.8287C58.0311 88.7954 58.1413 88.763 58.1988 88.7461C58.2101 88.7428 58.2193 88.74 58.2261 88.738C58.235 88.7354 58.2425 88.7331 58.2488 88.7311C58.9745 88.4163 59.8281 88.7208 60.1862 89.4369ZM58.2739 88.723C58.2739 88.723 58.2729 88.7233 58.2706 88.7241C58.2727 88.7234 58.2738 88.723 58.2739 88.723ZM58.8998 91.6696C58.8996 91.6696 58.9029 91.6682 58.9102 91.6657C58.9036 91.6684 58.9 91.6697 58.8998 91.6696Z" fill="#E56553"/>
<path fill-rule="evenodd" clip-rule="evenodd" d="M114.31 23.3369C115.005 23.7884 115.202 24.7175 114.751 25.4121C114.686 25.5111 114.621 25.5905 114.58 25.6383C114.54 25.6852 114.501 25.7282 114.472 25.7601C114.338 26.1447 114.05 26.4741 113.647 26.6477C112.886 26.9752 112.004 26.6239 111.676 25.8629C111.4 25.2212 111.621 24.663 111.724 24.4529C111.838 24.2185 111.986 24.0396 112.061 23.9522C112.127 23.8747 112.206 23.7909 112.247 23.7472C112.255 23.7386 112.261 23.7316 112.266 23.7265C112.272 23.7196 112.278 23.7138 112.282 23.709C112.749 23.0701 113.639 22.9006 114.31 23.3369ZM112.3 23.6893C112.3 23.6892 112.299 23.6901 112.297 23.6919C112.299 23.6902 112.3 23.6893 112.3 23.6893ZM114.331 25.9136C114.331 25.9137 114.333 25.9108 114.338 25.905C114.334 25.9106 114.331 25.9136 114.331 25.9136Z" fill="#E56553"/>
<path fill-rule="evenodd" clip-rule="evenodd" d="M57.0809 84.7066C57.081 84.7066 57.0792 84.7086 57.0753 84.7127C57.0788 84.7087 57.0808 84.7066 57.0809 84.7066ZM57.7642 87.2418C58.2571 87.3632 58.7997 87.2313 59.1849 86.8461C59.296 86.735 59.445 86.5735 59.566 86.373C59.5665 86.3721 59.5671 86.3712 59.5677 86.3702C59.6309 86.2657 60.0042 85.6476 59.6879 84.905C59.3239 84.0508 58.4892 83.97 58.339 83.9594C58.0867 83.9415 57.8711 83.9832 57.7601 84.0081C57.5104 84.0639 57.2657 84.1588 57.0786 84.2449C56.9217 84.3171 56.6401 84.4574 56.4073 84.6643C55.7881 85.2147 55.7323 86.1628 56.2827 86.782C56.6656 87.2127 57.241 87.3708 57.7642 87.2418Z" fill="#E56553"/>
<path fill-rule="evenodd" clip-rule="evenodd" d="M109.238 20.8296C109.238 20.8295 109.237 20.8321 109.236 20.8377C109.237 20.8324 109.238 20.8297 109.238 20.8296ZM111.11 22.6701C111.597 22.5252 111.998 22.1368 112.135 21.6096C112.175 21.4575 112.222 21.2428 112.225 21.0087C112.225 21.0077 112.225 21.0066 112.225 21.0054C112.226 20.8833 112.235 20.1613 111.587 19.681C110.84 19.1286 110.08 19.4814 109.945 19.5483C109.718 19.6607 109.553 19.8058 109.47 19.8833C109.283 20.058 109.12 20.2636 109.002 20.4326C108.903 20.5742 108.732 20.8378 108.636 21.1341C108.38 21.9222 108.812 22.7681 109.6 23.0235C110.148 23.2011 110.725 23.0462 111.11 22.6701Z" fill="#E56553"/>
<path fill-rule="evenodd" clip-rule="evenodd" d="M62.6264 82.8457C63.4548 82.8457 64.1264 83.5173 64.1264 84.3457C64.1264 84.3959 64.1242 84.4489 64.1203 84.5035C64.1256 84.5839 64.1264 84.6532 64.1264 84.7059C64.1264 84.9738 64.0562 85.2252 63.9331 85.4429C63.9148 85.4949 63.8919 85.5537 63.8639 85.6141C63.8394 85.6669 63.7648 85.8247 63.6237 85.9883C63.5585 86.0639 62.9929 86.7107 62.0809 86.4628C61.6701 86.3511 61.417 86.1005 61.2891 85.9377C61.1622 85.7764 61.0958 85.6242 61.0635 85.5404C60.9991 85.3737 60.9769 85.2292 60.9685 85.1686C60.9489 85.0289 60.9463 84.8925 60.9463 84.7959C60.9463 84.5896 60.9699 84.3777 61.022 84.1758C61.0478 84.0759 61.0873 83.9521 61.1498 83.8212C61.1988 83.7187 61.3236 83.4777 61.5776 83.2666C61.5923 83.2543 61.6078 83.242 61.6242 83.2296C61.8899 82.9909 62.2412 82.8457 62.6264 82.8457ZM61.1264 84.7011C61.1252 84.6867 61.1251 84.6787 61.1254 84.6783C61.1257 84.678 61.1263 84.6851 61.1264 84.7011Z" fill="#E56553"/>
<path fill-rule="evenodd" clip-rule="evenodd" d="M113.078 16.4161C113.792 15.9967 114.711 16.2359 115.131 16.9504C115.156 16.9937 115.181 17.0405 115.205 17.0896C115.251 17.1562 115.286 17.2156 115.313 17.261C115.449 17.492 115.515 17.7444 115.52 17.9944C115.53 18.0485 115.54 18.1108 115.546 18.1771C115.552 18.2351 115.568 18.4089 115.529 18.6214C115.511 18.7197 115.35 19.5637 114.438 19.8116C114.028 19.9232 113.682 19.8352 113.49 19.7597C113.299 19.6847 113.164 19.5871 113.094 19.5312C112.954 19.42 112.862 19.3066 112.824 19.2586C112.736 19.148 112.665 19.0317 112.616 18.9485C112.512 18.7705 112.425 18.5759 112.368 18.3753C112.339 18.2761 112.311 18.1494 112.298 18.0048C112.289 17.8917 112.274 17.6206 112.386 17.31C112.393 17.292 112.4 17.2735 112.408 17.2545C112.516 16.9142 112.746 16.6111 113.078 16.4161ZM112.723 18.7755C112.715 18.7637 112.711 18.7569 112.711 18.7564C112.711 18.7559 112.715 18.7618 112.723 18.7755Z" fill="#E56553"/>
<path fill-rule="evenodd" clip-rule="evenodd" d="M61.1263 89.7397C61.1657 89.8148 61.2262 89.9196 61.3109 90.0276C61.3627 90.0937 61.4498 90.1949 61.5761 90.2953C61.697 90.3914 61.9221 90.5411 62.2443 90.6024C62.4118 90.6342 62.5977 90.6403 62.7919 90.606C62.9863 90.5717 63.1606 90.5019 63.3097 90.4124C63.5974 90.2395 63.7585 90.0145 63.8392 89.8777C63.9231 89.7356 63.968 89.6075 63.9921 89.5273C64.0177 89.4419 64.0325 89.3672 64.0415 89.312C64.0592 89.2039 64.0645 89.1087 64.0663 89.0434C64.0683 88.9734 64.067 88.9076 64.0644 88.8503C64.0594 88.737 64.0479 88.6227 64.0328 88.5188C64.0198 88.4301 63.9954 88.2855 63.9483 88.1366C63.935 88.0946 63.9147 88.0355 63.8854 87.9681C63.8599 87.9096 63.8061 87.7938 63.7127 87.6659C63.6643 87.5997 63.5875 87.5054 63.4766 87.4098C63.3666 87.315 63.1909 87.1911 62.9466 87.1136C62.6857 87.0308 62.3887 87.0153 62.0919 87.0967C61.8083 87.1745 61.6016 87.3194 61.4671 87.4437C61.3354 87.5653 61.2504 87.6872 61.1994 87.771C61.1467 87.8576 61.1112 87.9353 61.0881 87.9919C61.0434 88.1017 61.0194 88.1963 61.0068 88.2521C60.9812 88.3653 60.9698 88.4683 60.9638 88.5354C60.9517 88.6694 60.9472 88.8253 60.9467 88.9948C60.9439 89.1201 60.9568 89.2468 60.9864 89.3719C61.017 89.5018 61.0644 89.6252 61.1263 89.7397ZM63.7852 88.3503C63.7862 88.3523 63.7872 88.3543 63.7883 88.3563C63.7882 88.3562 63.7881 88.356 63.7879 88.3557C63.7874 88.3546 63.7865 88.3528 63.7852 88.3503Z" fill="#E56553"/>
<path fill-rule="evenodd" clip-rule="evenodd" d="M115.274 23.1222C115.346 23.167 115.452 23.2268 115.579 23.2771C115.657 23.3078 115.784 23.3511 115.943 23.3737C116.096 23.3954 116.366 23.4105 116.675 23.3003C116.836 23.2429 116.999 23.1541 117.149 23.0262C117.3 22.8982 117.415 22.7498 117.498 22.5971C117.658 22.3024 117.683 22.0267 117.684 21.868C117.684 21.7029 117.658 21.5697 117.638 21.4884C117.617 21.4018 117.592 21.3298 117.572 21.2777C117.532 21.1755 117.489 21.0907 117.457 21.0335C117.424 20.9721 117.389 20.9161 117.358 20.8679C117.296 20.7727 117.228 20.68 117.163 20.5981C117.107 20.5281 117.012 20.4157 116.896 20.3112C116.864 20.2817 116.816 20.241 116.757 20.1977C116.705 20.1601 116.6 20.0876 116.455 20.0245C116.38 19.9919 116.266 19.9495 116.122 19.9232C115.979 19.8971 115.765 19.8792 115.515 19.936C115.248 19.9967 114.984 20.1336 114.769 20.3541C114.564 20.5647 114.459 20.7944 114.406 20.9696C114.354 21.1412 114.342 21.2893 114.341 21.3874C114.339 21.4888 114.348 21.5738 114.357 21.6342C114.374 21.7516 114.401 21.8453 114.418 21.8998C114.453 22.0104 114.496 22.105 114.524 22.1659C114.582 22.2876 114.657 22.4244 114.742 22.5708C114.803 22.6803 114.879 22.783 114.967 22.8758C115.06 22.9724 115.163 23.0549 115.274 23.1222ZM116.864 20.578C116.866 20.5792 116.868 20.5805 116.87 20.5817C116.87 20.5816 116.869 20.5815 116.869 20.5813C116.868 20.5807 116.866 20.5795 116.864 20.578Z" fill="#E56553"/>
<path fill-rule="evenodd" clip-rule="evenodd" d="M73.9054 76.0746C74.2759 75.3337 75.1769 75.0333 75.9178 75.4038C76.1655 75.5277 76.3491 75.7092 76.39 75.7496C76.3921 75.7518 76.3939 75.7535 76.3953 75.7548C76.4748 75.8324 76.5559 75.9198 76.631 76.0037C76.7838 76.1743 76.9673 76.3932 77.1636 76.6344C77.5591 77.1203 78.0468 77.7466 78.5225 78.373C78.9986 79 79.4711 79.6382 79.836 80.1494C80.0175 80.4037 80.179 80.6358 80.303 80.8234C80.3643 80.9162 80.4242 81.0098 80.4751 81.096L80.4783 81.1014C80.5095 81.154 80.6068 81.3181 80.67 81.5076C80.7162 81.6461 80.8472 81.8644 81.1535 82.2961C81.1776 82.33 81.2032 82.3658 81.23 82.4034C81.4761 82.7477 81.8279 83.2399 82.0562 83.7475C82.7289 85.2422 82.9616 86.8104 83.0394 88.2851C83.0915 89.2717 83.0748 90.3103 83.0594 91.2659C83.0525 91.6952 83.0459 92.1078 83.0459 92.4914C83.0459 93.9967 83.0155 95.5031 82.6437 97.139C82.5279 97.6485 82.3763 98.1286 82.2331 98.5613C82.1942 98.6788 82.1566 98.7911 82.1201 98.8999C82.0237 99.1877 81.9354 99.451 81.8539 99.7223C81.8523 99.7356 81.8503 99.7537 81.8478 99.7772C81.8459 99.7962 81.8431 99.8252 81.8398 99.86C81.8316 99.945 81.8202 100.065 81.8093 100.158C81.7928 100.3 81.7648 100.508 81.7093 100.716C81.6812 100.822 81.6357 100.967 81.56 101.122C81.4925 101.259 81.3602 101.489 81.1179 101.693C81.1082 101.706 81.0804 101.743 81.037 101.816C80.9576 101.952 80.87 102.133 80.7657 102.371C80.7162 102.484 80.6672 102.6 80.6147 102.724L80.6101 102.734C80.5573 102.859 80.5003 102.993 80.4426 103.124C80.3331 103.372 80.1903 103.678 80.0161 103.949C79.4074 104.896 78.3859 106.215 77.3924 107.009C77.2196 107.148 77.049 107.314 76.8445 107.527C76.7974 107.576 76.7455 107.63 76.69 107.689C76.5299 107.858 76.3406 108.057 76.1565 108.235C75.6209 108.752 74.8931 109.327 73.825 109.565C73.681 109.597 73.5283 109.669 73.1559 109.86L73.1291 109.873C72.8175 110.033 72.308 110.294 71.704 110.399C71.5757 110.422 71.4289 110.451 71.2679 110.483C70.7044 110.594 69.968 110.74 69.2512 110.75C68.8288 110.756 68.3994 110.764 67.9642 110.773C65.2009 110.828 62.2083 110.888 59.3205 110.31C57.1519 109.877 55.0077 109.344 52.9536 107.932C52.4599 107.592 52.008 107.262 51.5749 106.946C50.7426 106.338 49.9799 105.782 49.1248 105.307C48.8725 105.166 48.6456 104.946 48.549 104.852L48.5437 104.847C48.3971 104.704 48.2295 104.529 48.0553 104.339C47.7048 103.959 47.2876 103.479 46.8861 102.995C46.486 102.513 46.0864 102.009 45.7763 101.581C45.6229 101.37 45.4763 101.157 45.3597 100.964C45.3018 100.868 45.2386 100.756 45.1834 100.638C45.1421 100.549 45.0447 100.333 45.0108 100.062C44.908 99.2399 45.4911 98.4902 46.3131 98.3875C47.0373 98.2969 47.7053 98.7387 47.9244 99.4072C47.9257 99.4093 47.927 99.4116 47.9284 99.4139C47.9823 99.5032 48.0733 99.6389 48.2041 99.8191C48.4623 100.175 48.8175 100.625 49.1948 101.079C49.5708 101.532 49.9536 101.972 50.2619 102.307C50.4172 102.476 50.5437 102.607 50.6354 102.696C50.6541 102.714 50.6695 102.729 50.682 102.74C51.6644 103.297 52.6526 104.017 53.5387 104.662C53.9336 104.95 54.3083 105.222 54.6532 105.46C56.1761 106.507 57.8079 106.948 59.9088 107.369C62.4498 107.877 65.0789 107.827 67.8646 107.774C68.3087 107.765 68.7567 107.757 69.209 107.75C69.6309 107.744 69.9853 107.675 70.47 107.579C70.6801 107.538 70.9147 107.492 71.1899 107.444C71.2996 107.425 71.4373 107.369 71.7884 107.189C71.8085 107.179 71.8295 107.168 71.8517 107.157C72.147 107.005 72.6249 106.758 73.1742 106.636C73.4739 106.57 73.723 106.415 74.0728 106.077C74.2062 105.948 74.3244 105.823 74.4664 105.674C74.5319 105.604 74.6024 105.53 74.6818 105.447C74.9118 105.208 75.1902 104.929 75.5183 104.667C76.1475 104.164 76.9625 103.151 77.4926 102.327C77.5817 102.188 77.6646 101.993 77.7997 101.675C77.8603 101.532 77.9314 101.365 78.0182 101.167C78.1355 100.899 78.2794 100.588 78.45 100.297C78.5469 100.132 78.6737 99.9363 78.8367 99.7442C78.8396 99.7164 78.8425 99.687 78.8456 99.6552C78.8469 99.6416 78.8483 99.6267 78.8498 99.6112C78.8541 99.5666 78.8589 99.5161 78.8635 99.4706C78.87 99.4082 78.8785 99.3312 78.8899 99.2536C78.9001 99.1853 78.9195 99.0661 78.9578 98.9364C79.0614 98.585 79.1805 98.2299 79.2888 97.9069C79.3221 97.8075 79.3544 97.7112 79.385 97.619C79.5213 97.2069 79.6356 96.838 79.7183 96.4741C80.0102 95.1897 80.0459 93.9722 80.0459 92.4914C80.0459 92.004 80.0536 91.5368 80.0612 91.0804C80.0761 90.1832 80.0902 89.3279 80.0436 88.4432C79.9755 87.153 79.7794 85.9985 79.3205 84.9786C79.22 84.7553 79.0413 84.5034 78.7368 84.0743L78.6979 84.0195C78.4548 83.677 78.088 83.16 77.8702 82.5859C77.8534 82.5592 77.8303 82.5232 77.7998 82.4769C77.7046 82.3328 77.5667 82.1339 77.3943 81.8923C77.0511 81.4117 76.5971 80.7981 76.1333 80.1873C75.669 79.5759 75.2034 78.9785 74.8369 78.5282C74.6522 78.3012 74.5026 78.124 74.3958 78.0046C74.3677 77.9733 74.3461 77.9498 74.3303 77.9331C73.7731 77.5039 73.5791 76.7272 73.9054 76.0746ZM74.3004 77.9023C74.3021 77.904 74.3044 77.9063 74.3073 77.9092C74.2794 77.8849 74.2753 77.8778 74.3004 77.9023ZM77.9057 82.6458C77.9053 82.6455 77.9017 82.6393 77.8959 82.6282C77.9031 82.6406 77.906 82.6462 77.9057 82.6458Z" fill="#E56553"/>
<path fill-rule="evenodd" clip-rule="evenodd" d="M124.821 6.59063C124.405 5.98127 123.592 5.75782 122.913 6.09716C122.172 6.46765 121.872 7.36866 122.242 8.10963C122.605 8.83426 123.272 9.18096 123.613 9.33793C123.812 9.42986 124.008 9.50314 124.154 9.55669C124.19 9.56966 124.221 9.58121 124.25 9.59164C124.358 9.63111 124.422 9.65465 124.48 9.6788C124.663 9.75575 124.821 9.82053 124.961 9.87782C125.625 10.1495 125.877 10.2527 126.364 10.6855C126.848 11.1159 127.388 11.497 127.844 11.8188C127.953 11.8955 128.057 11.9688 128.154 12.0385C128.7 12.4305 129.125 12.7694 129.463 13.1698C130.536 14.4376 131.584 15.7713 132.548 17.1097C134.158 19.3459 135.057 21.4738 135.057 24.0971C135.057 26.1205 135.018 27.7876 134.413 29.3999C134.031 30.4204 133.476 31.3554 132.845 32.4188C132.735 32.6048 132.622 32.7947 132.508 32.9897C131.184 35.2449 129.148 36.9477 126.743 38.4172L126.699 38.444C124.094 40.0358 121.848 41.4083 119.315 41.4083C119.143 41.4083 118.973 41.4086 118.805 41.4088C116.266 41.4126 113.985 41.416 112.042 40.5523C111.191 40.1742 110.134 39.7266 109.162 39.4304C109.162 39.4303 109.142 39.4237 109.1 39.4033C109.052 39.3798 108.989 39.346 108.908 39.2983C108.793 39.2304 108.688 39.164 108.562 39.0842C108.488 39.0374 108.407 38.986 108.312 38.9269C108.09 38.7886 107.807 38.6184 107.507 38.4827C107.22 38.353 106.797 38.1971 106.308 38.1971C105.48 38.1971 104.808 38.8687 104.808 39.6971C104.808 40.4958 105.432 41.1487 106.22 41.1945C106.232 41.1993 106.249 41.2062 106.27 41.2159C106.38 41.2655 106.523 41.347 106.727 41.4737C106.777 41.5048 106.835 41.5418 106.899 41.582C107.051 41.6782 107.231 41.7923 107.388 41.8849C107.616 42.0188 107.935 42.1929 108.286 42.2998C109.071 42.5387 109.986 42.9216 110.823 43.2938C113.382 44.431 116.297 44.4195 118.689 44.41C118.902 44.4091 119.111 44.4083 119.315 44.4083C122.71 44.4083 125.609 42.6312 127.981 41.1768C128.091 41.1094 128.2 41.0428 128.307 40.977C130.924 39.378 133.421 37.3603 135.095 34.5083C135.194 34.3399 135.297 34.1673 135.402 33.9908C136.028 32.9378 136.738 31.7448 137.222 30.4532C138.043 28.2649 138.057 26.0776 138.057 24.0971C138.057 20.6656 136.839 17.936 134.982 15.3567C133.97 13.9501 132.873 12.5548 131.754 11.232C131.165 10.5365 130.489 10.0218 129.904 9.60175C129.764 9.50157 129.632 9.40816 129.506 9.31911C129.068 9.00876 128.704 8.75122 128.357 8.44331C127.466 7.65065 126.751 7.36264 126.025 7.06998C125.899 7.01899 125.772 6.96786 125.644 6.9139C125.512 6.85832 125.36 6.80311 125.248 6.76219C125.226 6.75427 125.206 6.74688 125.187 6.74013C125.051 6.69005 124.951 6.65143 124.869 6.61345C124.85 6.60488 124.834 6.59725 124.821 6.59063ZM106.193 41.1852C106.193 41.1851 106.193 41.1853 106.195 41.1857L106.193 41.1852Z" fill="#E56553"/>
<path fill-rule="evenodd" clip-rule="evenodd" d="M109.27 40.9242C109.641 40.1833 110.542 39.8829 111.282 40.2534C112.597 40.9107 113.252 42.2929 113.588 43.3573C113.948 44.4947 114.082 45.7132 114.082 46.5944C114.082 49.1706 112.912 51.0363 111.787 52.7669C111.15 53.7473 110.376 54.6958 109.667 55.5636C109.362 55.9381 109.068 56.2976 108.803 56.6381C108.619 56.8752 108.429 57.1234 108.234 57.3788C107.409 58.4579 106.488 59.6633 105.469 60.6824C105.007 61.1446 104.515 61.5734 104.066 61.9644L104.046 61.9817C103.578 62.3892 103.156 62.7583 102.768 63.1456C101.744 64.17 100.752 65.4177 99.8296 66.6634C99.8155 66.6825 99.8001 66.7033 99.7836 66.7257C99.647 66.911 99.4328 67.2015 99.1965 67.471C99.0099 67.6837 98.7091 68.0042 98.3197 68.2483C98.3157 68.2561 98.3114 68.2647 98.3065 68.2741C98.281 68.3239 98.2463 68.3908 98.2061 68.4618C98.1299 68.5962 97.999 68.8091 97.7965 69.0115C97.7265 69.0815 97.6347 69.2054 97.5012 69.4398C97.4422 69.5435 97.3854 69.6497 97.318 69.7756L97.2953 69.8181C97.2223 69.9545 97.1358 70.1152 97.042 70.274C96.8389 70.6176 96.6076 70.9641 96.4042 71.2687C96.3473 71.3541 96.2925 71.4361 96.2411 71.5139C95.9889 71.896 95.787 72.2214 95.635 72.5391C94.9392 73.9939 93.845 75.19 92.8065 76.2072C92.4116 76.594 92.0367 76.9451 91.68 77.2791C91.0312 77.8868 90.4425 78.4382 89.9019 79.0464C88.4103 80.7244 86.0783 83.1625 82.8601 83.1625C81.8357 83.1625 80.8703 82.9733 80.0621 82.8149L80.0169 82.8061C79.1542 82.6371 78.4619 82.5056 77.7695 82.5056C76.9411 82.5056 76.2695 81.834 76.2695 81.0056C76.2695 80.1772 76.9411 79.5056 77.7695 79.5056C78.7755 79.5056 79.7303 79.6928 80.5319 79.8499L80.5935 79.862C81.453 80.0304 82.1539 80.1625 82.8601 80.1625C84.5708 80.1625 86.0734 78.8378 87.6597 77.0533C88.287 76.3475 89.0542 75.6274 89.7671 74.9583C90.0987 74.647 90.4187 74.3466 90.7073 74.0639C91.6913 73.1002 92.469 72.2057 92.9286 71.2447C93.1743 70.7312 93.4721 70.2632 93.7375 69.8611C93.8081 69.7541 93.8754 69.6533 93.9399 69.5566C94.1337 69.2661 94.3021 69.0137 94.4592 68.7478C94.5171 68.6498 94.5766 68.5402 94.6504 68.4023C94.6579 68.3883 94.6656 68.374 94.6734 68.3593C94.7381 68.2383 94.8143 68.0959 94.8943 67.9553C95.0604 67.6635 95.2899 67.294 95.6106 66.9565C95.6201 66.939 95.6275 66.9243 95.6382 66.9029C95.6524 66.8747 95.6724 66.8348 95.7109 66.7613C95.7661 66.6557 95.8673 66.4675 96.0157 66.2806C96.1643 66.0933 96.3959 65.8608 96.7372 65.6983C96.742 65.6945 96.748 65.6895 96.7552 65.6833C96.7997 65.6449 96.862 65.583 96.9409 65.493C97.0882 65.325 97.2256 65.1391 97.3697 64.9442C97.386 64.9222 97.4024 64.9 97.419 64.8777C98.3701 63.5936 99.4655 62.2059 100.647 61.0242C101.114 60.5571 101.61 60.1254 102.06 59.7328L102.075 59.7199C102.543 59.312 102.964 58.9448 103.347 58.5611C104.211 57.6972 104.978 56.6955 105.793 55.6308C106.003 55.3564 106.216 55.0778 106.435 54.7963C106.796 54.3331 107.141 53.9106 107.473 53.5053C108.125 52.707 108.724 51.9756 109.272 51.132C110.407 49.3856 111.082 48.1926 111.082 46.5944C111.082 45.9658 110.98 45.0586 110.728 44.2609C110.452 43.39 110.122 43.0274 109.941 42.9367C109.2 42.5662 108.9 41.6652 109.27 40.9242ZM96.7234 65.7088C96.7234 65.7088 96.7239 65.7084 96.7249 65.7078L96.7234 65.7088ZM95.5894 66.9938C95.5894 66.9937 95.5904 66.992 95.5925 66.9888C95.5904 66.9924 95.5894 66.9939 95.5894 66.9938Z" fill="#E56553"/>
<path fill-rule="evenodd" clip-rule="evenodd" d="M133.601 35.4971C134.429 35.4971 135.101 36.1686 135.101 36.9971C135.101 37.9583 134.936 38.9421 134.773 39.8129C134.736 40.0104 134.699 40.2013 134.664 40.3867C134.533 41.0645 134.417 41.6682 134.353 42.2513C133.969 45.7482 133.388 49.1035 132.23 52.5138C131.16 55.6643 129.031 58.4958 127.194 60.9399C126.936 61.2832 126.684 61.6189 126.441 61.9468C126.005 62.5354 125.599 63.1314 125.174 63.7552C125.046 63.9441 124.915 64.1356 124.782 64.3302C124.22 65.1504 123.617 66.0036 122.927 66.8256C122.267 67.6132 121.571 68.3556 120.909 69.0631C120.833 69.1444 120.757 69.2253 120.682 69.3057C119.941 70.0979 119.243 70.8566 118.601 71.6653C118.302 72.0428 117.992 72.455 117.67 72.8837C116.904 73.9032 116.068 75.0158 115.135 75.9754C114.014 77.1284 113.065 78.3256 112.205 79.6761C111.929 80.1106 111.697 80.5121 111.45 80.9395C111.286 81.2232 111.115 81.5183 110.921 81.8419C110.466 82.5989 109.943 83.3973 109.263 84.1529C107.837 85.738 106.31 87.1637 104.739 88.5386C101.596 91.2887 98.2688 93.7522 94.8818 96.1043C94.0208 96.7022 93.105 97.2094 92.2663 97.6739C92.2149 97.7024 92.1638 97.7307 92.1131 97.7588C91.2075 98.2608 90.3915 98.7217 89.6557 99.2587L89.6177 99.2864C89.0813 99.6779 88.4327 100.151 87.6762 100.513C87.5004 100.597 87.3275 100.727 87.0645 100.964C87.0211 101.003 86.9716 101.049 86.9168 101.1C86.6899 101.309 86.3738 101.602 86.0371 101.845C85.7113 102.08 85.4247 102.308 85.1074 102.561C84.8662 102.754 84.6072 102.96 84.2997 103.194C83.6676 103.676 82.9233 104.197 82.1043 104.551C81.8479 104.662 81.5759 104.805 81.255 104.982C81.1892 105.019 81.1201 105.057 81.0485 105.097C80.7925 105.239 80.5049 105.399 80.2202 105.544C79.4878 105.916 78.5406 106.316 77.4409 106.316C76.6125 106.316 75.9409 105.645 75.9409 104.816C75.9409 103.988 76.6125 103.316 77.4409 103.316C77.8227 103.316 78.2558 103.177 78.8604 102.87C79.0906 102.753 79.3119 102.63 79.5586 102.493C79.638 102.448 79.72 102.403 79.8058 102.355C80.139 102.172 80.5174 101.969 80.915 101.797C81.3882 101.593 81.8972 101.254 82.481 100.809C82.6736 100.662 82.8987 100.483 83.135 100.296C83.5172 99.9931 83.9289 99.6667 84.2806 99.4127C84.4572 99.2851 84.5971 99.1563 84.799 98.9704C84.874 98.9013 84.9575 98.8244 85.0547 98.7367C85.3739 98.4487 85.8059 98.0822 86.3818 97.8067C86.8657 97.5753 87.3088 97.2574 87.8873 96.8353C88.7944 96.1733 89.7668 95.6294 90.6585 95.1351L90.7731 95.0715C91.6454 94.5881 92.4384 94.1486 93.1706 93.6402C96.5119 91.3198 99.7383 88.9278 102.763 86.2809C104.289 84.9458 105.718 83.6075 107.033 82.146C107.526 81.599 107.934 80.9884 108.349 80.2968C108.488 80.0659 108.639 79.8063 108.797 79.5339C109.074 79.0546 109.375 78.5359 109.674 78.0655C110.646 76.5392 111.723 75.1814 112.984 73.8841C113.782 73.0636 114.424 72.2071 115.13 71.2663C115.479 70.8006 115.844 70.3141 116.251 69.8012C116.976 68.8872 117.749 68.0498 118.49 67.2568C118.566 67.176 118.641 67.0956 118.716 67.0156C119.386 66.2999 120.024 65.6186 120.629 64.8977C121.221 64.1916 121.757 63.437 122.308 62.6335C122.428 62.4584 122.55 62.2796 122.673 62.0984C123.104 61.4655 123.555 60.8027 124.03 60.1611C124.29 59.8101 124.551 59.4614 124.811 59.1143C126.677 56.6237 128.485 54.2098 129.389 51.5491C130.451 48.4217 131 45.3022 131.371 41.924C131.45 41.2076 131.596 40.4476 131.73 39.7555C131.763 39.5857 131.794 39.4201 131.824 39.2602C131.986 38.3991 132.101 37.655 132.101 36.9971C132.101 36.1686 132.773 35.4971 133.601 35.4971Z" fill="#E56553"/>
<path fill-rule="evenodd" clip-rule="evenodd" d="M56.5769 106.77C57.4053 106.77 58.0769 107.441 58.0769 108.27C58.0769 109.268 57.7536 110.165 56.9912 110.809C56.3225 111.374 55.4826 111.591 54.8073 111.714C54.5167 111.767 54.2586 111.886 53.7969 112.099C53.7226 112.133 53.6431 112.17 53.5574 112.209C53.0158 112.457 52.2303 112.797 51.2743 112.797C50.8304 112.797 50.3724 112.835 49.8343 112.88L49.8184 112.882C49.3056 112.925 48.7193 112.975 48.1184 112.975C48.1196 112.975 48.1191 112.975 48.1173 112.975C48.0988 112.979 47.9396 113.012 47.7223 113.281C47.488 113.571 47.3925 113.893 47.3925 114.057C47.3925 114.089 47.401 114.196 47.4446 114.37C47.486 114.536 47.5486 114.72 47.6268 114.897C47.7062 115.076 47.7897 115.221 47.8626 115.32C47.8972 115.368 47.921 115.394 47.9319 115.405C48.8493 115.957 49.3286 116.795 49.6283 117.441C49.7492 117.701 49.8607 117.977 49.9541 118.208C49.9764 118.263 49.9976 118.315 50.0177 118.365C50.1324 118.645 50.2243 118.855 50.32 119.027C50.6587 119.636 50.8358 120.529 50.829 121.3C50.8254 121.707 50.7713 122.188 50.5927 122.652C50.4114 123.122 50.0592 123.672 49.4125 123.996C48.4522 124.476 47.3654 124.323 46.6892 124.177C46.0776 124.045 45.462 123.833 45.0595 123.695C44.9786 123.667 44.9063 123.643 44.8444 123.622C43.5623 123.195 42.3217 122.513 41.2701 121.589C41.3459 121.804 41.4163 122.035 41.4704 122.279C41.757 123.569 41.8722 124.936 41.8722 126.215C41.8722 126.961 41.6452 127.61 41.2143 128.145C40.8252 128.629 40.3293 128.943 39.949 129.16C39.427 129.458 38.9364 129.715 38.3696 129.874C37.7947 130.035 37.2334 130.07 36.5931 130.07C35.9918 130.07 34.8424 130.023 34.0043 129.979C33.589 129.957 33.2106 129.933 33.0006 129.913C32.9544 129.908 32.8754 129.9 32.7979 129.887C32.7756 129.884 32.7398 129.877 32.6973 129.867C32.6691 129.861 32.5726 129.838 32.4572 129.791C32.4051 129.77 32.2744 129.713 32.1299 129.606C32.031 129.532 31.6226 129.216 31.5384 128.607C31.4377 127.877 31.8698 127.41 32.0673 127.246C32.261 127.085 32.4474 127.014 32.5079 126.992C32.6498 126.94 32.7693 126.921 32.7996 126.916L32.8012 126.916C32.8497 126.908 32.89 126.904 32.9139 126.902C32.9628 126.898 33.0072 126.896 33.0371 126.895C33.1002 126.893 33.1732 126.892 33.2493 126.892C33.3999 126.892 33.5453 126.914 33.6824 126.955C33.8196 126.964 33.9821 126.973 34.1638 126.983C34.9976 127.027 36.0781 127.07 36.5931 127.07C37.1364 127.07 37.3774 127.036 37.5608 126.985C37.7522 126.932 37.9757 126.832 38.4606 126.555C38.6039 126.473 38.7028 126.41 38.7742 126.356C38.8282 126.315 38.8562 126.288 38.869 126.274C38.8706 126.262 38.8722 126.243 38.8722 126.215C38.8722 125.103 38.7709 123.961 38.5419 122.93C38.4842 122.67 38.3769 122.401 38.2106 122.022C38.1945 121.985 38.1774 121.947 38.1597 121.907C38.0145 121.578 37.8227 121.144 37.6933 120.692C37.6006 120.367 37.438 119.552 37.475 118.852C37.4849 118.664 37.5119 118.419 37.5905 118.167C37.663 117.933 37.8305 117.526 38.2359 117.216C38.7111 116.852 39.2678 116.803 39.7233 116.914C40.0577 116.996 40.3314 117.159 40.5358 117.309C40.567 117.32 40.6127 117.335 40.6902 117.359C40.7914 117.392 40.9551 117.444 41.1237 117.515C41.2948 117.587 41.5175 117.697 41.7383 117.869C42.0166 118.085 42.2608 118.33 42.4507 118.529C42.5443 118.627 42.6185 118.706 42.6845 118.777C42.7771 118.876 42.8539 118.958 42.9465 119.051C43.7226 119.827 44.7216 120.419 45.793 120.776C45.8933 120.809 45.9937 120.844 46.0943 120.878C46.4964 121.015 46.9023 121.154 47.3223 121.245C47.5451 121.293 47.7103 121.312 47.8282 121.319C47.8287 121.304 47.829 121.289 47.8291 121.274C47.8307 121.1 47.8092 120.909 47.7722 120.739C47.7393 120.587 47.7058 120.505 47.6984 120.487C47.6967 120.482 47.6963 120.482 47.6975 120.484C47.5086 120.144 47.3602 119.792 47.2407 119.499C47.2116 119.428 47.1844 119.361 47.1584 119.297C47.0684 119.075 46.9932 118.889 46.9072 118.704C46.6895 118.235 46.5263 118.058 46.3785 117.971C45.6114 117.52 45.1402 116.691 44.8835 116.111C44.6073 115.487 44.3925 114.721 44.3925 114.057C44.3925 113.08 44.8102 112.112 45.3891 111.395C45.9626 110.686 46.9067 109.975 48.1184 109.975C48.5784 109.975 49.0459 109.936 49.5813 109.891L49.6182 109.888C50.1231 109.845 50.6957 109.797 51.2743 109.797C51.5327 109.797 51.8077 109.711 52.3088 109.482C52.3639 109.456 52.4243 109.428 52.4893 109.397C52.9242 109.193 53.569 108.89 54.2706 108.762C54.5331 108.715 54.7225 108.665 54.8598 108.614C54.9765 108.571 55.03 108.536 55.0487 108.522C55.0567 108.499 55.0769 108.424 55.0769 108.27C55.0769 107.441 55.7485 106.77 56.5769 106.77ZM40.4831 117.29C40.4832 117.29 40.4855 117.291 40.4898 117.293C40.4851 117.291 40.483 117.29 40.4831 117.29ZM38.8664 126.288C38.8663 126.289 38.8665 126.288 38.8668 126.287L38.8664 126.288ZM40.473 118.983C40.4731 118.983 40.4729 118.984 40.4726 118.987C40.4729 118.984 40.473 118.983 40.473 118.983ZM38.7572 119.725C38.7509 119.721 38.7477 119.719 38.7477 119.719C38.7477 119.718 38.7508 119.72 38.7572 119.725Z" fill="#E56553"/>
<path fill-rule="evenodd" clip-rule="evenodd" d="M10.945 131.673C12.0896 131.292 13.3698 131.448 14.2113 131.63C14.4768 131.688 14.8377 131.703 15.3288 131.688C15.4696 131.684 15.6447 131.675 15.8334 131.666C16.1775 131.65 16.5665 131.631 16.8746 131.631C17.7031 131.631 18.3746 132.303 18.3746 133.131C18.3746 133.96 17.7031 134.631 16.8746 134.631C16.6146 134.631 16.3832 134.643 16.1141 134.657C15.9131 134.667 15.691 134.678 15.4203 134.687C14.8801 134.703 14.2163 134.701 13.5773 134.563C12.8918 134.414 12.2603 134.397 11.8937 134.519C11.2357 134.739 10.5547 135.203 10.0458 135.814C9.5368 136.425 9.27666 137.086 9.27666 137.68C9.27666 138.167 9.23209 138.64 9.19461 139.039L9.19164 139.07C9.15142 139.498 9.11979 139.848 9.11979 140.19C9.11979 140.324 9.12507 140.447 9.13166 140.6C9.13391 140.653 9.1363 140.709 9.13869 140.77C9.14712 140.985 9.15499 141.261 9.13233 141.549C9.08352 142.17 8.88853 142.896 8.27155 143.541C8.26779 143.546 8.25818 143.559 8.24042 143.586C8.23884 143.588 8.23613 143.592 8.2324 143.598C8.20155 143.645 8.10105 143.797 7.99485 143.924C7.84654 144.1 7.62307 144.314 7.29483 144.468C6.9718 144.621 6.64458 144.67 6.34747 144.67C6.17881 144.67 5.99846 144.693 5.69985 144.735C5.68988 144.736 5.67975 144.737 5.66945 144.739C5.40485 144.776 5.03396 144.827 4.63942 144.827C4.37819 144.827 4.09619 144.856 3.71178 144.897L3.69162 144.899C3.33933 144.937 2.89778 144.984 2.44336 144.984C1.61493 144.984 0.943359 144.313 0.943359 143.484C0.943359 142.656 1.61493 141.984 2.44336 141.984C2.72119 141.984 3.01396 141.955 3.39348 141.914C3.40648 141.913 3.41961 141.911 3.43287 141.91C3.77716 141.873 4.20634 141.827 4.63942 141.827C4.80819 141.827 4.98862 141.805 5.28717 141.763C5.29717 141.762 5.30734 141.76 5.31766 141.759C5.48142 141.736 5.68588 141.708 5.91146 141.689C5.96527 141.621 6.02897 141.545 6.10282 141.468C6.11453 141.456 6.11828 141.45 6.1183 141.45L6.11846 141.45L6.11849 141.45L6.11849 141.45L6.1185 141.45L6.1187 141.449L6.11941 141.448C6.12156 141.442 6.13421 141.408 6.14156 141.314C6.1495 141.213 6.14878 141.086 6.14099 140.887C6.1396 140.852 6.13789 140.812 6.13605 140.77C6.1289 140.605 6.11979 140.395 6.11979 140.19C6.11979 139.694 6.1649 139.214 6.20271 138.812L6.20481 138.79C6.24519 138.36 6.27666 138.015 6.27666 137.68C6.27666 136.222 6.89829 134.905 7.74089 133.893C8.58349 132.882 9.72384 132.08 10.945 131.673Z" fill="#E56553"/>
<path fill-rule="evenodd" clip-rule="evenodd" d="M27.4344 113.322C28.2381 113.523 28.7268 114.338 28.5259 115.142C28.409 115.609 28.2517 116.092 28.1143 116.514L28.1142 116.515L28.1139 116.515C28.072 116.644 28.032 116.767 27.9956 116.882C27.8262 117.417 27.7044 117.864 27.6536 118.286C27.5804 118.893 27.595 119.467 27.6123 120.144L27.6123 120.144C27.6206 120.47 27.6295 120.82 27.6295 121.209C27.6295 122.037 26.9579 122.709 26.1295 122.709C25.301 122.709 24.6295 122.037 24.6295 121.209C24.6295 120.985 24.6232 120.73 24.6164 120.456L24.6164 120.455V120.455C24.5974 119.686 24.5746 118.762 24.6751 117.927C24.761 117.214 24.9549 116.547 25.1356 115.976C25.1883 115.81 25.2386 115.655 25.2865 115.508L25.2867 115.507L25.287 115.506L25.2871 115.506L25.2871 115.506C25.4155 115.111 25.5262 114.771 25.6154 114.414C25.8164 113.61 26.6308 113.122 27.4344 113.322ZM27.1901 128.387C27.7759 127.802 27.7759 126.852 27.1901 126.266C26.6043 125.68 25.6545 125.68 25.0688 126.266C24.6032 126.732 24.2114 127.409 23.9823 127.805L23.9823 127.805L23.982 127.805C23.9386 127.881 23.9009 127.946 23.8698 127.997C23.756 128.185 23.653 128.337 23.5383 128.502C23.0019 128.321 22.393 128.18 21.7373 128.18C20.9089 128.18 20.2373 128.851 20.2373 129.68C20.2373 130.508 20.9089 131.18 21.7373 131.18C21.8645 131.18 21.9916 131.193 22.1243 131.218C21.8299 131.965 21.4922 132.847 21.4922 134.072C21.4922 134.9 22.1638 135.572 22.9922 135.572C23.8206 135.572 24.4922 134.9 24.4922 134.072C24.4922 133.429 24.6006 133.151 24.8355 132.548L24.8355 132.548L24.8359 132.547C24.8648 132.473 24.8956 132.394 24.9283 132.309C25.4326 132.47 25.9969 132.591 26.6 132.591C27.4284 132.591 28.1 131.92 28.1 131.091C28.1 130.263 27.4284 129.591 26.6 129.591C26.5393 129.591 26.4785 129.588 26.4171 129.582L26.437 129.549C26.5303 129.395 26.6106 129.259 26.6818 129.138L26.6818 129.138C26.8964 128.774 27.0289 128.549 27.1901 128.387ZM19.8177 117.795C19.232 117.21 18.2822 117.21 17.6964 117.795C17.1106 118.381 17.1106 119.331 17.6964 119.917C17.8582 120.079 18.0366 120.388 18.1697 120.868C18.2987 121.334 18.3551 121.852 18.3551 122.307C18.3551 123.135 19.0267 123.807 19.8551 123.807C20.6835 123.807 21.3551 123.135 21.3551 122.307C21.3551 121.633 21.2747 120.839 21.0607 120.067C20.851 119.31 20.4803 118.458 19.8177 117.795ZM9.1001 125.444C9.1001 124.616 9.77167 123.944 10.6001 123.944C11.1124 123.944 11.6065 124.039 11.9957 124.126C12.2111 124.175 12.3716 124.214 12.514 124.249C12.6876 124.292 12.8342 124.328 13.0206 124.366C13.4048 124.442 13.7696 124.435 14.2842 124.424H14.2842C14.492 124.42 14.7243 124.415 14.9922 124.415C15.8207 124.415 16.4922 125.086 16.4922 125.915C16.4922 126.743 15.8207 127.415 14.9922 127.415C14.8787 127.415 14.7445 127.418 14.5948 127.422C14.0037 127.436 13.1724 127.455 12.4323 127.307C12.2173 127.264 11.928 127.194 11.6835 127.135L11.6835 127.135L11.6834 127.135L11.6833 127.135L11.6831 127.135C11.5479 127.103 11.4264 127.073 11.3389 127.054C11.0043 126.978 10.7719 126.944 10.6001 126.944C9.77167 126.944 9.1001 126.273 9.1001 125.444ZM24.6492 141.444C24.6492 140.616 23.9776 139.944 23.1492 139.944C22.3207 139.944 21.6492 140.616 21.6492 141.444V145.052C21.6492 145.88 22.3207 146.552 23.1492 146.552C23.9776 146.552 24.6492 145.88 24.6492 145.052V141.444ZM27.1507 137.964C27.2534 137.142 28.0031 136.559 28.8251 136.662C29.4921 136.745 29.9642 137.116 30.2411 137.385C30.5235 137.659 30.7557 137.98 30.9168 138.207C30.9674 138.279 31.0121 138.343 31.0528 138.401L31.0529 138.401L31.0529 138.401C31.1662 138.563 31.2481 138.68 31.3373 138.791C31.3773 138.84 31.4049 138.87 31.4204 138.886C32.109 139.277 32.3783 140.143 32.0199 140.86C31.6494 141.601 30.7484 141.901 30.0075 141.531C29.5327 141.294 29.201 140.92 29.0051 140.678C28.8426 140.477 28.6774 140.24 28.5521 140.06L28.5521 140.06L28.552 140.06C28.5303 140.029 28.5098 140 28.4908 139.973C28.4827 139.961 28.4749 139.95 28.4673 139.939C28.3415 139.761 28.2567 139.652 28.1953 139.583C27.5129 139.373 27.059 138.697 27.1507 137.964ZM28.1307 139.519C28.1307 139.518 28.1335 139.521 28.1391 139.526C28.1335 139.521 28.1308 139.519 28.1307 139.519ZM32.5608 136.67C32.9035 136.67 33.2244 136.664 33.5313 136.659H33.5313C34.2309 136.648 34.8579 136.637 35.5061 136.694C36.3839 136.77 37.0938 136.962 37.6895 137.359C38.3788 137.818 39.3101 137.632 39.7696 136.943C40.2291 136.254 40.0429 135.322 39.3536 134.863C38.1854 134.084 36.9231 133.805 35.7655 133.705C34.9533 133.634 34.0832 133.649 33.3246 133.661C33.0531 133.666 32.7959 133.67 32.5608 133.67C31.7324 133.67 31.0608 134.341 31.0608 135.17C31.0608 135.998 31.7324 136.67 32.5608 136.67Z" fill="#2B2B2B"/>
</svg>
