<svg width="33" height="24" viewBox="0 0 33 24" fill="none" xmlns="http://www.w3.org/2000/svg">
<path fill-rule="evenodd" clip-rule="evenodd" d="M32.2459 13.0924C32.7091 13.8688 32.5214 14.9178 31.8265 15.4354C29.366 17.2681 26.3304 19.5238 23.3992 20.8635C22.3171 21.3582 21.206 21.6524 20.2154 21.9101C20.1794 21.9195 20.1435 21.9288 20.1079 21.9381C19.1256 22.1935 18.2633 22.4176 17.4462 22.7625C15.8823 23.4227 14.2081 24.0009 12.3072 24.0009C10.4452 24.0009 7.84623 23.9431 5.58289 23.1083C3.24621 22.2465 1.04455 20.4535 0.520811 16.9424C0.383511 16.022 0.940031 15.1515 1.76383 14.9981C2.58764 14.8447 3.36677 15.4665 3.50407 16.3869C3.78223 18.2517 4.85643 19.2819 6.53091 19.8995C8.27872 20.5441 10.4262 20.6217 12.3072 20.6217C13.6549 20.6217 14.9183 20.2173 16.3774 19.6014C17.3884 19.1747 18.4307 18.9042 19.3623 18.6625C19.4184 18.6479 19.4742 18.6334 19.5295 18.619C20.5391 18.3564 21.426 18.1145 22.2541 17.736C24.8536 16.5478 27.633 14.4978 30.1488 12.6238C30.8437 12.1062 31.7826 12.316 32.2459 13.0924Z" fill="#2B2B2B"/>
<path fill-rule="evenodd" clip-rule="evenodd" d="M9.32098 7.09724C9.32031 7.10503 9.32004 7.10812 9.32004 7.10642C9.32004 8.03955 8.64301 8.796 7.80784 8.796C6.97268 8.796 6.29564 8.03955 6.29564 7.10642C6.29564 6.56265 6.48031 5.35035 6.78229 4.31155C6.93596 3.78292 7.16022 3.15331 7.48753 2.63057C7.77281 2.17495 8.45985 1.30552 9.57428 1.43004C10.0112 1.47885 10.3444 1.70948 10.4752 1.80327C10.6524 1.93022 10.8185 2.07922 10.9577 2.21276C11.2374 2.48113 11.5419 2.81738 11.8081 3.11484C11.8635 3.17677 11.9175 3.23731 11.9702 3.29637C12.188 3.54049 12.3833 3.75935 12.5619 3.94695C12.7624 4.15736 12.8474 4.22494 12.8456 4.22786C12.8451 4.22882 12.8349 4.22268 12.8163 4.21227C13.5633 4.62957 13.8661 5.64446 13.4926 6.47907C13.1191 7.31369 12.2107 7.65198 11.4637 7.23467C11.0814 7.02107 10.7128 6.6425 10.4908 6.40944C10.2724 6.18007 10.0322 5.91081 9.81233 5.66426C9.76348 5.60949 9.71564 5.55585 9.66925 5.50401C9.65583 5.48901 9.64252 5.47415 9.62932 5.45943C9.53155 5.81375 9.45324 6.18962 9.39848 6.51645C9.34195 6.85379 9.32482 7.05264 9.32098 7.09724ZM9.99568 4.52426C9.9957 4.52486 9.99122 4.53145 9.9822 4.54222C9.99116 4.52904 9.99567 4.52366 9.99568 4.52426Z" fill="#2B2B2B"/>
<path fill-rule="evenodd" clip-rule="evenodd" d="M21.0682 5.57864C20.9793 6.41704 20.3409 7.06725 19.5666 7.06725C18.7314 7.06725 18.0544 6.3108 18.0544 5.37767C18.0544 4.98614 18.1632 4.62376 18.2157 4.45556C18.2871 4.22682 18.3799 3.98271 18.4788 3.74519C18.6778 3.26749 18.9399 2.72526 19.2141 2.2271C19.4782 1.74728 19.7997 1.22329 20.1259 0.835029C20.2691 0.664501 20.5304 0.375271 20.8839 0.189751C21.0707 0.0917441 21.3977 -0.0383935 21.8056 0.010712C22.2687 0.066456 22.6555 0.331571 22.9135 0.691954C23.1503 1.02262 23.5417 1.36822 24.1164 1.87573C24.186 1.9372 24.2583 2.00104 24.3334 2.06752C24.6421 2.34101 24.9901 2.65668 25.3001 2.99377C25.6026 3.3227 25.9449 3.75169 26.1797 4.27633C26.5532 5.11094 26.2504 6.12583 25.5034 6.54314C24.7564 6.96044 23.8481 6.62215 23.4746 5.78753C23.459 5.75267 23.3898 5.63181 23.1909 5.41555C22.9995 5.20746 22.756 4.98263 22.4543 4.71534C22.3895 4.65792 22.32 4.59706 22.2469 4.53307C22.0913 4.39689 21.9195 4.24653 21.7425 4.085C21.5423 4.45604 21.3558 4.84684 21.2208 5.17101C21.1474 5.34729 21.0985 5.48144 21.0714 5.56827C21.0703 5.57188 21.0692 5.57534 21.0682 5.57864ZM21.0528 5.63538C21.0525 5.63564 21.0538 5.62913 21.0576 5.61505C21.055 5.62808 21.0531 5.63512 21.0528 5.63538ZM22.365 3.11029C22.3649 3.11064 22.3608 3.11519 22.3526 3.12286C22.3609 3.11377 22.365 3.10993 22.365 3.11029Z" fill="#2B2B2B"/>
</svg>
