<svg width="18" height="16" viewBox="0 0 18 16" fill="none" xmlns="http://www.w3.org/2000/svg">
<path d="M0.42688 7.92075C0.0642064 8.54075 0.0742808 9.41907 0.124652 9.78073C0.0773975 10.9432 0.42688 11.9507 1.10686 12.1832C3.75136 12.6482 4.58248 12.9582 6.32029 14.0432C8.0581 15.1282 12.4404 16.0582 15.9916 14.0432C19.5427 12.0282 17.5027 10.0908 16.5205 9.47076C15.5382 8.85077 15.3116 9.31577 16.8983 7.37829C19.7694 4.04584 15.4627 3.81334 14.7827 3.81334C14.1027 3.81334 13.4226 3.96831 11.307 1.48834C9.19145 -0.991623 3.90247 0.170861 1.56021 1.10085C-0.782054 2.03084 0.124652 5.75078 0.42688 6.44827C0.729107 7.14577 0.880221 7.14577 0.42688 7.92075Z" fill="url(#paint0_linear_5324_43303)"/>
<g opacity="0.5">
<path d="M6.49344 7.36464C5.76309 6.56629 3.70392 7.03199 2.76562 7.36464C3.98287 7.14297 5.5805 7.36464 6.34128 7.91895C6.9499 8.3624 8.82649 9.28646 9.6887 9.69306C8.92792 9.24956 7.22378 8.16299 6.49344 7.36464Z" fill="#2B2B2B"/>
<path d="M4.65364 4.12608C2.53805 4.12608 1.95878 3.24775 1.93359 2.80859C2.10989 2.98942 2.71939 3.33559 3.74696 3.27359C6.69368 2.96359 8.0537 4.12608 8.88483 5.05606C9.54973 5.80005 11.4286 6.29605 12.2849 6.45104C12.1338 6.50271 11.4538 6.57504 9.94263 6.45104C8.0537 6.29605 7.29813 4.12608 4.65364 4.12608Z" fill="#2B2B2B"/>
<path d="M16.8934 7.3794C19.7646 4.04695 15.4579 3.81445 14.7778 3.81445C16.1631 4.09862 18.3441 5.14743 15.9868 7.06941C13.04 9.47188 13.8712 9.16188 11 9.70437C12.6925 9.76637 13.72 10.7635 14.0223 11.2544C14.123 11.4868 14.4907 12.0138 15.1556 12.2618C15.9868 12.5718 16.7423 14.0184 12.8134 15.1163C13.8849 14.9568 14.9699 14.6213 15.9868 14.0443C19.5379 12.0293 17.4979 10.0919 16.5157 9.47188C15.5334 8.85188 15.3067 9.31688 16.8934 7.3794Z" fill="#2B2B2B"/>
</g>
<defs>
<linearGradient id="paint0_linear_5324_43303" x1="1.03846" y1="1.03846" x2="14.1923" y2="14.1923" gradientUnits="userSpaceOnUse">
<stop stop-color="#EFD700"/>
<stop offset="0.668932" stop-color="#FFF491"/>
<stop offset="1" stop-color="#EBD300"/>
</linearGradient>
</defs>
</svg>
