<svg width="56" height="56" viewBox="0 0 56 56" fill="none" xmlns="http://www.w3.org/2000/svg">
<path d="M47.799 8.20094C42.5105 2.91255 35.4791 0 28 0C20.5208 0 13.4893 2.91255 8.20094 8.20094C2.91244 13.4894 0 20.5209 0 28C0 35.4791 2.91244 42.5105 8.20094 47.799C13.4894 53.0875 20.5208 56 28 56C35.4791 56 42.5105 53.0875 47.799 47.799C53.0875 42.5105 56 35.4791 56 28C56 20.5209 53.0875 13.4895 47.799 8.20094ZM28 52.7188C14.37 52.7188 3.28125 41.63 3.28125 28C3.28125 14.37 14.37 3.28125 28 3.28125C41.63 3.28125 52.7188 14.37 52.7188 28C52.7188 41.63 41.63 52.7188 28 52.7188Z" fill="black"/>
<path d="M41.3771 19.0155C40.7365 18.375 39.6977 18.375 39.057 19.0156L24.5693 33.5033L16.943 25.8769C16.3023 25.2363 15.2635 25.2363 14.6228 25.8769C13.9821 26.5175 13.9821 27.5564 14.6228 28.1971L23.4092 36.9835C23.5614 37.1361 23.7422 37.2571 23.9413 37.3395C24.1403 37.422 24.3538 37.4643 24.5692 37.464C24.989 37.464 25.409 37.3038 25.7293 36.9835L41.3771 21.3357C42.0178 20.6951 42.0178 19.6562 41.3771 19.0155Z" fill="black"/>
</svg>
