<svg width="41" height="40" viewBox="0 0 41 40" fill="none" xmlns="http://www.w3.org/2000/svg">
<rect x="2.5" y="2" width="36" height="36" rx="18" fill="#2B2B2B"/>
<path d="M20.5 27H26.1889C26.6867 27 26.936 27 27.1261 26.9038C27.2934 26.8192 27.4287 26.6843 27.5139 26.5182C27.6108 26.3295 27.6111 26.0824 27.6111 25.5882V21.3529C27.6111 20.8588 27.6108 20.6117 27.5139 20.423C27.4287 20.2569 27.2934 20.1219 27.1261 20.0373C26.936 19.9412 26.6864 19.9412 26.1885 19.9412H21.9219M20.5 27V21.3529M20.5 27H14.8108C14.3129 27 14.0643 27 13.8741 26.9038C13.7069 26.8192 13.571 26.6843 13.4858 26.5182C13.3889 26.3295 13.3889 26.0824 13.3889 25.5882V21.3529C13.3889 20.8588 13.3889 20.6117 13.4858 20.423C13.571 20.2569 13.7069 20.1219 13.8741 20.0373C14.0643 19.9412 14.3129 19.9412 14.8108 19.9412H19.0774M20.5 21.3529C20.5 20.8588 20.5 20.6117 20.5969 20.423C20.6821 20.2569 20.818 20.1219 20.9852 20.0373C21.1754 19.9412 21.4241 19.9412 21.9219 19.9412M20.5 21.3529C20.5 20.8588 20.4997 20.6117 20.4028 20.423C20.3176 20.2569 20.1823 20.1219 20.015 20.0373C19.8249 19.9412 19.5753 19.9412 19.0774 19.9412M21.9219 19.9412H27.0774C27.5753 19.9412 27.8249 19.9412 28.015 19.845C28.1823 19.7604 28.3176 19.6255 28.4028 19.4594C28.4997 19.2707 28.5 19.0236 28.5 18.5294V17.8235C28.5 17.3293 28.4997 17.0823 28.4028 16.8935C28.3176 16.7275 28.1823 16.5925 28.015 16.5079C27.8249 16.4118 27.5753 16.4118 27.0774 16.4118H21.9219C21.4241 16.4118 21.1754 16.4118 20.9852 16.5079C20.818 16.5925 20.6821 16.7275 20.5969 16.8935C20.5 17.0823 20.5 17.3293 20.5 17.8235M21.9219 19.9412C21.4241 19.9412 21.1754 19.9412 20.9852 19.845C20.818 19.7604 20.6821 19.6255 20.5969 19.4594C20.5 19.2707 20.5 19.0236 20.5 18.5294M19.0774 19.9412H13.9219C13.4241 19.9412 13.1754 19.9412 12.9852 19.845C12.818 19.7604 12.6821 19.6255 12.5969 19.4594C12.5 19.2707 12.5 19.0236 12.5 18.5294V17.8235C12.5 17.3293 12.5 17.0823 12.5969 16.8935C12.6821 16.7275 12.818 16.5925 12.9852 16.5079C13.1754 16.4118 13.4241 16.4118 13.9219 16.4118H19.0774C19.5753 16.4118 19.8249 16.4118 20.015 16.5079C20.1823 16.5925 20.3176 16.7275 20.4028 16.8935C20.4997 17.0823 20.5 17.3293 20.5 17.8235M19.0774 19.9412C19.5753 19.9412 19.8249 19.9412 20.015 19.845C20.1823 19.7604 20.3176 19.6255 20.4028 19.4594C20.4997 19.2707 20.5 19.0236 20.5 18.5294M20.5 18.5294V17.8235M20.5 14.2059V16.4118M20.5 14.2059C20.5 12.9876 21.4949 12 22.7222 12C23.9495 12 24.9444 12.9876 24.9444 14.2059C24.9444 15.4242 23.9495 16.4118 22.7222 16.4118H20.5M20.5 14.2059C20.5 12.9876 19.5051 12 18.2778 12C17.0505 12 16.0556 12.9876 16.0556 14.2059C16.0556 15.4242 17.0505 16.4118 18.2778 16.4118H20.5" stroke="white" stroke-width="2" stroke-linecap="round" stroke-linejoin="round"/>
<rect x="2.5" y="2" width="36" height="36" rx="18" stroke="#1C1C1C" stroke-width="4"/>
</svg>
