<svg width="18" height="18" viewBox="0 0 18 18" fill="none" xmlns="http://www.w3.org/2000/svg">
<path d="M5.39995 0H2.69997C1.21112 0 0 1.21112 0 2.69997V5.39995C0 6.8888 1.21112 8.09992 2.69997 8.09992H5.39995C6.8888 8.09992 8.09992 6.8888 8.09992 5.39995V2.69997C8.09992 1.21112 6.8888 0 5.39995 0ZM6.29994 5.39995C6.29994 5.89609 5.89652 6.29994 5.39995 6.29994H2.69997C2.2034 6.29994 1.79998 5.89609 1.79998 5.39995V2.69997C1.79998 2.20383 2.2034 1.79998 2.69997 1.79998H5.39995C5.89652 1.79998 6.29994 2.20383 6.29994 2.69997V5.39995ZM15.2999 0H12.5999C11.111 0 9.8999 1.21112 9.8999 2.69997V5.39995C9.8999 6.8888 11.111 8.09992 12.5999 8.09992H15.2999C16.7887 8.09992 17.9998 6.8888 17.9998 5.39995V2.69997C17.9998 1.21112 16.7887 0 15.2999 0ZM16.1998 5.39995C16.1998 5.89609 15.7964 6.29994 15.2999 6.29994H12.5999C12.1033 6.29994 11.6999 5.89609 11.6999 5.39995V2.69997C11.6999 2.20383 12.1033 1.79998 12.5999 1.79998H15.2999C15.7964 1.79998 16.1998 2.20383 16.1998 2.69997V5.39995ZM5.39995 9.8999H2.69997C1.21112 9.8999 0 11.111 0 12.5999V15.2999C0 16.7887 1.21112 17.9998 2.69997 17.9998H5.39995C6.8888 17.9998 8.09992 16.7887 8.09992 15.2999V12.5999C8.09992 11.111 6.8888 9.8999 5.39995 9.8999ZM6.29994 15.2999C6.29994 15.796 5.89652 16.1998 5.39995 16.1998H2.69997C2.2034 16.1998 1.79998 15.796 1.79998 15.2999V12.5999C1.79998 12.1037 2.2034 11.6999 2.69997 11.6999H5.39995C5.89652 11.6999 6.29994 12.1037 6.29994 12.5999V15.2999ZM15.2999 9.8999H12.5999C11.111 9.8999 9.8999 11.111 9.8999 12.5999V15.2999C9.8999 16.7887 11.111 17.9998 12.5999 17.9998H15.2999C16.7887 17.9998 17.9998 16.7887 17.9998 15.2999V12.5999C17.9998 11.111 16.7887 9.8999 15.2999 9.8999ZM16.1998 15.2999C16.1998 15.796 15.7964 16.1998 15.2999 16.1998H12.5999C12.1033 16.1998 11.6999 15.796 11.6999 15.2999V12.5999C11.6999 12.1037 12.1033 11.6999 12.5999 11.6999H15.2999C15.7964 11.6999 16.1998 12.1037 16.1998 12.5999V15.2999Z" fill="#2B2B2B"/>
</svg>
