<svg width="24" height="24" viewBox="0 0 24 24" fill="none" xmlns="http://www.w3.org/2000/svg">
<path d="M12 22L12 6" stroke="#2B2B2B" stroke-width="2" stroke-linecap="round" stroke-linejoin="round"/>
<path d="M9 12.5L12 16" stroke="#2B2B2B" stroke-width="2" stroke-linecap="round" stroke-linejoin="round"/>
<path d="M12 12.5L15.25 10" stroke="#2B2B2B" stroke-width="2" stroke-linecap="round" stroke-linejoin="round"/>
<path d="M8.00002 19C10.8 19 11.8334 17.6667 12 17C16.5 21.5 21.5 17 18.5 12C21.7 7.6 18.5 6.16667 16.5 6C16.1667 4.66667 14.8 2 12 2C9.20004 2 7.83335 4.66667 7.5 6C6.66668 5.83333 4.80004 5.9 4.00004 7.5C3.20004 9.1 4.66669 11.1667 5.50002 12C3.00002 14.5 4.50002 19 8.00002 19Z" stroke="#2B2B2B" stroke-width="2" stroke-linecap="round" stroke-linejoin="round"/>
</svg>
