<svg width="24" height="24" viewBox="0 0 24 24" fill="none" xmlns="http://www.w3.org/2000/svg">
<path d="M3 21H21" stroke="#2B2B2B" stroke-width="2" stroke-linecap="round" stroke-linejoin="round"/>
<path d="M4.5 20.5L4.67845 19.6078C4.86542 18.6729 5.68625 18 6.63961 18H17.3604C18.3138 18 19.1346 18.6729 19.3216 19.6078L19.5 20.5" stroke="#2B2B2B" stroke-width="2" stroke-linejoin="round"/>
<path d="M5 15H19" stroke="#2B2B2B" stroke-width="2" stroke-linecap="round" stroke-linejoin="round"/>
<path d="M6 15V15C6 11.9624 8.46243 9.5 11.5 9.5H12.5C15.5376 9.5 18 11.9624 18 15V15" stroke="#2B2B2B" stroke-width="2" stroke-linejoin="round"/>
<path d="M12 3.5V2.5" stroke="#2B2B2B" stroke-width="2" stroke-linecap="round" stroke-linejoin="round"/>
<path d="M3.5 12L2.5 12" stroke="#2B2B2B" stroke-width="2" stroke-linecap="round" stroke-linejoin="round"/>
<path d="M21.5 12L20.5 12" stroke="#2B2B2B" stroke-width="2" stroke-linecap="round" stroke-linejoin="round"/>
<path d="M18.7071 5.79289L18 6.5" stroke="#2B2B2B" stroke-width="2" stroke-linecap="round" stroke-linejoin="round"/>
<path d="M5.29289 5.79289L6 6.5" stroke="#2B2B2B" stroke-width="2" stroke-linecap="round" stroke-linejoin="round"/>
<path d="M10 6C9.44772 6 9 6.44772 9 7C9 7.55228 9.44772 8 10 8V6ZM14 8C14.5523 8 15 7.55228 15 7C15 6.44772 14.5523 6 14 6V8ZM13 9.5V7.5H11V9.5H13ZM10 8H14V6H10V8Z" fill="#2B2B2B"/>
<path d="M7.5 18V15M16.5 18V15" stroke="#2B2B2B" stroke-width="2" stroke-linejoin="round"/>
</svg>
