<svg width="18" height="18" viewBox="0 0 18 18" fill="none" xmlns="http://www.w3.org/2000/svg">
<path d="M13.7474 6.66436C14.1143 6.25158 14.0771 5.61951 13.6644 5.25259C13.2516 4.88567 12.6195 4.92285 12.2526 5.33564L13.7474 6.66436ZM7.66667 12L6.91926 12.6644C7.10902 12.8779 7.38103 13 7.66667 13C7.9523 13 8.22431 12.8779 8.41408 12.6644L7.66667 12ZM5.74741 8.33564C5.38049 7.92285 4.74842 7.88567 4.33564 8.25259C3.92285 8.61951 3.88567 9.25158 4.25259 9.66436L5.74741 8.33564ZM12.2526 5.33564L6.91926 11.3356L8.41408 12.6644L13.7474 6.66436L12.2526 5.33564ZM8.41408 11.3356L5.74741 8.33564L4.25259 9.66436L6.91926 12.6644L8.41408 11.3356Z" fill="#E56553"/>
</svg>
