<svg width="14" height="16" viewBox="0 0 14 16" fill="none" xmlns="http://www.w3.org/2000/svg">
<path d="M6.57351 7.70725C7.63232 7.70725 8.54919 7.32747 9.29834 6.57819C10.0475 5.82907 10.4272 4.91245 10.4272 3.85352C10.4272 2.7949 10.0475 1.87818 9.29822 1.12878C8.54894 0.379748 7.63219 0 6.57351 0C5.51454 0 4.59789 0.379749 3.84877 1.1289C3.09965 1.87806 2.71974 2.7948 2.71974 3.85352C2.71974 4.91245 3.09962 5.8292 3.84889 6.57835C4.59817 7.32738 5.51492 7.70725 6.57351 7.70725ZM13.3165 12.3032C13.2949 11.9914 13.2512 11.6513 13.1869 11.2922C13.1219 10.9304 13.0383 10.5883 12.9382 10.2757C12.8348 9.95259 12.6942 9.63352 12.5204 9.32771C12.34 9.01034 12.128 8.73397 11.8902 8.50656C11.6416 8.26865 11.3371 8.07737 10.9851 7.93781C10.6343 7.79906 10.2455 7.72875 9.82959 7.72875C9.66625 7.72875 9.50831 7.79575 9.20325 7.99437C8.9864 8.13558 8.76891 8.27579 8.55078 8.415C8.34119 8.54856 8.05725 8.67368 7.70653 8.78697C7.36438 8.89768 7.01697 8.95384 6.67407 8.95384C6.3312 8.95384 5.98388 8.89768 5.64135 8.78697C5.29104 8.67378 5.00711 8.54869 4.79773 8.41512C4.55492 8.25997 4.33524 8.11837 4.14467 7.99422C3.83999 7.79563 3.68189 7.72859 3.51858 7.72859C3.10255 7.72859 2.7139 7.79903 2.36318 7.93797C2.01137 8.07725 1.70681 8.26853 1.4579 8.50669C1.22025 8.73422 1.00822 9.01043 0.82803 9.32771C0.654343 9.63349 0.513719 9.95246 0.410188 10.2758C0.310188 10.5885 0.226595 10.9304 0.161658 11.2922C0.0973143 11.6508 0.053627 11.991 0.0320021 12.3035C0.0104903 12.618 -0.000172236 12.9331 3.34368e-05 13.2484C3.34368e-05 14.0836 0.265532 14.7597 0.789093 15.2583C1.30618 15.7504 1.99037 16.0001 2.8224 16.0001H10.5265C11.3585 16.0001 12.0425 15.7506 12.5597 15.2584C13.0834 14.7601 13.3489 14.0838 13.3489 13.2482C13.3487 12.9259 13.3379 12.6079 13.3165 12.3032Z" fill="#2B2B2B"/>
</svg>
