<svg width="16" height="16" viewBox="0 0 16 16" fill="none" xmlns="http://www.w3.org/2000/svg">
<path d="M8.68667 1.18733L1.36 0.0739941C1.02 0.0206608 0.673333 0.113994 0.413333 0.333994C0.153333 0.560661 0 0.887327 0 1.22733V15.274C0 15.6407 0.3 15.9407 0.666667 15.9407H2.83333V12.4407C2.83333 11.794 3.35333 11.274 4 11.274H5.66667C6.31333 11.274 6.83333 11.794 6.83333 12.4407V15.9407H9.66667V2.34066C9.66667 1.76733 9.25333 1.28066 8.68667 1.18733ZM3.66667 9.77399H2.66667C2.53406 9.77399 2.40688 9.72132 2.31311 9.62755C2.21935 9.53378 2.16667 9.4066 2.16667 9.27399C2.16667 9.14139 2.21935 9.01421 2.31311 8.92044C2.40688 8.82667 2.53406 8.77399 2.66667 8.77399H3.66667C3.79927 8.77399 3.92645 8.82667 4.02022 8.92044C4.11399 9.01421 4.16667 9.14139 4.16667 9.27399C4.16667 9.4066 4.11399 9.53378 4.02022 9.62755C3.92645 9.72132 3.79927 9.77399 3.66667 9.77399ZM3.66667 7.77399H2.66667C2.53406 7.77399 2.40688 7.72132 2.31311 7.62755C2.21935 7.53378 2.16667 7.4066 2.16667 7.27399C2.16667 7.14139 2.21935 7.01421 2.31311 6.92044C2.40688 6.82667 2.53406 6.77399 2.66667 6.77399H3.66667C3.79927 6.77399 3.92645 6.82667 4.02022 6.92044C4.11399 7.01421 4.16667 7.14139 4.16667 7.27399C4.16667 7.4066 4.11399 7.53378 4.02022 7.62755C3.92645 7.72132 3.79927 7.77399 3.66667 7.77399ZM3.66667 5.77399H2.66667C2.53406 5.77399 2.40688 5.72132 2.31311 5.62755C2.21935 5.53378 2.16667 5.4066 2.16667 5.27399C2.16667 5.14139 2.21935 5.01421 2.31311 4.92044C2.40688 4.82667 2.53406 4.77399 2.66667 4.77399H3.66667C3.79927 4.77399 3.92645 4.82667 4.02022 4.92044C4.11399 5.01421 4.16667 5.14139 4.16667 5.27399C4.16667 5.4066 4.11399 5.53378 4.02022 5.62755C3.92645 5.72132 3.79927 5.77399 3.66667 5.77399ZM3.66667 3.77399H2.66667C2.53406 3.77399 2.40688 3.72132 2.31311 3.62755C2.21935 3.53378 2.16667 3.4066 2.16667 3.27399C2.16667 3.14139 2.21935 3.01421 2.31311 2.92044C2.40688 2.82667 2.53406 2.77399 2.66667 2.77399H3.66667C3.79927 2.77399 3.92645 2.82667 4.02022 2.92044C4.11399 3.01421 4.16667 3.14139 4.16667 3.27399C4.16667 3.4066 4.11399 3.53378 4.02022 3.62755C3.92645 3.72132 3.79927 3.77399 3.66667 3.77399ZM7 9.77399H6C5.86739 9.77399 5.74022 9.72132 5.64645 9.62755C5.55268 9.53378 5.5 9.4066 5.5 9.27399C5.5 9.14139 5.55268 9.01421 5.64645 8.92044C5.74022 8.82667 5.86739 8.77399 6 8.77399H7C7.13261 8.77399 7.25979 8.82667 7.35355 8.92044C7.44732 9.01421 7.5 9.14139 7.5 9.27399C7.5 9.4066 7.44732 9.53378 7.35355 9.62755C7.25979 9.72132 7.13261 9.77399 7 9.77399ZM7 7.77399H6C5.86739 7.77399 5.74022 7.72132 5.64645 7.62755C5.55268 7.53378 5.5 7.4066 5.5 7.27399C5.5 7.14139 5.55268 7.01421 5.64645 6.92044C5.74022 6.82667 5.86739 6.77399 6 6.77399H7C7.13261 6.77399 7.25979 6.82667 7.35355 6.92044C7.44732 7.01421 7.5 7.14139 7.5 7.27399C7.5 7.4066 7.44732 7.53378 7.35355 7.62755C7.25979 7.72132 7.13261 7.77399 7 7.77399ZM7 5.77399H6C5.86739 5.77399 5.74022 5.72132 5.64645 5.62755C5.55268 5.53378 5.5 5.4066 5.5 5.27399C5.5 5.14139 5.55268 5.01421 5.64645 4.92044C5.74022 4.82667 5.86739 4.77399 6 4.77399H7C7.13261 4.77399 7.25979 4.82667 7.35355 4.92044C7.44732 5.01421 7.5 5.14139 7.5 5.27399C7.5 5.4066 7.44732 5.53378 7.35355 5.62755C7.25979 5.72132 7.13261 5.77399 7 5.77399ZM7 3.77399H6C5.86739 3.77399 5.74022 3.72132 5.64645 3.62755C5.55268 3.53378 5.5 3.4066 5.5 3.27399C5.5 3.14139 5.55268 3.01421 5.64645 2.92044C5.74022 2.82667 5.86739 2.77399 6 2.77399H7C7.13261 2.77399 7.25979 2.82667 7.35355 2.92044C7.44732 3.01421 7.5 3.14139 7.5 3.27399C7.5 3.4066 7.44732 3.53378 7.35355 3.62755C7.25979 3.72132 7.13261 3.77399 7 3.77399ZM15.08 7.16866L10.3333 6.17466V15.9407H14.8333C15.4767 15.9407 16 15.4173 16 14.774V8.30866C16 7.75799 15.6247 7.28933 15.08 7.16866ZM13.5 13.9407H12.5C12.3674 13.9407 12.2402 13.888 12.1464 13.7942C12.0527 13.7004 12 13.5733 12 13.4407C12 13.3081 12.0527 13.1809 12.1464 13.0871C12.2402 12.9933 12.3674 12.9407 12.5 12.9407H13.5C13.6326 12.9407 13.7598 12.9933 13.8536 13.0871C13.9473 13.1809 14 13.3081 14 13.4407C14 13.5733 13.9473 13.7004 13.8536 13.7942C13.7598 13.888 13.6326 13.9407 13.5 13.9407ZM13.5 11.9407H12.5C12.3674 11.9407 12.2402 11.888 12.1464 11.7942C12.0527 11.7004 12 11.5733 12 11.4407C12 11.3081 12.0527 11.1809 12.1464 11.0871C12.2402 10.9933 12.3674 10.9407 12.5 10.9407H13.5C13.6326 10.9407 13.7598 10.9933 13.8536 11.0871C13.9473 11.1809 14 11.3081 14 11.4407C14 11.5733 13.9473 11.7004 13.8536 11.7942C13.7598 11.888 13.6326 11.9407 13.5 11.9407ZM13.5 9.94066H12.5C12.3674 9.94066 12.2402 9.88798 12.1464 9.79421C12.0527 9.70045 12 9.57327 12 9.44066C12 9.30805 12.0527 9.18088 12.1464 9.08711C12.2402 8.99334 12.3674 8.94066 12.5 8.94066H13.5C13.6326 8.94066 13.7598 8.99334 13.8536 9.08711C13.9473 9.18088 14 9.30805 14 9.44066C14 9.57327 13.9473 9.70045 13.8536 9.79421C13.7598 9.88798 13.6326 9.94066 13.5 9.94066Z" fill="#2B2B2B"/>
</svg>
