<svg width="77" height="40" viewBox="0 0 77 40" fill="none" xmlns="http://www.w3.org/2000/svg">
<path opacity="0.6" d="M24.6745 30.5909C23.955 31.5221 22.8123 32.0479 21.6189 31.9966C20.4254 31.9455 19.3342 31.3241 18.701 30.3348L13.4639 22.1578H10.2062C9.62138 22.1572 9.06058 21.9301 8.64692 21.5261C8.23325 21.1221 8.00065 20.5745 8 20.0035V10.1545C8.00063 9.58337 8.23322 9.03576 8.64692 8.63181C9.0606 8.22807 9.62138 8.00073 10.2062 8.0001H25.9305C26.6907 8.00113 27.4299 8.24556 28.0341 8.69608C28.6386 9.14661 29.0749 9.77832 29.2764 10.4943L31.9002 19.8901H31.8999C32.1325 20.7231 31.9542 21.6143 31.4175 22.3004C30.8807 22.9865 30.0471 23.3891 29.1629 23.3891H24.0632L25.2648 27.491C25.5801 28.5574 25.3614 29.7064 24.6746 30.591L24.6745 30.5909ZM9.89089 10.1543V20.0033C9.89089 20.1733 10.0319 20.311 10.206 20.311H13.0427V9.84681H10.206C10.0319 9.84681 9.89089 9.98469 9.89089 10.1545V10.1543ZM29.1623 21.5418V21.542C29.4565 21.5412 29.7339 21.4068 29.9124 21.1785C30.091 20.9501 30.1507 20.6535 30.0739 20.3761L27.4502 10.9804V10.9801C27.3588 10.6547 27.1606 10.3676 26.886 10.1628C26.6115 9.9579 26.2754 9.84681 25.93 9.8464H14.9335V20.9696L20.3054 29.3597C20.6245 29.8119 21.142 30.0918 21.7039 30.1161C22.2655 30.1402 22.8062 29.9059 23.1648 29.483C23.4954 29.059 23.6007 28.5073 23.4485 27.9957L21.9042 22.7191C21.8227 22.4406 21.8797 22.1407 22.0585 21.9095C22.237 21.6782 22.5165 21.5422 22.813 21.5422L29.1623 21.5418Z" fill="#2B2B2B"/>
<path opacity="0.6" d="M43.0043 25.5V15.3182H44.8487V19.6286H49.5668V15.3182H51.4162V25.5H49.5668V21.1747H44.8487V25.5H43.0043ZM56.7234 25.6491C55.9577 25.6491 55.2965 25.4901 54.7397 25.1719C54.1862 24.8504 53.7603 24.3963 53.462 23.8097C53.1637 23.2197 53.0146 22.5253 53.0146 21.7266C53.0146 20.9411 53.1637 20.2517 53.462 19.6584C53.7636 19.0618 54.1845 18.5978 54.7248 18.2663C55.265 17.9316 55.8997 17.7642 56.6289 17.7642C57.0996 17.7642 57.5437 17.8404 57.9613 17.9929C58.3822 18.142 58.7534 18.3741 59.0749 18.6889C59.3997 19.0038 59.6549 19.4048 59.8406 19.892C60.0262 20.3759 60.119 20.9527 60.119 21.6222V22.174H53.8597V20.9609H58.3938C58.3905 20.6162 58.3159 20.3097 58.1701 20.0412C58.0243 19.7694 57.8204 19.5556 57.5586 19.3999C57.3001 19.2441 56.9985 19.1662 56.6538 19.1662C56.2859 19.1662 55.9627 19.2557 55.6843 19.4347C55.4059 19.6103 55.1888 19.8423 55.033 20.1307C54.8806 20.4157 54.8027 20.7289 54.7994 21.0703V22.1293C54.7994 22.5734 54.8806 22.9545 55.043 23.2727C55.2054 23.5876 55.4324 23.8295 55.7241 23.9986C56.0157 24.1643 56.3571 24.2472 56.7482 24.2472C57.0101 24.2472 57.247 24.2107 57.4592 24.1378C57.6713 24.0616 57.8552 23.9505 58.011 23.8047C58.1668 23.6589 58.2844 23.4782 58.364 23.2628L60.0444 23.4517C59.9383 23.8958 59.7362 24.2836 59.4379 24.6151C59.1429 24.9432 58.765 25.1984 58.3043 25.3807C57.8436 25.5597 57.3166 25.6491 56.7234 25.6491ZM61.0051 19.3402V17.8636H67.687V19.3402H65.2161V25.5H63.476V19.3402H61.0051Z" fill="#2B2B2B"/>
</svg>
