<svg width="40" height="40" viewBox="0 0 40 40" fill="none" xmlns="http://www.w3.org/2000/svg">
<rect width="40" height="40" rx="8" fill="#F5F5F5"/>
<path d="M17 23L17.4275 23.7125C18.5927 25.6546 21.4073 25.6546 22.5725 23.7125L23 23" stroke="black" stroke-width="2" stroke-linecap="round" stroke-linejoin="round"/>
<path d="M9.5 16V13.5C9.5 11.2909 11.2909 9.5 13.5 9.5H16" stroke="black" stroke-width="2" stroke-linecap="round" stroke-linejoin="round"/>
<path d="M9.5 24V26.5C9.5 28.7091 11.2909 30.5 13.5 30.5H16" stroke="black" stroke-width="2" stroke-linecap="round" stroke-linejoin="round"/>
<path d="M30.5 16V13.5C30.5 11.2909 28.7091 9.5 26.5 9.5H24" stroke="black" stroke-width="2" stroke-linecap="round" stroke-linejoin="round"/>
<path d="M30.5 24V26.5C30.5 28.7091 28.7091 30.5 26.5 30.5H24" stroke="black" stroke-width="2" stroke-linecap="round" stroke-linejoin="round"/>
<path d="M16 16V19" stroke="black" stroke-width="2" stroke-linecap="round" stroke-linejoin="round"/>
<path d="M24 16V19" stroke="black" stroke-width="2" stroke-linecap="round" stroke-linejoin="round"/>
</svg>
