<svg width="16" height="16" viewBox="0 0 16 16" fill="none" xmlns="http://www.w3.org/2000/svg">
<circle cx="8" cy="8" r="8" fill="#E56553"/>
<path d="M11.7071 6.70711C12.0976 6.31658 12.0976 5.68342 11.7071 5.29289C11.3166 4.90237 10.6834 4.90237 10.2929 5.29289L11.7071 6.70711ZM7 10L6.29289 10.7071C6.68342 11.0976 7.31658 11.0976 7.70711 10.7071L7 10ZM5.70711 7.29289C5.31658 6.90237 4.68342 6.90237 4.29289 7.29289C3.90237 7.68342 3.90237 8.31658 4.29289 8.70711L5.70711 7.29289ZM10.2929 5.29289L6.29289 9.29289L7.70711 10.7071L11.7071 6.70711L10.2929 5.29289ZM7.70711 9.29289L5.70711 7.29289L4.29289 8.70711L6.29289 10.7071L7.70711 9.29289Z" fill="white"/>
</svg>
