<svg width="24" height="24" viewBox="0 0 24 24" fill="none" xmlns="http://www.w3.org/2000/svg">
<g clip-path="url(#clip0_4222_12489)">
<g opacity="0.6">
<mask id="path-1-outside-1_4222_12489" maskUnits="userSpaceOnUse" x="0" y="6.16455" width="26" height="19" fill="black">
<rect fill="white" y="6.16455" width="26" height="19"/>
<path d="M24.6336 12.7501L24.64 12.7471C24.737 12.7443 24.8292 12.7039 24.8971 12.6346C24.965 12.5652 25.0034 12.4722 25.0041 12.3751C25.0047 12.326 24.9955 12.2774 24.9771 12.2319C24.9587 12.1864 24.9315 12.145 24.897 12.1102C24.8625 12.0753 24.8214 12.0476 24.7761 12.0287C24.7309 12.0098 24.6823 12.0001 24.6332 12.0001C24.5275 11.9663 24.25 11.51 24.25 10.6876C24.25 9.86521 24.5279 9.40883 24.6336 9.37508L24.6389 9.37246C24.7309 9.3659 24.8172 9.32567 24.8815 9.25945C24.9457 9.19323 24.9832 9.10566 24.9869 9.0135C24.9906 8.92133 24.9603 8.83103 24.9016 8.75986C24.8429 8.68869 24.7601 8.64164 24.6689 8.62771L12.583 7.20646C12.1125 7.15058 11.6371 7.15058 11.1666 7.20646L2.45537 8.25271H2.44975C1.74437 8.30146 1.375 9.31171 1.375 10.3126C1.35046 10.9077 1.5074 11.4962 1.825 12.0001C1.50729 12.5039 1.35035 13.0925 1.375 13.6876C1.35486 14.2604 1.49791 14.8272 1.7875 15.3218C1.26962 15.8431 1 16.9246 1 18.0001C1 19.4783 1.50663 20.975 2.47525 21.0001L15.2061 22.4978C15.2207 22.4995 15.2353 22.5003 15.25 22.5001C15.2649 22.5002 15.2798 22.4993 15.2946 22.4975L18.25 22.1427V23.6251C18.25 23.7071 18.2768 23.7869 18.3265 23.8522C18.3761 23.9175 18.4458 23.9647 18.5249 23.9866C18.5575 23.9955 18.5912 24 18.625 24.0001C18.6897 24.0001 18.7533 23.9833 18.8096 23.9514C18.8659 23.9196 18.913 23.8737 18.9464 23.8182L19.7845 22.4213L20.575 23.4751C20.6222 23.538 20.6881 23.5846 20.7632 23.608C20.8383 23.6315 20.9189 23.6307 20.9936 23.6058C21.0683 23.581 21.1332 23.5332 21.1792 23.4694C21.2252 23.4055 21.25 23.3288 21.25 23.2501V21.7831L24.6696 21.3725C24.7646 21.3612 24.8517 21.314 24.913 21.2406C24.9744 21.1673 25.0054 21.0732 24.9997 20.9777C24.994 20.8823 24.952 20.7926 24.8824 20.727C24.8127 20.6615 24.7206 20.625 24.625 20.6251C24.3625 20.6251 23.875 19.7708 23.875 18.3751C23.875 16.9913 24.3355 16.1903 24.625 16.1251C24.7249 16.1254 24.8209 16.0861 24.892 16.0158C24.963 15.9456 25.0033 15.85 25.0041 15.7501C25.0049 15.6584 24.9717 15.5697 24.911 15.501C24.8503 15.4323 24.7663 15.3885 24.6752 15.3781C24.6604 15.3763 24.6455 15.3753 24.6306 15.3751C24.523 15.3338 24.25 14.8786 24.25 14.0626C24.25 13.2376 24.5279 12.7838 24.6336 12.7501ZM13.1076 21.4955C12.7536 20.7854 12.5875 19.9964 12.625 19.2038C12.5976 18.4429 12.7455 17.6859 13.0574 16.9913L14.2922 17.1365C13.9096 17.864 13.7227 18.6785 13.75 19.5001C13.7373 20.2277 13.8778 20.9498 14.1625 21.6196L13.1076 21.4955ZM11.5941 21.3173C11.2518 20.611 11.0906 19.8305 11.125 19.0463C11.0949 18.279 11.2473 17.5154 11.5697 16.8185L12.271 16.901C11.9919 17.6359 11.8574 18.4179 11.875 19.2038C11.8633 19.9486 11.9835 20.6895 12.2301 21.3923L11.5941 21.3173ZM5.53263 20.6048C5.24703 19.9294 5.11055 19.2003 5.1325 18.4673C5.08866 17.6535 5.26923 16.8433 5.6545 16.1251L10.7406 16.7225C10.7519 16.7225 10.762 16.7292 10.7733 16.7292C10.7761 16.7294 10.779 16.7294 10.7819 16.7292C10.4974 17.4679 10.3593 18.2549 10.375 19.0463C10.3642 19.7839 10.4817 20.5177 10.7222 21.215L5.53263 20.6048ZM4.03525 20.429C3.7468 19.7521 3.60936 19.0205 3.6325 18.2851C3.58809 17.4729 3.76707 16.6642 4.15 15.9466L4.84825 16.0287C4.51916 16.7982 4.35979 17.6296 4.381 18.4662C4.37223 19.1576 4.4735 19.8459 4.681 20.5055L4.03525 20.429ZM2.50825 15.0001C2.4025 14.9663 2.125 14.51 2.125 13.6876C2.125 12.8723 2.39725 12.4178 2.497 12.3773L4.27338 12.5843C4.27975 12.5843 4.28462 12.5892 4.29062 12.59L11.8334 13.475C11.6655 13.9656 11.5845 14.4817 11.5938 15.0001C11.5928 15.3634 11.6316 15.7256 11.7096 16.0805L10.9923 15.9965C10.8162 15.5614 10.7337 15.0941 10.75 14.6251C10.7497 14.4011 10.7748 14.1778 10.825 13.9595C10.8361 13.9115 10.8376 13.8618 10.8295 13.8132C10.8213 13.7646 10.8037 13.7181 10.7776 13.6763C10.7515 13.6346 10.7175 13.5984 10.6774 13.5698C10.6373 13.5411 10.5919 13.5207 10.5439 13.5096C10.4959 13.4986 10.4462 13.497 10.3977 13.5052C10.3491 13.5133 10.3026 13.5309 10.2608 13.557C10.2191 13.5831 10.1828 13.6172 10.1542 13.6573C10.1256 13.6974 10.1052 13.7427 10.0941 13.7907C10.0314 14.0644 9.99981 14.3443 10 14.6251C9.99594 15.0555 10.0508 15.4845 10.1631 15.9001L5.51762 15.3541H5.50975L4.015 15.1778H4.00525L2.50825 15.0001ZM4.615 9.25058L6.07113 9.42121H6.07487L14.4074 10.4033C14.2125 10.8472 14.1162 11.3279 14.125 11.8126C14.1219 12.2209 14.1885 12.6267 14.3219 13.0126L6.20575 12.0597C6.10597 11.6729 6.05781 11.2745 6.0625 10.8751C6.06197 10.6404 6.07637 10.4059 6.10563 10.1731C6.11193 10.1242 6.10855 10.0746 6.09568 10.0271C6.08281 9.97953 6.0607 9.93498 6.03061 9.89598C6.00052 9.85698 5.96305 9.82429 5.92033 9.79977C5.87761 9.77525 5.83048 9.75939 5.78163 9.75308C5.73277 9.74678 5.68316 9.75016 5.63561 9.76303C5.58807 9.7759 5.54352 9.79801 5.50452 9.8281C5.46552 9.85818 5.43283 9.89566 5.40831 9.93838C5.38379 9.9811 5.36793 10.0282 5.36162 10.0771C5.32832 10.3418 5.31191 10.6083 5.3125 10.8751C5.31138 11.2415 5.34567 11.6072 5.41488 11.9671L4.57788 11.8688C4.42931 11.4283 4.3606 10.9648 4.375 10.5001C4.37459 10.0721 4.45605 9.64797 4.615 9.25058ZM15.25 10.5001C15.2648 10.5001 15.2796 10.4993 15.2943 10.4975L23.6943 9.49058C23.5621 9.87568 23.4964 10.2805 23.5 10.6876C23.491 11.1732 23.5879 11.655 23.7839 12.0995L15.2541 13.1217C15.1454 13.0786 14.875 12.6275 14.875 11.8126C14.875 10.9902 15.1525 10.5338 15.25 10.5001ZM12.5125 16.1746C12.396 15.7941 12.339 15.3979 12.3438 15.0001C12.3173 14.5072 12.4115 14.0154 12.6182 13.5672L14.4085 13.7772C14.2129 14.2212 14.1162 14.7025 14.125 15.1876C14.1219 15.5959 14.1885 16.0017 14.3219 16.3876L12.5125 16.1746ZM15.2552 16.4971C15.1458 16.454 14.875 16.0028 14.875 15.1876C14.875 14.3652 15.1525 13.9088 15.25 13.8751C15.2649 13.8752 15.2798 13.8743 15.2946 13.8725L23.6946 12.8656C23.5623 13.2507 23.4965 13.6554 23.5 14.0626C23.4927 14.5486 23.5925 15.0303 23.7925 15.4733L15.2552 16.4971ZM11.2555 7.95008C11.6672 7.90133 12.0832 7.90133 12.4949 7.95008L21.4499 9.00308L15.25 9.74746L6.16263 8.67646H6.15887L5.683 8.62058L11.2555 7.95008ZM2.49513 9.00008L3.84812 9.15871C3.70067 9.59056 3.62528 10.0437 3.625 10.5001C3.62148 10.9277 3.66843 11.3543 3.76487 11.771L2.50825 11.6251C2.4025 11.5913 2.125 11.135 2.125 10.3126C2.125 9.50333 2.3935 9.04883 2.49513 9.00196V9.00008ZM2.5 20.2501C2.2375 20.2501 1.75 19.3958 1.75 18.0001C1.75 16.6126 2.22925 15.7628 2.49437 15.752L3.34713 15.8521C3.01998 16.6205 2.86154 17.4502 2.8825 18.2851C2.87404 18.9779 2.97646 19.6676 3.18587 20.3281L2.54387 20.2531C2.52933 20.2511 2.51467 20.2501 2.5 20.2501ZM20.05 21.5251C20.0135 21.4754 19.9651 21.4357 19.9093 21.4095C19.8535 21.3833 19.792 21.3714 19.7305 21.3751C19.6695 21.3786 19.6103 21.397 19.558 21.4286C19.5057 21.4602 19.4619 21.5042 19.4305 21.5566L19 22.2713V19.0546L20.5 18.8738V22.1251L20.05 21.5251ZM21.25 21.0275V18.7835L21.4855 18.755C21.5843 18.7432 21.6744 18.6926 21.7359 18.6144C21.7975 18.5362 21.8254 18.4368 21.8136 18.338C21.8018 18.2391 21.7513 18.1491 21.6731 18.0875C21.5949 18.026 21.4954 17.998 21.3966 18.0098L20.8341 18.0781H20.8315L18.5815 18.3481C18.5774 18.3481 18.574 18.3511 18.5699 18.3515L18.1026 18.4081C18.0078 18.4194 17.9208 18.4664 17.8595 18.5396C17.7981 18.6128 17.767 18.7067 17.7725 18.8021C17.778 18.8974 17.8197 18.9871 17.8891 19.0528C17.9584 19.1184 18.0502 19.1552 18.1458 19.1555C18.1605 19.1555 18.1753 19.1546 18.19 19.1528L18.25 19.1453V21.3875L15.25 21.7475L15.217 21.7437C14.9582 21.6811 14.5 20.8812 14.5 19.5001C14.5 18.1043 14.9875 17.2501 15.25 17.2501C15.2649 17.2502 15.2798 17.2493 15.2946 17.2475L23.5375 16.2593C23.2532 16.9279 23.1127 17.6487 23.125 18.3751C23.0979 19.196 23.2838 20.0099 23.6646 20.7376L21.25 21.0275Z"/>
</mask>
<path d="M24.6336 12.7501L24.64 12.7471C24.737 12.7443 24.8292 12.7039 24.8971 12.6346C24.965 12.5652 25.0034 12.4722 25.0041 12.3751C25.0047 12.326 24.9955 12.2774 24.9771 12.2319C24.9587 12.1864 24.9315 12.145 24.897 12.1102C24.8625 12.0753 24.8214 12.0476 24.7761 12.0287C24.7309 12.0098 24.6823 12.0001 24.6332 12.0001C24.5275 11.9663 24.25 11.51 24.25 10.6876C24.25 9.86521 24.5279 9.40883 24.6336 9.37508L24.6389 9.37246C24.7309 9.3659 24.8172 9.32567 24.8815 9.25945C24.9457 9.19323 24.9832 9.10566 24.9869 9.0135C24.9906 8.92133 24.9603 8.83103 24.9016 8.75986C24.8429 8.68869 24.7601 8.64164 24.6689 8.62771L12.583 7.20646C12.1125 7.15058 11.6371 7.15058 11.1666 7.20646L2.45537 8.25271H2.44975C1.74437 8.30146 1.375 9.31171 1.375 10.3126C1.35046 10.9077 1.5074 11.4962 1.825 12.0001C1.50729 12.5039 1.35035 13.0925 1.375 13.6876C1.35486 14.2604 1.49791 14.8272 1.7875 15.3218C1.26962 15.8431 1 16.9246 1 18.0001C1 19.4783 1.50663 20.975 2.47525 21.0001L15.2061 22.4978C15.2207 22.4995 15.2353 22.5003 15.25 22.5001C15.2649 22.5002 15.2798 22.4993 15.2946 22.4975L18.25 22.1427V23.6251C18.25 23.7071 18.2768 23.7869 18.3265 23.8522C18.3761 23.9175 18.4458 23.9647 18.5249 23.9866C18.5575 23.9955 18.5912 24 18.625 24.0001C18.6897 24.0001 18.7533 23.9833 18.8096 23.9514C18.8659 23.9196 18.913 23.8737 18.9464 23.8182L19.7845 22.4213L20.575 23.4751C20.6222 23.538 20.6881 23.5846 20.7632 23.608C20.8383 23.6315 20.9189 23.6307 20.9936 23.6058C21.0683 23.581 21.1332 23.5332 21.1792 23.4694C21.2252 23.4055 21.25 23.3288 21.25 23.2501V21.7831L24.6696 21.3725C24.7646 21.3612 24.8517 21.314 24.913 21.2406C24.9744 21.1673 25.0054 21.0732 24.9997 20.9777C24.994 20.8823 24.952 20.7926 24.8824 20.727C24.8127 20.6615 24.7206 20.625 24.625 20.6251C24.3625 20.6251 23.875 19.7708 23.875 18.3751C23.875 16.9913 24.3355 16.1903 24.625 16.1251C24.7249 16.1254 24.8209 16.0861 24.892 16.0158C24.963 15.9456 25.0033 15.85 25.0041 15.7501C25.0049 15.6584 24.9717 15.5697 24.911 15.501C24.8503 15.4323 24.7663 15.3885 24.6752 15.3781C24.6604 15.3763 24.6455 15.3753 24.6306 15.3751C24.523 15.3338 24.25 14.8786 24.25 14.0626C24.25 13.2376 24.5279 12.7838 24.6336 12.7501ZM13.1076 21.4955C12.7536 20.7854 12.5875 19.9964 12.625 19.2038C12.5976 18.4429 12.7455 17.6859 13.0574 16.9913L14.2922 17.1365C13.9096 17.864 13.7227 18.6785 13.75 19.5001C13.7373 20.2277 13.8778 20.9498 14.1625 21.6196L13.1076 21.4955ZM11.5941 21.3173C11.2518 20.611 11.0906 19.8305 11.125 19.0463C11.0949 18.279 11.2473 17.5154 11.5697 16.8185L12.271 16.901C11.9919 17.6359 11.8574 18.4179 11.875 19.2038C11.8633 19.9486 11.9835 20.6895 12.2301 21.3923L11.5941 21.3173ZM5.53263 20.6048C5.24703 19.9294 5.11055 19.2003 5.1325 18.4673C5.08866 17.6535 5.26923 16.8433 5.6545 16.1251L10.7406 16.7225C10.7519 16.7225 10.762 16.7292 10.7733 16.7292C10.7761 16.7294 10.779 16.7294 10.7819 16.7292C10.4974 17.4679 10.3593 18.2549 10.375 19.0463C10.3642 19.7839 10.4817 20.5177 10.7222 21.215L5.53263 20.6048ZM4.03525 20.429C3.7468 19.7521 3.60936 19.0205 3.6325 18.2851C3.58809 17.4729 3.76707 16.6642 4.15 15.9466L4.84825 16.0287C4.51916 16.7982 4.35979 17.6296 4.381 18.4662C4.37223 19.1576 4.4735 19.8459 4.681 20.5055L4.03525 20.429ZM2.50825 15.0001C2.4025 14.9663 2.125 14.51 2.125 13.6876C2.125 12.8723 2.39725 12.4178 2.497 12.3773L4.27338 12.5843C4.27975 12.5843 4.28462 12.5892 4.29062 12.59L11.8334 13.475C11.6655 13.9656 11.5845 14.4817 11.5938 15.0001C11.5928 15.3634 11.6316 15.7256 11.7096 16.0805L10.9923 15.9965C10.8162 15.5614 10.7337 15.0941 10.75 14.6251C10.7497 14.4011 10.7748 14.1778 10.825 13.9595C10.8361 13.9115 10.8376 13.8618 10.8295 13.8132C10.8213 13.7646 10.8037 13.7181 10.7776 13.6763C10.7515 13.6346 10.7175 13.5984 10.6774 13.5698C10.6373 13.5411 10.5919 13.5207 10.5439 13.5096C10.4959 13.4986 10.4462 13.497 10.3977 13.5052C10.3491 13.5133 10.3026 13.5309 10.2608 13.557C10.2191 13.5831 10.1828 13.6172 10.1542 13.6573C10.1256 13.6974 10.1052 13.7427 10.0941 13.7907C10.0314 14.0644 9.99981 14.3443 10 14.6251C9.99594 15.0555 10.0508 15.4845 10.1631 15.9001L5.51762 15.3541H5.50975L4.015 15.1778H4.00525L2.50825 15.0001ZM4.615 9.25058L6.07113 9.42121H6.07487L14.4074 10.4033C14.2125 10.8472 14.1162 11.3279 14.125 11.8126C14.1219 12.2209 14.1885 12.6267 14.3219 13.0126L6.20575 12.0597C6.10597 11.6729 6.05781 11.2745 6.0625 10.8751C6.06197 10.6404 6.07637 10.4059 6.10563 10.1731C6.11193 10.1242 6.10855 10.0746 6.09568 10.0271C6.08281 9.97953 6.0607 9.93498 6.03061 9.89598C6.00052 9.85698 5.96305 9.82429 5.92033 9.79977C5.87761 9.77525 5.83048 9.75939 5.78163 9.75308C5.73277 9.74678 5.68316 9.75016 5.63561 9.76303C5.58807 9.7759 5.54352 9.79801 5.50452 9.8281C5.46552 9.85818 5.43283 9.89566 5.40831 9.93838C5.38379 9.9811 5.36793 10.0282 5.36162 10.0771C5.32832 10.3418 5.31191 10.6083 5.3125 10.8751C5.31138 11.2415 5.34567 11.6072 5.41488 11.9671L4.57788 11.8688C4.42931 11.4283 4.3606 10.9648 4.375 10.5001C4.37459 10.0721 4.45605 9.64797 4.615 9.25058ZM15.25 10.5001C15.2648 10.5001 15.2796 10.4993 15.2943 10.4975L23.6943 9.49058C23.5621 9.87568 23.4964 10.2805 23.5 10.6876C23.491 11.1732 23.5879 11.655 23.7839 12.0995L15.2541 13.1217C15.1454 13.0786 14.875 12.6275 14.875 11.8126C14.875 10.9902 15.1525 10.5338 15.25 10.5001ZM12.5125 16.1746C12.396 15.7941 12.339 15.3979 12.3438 15.0001C12.3173 14.5072 12.4115 14.0154 12.6182 13.5672L14.4085 13.7772C14.2129 14.2212 14.1162 14.7025 14.125 15.1876C14.1219 15.5959 14.1885 16.0017 14.3219 16.3876L12.5125 16.1746ZM15.2552 16.4971C15.1458 16.454 14.875 16.0028 14.875 15.1876C14.875 14.3652 15.1525 13.9088 15.25 13.8751C15.2649 13.8752 15.2798 13.8743 15.2946 13.8725L23.6946 12.8656C23.5623 13.2507 23.4965 13.6554 23.5 14.0626C23.4927 14.5486 23.5925 15.0303 23.7925 15.4733L15.2552 16.4971ZM11.2555 7.95008C11.6672 7.90133 12.0832 7.90133 12.4949 7.95008L21.4499 9.00308L15.25 9.74746L6.16263 8.67646H6.15887L5.683 8.62058L11.2555 7.95008ZM2.49513 9.00008L3.84812 9.15871C3.70067 9.59056 3.62528 10.0437 3.625 10.5001C3.62148 10.9277 3.66843 11.3543 3.76487 11.771L2.50825 11.6251C2.4025 11.5913 2.125 11.135 2.125 10.3126C2.125 9.50333 2.3935 9.04883 2.49513 9.00196V9.00008ZM2.5 20.2501C2.2375 20.2501 1.75 19.3958 1.75 18.0001C1.75 16.6126 2.22925 15.7628 2.49437 15.752L3.34713 15.8521C3.01998 16.6205 2.86154 17.4502 2.8825 18.2851C2.87404 18.9779 2.97646 19.6676 3.18587 20.3281L2.54387 20.2531C2.52933 20.2511 2.51467 20.2501 2.5 20.2501ZM20.05 21.5251C20.0135 21.4754 19.9651 21.4357 19.9093 21.4095C19.8535 21.3833 19.792 21.3714 19.7305 21.3751C19.6695 21.3786 19.6103 21.397 19.558 21.4286C19.5057 21.4602 19.4619 21.5042 19.4305 21.5566L19 22.2713V19.0546L20.5 18.8738V22.1251L20.05 21.5251ZM21.25 21.0275V18.7835L21.4855 18.755C21.5843 18.7432 21.6744 18.6926 21.7359 18.6144C21.7975 18.5362 21.8254 18.4368 21.8136 18.338C21.8018 18.2391 21.7513 18.1491 21.6731 18.0875C21.5949 18.026 21.4954 17.998 21.3966 18.0098L20.8341 18.0781H20.8315L18.5815 18.3481C18.5774 18.3481 18.574 18.3511 18.5699 18.3515L18.1026 18.4081C18.0078 18.4194 17.9208 18.4664 17.8595 18.5396C17.7981 18.6128 17.767 18.7067 17.7725 18.8021C17.778 18.8974 17.8197 18.9871 17.8891 19.0528C17.9584 19.1184 18.0502 19.1552 18.1458 19.1555C18.1605 19.1555 18.1753 19.1546 18.19 19.1528L18.25 19.1453V21.3875L15.25 21.7475L15.217 21.7437C14.9582 21.6811 14.5 20.8812 14.5 19.5001C14.5 18.1043 14.9875 17.2501 15.25 17.2501C15.2649 17.2502 15.2798 17.2493 15.2946 17.2475L23.5375 16.2593C23.2532 16.9279 23.1127 17.6487 23.125 18.3751C23.0979 19.196 23.2838 20.0099 23.6646 20.7376L21.25 21.0275Z" fill="#2B2B2B"/>
<path d="M24.6336 12.7501L24.64 12.7471C24.737 12.7443 24.8292 12.7039 24.8971 12.6346C24.965 12.5652 25.0034 12.4722 25.0041 12.3751C25.0047 12.326 24.9955 12.2774 24.9771 12.2319C24.9587 12.1864 24.9315 12.145 24.897 12.1102C24.8625 12.0753 24.8214 12.0476 24.7761 12.0287C24.7309 12.0098 24.6823 12.0001 24.6332 12.0001C24.5275 11.9663 24.25 11.51 24.25 10.6876C24.25 9.86521 24.5279 9.40883 24.6336 9.37508L24.6389 9.37246C24.7309 9.3659 24.8172 9.32567 24.8815 9.25945C24.9457 9.19323 24.9832 9.10566 24.9869 9.0135C24.9906 8.92133 24.9603 8.83103 24.9016 8.75986C24.8429 8.68869 24.7601 8.64164 24.6689 8.62771L12.583 7.20646C12.1125 7.15058 11.6371 7.15058 11.1666 7.20646L2.45537 8.25271H2.44975C1.74437 8.30146 1.375 9.31171 1.375 10.3126C1.35046 10.9077 1.5074 11.4962 1.825 12.0001C1.50729 12.5039 1.35035 13.0925 1.375 13.6876C1.35486 14.2604 1.49791 14.8272 1.7875 15.3218C1.26962 15.8431 1 16.9246 1 18.0001C1 19.4783 1.50663 20.975 2.47525 21.0001L15.2061 22.4978C15.2207 22.4995 15.2353 22.5003 15.25 22.5001C15.2649 22.5002 15.2798 22.4993 15.2946 22.4975L18.25 22.1427V23.6251C18.25 23.7071 18.2768 23.7869 18.3265 23.8522C18.3761 23.9175 18.4458 23.9647 18.5249 23.9866C18.5575 23.9955 18.5912 24 18.625 24.0001C18.6897 24.0001 18.7533 23.9833 18.8096 23.9514C18.8659 23.9196 18.913 23.8737 18.9464 23.8182L19.7845 22.4213L20.575 23.4751C20.6222 23.538 20.6881 23.5846 20.7632 23.608C20.8383 23.6315 20.9189 23.6307 20.9936 23.6058C21.0683 23.581 21.1332 23.5332 21.1792 23.4694C21.2252 23.4055 21.25 23.3288 21.25 23.2501V21.7831L24.6696 21.3725C24.7646 21.3612 24.8517 21.314 24.913 21.2406C24.9744 21.1673 25.0054 21.0732 24.9997 20.9777C24.994 20.8823 24.952 20.7926 24.8824 20.727C24.8127 20.6615 24.7206 20.625 24.625 20.6251C24.3625 20.6251 23.875 19.7708 23.875 18.3751C23.875 16.9913 24.3355 16.1903 24.625 16.1251C24.7249 16.1254 24.8209 16.0861 24.892 16.0158C24.963 15.9456 25.0033 15.85 25.0041 15.7501C25.0049 15.6584 24.9717 15.5697 24.911 15.501C24.8503 15.4323 24.7663 15.3885 24.6752 15.3781C24.6604 15.3763 24.6455 15.3753 24.6306 15.3751C24.523 15.3338 24.25 14.8786 24.25 14.0626C24.25 13.2376 24.5279 12.7838 24.6336 12.7501ZM13.1076 21.4955C12.7536 20.7854 12.5875 19.9964 12.625 19.2038C12.5976 18.4429 12.7455 17.6859 13.0574 16.9913L14.2922 17.1365C13.9096 17.864 13.7227 18.6785 13.75 19.5001C13.7373 20.2277 13.8778 20.9498 14.1625 21.6196L13.1076 21.4955ZM11.5941 21.3173C11.2518 20.611 11.0906 19.8305 11.125 19.0463C11.0949 18.279 11.2473 17.5154 11.5697 16.8185L12.271 16.901C11.9919 17.6359 11.8574 18.4179 11.875 19.2038C11.8633 19.9486 11.9835 20.6895 12.2301 21.3923L11.5941 21.3173ZM5.53263 20.6048C5.24703 19.9294 5.11055 19.2003 5.1325 18.4673C5.08866 17.6535 5.26923 16.8433 5.6545 16.1251L10.7406 16.7225C10.7519 16.7225 10.762 16.7292 10.7733 16.7292C10.7761 16.7294 10.779 16.7294 10.7819 16.7292C10.4974 17.4679 10.3593 18.2549 10.375 19.0463C10.3642 19.7839 10.4817 20.5177 10.7222 21.215L5.53263 20.6048ZM4.03525 20.429C3.7468 19.7521 3.60936 19.0205 3.6325 18.2851C3.58809 17.4729 3.76707 16.6642 4.15 15.9466L4.84825 16.0287C4.51916 16.7982 4.35979 17.6296 4.381 18.4662C4.37223 19.1576 4.4735 19.8459 4.681 20.5055L4.03525 20.429ZM2.50825 15.0001C2.4025 14.9663 2.125 14.51 2.125 13.6876C2.125 12.8723 2.39725 12.4178 2.497 12.3773L4.27338 12.5843C4.27975 12.5843 4.28462 12.5892 4.29062 12.59L11.8334 13.475C11.6655 13.9656 11.5845 14.4817 11.5938 15.0001C11.5928 15.3634 11.6316 15.7256 11.7096 16.0805L10.9923 15.9965C10.8162 15.5614 10.7337 15.0941 10.75 14.6251C10.7497 14.4011 10.7748 14.1778 10.825 13.9595C10.8361 13.9115 10.8376 13.8618 10.8295 13.8132C10.8213 13.7646 10.8037 13.7181 10.7776 13.6763C10.7515 13.6346 10.7175 13.5984 10.6774 13.5698C10.6373 13.5411 10.5919 13.5207 10.5439 13.5096C10.4959 13.4986 10.4462 13.497 10.3977 13.5052C10.3491 13.5133 10.3026 13.5309 10.2608 13.557C10.2191 13.5831 10.1828 13.6172 10.1542 13.6573C10.1256 13.6974 10.1052 13.7427 10.0941 13.7907C10.0314 14.0644 9.99981 14.3443 10 14.6251C9.99594 15.0555 10.0508 15.4845 10.1631 15.9001L5.51762 15.3541H5.50975L4.015 15.1778H4.00525L2.50825 15.0001ZM4.615 9.25058L6.07113 9.42121H6.07487L14.4074 10.4033C14.2125 10.8472 14.1162 11.3279 14.125 11.8126C14.1219 12.2209 14.1885 12.6267 14.3219 13.0126L6.20575 12.0597C6.10597 11.6729 6.05781 11.2745 6.0625 10.8751C6.06197 10.6404 6.07637 10.4059 6.10563 10.1731C6.11193 10.1242 6.10855 10.0746 6.09568 10.0271C6.08281 9.97953 6.0607 9.93498 6.03061 9.89598C6.00052 9.85698 5.96305 9.82429 5.92033 9.79977C5.87761 9.77525 5.83048 9.75939 5.78163 9.75308C5.73277 9.74678 5.68316 9.75016 5.63561 9.76303C5.58807 9.7759 5.54352 9.79801 5.50452 9.8281C5.46552 9.85818 5.43283 9.89566 5.40831 9.93838C5.38379 9.9811 5.36793 10.0282 5.36162 10.0771C5.32832 10.3418 5.31191 10.6083 5.3125 10.8751C5.31138 11.2415 5.34567 11.6072 5.41488 11.9671L4.57788 11.8688C4.42931 11.4283 4.3606 10.9648 4.375 10.5001C4.37459 10.0721 4.45605 9.64797 4.615 9.25058ZM15.25 10.5001C15.2648 10.5001 15.2796 10.4993 15.2943 10.4975L23.6943 9.49058C23.5621 9.87568 23.4964 10.2805 23.5 10.6876C23.491 11.1732 23.5879 11.655 23.7839 12.0995L15.2541 13.1217C15.1454 13.0786 14.875 12.6275 14.875 11.8126C14.875 10.9902 15.1525 10.5338 15.25 10.5001ZM12.5125 16.1746C12.396 15.7941 12.339 15.3979 12.3438 15.0001C12.3173 14.5072 12.4115 14.0154 12.6182 13.5672L14.4085 13.7772C14.2129 14.2212 14.1162 14.7025 14.125 15.1876C14.1219 15.5959 14.1885 16.0017 14.3219 16.3876L12.5125 16.1746ZM15.2552 16.4971C15.1458 16.454 14.875 16.0028 14.875 15.1876C14.875 14.3652 15.1525 13.9088 15.25 13.8751C15.2649 13.8752 15.2798 13.8743 15.2946 13.8725L23.6946 12.8656C23.5623 13.2507 23.4965 13.6554 23.5 14.0626C23.4927 14.5486 23.5925 15.0303 23.7925 15.4733L15.2552 16.4971ZM11.2555 7.95008C11.6672 7.90133 12.0832 7.90133 12.4949 7.95008L21.4499 9.00308L15.25 9.74746L6.16263 8.67646H6.15887L5.683 8.62058L11.2555 7.95008ZM2.49513 9.00008L3.84812 9.15871C3.70067 9.59056 3.62528 10.0437 3.625 10.5001C3.62148 10.9277 3.66843 11.3543 3.76487 11.771L2.50825 11.6251C2.4025 11.5913 2.125 11.135 2.125 10.3126C2.125 9.50333 2.3935 9.04883 2.49513 9.00196V9.00008ZM2.5 20.2501C2.2375 20.2501 1.75 19.3958 1.75 18.0001C1.75 16.6126 2.22925 15.7628 2.49437 15.752L3.34713 15.8521C3.01998 16.6205 2.86154 17.4502 2.8825 18.2851C2.87404 18.9779 2.97646 19.6676 3.18587 20.3281L2.54387 20.2531C2.52933 20.2511 2.51467 20.2501 2.5 20.2501ZM20.05 21.5251C20.0135 21.4754 19.9651 21.4357 19.9093 21.4095C19.8535 21.3833 19.792 21.3714 19.7305 21.3751C19.6695 21.3786 19.6103 21.397 19.558 21.4286C19.5057 21.4602 19.4619 21.5042 19.4305 21.5566L19 22.2713V19.0546L20.5 18.8738V22.1251L20.05 21.5251ZM21.25 21.0275V18.7835L21.4855 18.755C21.5843 18.7432 21.6744 18.6926 21.7359 18.6144C21.7975 18.5362 21.8254 18.4368 21.8136 18.338C21.8018 18.2391 21.7513 18.1491 21.6731 18.0875C21.5949 18.026 21.4954 17.998 21.3966 18.0098L20.8341 18.0781H20.8315L18.5815 18.3481C18.5774 18.3481 18.574 18.3511 18.5699 18.3515L18.1026 18.4081C18.0078 18.4194 17.9208 18.4664 17.8595 18.5396C17.7981 18.6128 17.767 18.7067 17.7725 18.8021C17.778 18.8974 17.8197 18.9871 17.8891 19.0528C17.9584 19.1184 18.0502 19.1552 18.1458 19.1555C18.1605 19.1555 18.1753 19.1546 18.19 19.1528L18.25 19.1453V21.3875L15.25 21.7475L15.217 21.7437C14.9582 21.6811 14.5 20.8812 14.5 19.5001C14.5 18.1043 14.9875 17.2501 15.25 17.2501C15.2649 17.2502 15.2798 17.2493 15.2946 17.2475L23.5375 16.2593C23.2532 16.9279 23.1127 17.6487 23.125 18.3751C23.0979 19.196 23.2838 20.0099 23.6646 20.7376L21.25 21.0275Z" stroke="#2B2B2B" stroke-width="0.4" mask="url(#path-1-outside-1_4222_12489)"/>
</g>
</g>
<defs>
<clipPath id="clip0_4222_12489">
<rect width="24" height="24" fill="white"/>
</clipPath>
</defs>
</svg>
