<svg width="25" height="24" viewBox="0 0 25 24" fill="none" xmlns="http://www.w3.org/2000/svg">
<g clip-path="url(#clip0_4222_12565)">
<g opacity="0.6">
<mask id="path-1-outside-1_4222_12565" maskUnits="userSpaceOnUse" x="-0.499817" y="6.33838" width="19" height="16" fill="black">
<rect fill="white" x="-0.499817" y="6.33838" width="19" height="16"/>
<path d="M18.2521 20.6029C18.1115 20.0627 17.6022 19.6895 16.817 19.5506V18.5051C16.817 18.4118 16.78 18.3224 16.714 18.2565C16.6481 18.1905 16.5587 18.1535 16.4654 18.1535C16.3722 18.1535 16.2828 18.1905 16.2168 18.2565C16.1509 18.3224 16.1139 18.4118 16.1139 18.5051V19.5674C16.1139 19.9013 16.3516 20.1844 16.6793 20.2404C16.8613 20.2716 17.2352 20.3578 17.4412 20.5624H15.5862C15.5862 15.2604 15.5933 15.5732 15.5712 15.5001C15.3958 14.9192 14.9405 13.2583 14.9405 12.5569C14.9405 12.4636 14.9035 12.3742 14.8376 12.3083C14.7716 12.2423 14.6822 12.2053 14.589 12.2053C14.4957 12.2053 14.4063 12.2423 14.3404 12.3083C14.2744 12.3742 14.2374 12.4636 14.2374 12.5569C14.2374 12.778 14.2719 13.0624 14.3252 13.3695C13.4476 13.58 10.7832 14.0459 8.42337 12.6846C8.5369 12.1933 8.55106 11.6641 8.36698 11.1439C8.35159 11.1003 8.32777 11.0602 8.29689 11.0259C8.26601 10.9916 8.22866 10.9637 8.18699 10.9438C8.14531 10.9239 8.10013 10.9124 8.05401 10.91C8.0079 10.9076 7.96176 10.9143 7.91824 10.9297C7.87472 10.9451 7.83465 10.969 7.80033 10.9998C7.76602 11.0307 7.73812 11.0681 7.71824 11.1097C7.69835 11.1514 7.68687 11.1966 7.68445 11.2427C7.68203 11.2888 7.68871 11.3349 7.70412 11.3785C8.10635 12.5153 7.1718 13.8476 6.87574 14.229C6.65275 14.5162 6.66578 14.5395 5.93771 16.3213C5.79932 16.6589 5.76509 17.0302 5.83942 17.3874L6.28094 19.5215C6.30929 19.66 6.38072 19.786 6.48501 19.8814C6.58929 19.9769 6.7211 20.037 6.86158 20.053C7.22594 20.0948 7.48891 20.2659 7.64519 20.5624H5.87654C5.86361 20.5624 5.85108 20.5579 5.84121 20.5495C5.83133 20.5412 5.82475 20.5296 5.82264 20.5168C5.82207 20.5134 5.82146 20.5101 5.82081 20.5068C5.27785 17.7828 5.09133 16.8959 5.07765 16.7331C5.09002 16.6862 5.12049 16.5372 5.23515 16.2101C5.23534 16.2096 5.23562 16.2092 5.23576 16.2087C5.67259 14.9627 6.0812 14.9196 4.91541 13.2898C4.5473 12.7752 4.46278 12.6281 4.46278 12.6281C4.1355 12.1051 3.86845 11.5185 3.86845 10.8239C3.86845 9.03447 4.96027 8.04151 6.48076 8.04151C7.7839 8.04151 9.0199 8.67437 10.8277 8.83225C11.0205 8.84884 11.1917 8.70606 11.2086 8.5126C11.2126 8.46661 11.2075 8.42027 11.1936 8.37624C11.1797 8.3322 11.1573 8.29133 11.1276 8.25597C11.0979 8.2206 11.0616 8.19143 11.0206 8.17011C10.9797 8.1488 10.9349 8.13576 10.8889 8.13174C9.14253 7.97926 7.90849 7.33838 6.48086 7.33838C5.5816 7.33838 4.76255 7.64419 4.1745 8.19962C4.1237 8.248 4.07465 8.29819 4.02745 8.35009C3.33323 8.11735 2.05105 7.9133 1.06128 9.05125C-0.506652 10.854 1.82427 14.6808 0.751246 17.2499C0.494604 17.8645 1.22539 18.4197 1.74435 18.0023C2.18005 17.6519 2.52716 17.2939 2.80176 16.9331L2.47068 19.8189C2.4462 19.9953 2.48486 20.1748 2.57982 20.3255C2.67478 20.4763 2.81994 20.5886 2.98968 20.6428L4.83872 21.2371C5.02154 21.2959 5.22212 21.2617 5.37516 21.1458C5.38984 21.1346 5.40338 21.1223 5.41684 21.11C5.54885 21.211 5.71049 21.2657 5.87673 21.2656H7.81896C8.22752 21.2656 8.51267 20.859 8.37321 20.4745C8.2392 20.105 7.87854 19.4719 6.96527 19.3572C6.49347 17.0769 6.41987 17.0006 6.58881 16.5873C7.30493 14.8351 7.27919 14.8563 7.4314 14.6602C7.63915 14.3926 7.96221 13.928 8.20029 13.3648C10.0993 14.4073 12.4387 14.5471 14.4653 14.0606C14.6275 14.7775 14.8264 15.4613 14.8833 15.6531V20.5738C14.8833 20.9553 15.1936 21.2655 15.575 21.2655H17.7396C17.9048 21.2655 18.0576 21.1905 18.1588 21.0597C18.2084 20.9959 18.2426 20.9214 18.2588 20.8422C18.275 20.763 18.2727 20.6811 18.2521 20.6029ZM3.6929 14.7978C3.82083 13.8098 3.61378 12.8728 3.40331 12.0895C3.57651 12.5467 3.84534 12.9702 3.84534 12.9702C4.28302 14.3369 4.12964 14.2726 3.6929 14.7978ZM1.48241 17.3052C2.43341 14.5858 0.390729 10.8933 1.59158 9.51278C2.11279 8.91348 2.8154 8.74979 3.59742 8.95403C3.52181 9.09395 3.44343 9.26861 3.38297 9.44289C1.93518 9.66827 2.37683 11.0166 2.63109 11.9327C3.06946 13.5119 3.61237 15.4672 1.48241 17.3052ZM3.2017 10.2291C3.15492 10.5975 3.14709 11.0049 3.2137 11.3976C3.03112 10.7093 2.99446 10.3564 3.2017 10.2291ZM4.59319 15.9162C4.35464 16.2091 4.18763 16.5022 4.1407 16.9392L3.90802 19.1059C3.89259 19.2465 3.92202 19.3883 3.9921 19.5111C4.06218 19.634 4.1693 19.7315 4.29816 19.7897C4.63219 19.941 4.83015 20.1843 4.88822 20.5145L3.20451 19.9732C3.1922 19.9693 3.18168 19.9611 3.17484 19.9502C3.168 19.9392 3.16527 19.9262 3.16715 19.9134C3.16767 19.91 3.16809 19.9066 3.16846 19.9032L3.5992 16.1499C3.62137 15.956 4.36552 15.0889 4.50647 14.9285C4.66018 14.7537 4.74624 14.5627 4.7844 14.3591C5.13048 14.9661 4.9299 14.9762 4.59319 15.9162ZM4.86221 19.2996C4.78152 19.2467 4.69707 19.1997 4.60955 19.159L4.68783 18.4302L4.71169 18.5492L4.86221 19.2996Z"/>
</mask>
<path d="M18.2521 20.6029C18.1115 20.0627 17.6022 19.6895 16.817 19.5506V18.5051C16.817 18.4118 16.78 18.3224 16.714 18.2565C16.6481 18.1905 16.5587 18.1535 16.4654 18.1535C16.3722 18.1535 16.2828 18.1905 16.2168 18.2565C16.1509 18.3224 16.1139 18.4118 16.1139 18.5051V19.5674C16.1139 19.9013 16.3516 20.1844 16.6793 20.2404C16.8613 20.2716 17.2352 20.3578 17.4412 20.5624H15.5862C15.5862 15.2604 15.5933 15.5732 15.5712 15.5001C15.3958 14.9192 14.9405 13.2583 14.9405 12.5569C14.9405 12.4636 14.9035 12.3742 14.8376 12.3083C14.7716 12.2423 14.6822 12.2053 14.589 12.2053C14.4957 12.2053 14.4063 12.2423 14.3404 12.3083C14.2744 12.3742 14.2374 12.4636 14.2374 12.5569C14.2374 12.778 14.2719 13.0624 14.3252 13.3695C13.4476 13.58 10.7832 14.0459 8.42337 12.6846C8.5369 12.1933 8.55106 11.6641 8.36698 11.1439C8.35159 11.1003 8.32777 11.0602 8.29689 11.0259C8.26601 10.9916 8.22866 10.9637 8.18699 10.9438C8.14531 10.9239 8.10013 10.9124 8.05401 10.91C8.0079 10.9076 7.96176 10.9143 7.91824 10.9297C7.87472 10.9451 7.83465 10.969 7.80033 10.9998C7.76602 11.0307 7.73812 11.0681 7.71824 11.1097C7.69835 11.1514 7.68687 11.1966 7.68445 11.2427C7.68203 11.2888 7.68871 11.3349 7.70412 11.3785C8.10635 12.5153 7.1718 13.8476 6.87574 14.229C6.65275 14.5162 6.66578 14.5395 5.93771 16.3213C5.79932 16.6589 5.76509 17.0302 5.83942 17.3874L6.28094 19.5215C6.30929 19.66 6.38072 19.786 6.48501 19.8814C6.58929 19.9769 6.7211 20.037 6.86158 20.053C7.22594 20.0948 7.48891 20.2659 7.64519 20.5624H5.87654C5.86361 20.5624 5.85108 20.5579 5.84121 20.5495C5.83133 20.5412 5.82475 20.5296 5.82264 20.5168C5.82207 20.5134 5.82146 20.5101 5.82081 20.5068C5.27785 17.7828 5.09133 16.8959 5.07765 16.7331C5.09002 16.6862 5.12049 16.5372 5.23515 16.2101C5.23534 16.2096 5.23562 16.2092 5.23576 16.2087C5.67259 14.9627 6.0812 14.9196 4.91541 13.2898C4.5473 12.7752 4.46278 12.6281 4.46278 12.6281C4.1355 12.1051 3.86845 11.5185 3.86845 10.8239C3.86845 9.03447 4.96027 8.04151 6.48076 8.04151C7.7839 8.04151 9.0199 8.67437 10.8277 8.83225C11.0205 8.84884 11.1917 8.70606 11.2086 8.5126C11.2126 8.46661 11.2075 8.42027 11.1936 8.37624C11.1797 8.3322 11.1573 8.29133 11.1276 8.25597C11.0979 8.2206 11.0616 8.19143 11.0206 8.17011C10.9797 8.1488 10.9349 8.13576 10.8889 8.13174C9.14253 7.97926 7.90849 7.33838 6.48086 7.33838C5.5816 7.33838 4.76255 7.64419 4.1745 8.19962C4.1237 8.248 4.07465 8.29819 4.02745 8.35009C3.33323 8.11735 2.05105 7.9133 1.06128 9.05125C-0.506652 10.854 1.82427 14.6808 0.751246 17.2499C0.494604 17.8645 1.22539 18.4197 1.74435 18.0023C2.18005 17.6519 2.52716 17.2939 2.80176 16.9331L2.47068 19.8189C2.4462 19.9953 2.48486 20.1748 2.57982 20.3255C2.67478 20.4763 2.81994 20.5886 2.98968 20.6428L4.83872 21.2371C5.02154 21.2959 5.22212 21.2617 5.37516 21.1458C5.38984 21.1346 5.40338 21.1223 5.41684 21.11C5.54885 21.211 5.71049 21.2657 5.87673 21.2656H7.81896C8.22752 21.2656 8.51267 20.859 8.37321 20.4745C8.2392 20.105 7.87854 19.4719 6.96527 19.3572C6.49347 17.0769 6.41987 17.0006 6.58881 16.5873C7.30493 14.8351 7.27919 14.8563 7.4314 14.6602C7.63915 14.3926 7.96221 13.928 8.20029 13.3648C10.0993 14.4073 12.4387 14.5471 14.4653 14.0606C14.6275 14.7775 14.8264 15.4613 14.8833 15.6531V20.5738C14.8833 20.9553 15.1936 21.2655 15.575 21.2655H17.7396C17.9048 21.2655 18.0576 21.1905 18.1588 21.0597C18.2084 20.9959 18.2426 20.9214 18.2588 20.8422C18.275 20.763 18.2727 20.6811 18.2521 20.6029ZM3.6929 14.7978C3.82083 13.8098 3.61378 12.8728 3.40331 12.0895C3.57651 12.5467 3.84534 12.9702 3.84534 12.9702C4.28302 14.3369 4.12964 14.2726 3.6929 14.7978ZM1.48241 17.3052C2.43341 14.5858 0.390729 10.8933 1.59158 9.51278C2.11279 8.91348 2.8154 8.74979 3.59742 8.95403C3.52181 9.09395 3.44343 9.26861 3.38297 9.44289C1.93518 9.66827 2.37683 11.0166 2.63109 11.9327C3.06946 13.5119 3.61237 15.4672 1.48241 17.3052ZM3.2017 10.2291C3.15492 10.5975 3.14709 11.0049 3.2137 11.3976C3.03112 10.7093 2.99446 10.3564 3.2017 10.2291ZM4.59319 15.9162C4.35464 16.2091 4.18763 16.5022 4.1407 16.9392L3.90802 19.1059C3.89259 19.2465 3.92202 19.3883 3.9921 19.5111C4.06218 19.634 4.1693 19.7315 4.29816 19.7897C4.63219 19.941 4.83015 20.1843 4.88822 20.5145L3.20451 19.9732C3.1922 19.9693 3.18168 19.9611 3.17484 19.9502C3.168 19.9392 3.16527 19.9262 3.16715 19.9134C3.16767 19.91 3.16809 19.9066 3.16846 19.9032L3.5992 16.1499C3.62137 15.956 4.36552 15.0889 4.50647 14.9285C4.66018 14.7537 4.74624 14.5627 4.7844 14.3591C5.13048 14.9661 4.9299 14.9762 4.59319 15.9162ZM4.86221 19.2996C4.78152 19.2467 4.69707 19.1997 4.60955 19.159L4.68783 18.4302L4.71169 18.5492L4.86221 19.2996Z" fill="#2B2B2B"/>
<path d="M18.2521 20.6029C18.1115 20.0627 17.6022 19.6895 16.817 19.5506V18.5051C16.817 18.4118 16.78 18.3224 16.714 18.2565C16.6481 18.1905 16.5587 18.1535 16.4654 18.1535C16.3722 18.1535 16.2828 18.1905 16.2168 18.2565C16.1509 18.3224 16.1139 18.4118 16.1139 18.5051V19.5674C16.1139 19.9013 16.3516 20.1844 16.6793 20.2404C16.8613 20.2716 17.2352 20.3578 17.4412 20.5624H15.5862C15.5862 15.2604 15.5933 15.5732 15.5712 15.5001C15.3958 14.9192 14.9405 13.2583 14.9405 12.5569C14.9405 12.4636 14.9035 12.3742 14.8376 12.3083C14.7716 12.2423 14.6822 12.2053 14.589 12.2053C14.4957 12.2053 14.4063 12.2423 14.3404 12.3083C14.2744 12.3742 14.2374 12.4636 14.2374 12.5569C14.2374 12.778 14.2719 13.0624 14.3252 13.3695C13.4476 13.58 10.7832 14.0459 8.42337 12.6846C8.5369 12.1933 8.55106 11.6641 8.36698 11.1439C8.35159 11.1003 8.32777 11.0602 8.29689 11.0259C8.26601 10.9916 8.22866 10.9637 8.18699 10.9438C8.14531 10.9239 8.10013 10.9124 8.05401 10.91C8.0079 10.9076 7.96176 10.9143 7.91824 10.9297C7.87472 10.9451 7.83465 10.969 7.80033 10.9998C7.76602 11.0307 7.73812 11.0681 7.71824 11.1097C7.69835 11.1514 7.68687 11.1966 7.68445 11.2427C7.68203 11.2888 7.68871 11.3349 7.70412 11.3785C8.10635 12.5153 7.1718 13.8476 6.87574 14.229C6.65275 14.5162 6.66578 14.5395 5.93771 16.3213C5.79932 16.6589 5.76509 17.0302 5.83942 17.3874L6.28094 19.5215C6.30929 19.66 6.38072 19.786 6.48501 19.8814C6.58929 19.9769 6.7211 20.037 6.86158 20.053C7.22594 20.0948 7.48891 20.2659 7.64519 20.5624H5.87654C5.86361 20.5624 5.85108 20.5579 5.84121 20.5495C5.83133 20.5412 5.82475 20.5296 5.82264 20.5168C5.82207 20.5134 5.82146 20.5101 5.82081 20.5068C5.27785 17.7828 5.09133 16.8959 5.07765 16.7331C5.09002 16.6862 5.12049 16.5372 5.23515 16.2101C5.23534 16.2096 5.23562 16.2092 5.23576 16.2087C5.67259 14.9627 6.0812 14.9196 4.91541 13.2898C4.5473 12.7752 4.46278 12.6281 4.46278 12.6281C4.1355 12.1051 3.86845 11.5185 3.86845 10.8239C3.86845 9.03447 4.96027 8.04151 6.48076 8.04151C7.7839 8.04151 9.0199 8.67437 10.8277 8.83225C11.0205 8.84884 11.1917 8.70606 11.2086 8.5126C11.2126 8.46661 11.2075 8.42027 11.1936 8.37624C11.1797 8.3322 11.1573 8.29133 11.1276 8.25597C11.0979 8.2206 11.0616 8.19143 11.0206 8.17011C10.9797 8.1488 10.9349 8.13576 10.8889 8.13174C9.14253 7.97926 7.90849 7.33838 6.48086 7.33838C5.5816 7.33838 4.76255 7.64419 4.1745 8.19962C4.1237 8.248 4.07465 8.29819 4.02745 8.35009C3.33323 8.11735 2.05105 7.9133 1.06128 9.05125C-0.506652 10.854 1.82427 14.6808 0.751246 17.2499C0.494604 17.8645 1.22539 18.4197 1.74435 18.0023C2.18005 17.6519 2.52716 17.2939 2.80176 16.9331L2.47068 19.8189C2.4462 19.9953 2.48486 20.1748 2.57982 20.3255C2.67478 20.4763 2.81994 20.5886 2.98968 20.6428L4.83872 21.2371C5.02154 21.2959 5.22212 21.2617 5.37516 21.1458C5.38984 21.1346 5.40338 21.1223 5.41684 21.11C5.54885 21.211 5.71049 21.2657 5.87673 21.2656H7.81896C8.22752 21.2656 8.51267 20.859 8.37321 20.4745C8.2392 20.105 7.87854 19.4719 6.96527 19.3572C6.49347 17.0769 6.41987 17.0006 6.58881 16.5873C7.30493 14.8351 7.27919 14.8563 7.4314 14.6602C7.63915 14.3926 7.96221 13.928 8.20029 13.3648C10.0993 14.4073 12.4387 14.5471 14.4653 14.0606C14.6275 14.7775 14.8264 15.4613 14.8833 15.6531V20.5738C14.8833 20.9553 15.1936 21.2655 15.575 21.2655H17.7396C17.9048 21.2655 18.0576 21.1905 18.1588 21.0597C18.2084 20.9959 18.2426 20.9214 18.2588 20.8422C18.275 20.763 18.2727 20.6811 18.2521 20.6029ZM3.6929 14.7978C3.82083 13.8098 3.61378 12.8728 3.40331 12.0895C3.57651 12.5467 3.84534 12.9702 3.84534 12.9702C4.28302 14.3369 4.12964 14.2726 3.6929 14.7978ZM1.48241 17.3052C2.43341 14.5858 0.390729 10.8933 1.59158 9.51278C2.11279 8.91348 2.8154 8.74979 3.59742 8.95403C3.52181 9.09395 3.44343 9.26861 3.38297 9.44289C1.93518 9.66827 2.37683 11.0166 2.63109 11.9327C3.06946 13.5119 3.61237 15.4672 1.48241 17.3052ZM3.2017 10.2291C3.15492 10.5975 3.14709 11.0049 3.2137 11.3976C3.03112 10.7093 2.99446 10.3564 3.2017 10.2291ZM4.59319 15.9162C4.35464 16.2091 4.18763 16.5022 4.1407 16.9392L3.90802 19.1059C3.89259 19.2465 3.92202 19.3883 3.9921 19.5111C4.06218 19.634 4.1693 19.7315 4.29816 19.7897C4.63219 19.941 4.83015 20.1843 4.88822 20.5145L3.20451 19.9732C3.1922 19.9693 3.18168 19.9611 3.17484 19.9502C3.168 19.9392 3.16527 19.9262 3.16715 19.9134C3.16767 19.91 3.16809 19.9066 3.16846 19.9032L3.5992 16.1499C3.62137 15.956 4.36552 15.0889 4.50647 14.9285C4.66018 14.7537 4.74624 14.5627 4.7844 14.3591C5.13048 14.9661 4.9299 14.9762 4.59319 15.9162ZM4.86221 19.2996C4.78152 19.2467 4.69707 19.1997 4.60955 19.159L4.68783 18.4302L4.71169 18.5492L4.86221 19.2996Z" stroke="#2B2B2B" stroke-width="0.4" mask="url(#path-1-outside-1_4222_12565)"/>
<path d="M23.4561 6.0167L23.4561 6.01671C23.4877 6.06722 23.509 6.1235 23.5188 6.1823M23.4561 6.0167L23.5717 7.10809M23.4561 6.0167L22.7933 4.95916C22.7933 4.95916 22.7933 4.95915 22.7933 4.95914C22.7803 4.93839 22.7738 4.91428 22.7744 4.88983L22.7744 4.88969M23.4561 6.0167L22.7744 4.88969M23.5188 6.1823L23.4202 6.19871L23.5188 6.18227L23.5188 6.1823ZM23.5188 6.1823L23.6674 7.07391M23.6674 7.07391L23.6584 7.05831L23.5717 7.10809M23.6674 7.07391L24.4737 8.47886L23.5717 7.10809M23.6674 7.07391L23.6704 7.09165L23.5717 7.10809M22.7744 4.88969C22.7839 4.51971 22.7309 3.57031 22.0137 2.83497M22.7744 4.88969L22.0137 2.83497M15.2168 8.1642L15.2163 8.16451L15.2158 8.16478L15.2146 8.16555L15.2084 8.16925L15.1853 8.18273C15.1652 8.19428 15.1358 8.21076 15.0975 8.23098C15.021 8.27143 14.9092 8.32692 14.7668 8.388L14.7665 8.38811C14.0686 8.6851 13.2918 8.85354 12.5414 8.92473L12.5402 8.92484L12.5402 8.92483C12.4218 8.93467 12.3042 8.89741 12.213 8.82114C12.1219 8.74487 12.0645 8.63573 12.0532 8.5174C12.042 8.39907 12.0779 8.28108 12.1531 8.18903C12.2283 8.09699 12.3368 8.0383 12.455 8.0257L12.4561 8.02558L12.4561 8.02559C13.2629 7.94906 13.8622 7.7731 14.2477 7.62467C15.3006 5.23923 17.1139 4.06313 18.4644 3.49607C19.6284 3.00729 20.6384 2.8769 21.0535 2.84247C21.0568 2.83902 21.0602 2.83562 21.0635 2.83229C21.0635 2.83227 21.0635 2.83226 21.0635 2.83225L21.0723 2.84094C21.079 2.84041 21.0854 2.8399 21.0918 2.83942L21.0935 2.86196L21.1345 2.90267M15.2168 8.1642L22.7085 5.01215C22.6851 4.97473 22.6733 4.93125 22.6745 4.88714C22.6837 4.52634 22.6309 3.611 21.9421 2.90478M15.2168 8.1642L15.225 8.15928L15.2296 8.15652C15.2299 8.15633 15.2301 8.15618 15.2302 8.15608L15.2168 8.1642ZM21.1345 2.90267L21.0935 2.862L21.0993 2.93914C21.1115 2.9263 21.1233 2.91401 21.1345 2.90267ZM21.1345 2.90267C21.3577 2.67743 21.722 2.67907 21.9421 2.90478M21.9421 2.90478L22.0137 2.83497M21.9421 2.90478L22.0137 2.83496C22.0137 2.83496 22.0137 2.83496 22.0137 2.83497M20.637 5.4952L20.543 5.52926C20.543 5.52922 20.5429 5.52917 20.5429 5.52912C20.4989 5.40759 20.4623 5.28352 20.4333 5.15762C18.5915 5.69773 16.738 6.7343 15.3196 8.0893L15.3196 8.08931C15.297 8.11089 15.2723 8.13007 15.2457 8.14654L15.2457 8.14656L15.235 8.15322L15.2339 8.15386L15.2339 8.15385L15.2305 8.15594L21.2985 5.25665C21.3302 5.34438 21.3257 5.44108 21.286 5.52548M20.637 5.4952C20.6686 5.58293 20.7338 5.6545 20.8182 5.69416C20.9026 5.73382 20.9993 5.73834 21.087 5.7067C21.1748 5.67507 21.2463 5.60988 21.286 5.52548M20.637 5.4952C20.5937 5.37571 20.5578 5.25369 20.5295 5.12985L20.637 5.4952ZM21.286 5.52548L21.3765 5.56801C21.4275 5.45961 21.4332 5.33541 21.3926 5.22273C21.1702 4.60585 21.2483 4.08126 21.5365 3.67086M21.286 5.52548L21.5365 3.67086M21.5365 3.67086C21.8497 4.1206 21.8773 4.6395 21.8715 4.86667L21.9715 4.86923M21.5365 3.67086L21.9715 4.86923M21.9715 4.86923L21.8715 4.86656C21.8661 5.06855 21.9205 5.26763 22.0279 5.43879M21.9715 4.86923L22.0279 5.43879M22.0279 5.43879L22.6427 6.41984L22.7899 7.30244L22.7899 7.30251L22.8885 7.28607M22.0279 5.43879L23.2725 9.20722C23.2946 9.22812 23.3266 9.22939 23.3481 9.21418C23.3482 9.21417 23.3482 9.21417 23.3482 9.21417L23.6792 8.97985L23.6795 8.97963C23.6874 8.97412 23.6929 8.96587 23.6949 8.95651C23.697 8.94714 23.6955 8.93735 23.6907 8.92905L23.6905 8.92871L22.8437 7.45315L22.8436 7.45303L22.9304 7.40326C22.9095 7.36702 22.8954 7.32732 22.8885 7.28607M22.8885 7.28607L22.7381 6.38368L22.8885 7.28607ZM21.5416 8.07702L21.5416 8.07703C21.9102 8.23572 22.6254 8.59329 23.2725 9.2072C23.2725 9.2072 23.2725 9.20719 23.2725 9.20719L21.5416 8.07702ZM21.5416 8.07702C21.4541 8.03935 21.4028 7.99206 21.354 7.91963M21.5416 8.07702L21.354 7.91963M20.7497 17.0456C20.7169 16.0502 20.4812 15.4819 20.077 15.1371C19.6838 14.8017 19.1469 14.695 18.5634 14.5789L18.5464 14.5755L18.518 14.5699C18.0147 14.4698 17.74 14.4152 17.4333 14.2825C17.6958 13.9527 17.911 13.5997 18.0831 13.2316C18.3566 13.5321 18.8468 13.9447 19.7226 14.4267C20.2688 14.7274 20.6071 15.2476 20.8155 15.7582C21.0237 16.268 21.098 16.7578 21.1225 16.9818L21.1226 16.9818L20.6498 17.0489M20.7497 17.0456L20.6498 17.0489M20.7497 17.0456C20.7497 17.0455 20.7497 17.0455 20.7497 17.0454L20.6498 17.0489M20.7497 17.0456C20.75 17.0592 20.75 17.5356 20.75 17.7476M20.6498 17.0489C20.65 17.0552 20.65 17.5346 20.65 17.7476H20.75M20.75 17.7476C20.75 17.796 20.75 17.8307 20.75 17.8429V17.8476H20.65V17.8407L21.7732 17.8476C21.7637 17.8115 21.7522 17.778 21.7383 17.7476M20.75 17.7476H21.7383M21.7383 17.7476C21.704 17.6728 21.6558 17.6174 21.5904 17.5911M21.7383 17.7476H21.8464C21.8058 17.6393 21.7384 17.5428 21.6277 17.4983M21.5904 17.5911C21.5904 17.5911 21.5903 17.591 21.5903 17.591L21.6277 17.4983M21.5904 17.5911L21.6277 17.4983M21.5904 17.5911L21.6277 17.4983M21.354 7.91963C21.3162 7.86357 21.2828 7.79738 21.2383 7.70941M21.354 7.91963L21.2383 7.70941M21.2383 7.70941C21.2191 7.67145 21.1978 7.62943 21.1733 7.58242M21.2383 7.70941L21.1733 7.58242M21.1733 7.58242C20.9783 7.20843 20.5024 7.0857 20.1517 7.31665L21.1733 7.58246C21.1733 7.58245 21.1733 7.58243 21.1733 7.58242ZM24.578 9.15115C24.6285 8.922 24.5914 8.68223 24.4738 8.47912L17.7173 10.3894C17.7173 10.3894 17.7173 10.3894 17.7174 10.3894C17.766 10.8154 17.7648 12.5097 16.6323 13.8343L16.6323 13.8343C16.596 13.8768 16.5679 13.9257 16.5493 13.9784L16.5493 13.9785C16.4283 14.3243 16.3348 14.5904 16.2625 14.7959C16.1695 15.0607 16.1118 15.2248 16.0761 15.3293C16.0449 15.4208 16.0288 15.4714 16.0211 15.5049C16.013 15.5401 16.0134 15.5614 16.0137 15.5776C16.0137 15.5803 16.0138 15.5828 16.0138 15.5853V16.8641C16.0138 16.9839 16.0613 17.0987 16.146 17.1834C16.2307 17.2681 16.3456 17.3157 16.4653 17.3157C16.5851 17.3157 16.7 17.2681 16.7846 17.1834C16.8693 17.0987 16.9169 16.9839 16.9169 16.8641V15.6621L17.1052 15.1241C17.4882 15.2859 17.8127 15.3504 18.3358 15.4546L18.37 15.4614L18.37 15.4614C18.7457 15.5361 19.0212 15.5982 19.2275 15.6805C19.4302 15.7615 19.5578 15.8589 19.6443 16.0006C19.7333 16.1463 19.7858 16.3497 19.8144 16.6567C19.8429 16.963 19.8467 17.36 19.8467 17.8863C19.8467 18.308 20.1895 18.6508 20.6113 18.6508H22.0237C22.4233 18.6508 22.7377 18.306 22.698 17.908L22.698 17.908C22.6459 17.3871 22.4072 16.9861 22.0091 16.7897C21.9623 16.4212 21.8517 15.8464 21.591 15.2653C21.3166 14.6536 20.8733 14.0293 20.1579 13.6355C18.9714 12.9824 18.6587 12.5241 18.6063 12.4351C18.5877 12.3652 18.5487 12.2283 18.4848 12.0473C18.6547 11.2874 18.6412 10.6644 18.6248 10.4086C19.0936 9.30143 19.9703 8.55186 20.4717 8.19252C20.5858 8.41565 20.7619 8.72473 21.1845 8.90662C21.4985 9.04177 22.1064 9.34584 22.6508 9.86237L22.7197 9.78982L22.6508 9.86237C22.9836 10.1781 23.496 10.2159 23.8699 9.95137L23.8699 9.95137L24.2007 9.71726L24.1432 9.63541L24.201 9.71704L24.2008 9.71714C24.3929 9.58227 24.5275 9.38034 24.578 9.15115ZM20.3794 4.23403C18.9564 4.62466 17.4504 5.33564 16.1642 6.23496C17.2628 4.9509 18.8018 4.14329 20.464 3.83558C20.4247 3.96572 20.3964 4.09901 20.3794 4.23403Z" fill="#2B2B2B" stroke="#2B2B2B" stroke-width="0.2"/>
<path d="M22.1042 7.28747C22.3364 7.28747 22.5245 7.0993 22.5245 6.86717C22.5245 6.63505 22.3364 6.44687 22.1042 6.44687C21.8721 6.44687 21.684 6.63505 21.684 6.86717C21.684 7.0993 21.8721 7.28747 22.1042 7.28747Z" fill="#2B2B2B" stroke="#2B2B2B" stroke-width="0.2"/>
</g>
</g>
<defs>
<clipPath id="clip0_4222_12565">
<rect width="24" height="24" fill="white" transform="translate(0.5)"/>
</clipPath>
</defs>
</svg>
