<svg width="25" height="24" viewBox="0 0 25 24" fill="none" xmlns="http://www.w3.org/2000/svg">
<g opacity="0.6" clip-path="url(#clip0_4222_12584)">
<mask id="path-1-outside-1_4222_12584" maskUnits="userSpaceOnUse" x="-0.5" y="-1" width="26" height="25" fill="black">
<rect fill="white" x="-0.5" y="-1" width="26" height="25"/>
<path d="M24.283 17.5279L22.6326 15.8747C22.5638 15.8053 22.4819 15.7503 22.3917 15.7129C22.3014 15.6755 22.2046 15.6563 22.1069 15.6566C22.0093 15.6563 21.9125 15.6755 21.8223 15.7129C21.7321 15.7503 21.6503 15.8053 21.5815 15.8747L21.5432 15.913L21.4348 15.8045C21.3029 15.6727 21.1983 15.5163 21.127 15.344C21.1209 15.3215 21.1125 15.2997 21.1019 15.2789C21.0475 15.1255 21.0198 14.964 21.0201 14.8013V14.3336C21.0707 14.3604 21.1272 14.3744 21.1845 14.3743C21.2667 14.3742 21.3462 14.3453 21.4093 14.2926C21.4724 14.24 21.515 14.1669 21.5298 14.0861C21.5427 14.0207 21.5367 13.953 21.5126 13.8908C21.4885 13.8287 21.4471 13.7747 21.3935 13.7351C21.3398 13.6955 21.276 13.6721 21.2095 13.6674C21.143 13.6627 21.0765 13.6771 21.0178 13.7088C20.9962 13.2092 20.7921 12.7427 20.4368 12.3867L18.8358 10.7829C18.4765 10.4231 17.9988 10.225 17.4907 10.225C17.0974 10.225 16.7227 10.3442 16.4067 10.5648L16.2368 10.3939V6.37297C16.2369 5.88857 16.0608 5.42066 15.7415 5.05644C15.5142 4.79745 15.389 4.46461 15.3892 4.12007V3.82541H15.4133C15.8232 3.82541 16.1566 3.49199 16.1566 3.08203V0.743436C16.1566 0.333421 15.8232 0 15.4133 0H8.84631C8.43653 0 8.10306 0.333421 8.10306 0.743436V3.08203C8.10306 3.49199 8.43653 3.82546 8.84631 3.82546H8.9005V3.97959C8.9005 4.35862 8.75308 4.71496 8.48556 4.98285L7.77681 5.69291C7.40069 6.06979 7.1936 6.57055 7.1936 7.10338V9.37151C7.19341 9.66922 7.26334 9.96279 7.39774 10.2284C6.93156 10.2553 6.49708 10.4496 6.16418 10.7829L4.56312 12.3867C4.18699 12.7636 3.9799 13.2645 3.9799 13.7972V14.8013C3.9799 15.1803 3.83271 15.5366 3.5652 15.8045L3.45804 15.9119C3.45753 15.9122 3.4571 15.9126 3.45678 15.913L3.41871 15.8747C3.34989 15.8053 3.26797 15.7503 3.17773 15.7129C3.08749 15.6755 2.99071 15.6563 2.89301 15.6566C2.79534 15.6563 2.69859 15.6755 2.60838 15.7129C2.51817 15.7503 2.43629 15.8053 2.3675 15.8747L0.716984 17.5279C0.427672 17.8178 0.427672 18.2895 0.716984 18.5793L1.28225 19.1453C1.31485 19.178 1.35357 19.2039 1.3962 19.2216C1.43883 19.2394 1.48453 19.2485 1.5307 19.2486C1.57686 19.2486 1.62258 19.2396 1.66525 19.2219C1.70791 19.2043 1.74669 19.1784 1.77936 19.1458C1.81204 19.1132 1.83798 19.0744 1.85568 19.0318C1.87339 18.9891 1.88252 18.9434 1.88256 18.8972C1.88259 18.851 1.87353 18.8053 1.85588 18.7626C1.83824 18.7199 1.81237 18.6812 1.77973 18.6485L1.21465 18.0824C1.20701 18.0747 1.20272 18.0644 1.20272 18.0535C1.20272 18.0427 1.20701 18.0324 1.21465 18.0247L2.86517 16.3714C2.86883 16.3678 2.87318 16.3648 2.87797 16.3629C2.88276 16.3609 2.88789 16.3598 2.89308 16.3598C2.89827 16.3598 2.90341 16.3609 2.9082 16.3629C2.91299 16.3648 2.91734 16.3678 2.921 16.3714L3.20796 16.6589H3.2081L7.126 20.5836L7.56494 21.0234C7.58088 21.0393 7.58088 21.0651 7.56494 21.0811L5.91461 22.7343C5.91094 22.738 5.90658 22.741 5.90177 22.743C5.89696 22.745 5.8918 22.746 5.88658 22.746C5.88137 22.746 5.87621 22.745 5.8714 22.743C5.86659 22.741 5.86222 22.738 5.85855 22.7343L2.77512 19.6455C2.74252 19.6128 2.70379 19.5869 2.66116 19.5692C2.61853 19.5514 2.57282 19.5423 2.52665 19.5422C2.48048 19.5422 2.43475 19.5512 2.39208 19.5689C2.34941 19.5865 2.31063 19.6124 2.27797 19.645C2.24527 19.6776 2.21932 19.7164 2.2016 19.759C2.18387 19.8016 2.17473 19.8474 2.17467 19.8935C2.17462 19.9397 2.18367 19.9855 2.20129 20.0282C2.21892 20.0708 2.24478 20.1096 2.2774 20.1423L5.36107 23.2311C5.50132 23.3717 5.68811 23.4492 5.88677 23.4492C5.98443 23.4494 6.08117 23.4303 6.17137 23.3928C6.26157 23.3554 6.34344 23.3004 6.41224 23.2311L8.06261 21.5778C8.35192 21.2881 8.35192 20.8165 8.06261 20.5266L8.04466 20.5087L8.25288 20.3001C8.49572 20.0565 8.81909 19.9099 9.16234 19.8878C9.64544 19.8565 10.1005 19.6501 10.4424 19.3074L11.9585 17.788C12.3958 17.6731 12.7362 17.317 12.8287 16.8709C12.9891 16.9474 13.1647 16.987 13.3424 16.9869C14.0036 16.9869 14.5416 16.4483 14.5416 15.7862V14.9515C14.6973 15.0226 14.8665 15.0594 15.0376 15.0593C15.6988 15.0593 16.2366 14.5208 16.2366 13.8587V11.3908L17.318 12.4775C17.3507 12.5104 17.3895 12.5364 17.4323 12.5542C17.475 12.572 17.5209 12.5811 17.5672 12.581C17.6133 12.5811 17.6589 12.5721 17.7015 12.5545C17.7441 12.5369 17.7827 12.5111 17.8154 12.4786C17.8814 12.4128 17.9186 12.3235 17.9189 12.2303C17.9191 12.137 17.8822 12.0475 17.8164 11.9815L16.9148 11.0755C17.0912 10.9784 17.2894 10.9277 17.4907 10.9281C17.8108 10.9281 18.1118 11.053 18.3381 11.2798L19.9392 12.8834C20.1827 13.1276 20.3169 13.452 20.3169 13.7972V14.8013C20.3169 15.368 20.5372 15.9007 20.9371 16.3013L21.0462 16.4106L20.5363 16.9215L17.4521 20.011L17.2801 19.8387C17.2783 19.837 17.2766 19.8352 17.2748 19.8336L17.2446 19.8032C16.8809 19.4388 16.397 19.2194 15.8832 19.1861C15.5703 19.1657 15.2755 19.0319 15.0541 18.8098L13.8989 17.6609C13.8662 17.6283 13.8273 17.6025 13.7846 17.5849C13.7419 17.5674 13.6962 17.5584 13.65 17.5585C13.6038 17.5586 13.5581 17.5678 13.5155 17.5856C13.4728 17.6034 13.4341 17.6294 13.4016 17.6621C13.2648 17.7998 13.2653 18.0225 13.4031 18.1592L14.5575 19.3074C14.8995 19.6502 15.3546 19.8565 15.8378 19.8878C16.1809 19.91 16.5042 20.0565 16.7471 20.2999L16.7641 20.317C16.7733 20.3274 16.783 20.3371 16.7932 20.3463L16.9553 20.5085L16.9373 20.5266C16.648 20.8165 16.648 21.288 16.9373 21.5778L18.5877 23.2311C18.7281 23.3717 18.9147 23.4492 19.1134 23.4492C19.2111 23.4494 19.3078 23.4303 19.3981 23.3928C19.4883 23.3554 19.5702 23.3004 19.6391 23.2311L24.283 18.5791C24.5723 18.2893 24.5723 17.8178 24.283 17.5279ZM21.2557 14.0321L21.2491 14.031L21.185 14.018L21.2557 14.0321ZM9.94478 18.8106C9.72372 19.0323 9.42941 19.1658 9.11697 19.1861C8.60315 19.2194 8.11907 19.4388 7.75535 19.8032L7.54788 20.011L7.36113 19.8239C7.35878 19.8215 7.35639 19.8189 7.354 19.8167L3.9537 16.4106L4.06287 16.3013C4.46276 15.9007 4.68302 15.368 4.68302 14.8013V13.7972C4.68302 13.452 4.81709 13.1276 5.06079 12.8835L6.66185 11.2798C6.88816 11.053 7.18919 10.9281 7.50925 10.9281C7.71456 10.9281 7.91191 10.9797 8.08694 11.0766L7.18389 11.9811C7.11803 12.0471 7.08108 12.1365 7.08115 12.2298C7.08122 12.323 7.11831 12.4124 7.18427 12.4782C7.21689 12.5109 7.25562 12.5367 7.29825 12.5544C7.34088 12.572 7.38657 12.581 7.4327 12.581C7.47893 12.581 7.52472 12.572 7.56742 12.5543C7.61013 12.5366 7.64892 12.5106 7.68156 12.4779L8.76025 11.3972V15.7862C8.76025 16.4483 9.29819 16.9869 9.9594 16.9869C10.1458 16.9869 10.3223 16.944 10.4798 16.8678C10.5512 17.2163 10.7739 17.51 11.0756 17.6773L9.94478 18.8106ZM15.5337 13.8588C15.5337 14.1332 15.311 14.3564 15.0376 14.3564C14.7641 14.3564 14.5416 14.1332 14.5416 13.8588V9.93729C14.5416 9.84405 14.5046 9.75463 14.4386 9.6887C14.3727 9.62277 14.2833 9.58573 14.1901 9.58573C14.0968 9.58573 14.0074 9.62277 13.9415 9.6887C13.8755 9.75463 13.8385 9.84405 13.8385 9.93729V15.7864C13.8385 16.0607 13.616 16.2837 13.3425 16.2837C13.0969 16.2837 12.8931 16.1039 12.8537 15.8686V9.93331C12.8538 9.87194 12.8378 9.81162 12.8073 9.75837C12.7767 9.70511 12.7328 9.66078 12.6799 9.62977C12.6269 9.59877 12.5667 9.58217 12.5054 9.58164C12.444 9.58111 12.3835 9.59666 12.3301 9.62675C12.2737 9.65666 12.2265 9.70138 12.1936 9.75609C12.1607 9.81081 12.1433 9.87345 12.1433 9.93729V15.7862C12.1433 15.8309 12.1458 15.8747 12.1506 15.9181V16.6265C12.1506 16.9008 11.9281 17.124 11.6546 17.124C11.3812 17.124 11.1587 16.9008 11.1587 16.6265V9.92904C11.1587 9.83578 11.1217 9.74633 11.0557 9.68039C10.9898 9.61444 10.9004 9.57739 10.8071 9.57739C10.7138 9.57739 10.6244 9.61444 10.5584 9.68039C10.4925 9.74633 10.4554 9.83578 10.4554 9.92904V15.7862C10.4554 16.0605 10.233 16.2837 9.95959 16.2837C9.68603 16.2837 9.46356 16.0605 9.46356 15.7862V9.24664C9.46356 9.1534 9.42652 9.06398 9.36059 8.99805C9.29466 8.93212 9.20524 8.89508 9.112 8.89508C9.01876 8.89508 8.92934 8.93212 8.86341 8.99805C8.79748 9.06398 8.76044 9.1534 8.76044 9.24664V10.4562C8.73052 10.4658 8.70206 10.4794 8.67583 10.4967C8.22114 10.3258 7.89672 9.88601 7.89672 9.37151V7.10338C7.89672 6.75824 8.03092 6.43377 8.27444 6.18969L8.98328 5.47958C9.38336 5.07899 9.60362 4.5463 9.60362 3.97959V3.82546H10.3104C10.4036 3.82546 10.4931 3.78842 10.559 3.72249C10.6249 3.65656 10.662 3.56714 10.662 3.4739C10.662 3.27965 10.5047 3.12234 10.3104 3.12234H8.84631C8.83566 3.1223 8.82545 3.11804 8.81793 3.11049C8.81041 3.10295 8.80619 3.09273 8.80619 3.08207V0.743436C8.80619 0.721264 8.82414 0.703124 8.84631 0.703124H15.4132C15.4239 0.703124 15.4341 0.707371 15.4417 0.714931C15.4492 0.722491 15.4535 0.732745 15.4535 0.743436V3.08203C15.4535 3.10438 15.4355 3.12234 15.4132 3.12234H11.9609C11.8677 3.12234 11.7783 3.15938 11.7123 3.22531C11.6464 3.29124 11.6094 3.38066 11.6094 3.4739C11.6094 3.56714 11.6464 3.65656 11.7123 3.72249C11.7783 3.78842 11.8677 3.82546 11.9609 3.82546H14.6861V4.12007C14.6861 4.63569 14.873 5.1328 15.2127 5.52022C15.4196 5.75608 15.5337 6.05918 15.5337 6.37297V13.8588ZM23.7853 18.0824L19.1414 22.7343C19.1378 22.7381 19.1334 22.7411 19.1286 22.7431C19.1238 22.7452 19.1186 22.7462 19.1134 22.746C19.1081 22.7461 19.103 22.7451 19.0981 22.7431C19.0933 22.7411 19.089 22.7381 19.0853 22.7343L17.435 21.0811C17.4274 21.0734 17.4231 21.063 17.4231 21.0522C17.4231 21.0414 17.4274 21.031 17.435 21.0234L17.7007 20.7571L17.7009 20.757L20.3968 18.0565L22.079 16.3714C22.0826 16.3677 22.087 16.3648 22.0917 16.3628C22.0965 16.3608 22.1017 16.3597 22.1069 16.3597C22.1121 16.3597 22.1172 16.3608 22.122 16.3628C22.1268 16.3648 22.1311 16.3677 22.1348 16.3714L23.7852 18.0247C23.8012 18.0406 23.8012 18.0664 23.7852 18.0823L23.7853 18.0824Z"/>
</mask>
<path d="M24.283 17.5279L22.6326 15.8747C22.5638 15.8053 22.4819 15.7503 22.3917 15.7129C22.3014 15.6755 22.2046 15.6563 22.1069 15.6566C22.0093 15.6563 21.9125 15.6755 21.8223 15.7129C21.7321 15.7503 21.6503 15.8053 21.5815 15.8747L21.5432 15.913L21.4348 15.8045C21.3029 15.6727 21.1983 15.5163 21.127 15.344C21.1209 15.3215 21.1125 15.2997 21.1019 15.2789C21.0475 15.1255 21.0198 14.964 21.0201 14.8013V14.3336C21.0707 14.3604 21.1272 14.3744 21.1845 14.3743C21.2667 14.3742 21.3462 14.3453 21.4093 14.2926C21.4724 14.24 21.515 14.1669 21.5298 14.0861C21.5427 14.0207 21.5367 13.953 21.5126 13.8908C21.4885 13.8287 21.4471 13.7747 21.3935 13.7351C21.3398 13.6955 21.276 13.6721 21.2095 13.6674C21.143 13.6627 21.0765 13.6771 21.0178 13.7088C20.9962 13.2092 20.7921 12.7427 20.4368 12.3867L18.8358 10.7829C18.4765 10.4231 17.9988 10.225 17.4907 10.225C17.0974 10.225 16.7227 10.3442 16.4067 10.5648L16.2368 10.3939V6.37297C16.2369 5.88857 16.0608 5.42066 15.7415 5.05644C15.5142 4.79745 15.389 4.46461 15.3892 4.12007V3.82541H15.4133C15.8232 3.82541 16.1566 3.49199 16.1566 3.08203V0.743436C16.1566 0.333421 15.8232 0 15.4133 0H8.84631C8.43653 0 8.10306 0.333421 8.10306 0.743436V3.08203C8.10306 3.49199 8.43653 3.82546 8.84631 3.82546H8.9005V3.97959C8.9005 4.35862 8.75308 4.71496 8.48556 4.98285L7.77681 5.69291C7.40069 6.06979 7.1936 6.57055 7.1936 7.10338V9.37151C7.19341 9.66922 7.26334 9.96279 7.39774 10.2284C6.93156 10.2553 6.49708 10.4496 6.16418 10.7829L4.56312 12.3867C4.18699 12.7636 3.9799 13.2645 3.9799 13.7972V14.8013C3.9799 15.1803 3.83271 15.5366 3.5652 15.8045L3.45804 15.9119C3.45753 15.9122 3.4571 15.9126 3.45678 15.913L3.41871 15.8747C3.34989 15.8053 3.26797 15.7503 3.17773 15.7129C3.08749 15.6755 2.99071 15.6563 2.89301 15.6566C2.79534 15.6563 2.69859 15.6755 2.60838 15.7129C2.51817 15.7503 2.43629 15.8053 2.3675 15.8747L0.716984 17.5279C0.427672 17.8178 0.427672 18.2895 0.716984 18.5793L1.28225 19.1453C1.31485 19.178 1.35357 19.2039 1.3962 19.2216C1.43883 19.2394 1.48453 19.2485 1.5307 19.2486C1.57686 19.2486 1.62258 19.2396 1.66525 19.2219C1.70791 19.2043 1.74669 19.1784 1.77936 19.1458C1.81204 19.1132 1.83798 19.0744 1.85568 19.0318C1.87339 18.9891 1.88252 18.9434 1.88256 18.8972C1.88259 18.851 1.87353 18.8053 1.85588 18.7626C1.83824 18.7199 1.81237 18.6812 1.77973 18.6485L1.21465 18.0824C1.20701 18.0747 1.20272 18.0644 1.20272 18.0535C1.20272 18.0427 1.20701 18.0324 1.21465 18.0247L2.86517 16.3714C2.86883 16.3678 2.87318 16.3648 2.87797 16.3629C2.88276 16.3609 2.88789 16.3598 2.89308 16.3598C2.89827 16.3598 2.90341 16.3609 2.9082 16.3629C2.91299 16.3648 2.91734 16.3678 2.921 16.3714L3.20796 16.6589H3.2081L7.126 20.5836L7.56494 21.0234C7.58088 21.0393 7.58088 21.0651 7.56494 21.0811L5.91461 22.7343C5.91094 22.738 5.90658 22.741 5.90177 22.743C5.89696 22.745 5.8918 22.746 5.88658 22.746C5.88137 22.746 5.87621 22.745 5.8714 22.743C5.86659 22.741 5.86222 22.738 5.85855 22.7343L2.77512 19.6455C2.74252 19.6128 2.70379 19.5869 2.66116 19.5692C2.61853 19.5514 2.57282 19.5423 2.52665 19.5422C2.48048 19.5422 2.43475 19.5512 2.39208 19.5689C2.34941 19.5865 2.31063 19.6124 2.27797 19.645C2.24527 19.6776 2.21932 19.7164 2.2016 19.759C2.18387 19.8016 2.17473 19.8474 2.17467 19.8935C2.17462 19.9397 2.18367 19.9855 2.20129 20.0282C2.21892 20.0708 2.24478 20.1096 2.2774 20.1423L5.36107 23.2311C5.50132 23.3717 5.68811 23.4492 5.88677 23.4492C5.98443 23.4494 6.08117 23.4303 6.17137 23.3928C6.26157 23.3554 6.34344 23.3004 6.41224 23.2311L8.06261 21.5778C8.35192 21.2881 8.35192 20.8165 8.06261 20.5266L8.04466 20.5087L8.25288 20.3001C8.49572 20.0565 8.81909 19.9099 9.16234 19.8878C9.64544 19.8565 10.1005 19.6501 10.4424 19.3074L11.9585 17.788C12.3958 17.6731 12.7362 17.317 12.8287 16.8709C12.9891 16.9474 13.1647 16.987 13.3424 16.9869C14.0036 16.9869 14.5416 16.4483 14.5416 15.7862V14.9515C14.6973 15.0226 14.8665 15.0594 15.0376 15.0593C15.6988 15.0593 16.2366 14.5208 16.2366 13.8587V11.3908L17.318 12.4775C17.3507 12.5104 17.3895 12.5364 17.4323 12.5542C17.475 12.572 17.5209 12.5811 17.5672 12.581C17.6133 12.5811 17.6589 12.5721 17.7015 12.5545C17.7441 12.5369 17.7827 12.5111 17.8154 12.4786C17.8814 12.4128 17.9186 12.3235 17.9189 12.2303C17.9191 12.137 17.8822 12.0475 17.8164 11.9815L16.9148 11.0755C17.0912 10.9784 17.2894 10.9277 17.4907 10.9281C17.8108 10.9281 18.1118 11.053 18.3381 11.2798L19.9392 12.8834C20.1827 13.1276 20.3169 13.452 20.3169 13.7972V14.8013C20.3169 15.368 20.5372 15.9007 20.9371 16.3013L21.0462 16.4106L20.5363 16.9215L17.4521 20.011L17.2801 19.8387C17.2783 19.837 17.2766 19.8352 17.2748 19.8336L17.2446 19.8032C16.8809 19.4388 16.397 19.2194 15.8832 19.1861C15.5703 19.1657 15.2755 19.0319 15.0541 18.8098L13.8989 17.6609C13.8662 17.6283 13.8273 17.6025 13.7846 17.5849C13.7419 17.5674 13.6962 17.5584 13.65 17.5585C13.6038 17.5586 13.5581 17.5678 13.5155 17.5856C13.4728 17.6034 13.4341 17.6294 13.4016 17.6621C13.2648 17.7998 13.2653 18.0225 13.4031 18.1592L14.5575 19.3074C14.8995 19.6502 15.3546 19.8565 15.8378 19.8878C16.1809 19.91 16.5042 20.0565 16.7471 20.2999L16.7641 20.317C16.7733 20.3274 16.783 20.3371 16.7932 20.3463L16.9553 20.5085L16.9373 20.5266C16.648 20.8165 16.648 21.288 16.9373 21.5778L18.5877 23.2311C18.7281 23.3717 18.9147 23.4492 19.1134 23.4492C19.2111 23.4494 19.3078 23.4303 19.3981 23.3928C19.4883 23.3554 19.5702 23.3004 19.6391 23.2311L24.283 18.5791C24.5723 18.2893 24.5723 17.8178 24.283 17.5279ZM21.2557 14.0321L21.2491 14.031L21.185 14.018L21.2557 14.0321ZM9.94478 18.8106C9.72372 19.0323 9.42941 19.1658 9.11697 19.1861C8.60315 19.2194 8.11907 19.4388 7.75535 19.8032L7.54788 20.011L7.36113 19.8239C7.35878 19.8215 7.35639 19.8189 7.354 19.8167L3.9537 16.4106L4.06287 16.3013C4.46276 15.9007 4.68302 15.368 4.68302 14.8013V13.7972C4.68302 13.452 4.81709 13.1276 5.06079 12.8835L6.66185 11.2798C6.88816 11.053 7.18919 10.9281 7.50925 10.9281C7.71456 10.9281 7.91191 10.9797 8.08694 11.0766L7.18389 11.9811C7.11803 12.0471 7.08108 12.1365 7.08115 12.2298C7.08122 12.323 7.11831 12.4124 7.18427 12.4782C7.21689 12.5109 7.25562 12.5367 7.29825 12.5544C7.34088 12.572 7.38657 12.581 7.4327 12.581C7.47893 12.581 7.52472 12.572 7.56742 12.5543C7.61013 12.5366 7.64892 12.5106 7.68156 12.4779L8.76025 11.3972V15.7862C8.76025 16.4483 9.29819 16.9869 9.9594 16.9869C10.1458 16.9869 10.3223 16.944 10.4798 16.8678C10.5512 17.2163 10.7739 17.51 11.0756 17.6773L9.94478 18.8106ZM15.5337 13.8588C15.5337 14.1332 15.311 14.3564 15.0376 14.3564C14.7641 14.3564 14.5416 14.1332 14.5416 13.8588V9.93729C14.5416 9.84405 14.5046 9.75463 14.4386 9.6887C14.3727 9.62277 14.2833 9.58573 14.1901 9.58573C14.0968 9.58573 14.0074 9.62277 13.9415 9.6887C13.8755 9.75463 13.8385 9.84405 13.8385 9.93729V15.7864C13.8385 16.0607 13.616 16.2837 13.3425 16.2837C13.0969 16.2837 12.8931 16.1039 12.8537 15.8686V9.93331C12.8538 9.87194 12.8378 9.81162 12.8073 9.75837C12.7767 9.70511 12.7328 9.66078 12.6799 9.62977C12.6269 9.59877 12.5667 9.58217 12.5054 9.58164C12.444 9.58111 12.3835 9.59666 12.3301 9.62675C12.2737 9.65666 12.2265 9.70138 12.1936 9.75609C12.1607 9.81081 12.1433 9.87345 12.1433 9.93729V15.7862C12.1433 15.8309 12.1458 15.8747 12.1506 15.9181V16.6265C12.1506 16.9008 11.9281 17.124 11.6546 17.124C11.3812 17.124 11.1587 16.9008 11.1587 16.6265V9.92904C11.1587 9.83578 11.1217 9.74633 11.0557 9.68039C10.9898 9.61444 10.9004 9.57739 10.8071 9.57739C10.7138 9.57739 10.6244 9.61444 10.5584 9.68039C10.4925 9.74633 10.4554 9.83578 10.4554 9.92904V15.7862C10.4554 16.0605 10.233 16.2837 9.95959 16.2837C9.68603 16.2837 9.46356 16.0605 9.46356 15.7862V9.24664C9.46356 9.1534 9.42652 9.06398 9.36059 8.99805C9.29466 8.93212 9.20524 8.89508 9.112 8.89508C9.01876 8.89508 8.92934 8.93212 8.86341 8.99805C8.79748 9.06398 8.76044 9.1534 8.76044 9.24664V10.4562C8.73052 10.4658 8.70206 10.4794 8.67583 10.4967C8.22114 10.3258 7.89672 9.88601 7.89672 9.37151V7.10338C7.89672 6.75824 8.03092 6.43377 8.27444 6.18969L8.98328 5.47958C9.38336 5.07899 9.60362 4.5463 9.60362 3.97959V3.82546H10.3104C10.4036 3.82546 10.4931 3.78842 10.559 3.72249C10.6249 3.65656 10.662 3.56714 10.662 3.4739C10.662 3.27965 10.5047 3.12234 10.3104 3.12234H8.84631C8.83566 3.1223 8.82545 3.11804 8.81793 3.11049C8.81041 3.10295 8.80619 3.09273 8.80619 3.08207V0.743436C8.80619 0.721264 8.82414 0.703124 8.84631 0.703124H15.4132C15.4239 0.703124 15.4341 0.707371 15.4417 0.714931C15.4492 0.722491 15.4535 0.732745 15.4535 0.743436V3.08203C15.4535 3.10438 15.4355 3.12234 15.4132 3.12234H11.9609C11.8677 3.12234 11.7783 3.15938 11.7123 3.22531C11.6464 3.29124 11.6094 3.38066 11.6094 3.4739C11.6094 3.56714 11.6464 3.65656 11.7123 3.72249C11.7783 3.78842 11.8677 3.82546 11.9609 3.82546H14.6861V4.12007C14.6861 4.63569 14.873 5.1328 15.2127 5.52022C15.4196 5.75608 15.5337 6.05918 15.5337 6.37297V13.8588ZM23.7853 18.0824L19.1414 22.7343C19.1378 22.7381 19.1334 22.7411 19.1286 22.7431C19.1238 22.7452 19.1186 22.7462 19.1134 22.746C19.1081 22.7461 19.103 22.7451 19.0981 22.7431C19.0933 22.7411 19.089 22.7381 19.0853 22.7343L17.435 21.0811C17.4274 21.0734 17.4231 21.063 17.4231 21.0522C17.4231 21.0414 17.4274 21.031 17.435 21.0234L17.7007 20.7571L17.7009 20.757L20.3968 18.0565L22.079 16.3714C22.0826 16.3677 22.087 16.3648 22.0917 16.3628C22.0965 16.3608 22.1017 16.3597 22.1069 16.3597C22.1121 16.3597 22.1172 16.3608 22.122 16.3628C22.1268 16.3648 22.1311 16.3677 22.1348 16.3714L23.7852 18.0247C23.8012 18.0406 23.8012 18.0664 23.7852 18.0823L23.7853 18.0824Z" fill="#2B2B2B"/>
<path d="M24.283 17.5279L22.6326 15.8747C22.5638 15.8053 22.4819 15.7503 22.3917 15.7129C22.3014 15.6755 22.2046 15.6563 22.1069 15.6566C22.0093 15.6563 21.9125 15.6755 21.8223 15.7129C21.7321 15.7503 21.6503 15.8053 21.5815 15.8747L21.5432 15.913L21.4348 15.8045C21.3029 15.6727 21.1983 15.5163 21.127 15.344C21.1209 15.3215 21.1125 15.2997 21.1019 15.2789C21.0475 15.1255 21.0198 14.964 21.0201 14.8013V14.3336C21.0707 14.3604 21.1272 14.3744 21.1845 14.3743C21.2667 14.3742 21.3462 14.3453 21.4093 14.2926C21.4724 14.24 21.515 14.1669 21.5298 14.0861C21.5427 14.0207 21.5367 13.953 21.5126 13.8908C21.4885 13.8287 21.4471 13.7747 21.3935 13.7351C21.3398 13.6955 21.276 13.6721 21.2095 13.6674C21.143 13.6627 21.0765 13.6771 21.0178 13.7088C20.9962 13.2092 20.7921 12.7427 20.4368 12.3867L18.8358 10.7829C18.4765 10.4231 17.9988 10.225 17.4907 10.225C17.0974 10.225 16.7227 10.3442 16.4067 10.5648L16.2368 10.3939V6.37297C16.2369 5.88857 16.0608 5.42066 15.7415 5.05644C15.5142 4.79745 15.389 4.46461 15.3892 4.12007V3.82541H15.4133C15.8232 3.82541 16.1566 3.49199 16.1566 3.08203V0.743436C16.1566 0.333421 15.8232 0 15.4133 0H8.84631C8.43653 0 8.10306 0.333421 8.10306 0.743436V3.08203C8.10306 3.49199 8.43653 3.82546 8.84631 3.82546H8.9005V3.97959C8.9005 4.35862 8.75308 4.71496 8.48556 4.98285L7.77681 5.69291C7.40069 6.06979 7.1936 6.57055 7.1936 7.10338V9.37151C7.19341 9.66922 7.26334 9.96279 7.39774 10.2284C6.93156 10.2553 6.49708 10.4496 6.16418 10.7829L4.56312 12.3867C4.18699 12.7636 3.9799 13.2645 3.9799 13.7972V14.8013C3.9799 15.1803 3.83271 15.5366 3.5652 15.8045L3.45804 15.9119C3.45753 15.9122 3.4571 15.9126 3.45678 15.913L3.41871 15.8747C3.34989 15.8053 3.26797 15.7503 3.17773 15.7129C3.08749 15.6755 2.99071 15.6563 2.89301 15.6566C2.79534 15.6563 2.69859 15.6755 2.60838 15.7129C2.51817 15.7503 2.43629 15.8053 2.3675 15.8747L0.716984 17.5279C0.427672 17.8178 0.427672 18.2895 0.716984 18.5793L1.28225 19.1453C1.31485 19.178 1.35357 19.2039 1.3962 19.2216C1.43883 19.2394 1.48453 19.2485 1.5307 19.2486C1.57686 19.2486 1.62258 19.2396 1.66525 19.2219C1.70791 19.2043 1.74669 19.1784 1.77936 19.1458C1.81204 19.1132 1.83798 19.0744 1.85568 19.0318C1.87339 18.9891 1.88252 18.9434 1.88256 18.8972C1.88259 18.851 1.87353 18.8053 1.85588 18.7626C1.83824 18.7199 1.81237 18.6812 1.77973 18.6485L1.21465 18.0824C1.20701 18.0747 1.20272 18.0644 1.20272 18.0535C1.20272 18.0427 1.20701 18.0324 1.21465 18.0247L2.86517 16.3714C2.86883 16.3678 2.87318 16.3648 2.87797 16.3629C2.88276 16.3609 2.88789 16.3598 2.89308 16.3598C2.89827 16.3598 2.90341 16.3609 2.9082 16.3629C2.91299 16.3648 2.91734 16.3678 2.921 16.3714L3.20796 16.6589H3.2081L7.126 20.5836L7.56494 21.0234C7.58088 21.0393 7.58088 21.0651 7.56494 21.0811L5.91461 22.7343C5.91094 22.738 5.90658 22.741 5.90177 22.743C5.89696 22.745 5.8918 22.746 5.88658 22.746C5.88137 22.746 5.87621 22.745 5.8714 22.743C5.86659 22.741 5.86222 22.738 5.85855 22.7343L2.77512 19.6455C2.74252 19.6128 2.70379 19.5869 2.66116 19.5692C2.61853 19.5514 2.57282 19.5423 2.52665 19.5422C2.48048 19.5422 2.43475 19.5512 2.39208 19.5689C2.34941 19.5865 2.31063 19.6124 2.27797 19.645C2.24527 19.6776 2.21932 19.7164 2.2016 19.759C2.18387 19.8016 2.17473 19.8474 2.17467 19.8935C2.17462 19.9397 2.18367 19.9855 2.20129 20.0282C2.21892 20.0708 2.24478 20.1096 2.2774 20.1423L5.36107 23.2311C5.50132 23.3717 5.68811 23.4492 5.88677 23.4492C5.98443 23.4494 6.08117 23.4303 6.17137 23.3928C6.26157 23.3554 6.34344 23.3004 6.41224 23.2311L8.06261 21.5778C8.35192 21.2881 8.35192 20.8165 8.06261 20.5266L8.04466 20.5087L8.25288 20.3001C8.49572 20.0565 8.81909 19.9099 9.16234 19.8878C9.64544 19.8565 10.1005 19.6501 10.4424 19.3074L11.9585 17.788C12.3958 17.6731 12.7362 17.317 12.8287 16.8709C12.9891 16.9474 13.1647 16.987 13.3424 16.9869C14.0036 16.9869 14.5416 16.4483 14.5416 15.7862V14.9515C14.6973 15.0226 14.8665 15.0594 15.0376 15.0593C15.6988 15.0593 16.2366 14.5208 16.2366 13.8587V11.3908L17.318 12.4775C17.3507 12.5104 17.3895 12.5364 17.4323 12.5542C17.475 12.572 17.5209 12.5811 17.5672 12.581C17.6133 12.5811 17.6589 12.5721 17.7015 12.5545C17.7441 12.5369 17.7827 12.5111 17.8154 12.4786C17.8814 12.4128 17.9186 12.3235 17.9189 12.2303C17.9191 12.137 17.8822 12.0475 17.8164 11.9815L16.9148 11.0755C17.0912 10.9784 17.2894 10.9277 17.4907 10.9281C17.8108 10.9281 18.1118 11.053 18.3381 11.2798L19.9392 12.8834C20.1827 13.1276 20.3169 13.452 20.3169 13.7972V14.8013C20.3169 15.368 20.5372 15.9007 20.9371 16.3013L21.0462 16.4106L20.5363 16.9215L17.4521 20.011L17.2801 19.8387C17.2783 19.837 17.2766 19.8352 17.2748 19.8336L17.2446 19.8032C16.8809 19.4388 16.397 19.2194 15.8832 19.1861C15.5703 19.1657 15.2755 19.0319 15.0541 18.8098L13.8989 17.6609C13.8662 17.6283 13.8273 17.6025 13.7846 17.5849C13.7419 17.5674 13.6962 17.5584 13.65 17.5585C13.6038 17.5586 13.5581 17.5678 13.5155 17.5856C13.4728 17.6034 13.4341 17.6294 13.4016 17.6621C13.2648 17.7998 13.2653 18.0225 13.4031 18.1592L14.5575 19.3074C14.8995 19.6502 15.3546 19.8565 15.8378 19.8878C16.1809 19.91 16.5042 20.0565 16.7471 20.2999L16.7641 20.317C16.7733 20.3274 16.783 20.3371 16.7932 20.3463L16.9553 20.5085L16.9373 20.5266C16.648 20.8165 16.648 21.288 16.9373 21.5778L18.5877 23.2311C18.7281 23.3717 18.9147 23.4492 19.1134 23.4492C19.2111 23.4494 19.3078 23.4303 19.3981 23.3928C19.4883 23.3554 19.5702 23.3004 19.6391 23.2311L24.283 18.5791C24.5723 18.2893 24.5723 17.8178 24.283 17.5279ZM21.2557 14.0321L21.2491 14.031L21.185 14.018L21.2557 14.0321ZM9.94478 18.8106C9.72372 19.0323 9.42941 19.1658 9.11697 19.1861C8.60315 19.2194 8.11907 19.4388 7.75535 19.8032L7.54788 20.011L7.36113 19.8239C7.35878 19.8215 7.35639 19.8189 7.354 19.8167L3.9537 16.4106L4.06287 16.3013C4.46276 15.9007 4.68302 15.368 4.68302 14.8013V13.7972C4.68302 13.452 4.81709 13.1276 5.06079 12.8835L6.66185 11.2798C6.88816 11.053 7.18919 10.9281 7.50925 10.9281C7.71456 10.9281 7.91191 10.9797 8.08694 11.0766L7.18389 11.9811C7.11803 12.0471 7.08108 12.1365 7.08115 12.2298C7.08122 12.323 7.11831 12.4124 7.18427 12.4782C7.21689 12.5109 7.25562 12.5367 7.29825 12.5544C7.34088 12.572 7.38657 12.581 7.4327 12.581C7.47893 12.581 7.52472 12.572 7.56742 12.5543C7.61013 12.5366 7.64892 12.5106 7.68156 12.4779L8.76025 11.3972V15.7862C8.76025 16.4483 9.29819 16.9869 9.9594 16.9869C10.1458 16.9869 10.3223 16.944 10.4798 16.8678C10.5512 17.2163 10.7739 17.51 11.0756 17.6773L9.94478 18.8106ZM15.5337 13.8588C15.5337 14.1332 15.311 14.3564 15.0376 14.3564C14.7641 14.3564 14.5416 14.1332 14.5416 13.8588V9.93729C14.5416 9.84405 14.5046 9.75463 14.4386 9.6887C14.3727 9.62277 14.2833 9.58573 14.1901 9.58573C14.0968 9.58573 14.0074 9.62277 13.9415 9.6887C13.8755 9.75463 13.8385 9.84405 13.8385 9.93729V15.7864C13.8385 16.0607 13.616 16.2837 13.3425 16.2837C13.0969 16.2837 12.8931 16.1039 12.8537 15.8686V9.93331C12.8538 9.87194 12.8378 9.81162 12.8073 9.75837C12.7767 9.70511 12.7328 9.66078 12.6799 9.62977C12.6269 9.59877 12.5667 9.58217 12.5054 9.58164C12.444 9.58111 12.3835 9.59666 12.3301 9.62675C12.2737 9.65666 12.2265 9.70138 12.1936 9.75609C12.1607 9.81081 12.1433 9.87345 12.1433 9.93729V15.7862C12.1433 15.8309 12.1458 15.8747 12.1506 15.9181V16.6265C12.1506 16.9008 11.9281 17.124 11.6546 17.124C11.3812 17.124 11.1587 16.9008 11.1587 16.6265V9.92904C11.1587 9.83578 11.1217 9.74633 11.0557 9.68039C10.9898 9.61444 10.9004 9.57739 10.8071 9.57739C10.7138 9.57739 10.6244 9.61444 10.5584 9.68039C10.4925 9.74633 10.4554 9.83578 10.4554 9.92904V15.7862C10.4554 16.0605 10.233 16.2837 9.95959 16.2837C9.68603 16.2837 9.46356 16.0605 9.46356 15.7862V9.24664C9.46356 9.1534 9.42652 9.06398 9.36059 8.99805C9.29466 8.93212 9.20524 8.89508 9.112 8.89508C9.01876 8.89508 8.92934 8.93212 8.86341 8.99805C8.79748 9.06398 8.76044 9.1534 8.76044 9.24664V10.4562C8.73052 10.4658 8.70206 10.4794 8.67583 10.4967C8.22114 10.3258 7.89672 9.88601 7.89672 9.37151V7.10338C7.89672 6.75824 8.03092 6.43377 8.27444 6.18969L8.98328 5.47958C9.38336 5.07899 9.60362 4.5463 9.60362 3.97959V3.82546H10.3104C10.4036 3.82546 10.4931 3.78842 10.559 3.72249C10.6249 3.65656 10.662 3.56714 10.662 3.4739C10.662 3.27965 10.5047 3.12234 10.3104 3.12234H8.84631C8.83566 3.1223 8.82545 3.11804 8.81793 3.11049C8.81041 3.10295 8.80619 3.09273 8.80619 3.08207V0.743436C8.80619 0.721264 8.82414 0.703124 8.84631 0.703124H15.4132C15.4239 0.703124 15.4341 0.707371 15.4417 0.714931C15.4492 0.722491 15.4535 0.732745 15.4535 0.743436V3.08203C15.4535 3.10438 15.4355 3.12234 15.4132 3.12234H11.9609C11.8677 3.12234 11.7783 3.15938 11.7123 3.22531C11.6464 3.29124 11.6094 3.38066 11.6094 3.4739C11.6094 3.56714 11.6464 3.65656 11.7123 3.72249C11.7783 3.78842 11.8677 3.82546 11.9609 3.82546H14.6861V4.12007C14.6861 4.63569 14.873 5.1328 15.2127 5.52022C15.4196 5.75608 15.5337 6.05918 15.5337 6.37297V13.8588ZM23.7853 18.0824L19.1414 22.7343C19.1378 22.7381 19.1334 22.7411 19.1286 22.7431C19.1238 22.7452 19.1186 22.7462 19.1134 22.746C19.1081 22.7461 19.103 22.7451 19.0981 22.7431C19.0933 22.7411 19.089 22.7381 19.0853 22.7343L17.435 21.0811C17.4274 21.0734 17.4231 21.063 17.4231 21.0522C17.4231 21.0414 17.4274 21.031 17.435 21.0234L17.7007 20.7571L17.7009 20.757L20.3968 18.0565L22.079 16.3714C22.0826 16.3677 22.087 16.3648 22.0917 16.3628C22.0965 16.3608 22.1017 16.3597 22.1069 16.3597C22.1121 16.3597 22.1172 16.3608 22.122 16.3628C22.1268 16.3648 22.1311 16.3677 22.1348 16.3714L23.7852 18.0247C23.8012 18.0406 23.8012 18.0664 23.7852 18.0823L23.7853 18.0824Z" stroke="#2B2B2B" stroke-width="0.4" mask="url(#path-1-outside-1_4222_12584)"/>
<path d="M9.95936 1.43784C9.69759 1.43784 9.48511 1.65109 9.48511 1.91284C9.48511 2.17482 9.69763 2.38784 9.95941 2.38784C10.2213 2.38784 10.4338 2.17485 10.4338 1.91284C10.4338 1.65104 10.2213 1.43784 9.95936 1.43784ZM22.222 17.4636C21.96 17.4636 21.7475 17.6768 21.7475 17.9386C21.7475 18.2004 21.96 18.4136 22.222 18.4136C22.4838 18.4136 22.6963 18.2004 22.6963 17.9386C22.6963 17.6768 22.4838 17.4636 22.222 17.4636ZM6.45861 21.1502C6.45861 20.8885 6.24613 20.6752 5.98436 20.6752C5.72244 20.6752 5.50992 20.8885 5.50992 21.1502C5.50992 21.412 5.72244 21.6252 5.98436 21.6252C6.24613 21.6252 6.45861 21.412 6.45861 21.1502Z" fill="#2B2B2B" stroke="#2B2B2B" stroke-width="0.2"/>
</g>
<defs>
<clipPath id="clip0_4222_12584">
<rect width="24" height="24" fill="white" transform="translate(0.5)"/>
</clipPath>
</defs>
</svg>
