<svg width="24" height="24" viewBox="0 0 24 24" fill="none" xmlns="http://www.w3.org/2000/svg">
<g opacity="0.6">
<path d="M9 17.15H8.9V17.25V18V18.1H9H9.75H9.85V18V17.25V17.15H9.75H9ZM10.5 16.4H10.4V16.5V17.25V17.35H10.5H11.25H11.35V17.25V16.5V16.4H11.25H10.5ZM15 10.775H14.9V10.875V11.625V11.725H15H15.75H15.85V11.625V10.875V10.775H15.75H15ZM13.875 12.275H13.775V12.375V13.125V13.225H13.875H14.625H14.725V13.125V12.375V12.275H14.625H13.875ZM15 13.4H14.9V13.5V14.25V14.35H15H15.75H15.85V14.25V13.5V13.4H15.75H15Z" fill="#2B2B2B" stroke="#2B2B2B" stroke-width="0.2"/>
<path d="M9.375 11.25C10.3432 11.2827 11.3033 11.063 12.1609 10.6125M9.375 11.25C8.75398 11.2526 8.13595 11.1668 7.53944 10.9953L7.55014 11.1023M9.375 11.25L9.37162 11.3499C9.37225 11.35 9.37289 11.35 9.37352 11.35M9.375 11.25L9.37541 11.35C9.37478 11.35 9.37415 11.35 9.37352 11.35M12.1609 10.6125L15.4125 22.5H8.58938L7.44665 11.0723C7.48107 11.0826 7.51557 11.0926 7.55014 11.1023M12.1609 10.6125C12.9186 10.2118 13.7685 10.0178 14.625 10.05L12.1609 10.6125ZM7.55014 11.1023L8.67987 22.4H15.322L16.5137 10.4628C15.9129 10.2333 15.2718 10.1268 14.6286 10.1499L14.6212 10.1502L14.6212 10.1499C13.7823 10.1184 12.9498 10.3084 12.2076 10.7009L12.2074 10.701C11.335 11.1593 10.3584 11.383 9.37352 11.35M7.55014 11.1023C8.14328 11.269 8.75694 11.3524 9.37352 11.35M11.8391 9.9375C12.6967 9.48696 13.6568 9.26727 14.625 9.3C15.2965 9.2809 15.9658 9.37964 16.6027 9.59147L11.8391 9.9375ZM11.8391 9.9375C11.0814 10.3382 10.2315 10.5322 9.375 10.5L11.8391 9.9375ZM7.77925 22.9224L7.77925 22.9225L8.25375 23.25V23.35H8.25383C8.25397 23.35 8.25411 23.35 8.25425 23.35H15.7495L15.75 23.25V23.35H15.7499C15.8679 23.3505 15.9819 23.307 16.0696 23.2281C16.1575 23.149 16.2127 23.0401 16.2245 22.9225L16.2245 22.9224L17.6799 8.35H18.375C18.501 8.35 18.6218 8.29996 18.7109 8.21088C18.8 8.1218 18.85 8.00098 18.85 7.875V5.625C18.85 5.49902 18.8 5.3782 18.7109 5.28912C18.6218 5.20004 18.501 5.15 18.375 5.15H15.1V1.125C15.1 0.999022 15.05 0.878204 14.9609 0.789124C14.8718 0.700044 14.751 0.65 14.625 0.65H13.125C12.999 0.65 12.8782 0.700044 12.7891 0.789124C12.7 0.878204 12.65 0.999022 12.65 1.125V5.15H5.625C5.49902 5.15 5.3782 5.20004 5.28912 5.28912C5.20004 5.3782 5.15 5.49902 5.15 5.625V7.875C5.15 8.00098 5.20004 8.1218 5.28912 8.21088C5.3782 8.29996 5.49902 8.35 5.625 8.35H6.322L7.77925 22.9224ZM16.6129 9.48952C15.9723 9.2792 15.2999 9.18112 14.6253 9.19995C13.6408 9.16721 12.6647 9.39085 11.7926 9.84897L11.7924 9.8491C11.0502 10.2416 10.2177 10.4316 9.37876 10.4001L9.37876 10.4L9.37448 10.4C8.71768 10.4034 8.06547 10.2925 7.44699 10.0723L7.27487 8.35H16.727L16.6129 9.48952ZM13.6 1.6H14.15V5.15H13.6V1.6ZM17.9 6.1V7.4H6.1V6.1H17.9Z" fill="#2B2B2B" stroke="#2B2B2B" stroke-width="0.2"/>
<mask id="path-3-outside-1_4222_12492" maskUnits="userSpaceOnUse" x="7.62433" y="11.3743" width="8" height="11" fill="black">
<rect fill="white" x="7.62433" y="11.3743" width="8" height="11"/>
<path d="M10.5 15.3749C10.6491 15.3802 10.7978 15.3547 10.9366 15.3C11.0755 15.2453 11.2016 15.1626 11.3071 15.0571C11.4127 14.9516 11.4954 14.8254 11.55 14.6866C11.6047 14.5477 11.6302 14.3991 11.625 14.2499V13.4999C11.6302 13.3508 11.6047 13.2022 11.55 13.0633C11.4954 12.9244 11.4127 12.7983 11.3071 12.6928C11.2016 12.5873 11.0755 12.5046 10.9366 12.4499C10.7978 12.3952 10.6491 12.3697 10.5 12.3749H9.75C9.60085 12.3697 9.45222 12.3952 9.31336 12.4499C9.1745 12.5046 9.04838 12.5873 8.94285 12.6928C8.83732 12.7983 8.75464 12.9244 8.69996 13.0633C8.64528 13.2022 8.61976 13.3508 8.625 13.4999V14.2499C8.61976 14.3991 8.64528 14.5477 8.69996 14.6866C8.75464 14.8254 8.83732 14.9516 8.94285 15.0571C9.04838 15.1626 9.1745 15.2453 9.31336 15.3C9.45222 15.3547 9.60085 15.3802 9.75 15.3749H10.5ZM9.375 14.2499V13.4999C9.36969 13.4494 9.37575 13.3983 9.39272 13.3504C9.40969 13.3025 9.43715 13.259 9.47309 13.223C9.50902 13.1871 9.55254 13.1596 9.60045 13.1427C9.64836 13.1257 9.69945 13.1196 9.75 13.1249H10.5C10.5505 13.1196 10.6016 13.1257 10.6496 13.1427C10.6975 13.1596 10.741 13.1871 10.7769 13.223C10.8129 13.259 10.8403 13.3025 10.8573 13.3504C10.8742 13.3983 10.8803 13.4494 10.875 13.4999V14.2499C10.8803 14.3005 10.8742 14.3516 10.8573 14.3995C10.8403 14.4474 10.8129 14.4909 10.7769 14.5269C10.741 14.5628 10.6975 14.5902 10.6496 14.6072C10.6016 14.6242 10.5505 14.6302 10.5 14.6249H9.75C9.69945 14.6302 9.64836 14.6242 9.60045 14.6072C9.55254 14.5902 9.50902 14.5628 9.47309 14.5269C9.43715 14.4909 9.40969 14.4474 9.39272 14.3995C9.37575 14.3516 9.36969 14.3005 9.375 14.2499ZM13.125 15.3749C12.9759 15.3697 12.8272 15.3952 12.6884 15.4499C12.5495 15.5046 12.4234 15.5873 12.3178 15.6928C12.2123 15.7983 12.1296 15.9244 12.075 16.0633C12.0203 16.2022 11.9948 16.3508 12 16.4999V17.2499C11.9948 17.3991 12.0203 17.5477 12.075 17.6866C12.1296 17.8254 12.2123 17.9516 12.3178 18.0571C12.4234 18.1626 12.5495 18.2453 12.6884 18.3C12.8272 18.3547 12.9759 18.3802 13.125 18.3749H13.875C14.0241 18.3802 14.1728 18.3547 14.3116 18.3C14.4505 18.2453 14.5766 18.1626 14.6821 18.0571C14.7877 17.9516 14.8704 17.8254 14.925 17.6866C14.9797 17.5477 15.0052 17.3991 15 17.2499V16.4999C15.0052 16.3508 14.9797 16.2022 14.925 16.0633C14.8704 15.9244 14.7877 15.7983 14.6821 15.6928C14.5766 15.5873 14.4505 15.5046 14.3116 15.4499C14.1728 15.3952 14.0241 15.3697 13.875 15.3749H13.125ZM14.25 16.4999V17.2499C14.2553 17.3005 14.2492 17.3516 14.2323 17.3995C14.2153 17.4474 14.1879 17.4909 14.1519 17.5269C14.116 17.5628 14.0725 17.5902 14.0246 17.6072C13.9766 17.6242 13.9255 17.6302 13.875 17.6249H13.125C13.0745 17.6302 13.0234 17.6242 12.9754 17.6072C12.9275 17.5902 12.884 17.5628 12.8481 17.5269C12.8121 17.4909 12.7847 17.4474 12.7677 17.3995C12.7507 17.3516 12.7447 17.3005 12.75 17.2499V16.4999C12.7447 16.4494 12.7507 16.3983 12.7677 16.3504C12.7847 16.3025 12.8121 16.259 12.8481 16.223C12.884 16.1871 12.9275 16.1596 12.9754 16.1427C13.0234 16.1257 13.0745 16.1196 13.125 16.1249H13.875C13.9255 16.1196 13.9766 16.1257 14.0246 16.1427C14.0725 16.1596 14.116 16.1871 14.1519 16.223C14.1879 16.259 14.2153 16.3025 14.2323 16.3504C14.2492 16.3983 14.2553 16.4494 14.25 16.4999ZM11.25 18.7499H10.5C10.3509 18.7447 10.2022 18.7702 10.0634 18.8249C9.9245 18.8796 9.79838 18.9623 9.69285 19.0678C9.58732 19.1733 9.50464 19.2994 9.44996 19.4383C9.39528 19.5772 9.36976 19.7258 9.375 19.8749V20.6249C9.36976 20.7741 9.39528 20.9227 9.44996 21.0616C9.50464 21.2004 9.58732 21.3266 9.69285 21.4321C9.79838 21.5376 9.9245 21.6203 10.0634 21.675C10.2022 21.7297 10.3509 21.7552 10.5 21.7499H11.25C11.3991 21.7552 11.5478 21.7297 11.6866 21.675C11.8255 21.6203 11.9516 21.5376 12.0571 21.4321C12.1627 21.3266 12.2454 21.2004 12.3 21.0616C12.3547 20.9227 12.3802 20.7741 12.375 20.6249V19.8749C12.3802 19.7258 12.3547 19.5772 12.3 19.4383C12.2454 19.2994 12.1627 19.1733 12.0571 19.0678C11.9516 18.9623 11.8255 18.8796 11.6866 18.8249C11.5478 18.7702 11.3991 18.7447 11.25 18.7499ZM11.625 20.6249C11.6303 20.6755 11.6242 20.7266 11.6073 20.7745C11.5903 20.8224 11.5629 20.8659 11.5269 20.9019C11.491 20.9378 11.4475 20.9652 11.3996 20.9822C11.3516 20.9992 11.3005 21.0052 11.25 20.9999H10.5C10.4495 21.0052 10.3984 20.9992 10.3504 20.9822C10.3025 20.9652 10.259 20.9378 10.2231 20.9019C10.1871 20.8659 10.1597 20.8224 10.1427 20.7745C10.1257 20.7266 10.1197 20.6755 10.125 20.6249V19.8749C10.1197 19.8244 10.1257 19.7733 10.1427 19.7254C10.1597 19.6775 10.1871 19.634 10.2231 19.598C10.259 19.5621 10.3025 19.5346 10.3504 19.5177C10.3984 19.5007 10.4495 19.4946 10.5 19.4999H11.25C11.3005 19.4946 11.3516 19.5007 11.3996 19.5177C11.4475 19.5346 11.491 19.5621 11.5269 19.598C11.5629 19.634 11.5903 19.6775 11.6073 19.7254C11.6242 19.7733 11.6303 19.8244 11.625 19.8749V20.6249Z"/>
</mask>
<path d="M10.5 15.3749C10.6491 15.3802 10.7978 15.3547 10.9366 15.3C11.0755 15.2453 11.2016 15.1626 11.3071 15.0571C11.4127 14.9516 11.4954 14.8254 11.55 14.6866C11.6047 14.5477 11.6302 14.3991 11.625 14.2499V13.4999C11.6302 13.3508 11.6047 13.2022 11.55 13.0633C11.4954 12.9244 11.4127 12.7983 11.3071 12.6928C11.2016 12.5873 11.0755 12.5046 10.9366 12.4499C10.7978 12.3952 10.6491 12.3697 10.5 12.3749H9.75C9.60085 12.3697 9.45222 12.3952 9.31336 12.4499C9.1745 12.5046 9.04838 12.5873 8.94285 12.6928C8.83732 12.7983 8.75464 12.9244 8.69996 13.0633C8.64528 13.2022 8.61976 13.3508 8.625 13.4999V14.2499C8.61976 14.3991 8.64528 14.5477 8.69996 14.6866C8.75464 14.8254 8.83732 14.9516 8.94285 15.0571C9.04838 15.1626 9.1745 15.2453 9.31336 15.3C9.45222 15.3547 9.60085 15.3802 9.75 15.3749H10.5ZM9.375 14.2499V13.4999C9.36969 13.4494 9.37575 13.3983 9.39272 13.3504C9.40969 13.3025 9.43715 13.259 9.47309 13.223C9.50902 13.1871 9.55254 13.1596 9.60045 13.1427C9.64836 13.1257 9.69945 13.1196 9.75 13.1249H10.5C10.5505 13.1196 10.6016 13.1257 10.6496 13.1427C10.6975 13.1596 10.741 13.1871 10.7769 13.223C10.8129 13.259 10.8403 13.3025 10.8573 13.3504C10.8742 13.3983 10.8803 13.4494 10.875 13.4999V14.2499C10.8803 14.3005 10.8742 14.3516 10.8573 14.3995C10.8403 14.4474 10.8129 14.4909 10.7769 14.5269C10.741 14.5628 10.6975 14.5902 10.6496 14.6072C10.6016 14.6242 10.5505 14.6302 10.5 14.6249H9.75C9.69945 14.6302 9.64836 14.6242 9.60045 14.6072C9.55254 14.5902 9.50902 14.5628 9.47309 14.5269C9.43715 14.4909 9.40969 14.4474 9.39272 14.3995C9.37575 14.3516 9.36969 14.3005 9.375 14.2499ZM13.125 15.3749C12.9759 15.3697 12.8272 15.3952 12.6884 15.4499C12.5495 15.5046 12.4234 15.5873 12.3178 15.6928C12.2123 15.7983 12.1296 15.9244 12.075 16.0633C12.0203 16.2022 11.9948 16.3508 12 16.4999V17.2499C11.9948 17.3991 12.0203 17.5477 12.075 17.6866C12.1296 17.8254 12.2123 17.9516 12.3178 18.0571C12.4234 18.1626 12.5495 18.2453 12.6884 18.3C12.8272 18.3547 12.9759 18.3802 13.125 18.3749H13.875C14.0241 18.3802 14.1728 18.3547 14.3116 18.3C14.4505 18.2453 14.5766 18.1626 14.6821 18.0571C14.7877 17.9516 14.8704 17.8254 14.925 17.6866C14.9797 17.5477 15.0052 17.3991 15 17.2499V16.4999C15.0052 16.3508 14.9797 16.2022 14.925 16.0633C14.8704 15.9244 14.7877 15.7983 14.6821 15.6928C14.5766 15.5873 14.4505 15.5046 14.3116 15.4499C14.1728 15.3952 14.0241 15.3697 13.875 15.3749H13.125ZM14.25 16.4999V17.2499C14.2553 17.3005 14.2492 17.3516 14.2323 17.3995C14.2153 17.4474 14.1879 17.4909 14.1519 17.5269C14.116 17.5628 14.0725 17.5902 14.0246 17.6072C13.9766 17.6242 13.9255 17.6302 13.875 17.6249H13.125C13.0745 17.6302 13.0234 17.6242 12.9754 17.6072C12.9275 17.5902 12.884 17.5628 12.8481 17.5269C12.8121 17.4909 12.7847 17.4474 12.7677 17.3995C12.7507 17.3516 12.7447 17.3005 12.75 17.2499V16.4999C12.7447 16.4494 12.7507 16.3983 12.7677 16.3504C12.7847 16.3025 12.8121 16.259 12.8481 16.223C12.884 16.1871 12.9275 16.1596 12.9754 16.1427C13.0234 16.1257 13.0745 16.1196 13.125 16.1249H13.875C13.9255 16.1196 13.9766 16.1257 14.0246 16.1427C14.0725 16.1596 14.116 16.1871 14.1519 16.223C14.1879 16.259 14.2153 16.3025 14.2323 16.3504C14.2492 16.3983 14.2553 16.4494 14.25 16.4999ZM11.25 18.7499H10.5C10.3509 18.7447 10.2022 18.7702 10.0634 18.8249C9.9245 18.8796 9.79838 18.9623 9.69285 19.0678C9.58732 19.1733 9.50464 19.2994 9.44996 19.4383C9.39528 19.5772 9.36976 19.7258 9.375 19.8749V20.6249C9.36976 20.7741 9.39528 20.9227 9.44996 21.0616C9.50464 21.2004 9.58732 21.3266 9.69285 21.4321C9.79838 21.5376 9.9245 21.6203 10.0634 21.675C10.2022 21.7297 10.3509 21.7552 10.5 21.7499H11.25C11.3991 21.7552 11.5478 21.7297 11.6866 21.675C11.8255 21.6203 11.9516 21.5376 12.0571 21.4321C12.1627 21.3266 12.2454 21.2004 12.3 21.0616C12.3547 20.9227 12.3802 20.7741 12.375 20.6249V19.8749C12.3802 19.7258 12.3547 19.5772 12.3 19.4383C12.2454 19.2994 12.1627 19.1733 12.0571 19.0678C11.9516 18.9623 11.8255 18.8796 11.6866 18.8249C11.5478 18.7702 11.3991 18.7447 11.25 18.7499ZM11.625 20.6249C11.6303 20.6755 11.6242 20.7266 11.6073 20.7745C11.5903 20.8224 11.5629 20.8659 11.5269 20.9019C11.491 20.9378 11.4475 20.9652 11.3996 20.9822C11.3516 20.9992 11.3005 21.0052 11.25 20.9999H10.5C10.4495 21.0052 10.3984 20.9992 10.3504 20.9822C10.3025 20.9652 10.259 20.9378 10.2231 20.9019C10.1871 20.8659 10.1597 20.8224 10.1427 20.7745C10.1257 20.7266 10.1197 20.6755 10.125 20.6249V19.8749C10.1197 19.8244 10.1257 19.7733 10.1427 19.7254C10.1597 19.6775 10.1871 19.634 10.2231 19.598C10.259 19.5621 10.3025 19.5346 10.3504 19.5177C10.3984 19.5007 10.4495 19.4946 10.5 19.4999H11.25C11.3005 19.4946 11.3516 19.5007 11.3996 19.5177C11.4475 19.5346 11.491 19.5621 11.5269 19.598C11.5629 19.634 11.5903 19.6775 11.6073 19.7254C11.6242 19.7733 11.6303 19.8244 11.625 19.8749V20.6249Z" fill="#2B2B2B"/>
<path d="M10.5 15.3749C10.6491 15.3802 10.7978 15.3547 10.9366 15.3C11.0755 15.2453 11.2016 15.1626 11.3071 15.0571C11.4127 14.9516 11.4954 14.8254 11.55 14.6866C11.6047 14.5477 11.6302 14.3991 11.625 14.2499V13.4999C11.6302 13.3508 11.6047 13.2022 11.55 13.0633C11.4954 12.9244 11.4127 12.7983 11.3071 12.6928C11.2016 12.5873 11.0755 12.5046 10.9366 12.4499C10.7978 12.3952 10.6491 12.3697 10.5 12.3749H9.75C9.60085 12.3697 9.45222 12.3952 9.31336 12.4499C9.1745 12.5046 9.04838 12.5873 8.94285 12.6928C8.83732 12.7983 8.75464 12.9244 8.69996 13.0633C8.64528 13.2022 8.61976 13.3508 8.625 13.4999V14.2499C8.61976 14.3991 8.64528 14.5477 8.69996 14.6866C8.75464 14.8254 8.83732 14.9516 8.94285 15.0571C9.04838 15.1626 9.1745 15.2453 9.31336 15.3C9.45222 15.3547 9.60085 15.3802 9.75 15.3749H10.5ZM9.375 14.2499V13.4999C9.36969 13.4494 9.37575 13.3983 9.39272 13.3504C9.40969 13.3025 9.43715 13.259 9.47309 13.223C9.50902 13.1871 9.55254 13.1596 9.60045 13.1427C9.64836 13.1257 9.69945 13.1196 9.75 13.1249H10.5C10.5505 13.1196 10.6016 13.1257 10.6496 13.1427C10.6975 13.1596 10.741 13.1871 10.7769 13.223C10.8129 13.259 10.8403 13.3025 10.8573 13.3504C10.8742 13.3983 10.8803 13.4494 10.875 13.4999V14.2499C10.8803 14.3005 10.8742 14.3516 10.8573 14.3995C10.8403 14.4474 10.8129 14.4909 10.7769 14.5269C10.741 14.5628 10.6975 14.5902 10.6496 14.6072C10.6016 14.6242 10.5505 14.6302 10.5 14.6249H9.75C9.69945 14.6302 9.64836 14.6242 9.60045 14.6072C9.55254 14.5902 9.50902 14.5628 9.47309 14.5269C9.43715 14.4909 9.40969 14.4474 9.39272 14.3995C9.37575 14.3516 9.36969 14.3005 9.375 14.2499ZM13.125 15.3749C12.9759 15.3697 12.8272 15.3952 12.6884 15.4499C12.5495 15.5046 12.4234 15.5873 12.3178 15.6928C12.2123 15.7983 12.1296 15.9244 12.075 16.0633C12.0203 16.2022 11.9948 16.3508 12 16.4999V17.2499C11.9948 17.3991 12.0203 17.5477 12.075 17.6866C12.1296 17.8254 12.2123 17.9516 12.3178 18.0571C12.4234 18.1626 12.5495 18.2453 12.6884 18.3C12.8272 18.3547 12.9759 18.3802 13.125 18.3749H13.875C14.0241 18.3802 14.1728 18.3547 14.3116 18.3C14.4505 18.2453 14.5766 18.1626 14.6821 18.0571C14.7877 17.9516 14.8704 17.8254 14.925 17.6866C14.9797 17.5477 15.0052 17.3991 15 17.2499V16.4999C15.0052 16.3508 14.9797 16.2022 14.925 16.0633C14.8704 15.9244 14.7877 15.7983 14.6821 15.6928C14.5766 15.5873 14.4505 15.5046 14.3116 15.4499C14.1728 15.3952 14.0241 15.3697 13.875 15.3749H13.125ZM14.25 16.4999V17.2499C14.2553 17.3005 14.2492 17.3516 14.2323 17.3995C14.2153 17.4474 14.1879 17.4909 14.1519 17.5269C14.116 17.5628 14.0725 17.5902 14.0246 17.6072C13.9766 17.6242 13.9255 17.6302 13.875 17.6249H13.125C13.0745 17.6302 13.0234 17.6242 12.9754 17.6072C12.9275 17.5902 12.884 17.5628 12.8481 17.5269C12.8121 17.4909 12.7847 17.4474 12.7677 17.3995C12.7507 17.3516 12.7447 17.3005 12.75 17.2499V16.4999C12.7447 16.4494 12.7507 16.3983 12.7677 16.3504C12.7847 16.3025 12.8121 16.259 12.8481 16.223C12.884 16.1871 12.9275 16.1596 12.9754 16.1427C13.0234 16.1257 13.0745 16.1196 13.125 16.1249H13.875C13.9255 16.1196 13.9766 16.1257 14.0246 16.1427C14.0725 16.1596 14.116 16.1871 14.1519 16.223C14.1879 16.259 14.2153 16.3025 14.2323 16.3504C14.2492 16.3983 14.2553 16.4494 14.25 16.4999ZM11.25 18.7499H10.5C10.3509 18.7447 10.2022 18.7702 10.0634 18.8249C9.9245 18.8796 9.79838 18.9623 9.69285 19.0678C9.58732 19.1733 9.50464 19.2994 9.44996 19.4383C9.39528 19.5772 9.36976 19.7258 9.375 19.8749V20.6249C9.36976 20.7741 9.39528 20.9227 9.44996 21.0616C9.50464 21.2004 9.58732 21.3266 9.69285 21.4321C9.79838 21.5376 9.9245 21.6203 10.0634 21.675C10.2022 21.7297 10.3509 21.7552 10.5 21.7499H11.25C11.3991 21.7552 11.5478 21.7297 11.6866 21.675C11.8255 21.6203 11.9516 21.5376 12.0571 21.4321C12.1627 21.3266 12.2454 21.2004 12.3 21.0616C12.3547 20.9227 12.3802 20.7741 12.375 20.6249V19.8749C12.3802 19.7258 12.3547 19.5772 12.3 19.4383C12.2454 19.2994 12.1627 19.1733 12.0571 19.0678C11.9516 18.9623 11.8255 18.8796 11.6866 18.8249C11.5478 18.7702 11.3991 18.7447 11.25 18.7499ZM11.625 20.6249C11.6303 20.6755 11.6242 20.7266 11.6073 20.7745C11.5903 20.8224 11.5629 20.8659 11.5269 20.9019C11.491 20.9378 11.4475 20.9652 11.3996 20.9822C11.3516 20.9992 11.3005 21.0052 11.25 20.9999H10.5C10.4495 21.0052 10.3984 20.9992 10.3504 20.9822C10.3025 20.9652 10.259 20.9378 10.2231 20.9019C10.1871 20.8659 10.1597 20.8224 10.1427 20.7745C10.1257 20.7266 10.1197 20.6755 10.125 20.6249V19.8749C10.1197 19.8244 10.1257 19.7733 10.1427 19.7254C10.1597 19.6775 10.1871 19.634 10.2231 19.598C10.259 19.5621 10.3025 19.5346 10.3504 19.5177C10.3984 19.5007 10.4495 19.4946 10.5 19.4999H11.25C11.3005 19.4946 11.3516 19.5007 11.3996 19.5177C11.4475 19.5346 11.491 19.5621 11.5269 19.598C11.5629 19.634 11.5903 19.6775 11.6073 19.7254C11.6242 19.7733 11.6303 19.8244 11.625 19.8749V20.6249Z" stroke="#2B2B2B" stroke-width="0.4" mask="url(#path-3-outside-1_4222_12492)"/>
</g>
</svg>
