<svg width="25" height="24" viewBox="0 0 25 24" fill="none" xmlns="http://www.w3.org/2000/svg">
<g clip-path="url(#clip0_4222_12534)">
<g opacity="0.6">
<path d="M18.352 11.6995C20.0221 11.6993 21.7748 10.4575 22.6805 8.49606C23.3327 7.08362 23.443 5.54472 22.9739 4.27352C22.6379 3.36295 22.038 2.68276 21.2364 2.3138L21.2364 2.3138C19.2615 1.40514 16.7388 2.74701 15.5909 5.23306C14.9386 6.6455 14.8283 8.18436 15.2974 9.45561L15.2974 9.45562C15.6336 10.3664 16.2334 11.0466 17.035 11.4153L17.0352 11.4154C17.4483 11.6045 17.8976 11.7015 18.352 11.6995ZM18.352 11.6995C18.3519 11.6995 18.3519 11.6995 18.3518 11.6995V11.5995L18.3522 11.6995C18.3522 11.6995 18.3521 11.6995 18.352 11.6995ZM20.3689 9.46484L20.9296 9.72282C20.7132 9.94359 20.4755 10.1425 20.22 10.3167L20.0183 10.2239L20.3689 9.46484ZM21.039 8.01373L21.879 8.4002C21.7506 8.65013 21.6035 8.89008 21.4391 9.11801L20.6885 8.77282L21.039 8.01373ZM22.0286 5.86982L22.3791 5.11075L22.4225 5.1307C22.4822 5.44538 22.5073 5.76556 22.4974 6.08551L22.0286 5.86982ZM22.0063 4.09982L21.0374 3.65408L21.2495 3.19451C21.5718 3.41462 21.8393 3.70642 22.0305 4.04733L22.0063 4.09982ZM17.3652 7.24354L17.7157 6.48443L18.6846 6.93024L18.3341 7.68935L17.3652 7.24354ZM17.0455 7.93582L18.0145 8.38163L17.664 9.1407L16.695 8.69488L17.0455 7.93582ZM19.0042 6.23818L18.0353 5.79221L18.3858 5.03309L19.3548 5.4789L19.0042 6.23818ZM19.0268 8.00788L19.3774 7.24878L20.3463 7.69459L19.9958 8.4537L19.0268 8.00788ZM19.697 6.55626L20.0475 5.7972L21.0165 6.24301L20.666 7.00212L19.697 6.55626ZM21.3361 5.55147L20.3671 5.10554L20.7176 4.3466L21.6866 4.79242L21.3361 5.55147ZM19.3756 2.88963L19.3991 2.83854C19.5673 2.8067 19.738 2.79036 19.9092 2.78974C20.1282 2.7891 20.346 2.81807 20.5569 2.87573L20.3448 3.3355L19.3756 2.88963ZM19.6745 4.78685L18.7055 4.34104L19.0559 3.58193L20.0249 4.02775L19.6745 4.78685ZM17.5481 3.8085C17.785 3.59324 18.0444 3.40403 18.322 3.2442L18.3633 3.26322L18.0128 4.02232L17.5481 3.8085ZM17.3426 5.47362L16.5202 5.09525C16.6613 4.84985 16.821 4.61567 16.9981 4.3948L17.6931 4.7146L17.3426 5.47362ZM15.9222 6.58002C15.9895 6.30719 16.077 6.03977 16.1841 5.77999L17.023 6.16612L16.6725 6.92524L15.9222 6.58002ZM16.0023 8.3763L15.8003 8.28331C15.7662 7.97612 15.763 7.66634 15.7909 7.35866L16.3528 7.6172L16.0023 8.3763ZM17.0207 10.5339C16.6985 10.3136 16.4312 10.0216 16.24 9.6805L16.3754 9.38735L17.3444 9.83316L17.0207 10.5339ZM18.87 10.8923C18.4862 10.9675 18.0906 10.9538 17.7135 10.8526L18.0371 10.1518L19.006 10.5976L18.87 10.8923ZM18.7072 8.70049L19.6762 9.1463L19.3257 9.90524L18.3567 9.45959L18.7072 8.70049ZM22.4073 6.88356C22.3536 7.16131 22.2786 7.43451 22.1831 7.70073L21.3584 7.32131L21.709 6.5622L22.4073 6.88356Z" fill="#2B2B2B" stroke="#2B2B2B" stroke-width="0.2"/>
<mask id="path-2-outside-1_4222_12534" maskUnits="userSpaceOnUse" x="-0.240246" y="-0.110352" width="25" height="24" fill="black">
<rect fill="white" x="-0.240246" y="-0.110352" width="25" height="24"/>
<path d="M21.7291 1.24728C19.2901 0.125191 16.1425 1.73202 14.7125 4.82928C13.9113 6.5646 13.7831 8.45793 14.3609 10.0237C14.658 10.8287 15.119 11.4868 15.7144 11.9678L14.597 14.388L14.4756 14.3621C14.3437 14.3338 14.2096 14.3163 14.0748 14.3097L13.8698 14.0126C13.7037 13.7723 13.6325 13.479 13.67 13.1893C13.7252 12.7619 13.6202 12.3292 13.3752 11.9747L7.19159 3.0148C6.92003 2.62283 6.50428 2.35436 6.03529 2.26814C5.5663 2.18192 5.08225 2.28496 4.68903 2.55472C4.49445 2.68839 4.32813 2.85913 4.19962 3.05715C4.0711 3.25518 3.9829 3.47661 3.94006 3.70876C3.89723 3.94092 3.9006 4.17924 3.94999 4.41009C3.99937 4.64094 4.09381 4.85979 4.22787 5.0541L7.844 10.2938C6.8282 10.1072 5.78144 10.186 4.80501 10.5226C3.82858 10.8591 2.95555 11.4419 2.27037 12.2147C1.5852 12.9875 1.11109 13.9241 0.893915 14.9338C0.676741 15.9435 0.723857 16.9921 1.0307 17.9783C1.33755 18.9644 1.89374 19.8547 2.64546 20.5629C3.39717 21.2711 4.31896 21.7733 5.32163 22.0209C6.32431 22.2685 7.37391 22.2532 8.36889 21.9763C9.36387 21.6994 10.2705 21.1704 11.0012 20.4404C11.0439 20.3977 11.0859 20.3543 11.1273 20.3103C10.9945 20.6886 10.9725 21.0968 11.0638 21.4871C11.155 21.8775 11.3558 22.2336 11.6425 22.5138C11.9291 22.794 12.2898 22.9865 12.6821 23.0688C13.0744 23.1511 13.4821 23.1198 13.8572 22.9784C14.2323 22.8371 14.5592 22.5916 14.7997 22.2709C15.0401 21.9501 15.184 21.5674 15.2145 21.1677C15.2449 20.768 15.1607 20.368 14.9717 20.0145C14.7826 19.661 14.4967 19.3688 14.1473 19.1722L14.6016 19.266L15.1083 19.5404L16.3703 21.3692L16.3333 21.3945C16.2637 21.4424 16.2041 21.5036 16.1581 21.5746C16.1121 21.6455 16.0805 21.7248 16.0652 21.808C16.0499 21.8911 16.0511 21.9765 16.0688 22.0592C16.0865 22.1419 16.1203 22.2202 16.1683 22.2898C16.3663 22.5758 16.6696 22.7717 17.0117 22.8347C17.3538 22.8976 17.7069 22.8225 17.9937 22.6257L18.7334 22.117C18.8882 22.0104 19.0183 21.8718 19.1149 21.7106L19.429 21.8807C19.7485 22.0543 20.1227 22.0981 20.4738 22.0031L21.696 21.6742C21.7694 21.6545 21.8369 21.6174 21.8929 21.566C21.9488 21.5146 21.9915 21.4504 22.0174 21.379C22.0432 21.3076 22.0514 21.2309 22.0413 21.1557C22.0312 21.0804 22.003 21.0086 21.9592 20.9466L21.0312 19.6309L22.7673 18.8974C22.7692 18.8966 22.7712 18.8957 22.7731 18.8948C22.8442 18.8629 22.9063 18.8139 22.9538 18.7522C23.0014 18.6904 23.0329 18.6178 23.0455 18.5409C23.0581 18.464 23.0515 18.3852 23.0263 18.3115C23.001 18.2377 22.9579 18.1714 22.9007 18.1184L21.6621 16.9086L23.0217 16.042C23.0863 16.0009 23.1398 15.9447 23.1778 15.8782C23.2158 15.8118 23.237 15.7371 23.2397 15.6606C23.2424 15.5841 23.2264 15.5081 23.1932 15.4392C23.1599 15.3702 23.1104 15.3104 23.0489 15.2649L22.0468 14.5229C21.774 14.3206 21.4376 14.2232 21.0989 14.2482L16.6598 14.5348L17.4723 12.7751C17.7122 12.8185 17.9556 12.8402 18.1994 12.84C20.2623 12.84 22.4386 11.3278 23.5595 8.90038C24.3608 7.16507 24.4889 5.27174 23.9111 3.70597C23.4875 2.55941 22.7333 1.70933 21.7291 1.24728ZM14.0993 14.8752L13.3334 18.4456C13.0769 18.4175 12.7089 18.3472 12.4719 18.0483C12.6654 17.4495 12.7635 16.8241 12.7629 16.1948C12.7628 15.9768 12.751 15.759 12.7276 15.5422C12.8737 15.1014 13.4596 14.8266 14.0993 14.8752ZM12.8323 18.92C12.5005 18.9647 12.1843 19.0882 11.9102 19.2804C12.0378 19.0688 12.1521 18.8495 12.2524 18.6237C12.424 18.7601 12.6212 18.8608 12.8323 18.92ZM7.64609 10.8299C7.99166 10.887 8.33096 10.9772 8.6593 11.0991C8.71942 11.1217 8.78547 11.1231 8.84647 11.103C8.90747 11.0828 8.95974 11.0424 8.99459 10.9885C9.0173 10.9532 9.03183 10.913 9.03712 10.8714C9.04242 10.8298 9.03834 10.7875 9.02518 10.7477C9.01203 10.7079 8.99013 10.6715 8.9611 10.6412C8.93207 10.6109 8.89663 10.5875 8.85739 10.5727C8.79711 10.5503 8.73645 10.5292 8.67561 10.5088L4.69086 4.73441C4.59878 4.60096 4.53394 4.45066 4.50003 4.29212C4.46612 4.13358 4.46381 3.9699 4.49325 3.81047C4.52268 3.65103 4.58327 3.49897 4.67156 3.36298C4.75984 3.227 4.87408 3.10976 5.00773 3.01799C5.27813 2.83252 5.61097 2.76168 5.93346 2.82095C6.25595 2.88023 6.54184 3.0648 6.72861 3.3343L12.9119 12.2942C13.078 12.5345 13.1492 12.8278 13.1117 13.1175C13.0565 13.5449 13.1615 13.9776 13.4065 14.3321L13.4293 14.3649C13.1215 14.4311 12.8348 14.5723 12.5945 14.7759C12.335 13.7044 11.7834 12.7259 11.0012 11.949C10.8846 11.8326 10.7645 11.7221 10.6407 11.6175C10.6127 11.5924 10.5799 11.5733 10.5443 11.5611C10.5088 11.549 10.4711 11.5441 10.4336 11.5467C10.3961 11.5494 10.3595 11.5595 10.326 11.5766C10.2924 11.5936 10.2627 11.6172 10.2384 11.6459C10.2142 11.6747 10.196 11.708 10.1848 11.7439C10.1737 11.7798 10.1698 11.8176 10.1735 11.855C10.1772 11.8924 10.1884 11.9287 10.2064 11.9618C10.2244 11.9948 10.2488 12.0239 10.2782 12.0473C10.3189 12.0818 10.3588 12.1176 10.3986 12.1538L8.52406 14.025C8.14655 13.593 7.87151 13.0812 7.71949 12.5279C7.56746 11.9747 7.54237 11.3942 7.64609 10.8299ZM12.1268 15.2979C11.5612 15.4021 10.9794 15.3776 10.4246 15.226C9.86978 15.0745 9.35627 14.7998 8.92222 14.4225L10.7972 12.5507C11.4959 13.3192 11.9576 14.2732 12.1268 15.2979ZM6.74844 10.7559C6.86113 10.7559 6.97375 10.7594 7.08631 10.7665C6.97253 11.4149 7.00685 12.0807 7.18671 12.7139C7.36656 13.3472 7.6873 13.9316 8.12492 14.4235L6.74844 15.7974L3.09781 12.1534C4.09959 11.2515 5.40048 10.7535 6.74844 10.7559ZM1.29687 16.1948C1.29323 14.8476 1.7937 13.5477 2.69989 12.5507L6.35052 16.1948L4.98177 17.5611C4.48418 17.1272 3.89639 16.8092 3.2609 16.6303C2.62541 16.4513 1.95809 16.4158 1.30719 16.5263C1.30058 16.4164 1.29687 16.3059 1.29687 16.1948ZM1.36948 17.0855C1.93632 16.9795 2.51977 17.0031 3.07621 17.1544C3.63265 17.3058 4.14768 17.5809 4.58281 17.9593L2.6998 19.839C1.99975 19.0689 1.5377 18.1125 1.36948 17.0855ZM5.85734 21.5608C4.82948 21.3933 3.87156 20.9334 3.098 20.2362L4.98106 18.3565C5.35975 18.7897 5.63533 19.3031 5.7871 19.8581C5.93887 20.4132 5.96289 20.9952 5.85734 21.5608ZM6.41661 21.6232C6.52657 20.9737 6.49058 20.3079 6.31122 19.674C6.13187 19.0401 5.81366 18.4542 5.37969 17.9585L6.74844 16.5922L10.3991 20.2363C9.86076 20.7206 9.23131 21.0927 8.54751 21.3309C7.86372 21.5691 7.1393 21.6683 6.41661 21.6232ZM10.7974 19.8388L7.14687 16.1948L8.52383 14.8204C9.32474 15.5309 10.3583 15.9234 11.429 15.9235C11.684 15.9232 11.9385 15.9012 12.1897 15.8575C12.1965 15.9694 12.2004 16.0818 12.2004 16.195C12.204 17.5422 11.7035 18.8418 10.7974 19.8388ZM14.6581 21.0065C14.6581 21.3118 14.5675 21.6102 14.3979 21.864C14.2283 22.1179 13.9872 22.3157 13.7052 22.4325C13.4232 22.5493 13.1128 22.5799 12.8134 22.5203C12.514 22.4608 12.2389 22.3138 12.0231 22.0979C11.8072 21.882 11.6602 21.607 11.6006 21.3076C11.5411 21.0082 11.5716 20.6978 11.6885 20.4158C11.8053 20.1337 12.0031 19.8927 12.257 19.7231C12.5108 19.5535 12.8092 19.4629 13.1145 19.4629C13.5238 19.4634 13.9161 19.6261 14.2055 19.9156C14.4949 20.205 14.6577 20.5972 14.6581 21.0065ZM14.4839 18.6657L13.8888 18.5385L14.6529 14.9754L15.248 15.1026L14.4839 18.6657ZM16.1998 20.1316L17.3019 20.7286L16.8338 21.0504L16.1998 20.1316ZM18.4147 21.6536L17.675 22.1622C17.511 22.2746 17.3091 22.3176 17.1136 22.2817C16.918 22.2457 16.7446 22.1338 16.6313 21.9704C16.6252 21.9617 16.6209 21.9518 16.6187 21.9414C16.6165 21.931 16.6163 21.9203 16.6183 21.9098C16.6202 21.8994 16.6242 21.8894 16.63 21.8805C16.6358 21.8716 16.6433 21.8639 16.6521 21.8579L17.8572 21.0292L18.6191 21.4417C18.5656 21.5251 18.4961 21.5972 18.4147 21.6536ZM21.4247 21.1648L20.3275 21.4601C20.1156 21.5175 19.8897 21.491 19.6968 21.3861L15.0191 18.8525L15.23 17.8681L20.2462 19.6869C20.3649 19.7297 20.4675 19.808 20.5401 19.9112L21.4247 21.1648ZM22.4184 18.4342L20.5691 19.2155L15.3493 17.3129L15.4699 16.7504L20.9385 17.1489C20.99 17.1487 21.0414 17.1452 21.0924 17.1384L22.4184 18.4342ZM21.1378 14.8095C21.3428 14.7939 21.5466 14.8527 21.7118 14.9752L22.6078 15.6387L21.2723 16.4899C21.1599 16.5613 21.0275 16.5947 20.8946 16.5851L15.5891 16.1953L15.8126 15.1531L21.1378 14.8095ZM16.0208 14.5761L15.6028 14.6031L15.1605 14.5086L16.183 12.2941C16.2994 12.363 16.4193 12.4258 16.5422 12.4824C16.665 12.5387 16.7905 12.5887 16.9185 12.6319L16.0208 14.5761ZM23.0484 8.6646C21.7481 11.4806 18.935 12.964 16.7773 11.9713C15.9117 11.5729 15.2586 10.8323 14.8883 9.82916C14.3618 8.40238 14.4837 6.66599 15.2229 5.06521C16.2492 2.84253 18.218 1.45007 20.0631 1.45007C20.5568 1.4478 21.045 1.55304 21.4939 1.75846C22.3595 2.15689 23.0127 2.89752 23.383 3.90064C23.9094 5.32743 23.7875 7.06382 23.0484 8.6646Z"/>
</mask>
<path d="M21.7291 1.24728C19.2901 0.125191 16.1425 1.73202 14.7125 4.82928C13.9113 6.5646 13.7831 8.45793 14.3609 10.0237C14.658 10.8287 15.119 11.4868 15.7144 11.9678L14.597 14.388L14.4756 14.3621C14.3437 14.3338 14.2096 14.3163 14.0748 14.3097L13.8698 14.0126C13.7037 13.7723 13.6325 13.479 13.67 13.1893C13.7252 12.7619 13.6202 12.3292 13.3752 11.9747L7.19159 3.0148C6.92003 2.62283 6.50428 2.35436 6.03529 2.26814C5.5663 2.18192 5.08225 2.28496 4.68903 2.55472C4.49445 2.68839 4.32813 2.85913 4.19962 3.05715C4.0711 3.25518 3.9829 3.47661 3.94006 3.70876C3.89723 3.94092 3.9006 4.17924 3.94999 4.41009C3.99937 4.64094 4.09381 4.85979 4.22787 5.0541L7.844 10.2938C6.8282 10.1072 5.78144 10.186 4.80501 10.5226C3.82858 10.8591 2.95555 11.4419 2.27037 12.2147C1.5852 12.9875 1.11109 13.9241 0.893915 14.9338C0.676741 15.9435 0.723857 16.9921 1.0307 17.9783C1.33755 18.9644 1.89374 19.8547 2.64546 20.5629C3.39717 21.2711 4.31896 21.7733 5.32163 22.0209C6.32431 22.2685 7.37391 22.2532 8.36889 21.9763C9.36387 21.6994 10.2705 21.1704 11.0012 20.4404C11.0439 20.3977 11.0859 20.3543 11.1273 20.3103C10.9945 20.6886 10.9725 21.0968 11.0638 21.4871C11.155 21.8775 11.3558 22.2336 11.6425 22.5138C11.9291 22.794 12.2898 22.9865 12.6821 23.0688C13.0744 23.1511 13.4821 23.1198 13.8572 22.9784C14.2323 22.8371 14.5592 22.5916 14.7997 22.2709C15.0401 21.9501 15.184 21.5674 15.2145 21.1677C15.2449 20.768 15.1607 20.368 14.9717 20.0145C14.7826 19.661 14.4967 19.3688 14.1473 19.1722L14.6016 19.266L15.1083 19.5404L16.3703 21.3692L16.3333 21.3945C16.2637 21.4424 16.2041 21.5036 16.1581 21.5746C16.1121 21.6455 16.0805 21.7248 16.0652 21.808C16.0499 21.8911 16.0511 21.9765 16.0688 22.0592C16.0865 22.1419 16.1203 22.2202 16.1683 22.2898C16.3663 22.5758 16.6696 22.7717 17.0117 22.8347C17.3538 22.8976 17.7069 22.8225 17.9937 22.6257L18.7334 22.117C18.8882 22.0104 19.0183 21.8718 19.1149 21.7106L19.429 21.8807C19.7485 22.0543 20.1227 22.0981 20.4738 22.0031L21.696 21.6742C21.7694 21.6545 21.8369 21.6174 21.8929 21.566C21.9488 21.5146 21.9915 21.4504 22.0174 21.379C22.0432 21.3076 22.0514 21.2309 22.0413 21.1557C22.0312 21.0804 22.003 21.0086 21.9592 20.9466L21.0312 19.6309L22.7673 18.8974C22.7692 18.8966 22.7712 18.8957 22.7731 18.8948C22.8442 18.8629 22.9063 18.8139 22.9538 18.7522C23.0014 18.6904 23.0329 18.6178 23.0455 18.5409C23.0581 18.464 23.0515 18.3852 23.0263 18.3115C23.001 18.2377 22.9579 18.1714 22.9007 18.1184L21.6621 16.9086L23.0217 16.042C23.0863 16.0009 23.1398 15.9447 23.1778 15.8782C23.2158 15.8118 23.237 15.7371 23.2397 15.6606C23.2424 15.5841 23.2264 15.5081 23.1932 15.4392C23.1599 15.3702 23.1104 15.3104 23.0489 15.2649L22.0468 14.5229C21.774 14.3206 21.4376 14.2232 21.0989 14.2482L16.6598 14.5348L17.4723 12.7751C17.7122 12.8185 17.9556 12.8402 18.1994 12.84C20.2623 12.84 22.4386 11.3278 23.5595 8.90038C24.3608 7.16507 24.4889 5.27174 23.9111 3.70597C23.4875 2.55941 22.7333 1.70933 21.7291 1.24728ZM14.0993 14.8752L13.3334 18.4456C13.0769 18.4175 12.7089 18.3472 12.4719 18.0483C12.6654 17.4495 12.7635 16.8241 12.7629 16.1948C12.7628 15.9768 12.751 15.759 12.7276 15.5422C12.8737 15.1014 13.4596 14.8266 14.0993 14.8752ZM12.8323 18.92C12.5005 18.9647 12.1843 19.0882 11.9102 19.2804C12.0378 19.0688 12.1521 18.8495 12.2524 18.6237C12.424 18.7601 12.6212 18.8608 12.8323 18.92ZM7.64609 10.8299C7.99166 10.887 8.33096 10.9772 8.6593 11.0991C8.71942 11.1217 8.78547 11.1231 8.84647 11.103C8.90747 11.0828 8.95974 11.0424 8.99459 10.9885C9.0173 10.9532 9.03183 10.913 9.03712 10.8714C9.04242 10.8298 9.03834 10.7875 9.02518 10.7477C9.01203 10.7079 8.99013 10.6715 8.9611 10.6412C8.93207 10.6109 8.89663 10.5875 8.85739 10.5727C8.79711 10.5503 8.73645 10.5292 8.67561 10.5088L4.69086 4.73441C4.59878 4.60096 4.53394 4.45066 4.50003 4.29212C4.46612 4.13358 4.46381 3.9699 4.49325 3.81047C4.52268 3.65103 4.58327 3.49897 4.67156 3.36298C4.75984 3.227 4.87408 3.10976 5.00773 3.01799C5.27813 2.83252 5.61097 2.76168 5.93346 2.82095C6.25595 2.88023 6.54184 3.0648 6.72861 3.3343L12.9119 12.2942C13.078 12.5345 13.1492 12.8278 13.1117 13.1175C13.0565 13.5449 13.1615 13.9776 13.4065 14.3321L13.4293 14.3649C13.1215 14.4311 12.8348 14.5723 12.5945 14.7759C12.335 13.7044 11.7834 12.7259 11.0012 11.949C10.8846 11.8326 10.7645 11.7221 10.6407 11.6175C10.6127 11.5924 10.5799 11.5733 10.5443 11.5611C10.5088 11.549 10.4711 11.5441 10.4336 11.5467C10.3961 11.5494 10.3595 11.5595 10.326 11.5766C10.2924 11.5936 10.2627 11.6172 10.2384 11.6459C10.2142 11.6747 10.196 11.708 10.1848 11.7439C10.1737 11.7798 10.1698 11.8176 10.1735 11.855C10.1772 11.8924 10.1884 11.9287 10.2064 11.9618C10.2244 11.9948 10.2488 12.0239 10.2782 12.0473C10.3189 12.0818 10.3588 12.1176 10.3986 12.1538L8.52406 14.025C8.14655 13.593 7.87151 13.0812 7.71949 12.5279C7.56746 11.9747 7.54237 11.3942 7.64609 10.8299ZM12.1268 15.2979C11.5612 15.4021 10.9794 15.3776 10.4246 15.226C9.86978 15.0745 9.35627 14.7998 8.92222 14.4225L10.7972 12.5507C11.4959 13.3192 11.9576 14.2732 12.1268 15.2979ZM6.74844 10.7559C6.86113 10.7559 6.97375 10.7594 7.08631 10.7665C6.97253 11.4149 7.00685 12.0807 7.18671 12.7139C7.36656 13.3472 7.6873 13.9316 8.12492 14.4235L6.74844 15.7974L3.09781 12.1534C4.09959 11.2515 5.40048 10.7535 6.74844 10.7559ZM1.29687 16.1948C1.29323 14.8476 1.7937 13.5477 2.69989 12.5507L6.35052 16.1948L4.98177 17.5611C4.48418 17.1272 3.89639 16.8092 3.2609 16.6303C2.62541 16.4513 1.95809 16.4158 1.30719 16.5263C1.30058 16.4164 1.29687 16.3059 1.29687 16.1948ZM1.36948 17.0855C1.93632 16.9795 2.51977 17.0031 3.07621 17.1544C3.63265 17.3058 4.14768 17.5809 4.58281 17.9593L2.6998 19.839C1.99975 19.0689 1.5377 18.1125 1.36948 17.0855ZM5.85734 21.5608C4.82948 21.3933 3.87156 20.9334 3.098 20.2362L4.98106 18.3565C5.35975 18.7897 5.63533 19.3031 5.7871 19.8581C5.93887 20.4132 5.96289 20.9952 5.85734 21.5608ZM6.41661 21.6232C6.52657 20.9737 6.49058 20.3079 6.31122 19.674C6.13187 19.0401 5.81366 18.4542 5.37969 17.9585L6.74844 16.5922L10.3991 20.2363C9.86076 20.7206 9.23131 21.0927 8.54751 21.3309C7.86372 21.5691 7.1393 21.6683 6.41661 21.6232ZM10.7974 19.8388L7.14687 16.1948L8.52383 14.8204C9.32474 15.5309 10.3583 15.9234 11.429 15.9235C11.684 15.9232 11.9385 15.9012 12.1897 15.8575C12.1965 15.9694 12.2004 16.0818 12.2004 16.195C12.204 17.5422 11.7035 18.8418 10.7974 19.8388ZM14.6581 21.0065C14.6581 21.3118 14.5675 21.6102 14.3979 21.864C14.2283 22.1179 13.9872 22.3157 13.7052 22.4325C13.4232 22.5493 13.1128 22.5799 12.8134 22.5203C12.514 22.4608 12.2389 22.3138 12.0231 22.0979C11.8072 21.882 11.6602 21.607 11.6006 21.3076C11.5411 21.0082 11.5716 20.6978 11.6885 20.4158C11.8053 20.1337 12.0031 19.8927 12.257 19.7231C12.5108 19.5535 12.8092 19.4629 13.1145 19.4629C13.5238 19.4634 13.9161 19.6261 14.2055 19.9156C14.4949 20.205 14.6577 20.5972 14.6581 21.0065ZM14.4839 18.6657L13.8888 18.5385L14.6529 14.9754L15.248 15.1026L14.4839 18.6657ZM16.1998 20.1316L17.3019 20.7286L16.8338 21.0504L16.1998 20.1316ZM18.4147 21.6536L17.675 22.1622C17.511 22.2746 17.3091 22.3176 17.1136 22.2817C16.918 22.2457 16.7446 22.1338 16.6313 21.9704C16.6252 21.9617 16.6209 21.9518 16.6187 21.9414C16.6165 21.931 16.6163 21.9203 16.6183 21.9098C16.6202 21.8994 16.6242 21.8894 16.63 21.8805C16.6358 21.8716 16.6433 21.8639 16.6521 21.8579L17.8572 21.0292L18.6191 21.4417C18.5656 21.5251 18.4961 21.5972 18.4147 21.6536ZM21.4247 21.1648L20.3275 21.4601C20.1156 21.5175 19.8897 21.491 19.6968 21.3861L15.0191 18.8525L15.23 17.8681L20.2462 19.6869C20.3649 19.7297 20.4675 19.808 20.5401 19.9112L21.4247 21.1648ZM22.4184 18.4342L20.5691 19.2155L15.3493 17.3129L15.4699 16.7504L20.9385 17.1489C20.99 17.1487 21.0414 17.1452 21.0924 17.1384L22.4184 18.4342ZM21.1378 14.8095C21.3428 14.7939 21.5466 14.8527 21.7118 14.9752L22.6078 15.6387L21.2723 16.4899C21.1599 16.5613 21.0275 16.5947 20.8946 16.5851L15.5891 16.1953L15.8126 15.1531L21.1378 14.8095ZM16.0208 14.5761L15.6028 14.6031L15.1605 14.5086L16.183 12.2941C16.2994 12.363 16.4193 12.4258 16.5422 12.4824C16.665 12.5387 16.7905 12.5887 16.9185 12.6319L16.0208 14.5761ZM23.0484 8.6646C21.7481 11.4806 18.935 12.964 16.7773 11.9713C15.9117 11.5729 15.2586 10.8323 14.8883 9.82916C14.3618 8.40238 14.4837 6.66599 15.2229 5.06521C16.2492 2.84253 18.218 1.45007 20.0631 1.45007C20.5568 1.4478 21.045 1.55304 21.4939 1.75846C22.3595 2.15689 23.0127 2.89752 23.383 3.90064C23.9094 5.32743 23.7875 7.06382 23.0484 8.6646Z" fill="#2B2B2B"/>
<path d="M21.7291 1.24728C19.2901 0.125191 16.1425 1.73202 14.7125 4.82928C13.9113 6.5646 13.7831 8.45793 14.3609 10.0237C14.658 10.8287 15.119 11.4868 15.7144 11.9678L14.597 14.388L14.4756 14.3621C14.3437 14.3338 14.2096 14.3163 14.0748 14.3097L13.8698 14.0126C13.7037 13.7723 13.6325 13.479 13.67 13.1893C13.7252 12.7619 13.6202 12.3292 13.3752 11.9747L7.19159 3.0148C6.92003 2.62283 6.50428 2.35436 6.03529 2.26814C5.5663 2.18192 5.08225 2.28496 4.68903 2.55472C4.49445 2.68839 4.32813 2.85913 4.19962 3.05715C4.0711 3.25518 3.9829 3.47661 3.94006 3.70876C3.89723 3.94092 3.9006 4.17924 3.94999 4.41009C3.99937 4.64094 4.09381 4.85979 4.22787 5.0541L7.844 10.2938C6.8282 10.1072 5.78144 10.186 4.80501 10.5226C3.82858 10.8591 2.95555 11.4419 2.27037 12.2147C1.5852 12.9875 1.11109 13.9241 0.893915 14.9338C0.676741 15.9435 0.723857 16.9921 1.0307 17.9783C1.33755 18.9644 1.89374 19.8547 2.64546 20.5629C3.39717 21.2711 4.31896 21.7733 5.32163 22.0209C6.32431 22.2685 7.37391 22.2532 8.36889 21.9763C9.36387 21.6994 10.2705 21.1704 11.0012 20.4404C11.0439 20.3977 11.0859 20.3543 11.1273 20.3103C10.9945 20.6886 10.9725 21.0968 11.0638 21.4871C11.155 21.8775 11.3558 22.2336 11.6425 22.5138C11.9291 22.794 12.2898 22.9865 12.6821 23.0688C13.0744 23.1511 13.4821 23.1198 13.8572 22.9784C14.2323 22.8371 14.5592 22.5916 14.7997 22.2709C15.0401 21.9501 15.184 21.5674 15.2145 21.1677C15.2449 20.768 15.1607 20.368 14.9717 20.0145C14.7826 19.661 14.4967 19.3688 14.1473 19.1722L14.6016 19.266L15.1083 19.5404L16.3703 21.3692L16.3333 21.3945C16.2637 21.4424 16.2041 21.5036 16.1581 21.5746C16.1121 21.6455 16.0805 21.7248 16.0652 21.808C16.0499 21.8911 16.0511 21.9765 16.0688 22.0592C16.0865 22.1419 16.1203 22.2202 16.1683 22.2898C16.3663 22.5758 16.6696 22.7717 17.0117 22.8347C17.3538 22.8976 17.7069 22.8225 17.9937 22.6257L18.7334 22.117C18.8882 22.0104 19.0183 21.8718 19.1149 21.7106L19.429 21.8807C19.7485 22.0543 20.1227 22.0981 20.4738 22.0031L21.696 21.6742C21.7694 21.6545 21.8369 21.6174 21.8929 21.566C21.9488 21.5146 21.9915 21.4504 22.0174 21.379C22.0432 21.3076 22.0514 21.2309 22.0413 21.1557C22.0312 21.0804 22.003 21.0086 21.9592 20.9466L21.0312 19.6309L22.7673 18.8974C22.7692 18.8966 22.7712 18.8957 22.7731 18.8948C22.8442 18.8629 22.9063 18.8139 22.9538 18.7522C23.0014 18.6904 23.0329 18.6178 23.0455 18.5409C23.0581 18.464 23.0515 18.3852 23.0263 18.3115C23.001 18.2377 22.9579 18.1714 22.9007 18.1184L21.6621 16.9086L23.0217 16.042C23.0863 16.0009 23.1398 15.9447 23.1778 15.8782C23.2158 15.8118 23.237 15.7371 23.2397 15.6606C23.2424 15.5841 23.2264 15.5081 23.1932 15.4392C23.1599 15.3702 23.1104 15.3104 23.0489 15.2649L22.0468 14.5229C21.774 14.3206 21.4376 14.2232 21.0989 14.2482L16.6598 14.5348L17.4723 12.7751C17.7122 12.8185 17.9556 12.8402 18.1994 12.84C20.2623 12.84 22.4386 11.3278 23.5595 8.90038C24.3608 7.16507 24.4889 5.27174 23.9111 3.70597C23.4875 2.55941 22.7333 1.70933 21.7291 1.24728ZM14.0993 14.8752L13.3334 18.4456C13.0769 18.4175 12.7089 18.3472 12.4719 18.0483C12.6654 17.4495 12.7635 16.8241 12.7629 16.1948C12.7628 15.9768 12.751 15.759 12.7276 15.5422C12.8737 15.1014 13.4596 14.8266 14.0993 14.8752ZM12.8323 18.92C12.5005 18.9647 12.1843 19.0882 11.9102 19.2804C12.0378 19.0688 12.1521 18.8495 12.2524 18.6237C12.424 18.7601 12.6212 18.8608 12.8323 18.92ZM7.64609 10.8299C7.99166 10.887 8.33096 10.9772 8.6593 11.0991C8.71942 11.1217 8.78547 11.1231 8.84647 11.103C8.90747 11.0828 8.95974 11.0424 8.99459 10.9885C9.0173 10.9532 9.03183 10.913 9.03712 10.8714C9.04242 10.8298 9.03834 10.7875 9.02518 10.7477C9.01203 10.7079 8.99013 10.6715 8.9611 10.6412C8.93207 10.6109 8.89663 10.5875 8.85739 10.5727C8.79711 10.5503 8.73645 10.5292 8.67561 10.5088L4.69086 4.73441C4.59878 4.60096 4.53394 4.45066 4.50003 4.29212C4.46612 4.13358 4.46381 3.9699 4.49325 3.81047C4.52268 3.65103 4.58327 3.49897 4.67156 3.36298C4.75984 3.227 4.87408 3.10976 5.00773 3.01799C5.27813 2.83252 5.61097 2.76168 5.93346 2.82095C6.25595 2.88023 6.54184 3.0648 6.72861 3.3343L12.9119 12.2942C13.078 12.5345 13.1492 12.8278 13.1117 13.1175C13.0565 13.5449 13.1615 13.9776 13.4065 14.3321L13.4293 14.3649C13.1215 14.4311 12.8348 14.5723 12.5945 14.7759C12.335 13.7044 11.7834 12.7259 11.0012 11.949C10.8846 11.8326 10.7645 11.7221 10.6407 11.6175C10.6127 11.5924 10.5799 11.5733 10.5443 11.5611C10.5088 11.549 10.4711 11.5441 10.4336 11.5467C10.3961 11.5494 10.3595 11.5595 10.326 11.5766C10.2924 11.5936 10.2627 11.6172 10.2384 11.6459C10.2142 11.6747 10.196 11.708 10.1848 11.7439C10.1737 11.7798 10.1698 11.8176 10.1735 11.855C10.1772 11.8924 10.1884 11.9287 10.2064 11.9618C10.2244 11.9948 10.2488 12.0239 10.2782 12.0473C10.3189 12.0818 10.3588 12.1176 10.3986 12.1538L8.52406 14.025C8.14655 13.593 7.87151 13.0812 7.71949 12.5279C7.56746 11.9747 7.54237 11.3942 7.64609 10.8299ZM12.1268 15.2979C11.5612 15.4021 10.9794 15.3776 10.4246 15.226C9.86978 15.0745 9.35627 14.7998 8.92222 14.4225L10.7972 12.5507C11.4959 13.3192 11.9576 14.2732 12.1268 15.2979ZM6.74844 10.7559C6.86113 10.7559 6.97375 10.7594 7.08631 10.7665C6.97253 11.4149 7.00685 12.0807 7.18671 12.7139C7.36656 13.3472 7.6873 13.9316 8.12492 14.4235L6.74844 15.7974L3.09781 12.1534C4.09959 11.2515 5.40048 10.7535 6.74844 10.7559ZM1.29687 16.1948C1.29323 14.8476 1.7937 13.5477 2.69989 12.5507L6.35052 16.1948L4.98177 17.5611C4.48418 17.1272 3.89639 16.8092 3.2609 16.6303C2.62541 16.4513 1.95809 16.4158 1.30719 16.5263C1.30058 16.4164 1.29687 16.3059 1.29687 16.1948ZM1.36948 17.0855C1.93632 16.9795 2.51977 17.0031 3.07621 17.1544C3.63265 17.3058 4.14768 17.5809 4.58281 17.9593L2.6998 19.839C1.99975 19.0689 1.5377 18.1125 1.36948 17.0855ZM5.85734 21.5608C4.82948 21.3933 3.87156 20.9334 3.098 20.2362L4.98106 18.3565C5.35975 18.7897 5.63533 19.3031 5.7871 19.8581C5.93887 20.4132 5.96289 20.9952 5.85734 21.5608ZM6.41661 21.6232C6.52657 20.9737 6.49058 20.3079 6.31122 19.674C6.13187 19.0401 5.81366 18.4542 5.37969 17.9585L6.74844 16.5922L10.3991 20.2363C9.86076 20.7206 9.23131 21.0927 8.54751 21.3309C7.86372 21.5691 7.1393 21.6683 6.41661 21.6232ZM10.7974 19.8388L7.14687 16.1948L8.52383 14.8204C9.32474 15.5309 10.3583 15.9234 11.429 15.9235C11.684 15.9232 11.9385 15.9012 12.1897 15.8575C12.1965 15.9694 12.2004 16.0818 12.2004 16.195C12.204 17.5422 11.7035 18.8418 10.7974 19.8388ZM14.6581 21.0065C14.6581 21.3118 14.5675 21.6102 14.3979 21.864C14.2283 22.1179 13.9872 22.3157 13.7052 22.4325C13.4232 22.5493 13.1128 22.5799 12.8134 22.5203C12.514 22.4608 12.2389 22.3138 12.0231 22.0979C11.8072 21.882 11.6602 21.607 11.6006 21.3076C11.5411 21.0082 11.5716 20.6978 11.6885 20.4158C11.8053 20.1337 12.0031 19.8927 12.257 19.7231C12.5108 19.5535 12.8092 19.4629 13.1145 19.4629C13.5238 19.4634 13.9161 19.6261 14.2055 19.9156C14.4949 20.205 14.6577 20.5972 14.6581 21.0065ZM14.4839 18.6657L13.8888 18.5385L14.6529 14.9754L15.248 15.1026L14.4839 18.6657ZM16.1998 20.1316L17.3019 20.7286L16.8338 21.0504L16.1998 20.1316ZM18.4147 21.6536L17.675 22.1622C17.511 22.2746 17.3091 22.3176 17.1136 22.2817C16.918 22.2457 16.7446 22.1338 16.6313 21.9704C16.6252 21.9617 16.6209 21.9518 16.6187 21.9414C16.6165 21.931 16.6163 21.9203 16.6183 21.9098C16.6202 21.8994 16.6242 21.8894 16.63 21.8805C16.6358 21.8716 16.6433 21.8639 16.6521 21.8579L17.8572 21.0292L18.6191 21.4417C18.5656 21.5251 18.4961 21.5972 18.4147 21.6536ZM21.4247 21.1648L20.3275 21.4601C20.1156 21.5175 19.8897 21.491 19.6968 21.3861L15.0191 18.8525L15.23 17.8681L20.2462 19.6869C20.3649 19.7297 20.4675 19.808 20.5401 19.9112L21.4247 21.1648ZM22.4184 18.4342L20.5691 19.2155L15.3493 17.3129L15.4699 16.7504L20.9385 17.1489C20.99 17.1487 21.0414 17.1452 21.0924 17.1384L22.4184 18.4342ZM21.1378 14.8095C21.3428 14.7939 21.5466 14.8527 21.7118 14.9752L22.6078 15.6387L21.2723 16.4899C21.1599 16.5613 21.0275 16.5947 20.8946 16.5851L15.5891 16.1953L15.8126 15.1531L21.1378 14.8095ZM16.0208 14.5761L15.6028 14.6031L15.1605 14.5086L16.183 12.2941C16.2994 12.363 16.4193 12.4258 16.5422 12.4824C16.665 12.5387 16.7905 12.5887 16.9185 12.6319L16.0208 14.5761ZM23.0484 8.6646C21.7481 11.4806 18.935 12.964 16.7773 11.9713C15.9117 11.5729 15.2586 10.8323 14.8883 9.82916C14.3618 8.40238 14.4837 6.66599 15.2229 5.06521C16.2492 2.84253 18.218 1.45007 20.0631 1.45007C20.5568 1.4478 21.045 1.55304 21.4939 1.75846C22.3595 2.15689 23.0127 2.89752 23.383 3.90064C23.9094 5.32743 23.7875 7.06382 23.0484 8.6646Z" stroke="#2B2B2B" stroke-width="0.4" mask="url(#path-2-outside-1_4222_12534)"/>
<path d="M6.13128 4.65649L6.13128 4.65648L6.13066 4.65557C6.07411 4.57262 5.98712 4.51533 5.88859 4.49612C5.79006 4.47691 5.68792 4.49735 5.60436 4.55298C5.5208 4.60862 5.46255 4.69497 5.44227 4.79328C5.42198 4.8916 5.44129 4.99395 5.496 5.07812L5.496 5.07812L5.4966 5.07903L7.50088 8.0899C7.52821 8.13209 7.56362 8.16847 7.60506 8.19693C7.64672 8.22553 7.69365 8.24557 7.74312 8.25587C7.7926 8.26618 7.84362 8.26655 7.89324 8.25695C7.94286 8.24736 7.99007 8.228 8.03214 8.19999C8.0742 8.17199 8.11028 8.1359 8.13827 8.09383C8.16627 8.05176 8.18562 8.00454 8.1952 7.95493C8.20478 7.90531 8.20441 7.85428 8.19409 7.80481C8.18383 7.7556 8.16394 7.70891 8.13557 7.66742L6.13128 4.65649ZM5.7137 4.0798C5.70368 4.03062 5.68404 3.9839 5.65592 3.94233L5.60294 3.86278C5.57561 3.8206 5.54021 3.78423 5.49877 3.75578C5.45711 3.72717 5.41018 3.70713 5.36071 3.69683C5.31123 3.68652 5.26021 3.68616 5.21059 3.69575C5.16097 3.70534 5.11376 3.7247 5.07169 3.75271C5.02963 3.78071 4.99355 3.8168 4.96555 3.85887C4.93756 3.90094 4.91821 3.94816 4.90863 3.99778C4.89905 4.04739 4.89942 4.09842 4.90974 4.14789C4.92 4.19711 4.93989 4.2438 4.96827 4.28529L5.0212 4.36483C5.0487 4.40682 5.08422 4.44296 5.12572 4.47118C5.16735 4.4995 5.21417 4.51928 5.26349 4.5294C5.3128 4.53952 5.36363 4.53978 5.41304 4.53015C5.46246 4.52052 5.50948 4.5012 5.55138 4.47331C5.59329 4.44541 5.62926 4.40949 5.65721 4.36763C5.68516 4.32576 5.70455 4.27877 5.71424 4.22937C5.72394 4.17996 5.72376 4.12913 5.7137 4.0798Z" fill="#2B2B2B" stroke="#2B2B2B" stroke-width="0.2"/>
</g>
</g>
<defs>
<clipPath id="clip0_4222_12534">
<rect width="24" height="24" fill="white" transform="translate(0.5)"/>
</clipPath>
</defs>
</svg>
