<svg width="24" height="24" viewBox="0 0 24 24" fill="none" xmlns="http://www.w3.org/2000/svg">
<g opacity="0.6" clip-path="url(#clip0_4222_12457)">
<path d="M18.1048 18.1945C18.0691 18.2479 18.05 18.3107 18.05 18.375C18.0501 18.4612 18.0844 18.5438 18.1453 18.6047C18.2062 18.6656 18.2888 18.6999 18.375 18.7L18.1048 18.1945ZM18.1048 18.1945C18.1405 18.141 18.1912 18.0994 18.2506 18.0748M18.1048 18.1945L18.2506 18.0748M18.2506 18.0748C18.31 18.0502 18.3754 18.0437 18.4384 18.0563M18.2506 18.0748L18.4384 18.0563M18.4384 18.0563C18.5014 18.0688 18.5594 18.0998 18.6048 18.1452M18.4384 18.0563L18.6048 18.1452M18.6048 18.1452C18.6503 18.1907 18.6812 18.2486 18.6938 18.3116M18.6048 18.1452L18.6938 18.3116M18.6938 18.3116C18.7063 18.3747 18.6999 18.44 18.6753 18.4994M18.6938 18.3116L18.6753 18.4994M18.6753 18.4994C18.6507 18.5588 18.609 18.6095 18.5556 18.6453M18.6753 18.4994L18.5556 18.6453M18.5556 18.6453C18.5021 18.681 18.4393 18.7 18.3751 18.7L18.5556 18.6453ZM4.87494 23.3H4.875H19.125H19.1251C20.2319 23.2988 21.2931 22.8585 22.0758 22.0758C22.8585 21.2931 23.2987 20.232 23.3 19.1251V19.125C23.3 19.0123 23.2552 18.9042 23.1755 18.8245C23.0958 18.7448 22.9877 18.7 22.875 18.7H19.504C19.5495 18.5423 19.5615 18.3766 19.5389 18.2135C19.5131 18.0273 19.443 17.8499 19.3345 17.6964C19.226 17.5429 19.0822 17.4176 18.9153 17.3311C18.7483 17.2447 18.563 17.1996 18.375 17.1996C18.187 17.1996 18.0017 17.2447 17.8347 17.3311C17.6678 17.4176 17.524 17.5429 17.4155 17.6964C17.307 17.8499 17.2369 18.0273 17.2111 18.2135C17.1885 18.3766 17.2005 18.5423 17.246 18.7H12.3318C12.4349 18.32 12.4528 17.9216 12.3839 17.5333C12.3112 17.1231 12.1437 16.7356 11.8947 16.4015C11.6457 16.0675 11.3222 15.7963 10.9498 15.6094C10.5775 15.4226 10.1666 15.3252 9.75 15.3252C9.33339 15.3252 8.92254 15.4226 8.55019 15.6094C8.17784 15.7963 7.85428 16.0675 7.6053 16.4015C7.35631 16.7356 7.18879 17.1231 7.11607 17.5333C7.04724 17.9216 7.06514 18.32 7.16815 18.7H1.125C1.01228 18.7 0.904183 18.7448 0.82448 18.8245C0.744777 18.9042 0.7 19.0123 0.7 19.125L0.7 19.1251C0.701256 20.232 1.14152 21.2931 1.9242 22.0758C2.70688 22.8585 3.76806 23.2988 4.87494 23.3ZM8.25036 17.575H8.25H7.97505C8.01989 17.3882 8.09414 17.2096 8.19502 17.0461L8.39586 17.2469C8.33783 17.3507 8.29199 17.4609 8.25928 17.5752C8.25631 17.5751 8.25333 17.5751 8.25036 17.575ZM7.97534 18.425L8.25 18.425L8.25033 18.425C8.25337 18.425 8.25641 18.425 8.25946 18.4249C8.28662 18.5199 8.32287 18.612 8.36766 18.7H8.065C8.02785 18.6109 7.99788 18.5189 7.97534 18.425ZM11.4351 18.7H11.1326C11.1774 18.6121 11.2137 18.52 11.2409 18.425H11.5248C11.5023 18.5189 11.4723 18.6109 11.4351 18.7ZM11.1041 17.2469L11.305 17.0461C11.4059 17.2096 11.4803 17.3882 11.5252 17.575H11.2407C11.208 17.4608 11.1622 17.3507 11.1041 17.2469ZM10.5031 16.6459C10.3994 16.5879 10.2893 16.542 10.175 16.5093V16.2251C10.3618 16.2699 10.5404 16.3442 10.7039 16.4451L10.5031 16.6459ZM9.325 16.2251V16.5093C9.21074 16.542 9.10064 16.5879 8.99691 16.6459L8.79608 16.4451C8.95962 16.3442 9.13815 16.2699 9.325 16.2251ZM9.05 18C9.05001 17.8615 9.09106 17.7262 9.16797 17.6111C9.24489 17.496 9.35421 17.4063 9.48212 17.3533C9.61003 17.3003 9.75078 17.2865 9.88656 17.3135C10.0224 17.3405 10.1471 17.4072 10.245 17.5051C10.3429 17.603 10.4095 17.7277 10.4366 17.8635C10.4636 17.9993 10.4497 18.14 10.3967 18.2679C10.3437 18.3958 10.254 18.5051 10.1389 18.5821C10.0238 18.659 9.88849 18.7 9.75006 18.7C9.56446 18.6998 9.38653 18.626 9.25529 18.4947C9.12405 18.3635 9.05022 18.1856 9.05 18ZM2.65933 21.6021C2.06382 21.0695 1.68012 20.341 1.57712 19.55H22.4229C22.3199 20.341 21.9362 21.0695 21.3407 21.6021C20.7312 22.1472 19.9426 22.449 19.1249 22.45H4.87506C4.05744 22.449 3.26877 22.1472 2.65933 21.6021Z" fill="#2B2B2B" stroke="#2B2B2B" stroke-width="0.1"/>
<path d="M17.1851 10.3379L17.1851 10.3379C17.7544 9.60879 18.5009 9.16109 19.129 9.16763C19.2724 9.03267 19.4358 8.92061 19.6134 8.83542C19.9747 8.6594 20.3835 8.606 20.7777 8.68312C21.6358 8.46101 22.3655 8.58212 22.8293 9.04591C23.2931 9.50971 23.4141 10.2393 23.1918 11.0975C23.2689 11.4918 23.2155 11.9006 23.0395 12.2619C23.0394 12.262 23.0394 12.262 23.0394 12.2621L22.9944 12.2402C22.9086 12.4192 22.7946 12.5834 22.6569 12.7265L17.1851 10.3379ZM17.1851 10.3379C16.8061 10.8236 16.5592 11.367 16.4919 11.8608L17.1851 10.3379ZM19.1835 10.0238C19.0528 9.9964 18.8465 10.0458 18.6067 10.1846C18.364 10.325 18.0962 10.5521 17.8551 10.8608C17.5316 11.275 17.3355 11.7368 17.324 12.0936C17.3219 12.159 17.3047 12.2231 17.2738 12.2808C17.2429 12.3384 17.1991 12.3881 17.1459 12.4261C16.9641 12.5596 16.8144 12.7322 16.7079 12.931L16.7076 12.9315C16.5791 13.1652 16.5045 13.3894 16.4843 13.5792C16.4639 13.7701 16.4991 13.9192 16.5804 14.0122C16.6423 14.0831 16.679 14.1725 16.6846 14.2665M19.1835 10.0238L21.859 12.446C21.8334 12.5223 21.8299 12.6042 21.849 12.6824C21.8808 12.8123 21.8324 13.0228 21.6903 13.2683C21.5498 13.511 21.3228 13.7789 21.014 14.02C20.5998 14.3435 20.138 14.5396 19.7813 14.5511C19.7158 14.5531 19.6518 14.5703 19.594 14.6013C19.5364 14.6322 19.4867 14.6759 19.4488 14.7292C19.3152 14.911 19.1427 15.0606 18.9438 15.1672L18.9434 15.1674C18.7606 15.268 18.5357 15.3399 18.324 15.3574C18.111 15.3749 17.9204 15.3368 17.7964 15.2284C17.7253 15.1664 17.6356 15.1297 17.5414 15.1242L17.5413 15.1242C17.4941 15.1215 17.4471 15.1163 17.4004 15.1086M19.1835 10.0238L19.1927 10.026C19.2709 10.0451 19.3528 10.0417 19.4291 10.016C19.5053 9.9904 19.5727 9.94365 19.6235 9.88122L19.5847 9.84969L19.1835 10.0238ZM16.6846 14.2665C16.6931 14.3979 16.674 14.5296 16.6285 14.6532C16.5831 14.7767 16.5123 14.8892 16.4207 14.9837C16.4206 14.9838 16.4205 14.984 16.4203 14.9841L14.5633 16.9886L14.563 16.9889C14.548 17.0048 14.5398 17.0259 14.54 17.0478C14.5402 17.0697 14.5489 17.0906 14.5642 17.1063C14.5796 17.1219 14.6003 17.131 14.6222 17.1316C14.6441 17.1323 14.6653 17.1245 14.6815 17.1098C14.6815 17.1098 14.6816 17.1098 14.6816 17.1097L16.5914 15.3601C16.6968 15.2575 16.825 15.1813 16.9655 15.1376C17.1061 15.0938 17.2552 15.0838 17.4004 15.1086M16.6846 14.2665C16.6846 14.2665 16.6846 14.2666 16.6846 14.2666L16.6347 14.2696L16.6846 14.2663C16.6846 14.2664 16.6846 14.2664 16.6846 14.2665ZM17.4004 15.1086C17.4004 15.1086 17.4005 15.1086 17.4005 15.1086L17.3921 15.1579L17.4003 15.1085C17.4003 15.1085 17.4004 15.1085 17.4004 15.1086ZM22.2727 11.8947L22.2731 11.894C22.3793 11.6798 22.4043 11.4345 22.3435 11.2033C22.3435 11.2032 22.3434 11.2031 22.3434 11.203L22.3918 11.1903L22.2727 11.8947ZM22.2727 11.8947C22.207 12.0328 22.1117 12.1547 21.9936 12.2518L22.0254 12.2904L21.9939 12.2516C21.9314 12.3024 21.8847 12.3698 21.859 12.446L21.9064 12.4619L22.2727 11.8947ZM21.5372 14.6898C22.2662 14.1206 22.7143 13.3742 22.7073 12.7461L17.1375 15.9445C17.1415 15.9408 17.1455 15.937 17.1493 15.9332L17.1842 15.969C17.1842 15.969 17.1843 15.9689 17.1844 15.9688C17.194 15.9595 17.2057 15.9527 17.2185 15.9488C17.2314 15.9448 17.245 15.944 17.2583 15.9465L17.259 15.9466C17.2913 15.952 17.3237 15.9567 17.3561 15.9606C17.8752 16.3151 18.6564 16.2952 19.353 15.9121C19.6029 15.776 19.8268 15.5969 20.0143 15.383C20.5081 15.316 21.0515 15.069 21.5372 14.6898ZM22.3448 10.9717L22.3448 10.9717L20.8895 9.48224L20.9034 9.53026C21.5215 9.35131 21.9847 9.40377 22.228 9.6471C22.4713 9.89044 22.5237 10.3536 22.3448 10.9717ZM4.125 21.0499H7.5C7.61272 21.0499 7.72082 21.0052 7.80052 20.9255C7.88022 20.8458 7.925 20.7377 7.925 20.6249C7.925 20.5122 7.88022 20.4041 7.80052 20.3244C7.72082 20.2447 7.61272 20.1999 7.5 20.1999H4.125C4.01228 20.1999 3.90418 20.2447 3.82448 20.3244C3.74478 20.4041 3.7 20.5122 3.7 20.6249C3.7 20.7377 3.74478 20.8458 3.82448 20.9255C3.90418 21.0052 4.01228 21.0499 4.125 21.0499ZM9 21.0499H9.75C9.86272 21.0499 9.97082 21.0052 10.0505 20.9255C10.1302 20.8458 10.175 20.7377 10.175 20.6249C10.175 20.5122 10.1302 20.4041 10.0505 20.3244C9.97082 20.2447 9.86272 20.1999 9.75 20.1999H9C8.88728 20.1999 8.77918 20.2447 8.69948 20.3244C8.61978 20.4041 8.575 20.5122 8.575 20.6249C8.575 20.7377 8.61978 20.8458 8.69948 20.9255C8.77918 21.0052 8.88728 21.0499 9 21.0499Z" fill="#2B2B2B" stroke="#2B2B2B" stroke-width="0.1"/>
<mask id="path-3-outside-1_4222_12457" maskUnits="userSpaceOnUse" x="0.124969" y="-0.250244" width="22" height="19" fill="black">
<rect fill="white" x="0.124969" y="-0.250244" width="22" height="19"/>
<path d="M17.8074 13.3655L17.1394 14.0336C17.1046 14.0684 17.077 14.1097 17.0581 14.1552C17.0393 14.2007 17.0296 14.2495 17.0296 14.2987C17.0295 14.348 17.0392 14.3968 17.0581 14.4423C17.0769 14.4878 17.1045 14.5291 17.1394 14.5639C17.1742 14.5988 17.2155 14.6264 17.261 14.6452C17.3065 14.6641 17.3553 14.6738 17.4045 14.6738C17.4538 14.6738 17.5026 14.6641 17.5481 14.6453C17.5936 14.6264 17.6349 14.5988 17.6697 14.564L18.3378 13.896L19.3519 14.0085C19.3658 14.01 19.3798 14.0108 19.3937 14.0108C19.4896 14.0108 19.5819 13.974 19.6515 13.9081C19.7212 13.8422 19.7629 13.7521 19.7681 13.6563C19.7734 13.5605 19.7417 13.4664 19.6797 13.3933C19.6177 13.3201 19.53 13.2735 19.4347 13.263L19.0169 13.2166L19.3839 12.8496L20.513 13.0754C20.5613 13.0851 20.611 13.0851 20.6593 13.0755C20.7076 13.066 20.7536 13.047 20.7945 13.0197C20.8355 12.9924 20.8707 12.9573 20.8981 12.9163C20.9255 12.8754 20.9446 12.8295 20.9543 12.7812C20.9639 12.7329 20.964 12.6832 20.9544 12.6349C20.9449 12.5866 20.9259 12.5406 20.8986 12.4996C20.8712 12.4587 20.8361 12.4235 20.7952 12.3961C20.7543 12.3687 20.7084 12.3496 20.6601 12.3399L20.0214 12.2122L20.4396 11.794L21.0988 11.9461C21.1957 11.9685 21.2976 11.9515 21.3819 11.8988C21.4663 11.8461 21.5262 11.762 21.5486 11.6651C21.571 11.5682 21.5539 11.4664 21.5012 11.382C21.4485 11.2977 21.3645 11.2377 21.2676 11.2153L21.065 11.1685L21.6473 10.5862C21.7169 10.5157 21.7558 10.4206 21.7555 10.3215C21.7552 10.2224 21.7157 10.1275 21.6457 10.0575C21.5756 9.98743 21.4807 9.94795 21.3816 9.94765C21.2826 9.94736 21.1874 9.98627 21.117 10.0559L20.5347 10.6381L20.4879 10.4356C20.4655 10.3387 20.4055 10.2546 20.3212 10.2019C20.2368 10.1492 20.135 10.1322 20.0381 10.1546C19.9412 10.1769 19.8571 10.2369 19.8044 10.3212C19.7517 10.4056 19.7347 10.5074 19.7571 10.6043L19.9092 11.2636L19.491 11.6818L19.3632 11.0431C19.3538 10.9946 19.3349 10.9484 19.3076 10.9072C19.2802 10.866 19.245 10.8306 19.204 10.8031C19.1629 10.7756 19.1169 10.7564 19.0684 10.7468C19.0199 10.7371 18.97 10.7371 18.9216 10.7468C18.8731 10.7565 18.827 10.7757 18.786 10.8033C18.745 10.8308 18.7098 10.8662 18.6825 10.9074C18.6552 10.9486 18.6363 10.9948 18.6269 11.0433C18.6175 11.0919 18.6178 11.1418 18.6278 11.1902L18.8536 12.3192L18.4866 12.6862L18.4402 12.2684C18.4277 12.1708 18.3774 12.082 18.3001 12.0212C18.2227 11.9604 18.1246 11.9323 18.0268 11.9432C17.929 11.9541 17.8394 12.003 17.7773 12.0793C17.7152 12.1556 17.6856 12.2533 17.6949 12.3513L17.8074 13.3655ZM2.34943 17.0615C2.47192 17.2752 2.63557 17.4625 2.83092 17.6125C3.02627 17.7626 3.24944 17.8724 3.48751 17.9356C3.64701 17.9786 3.81147 18.0004 3.97665 18.0005C4.43125 17.9997 4.87008 17.8337 5.2115 17.5336C5.55292 17.2334 5.77369 16.8195 5.83275 16.3687C5.89182 15.918 5.78515 15.4611 5.5326 15.0831C5.28004 14.7051 4.89878 14.4317 4.45975 14.3138C4.35237 14.2851 4.24268 14.2659 4.13195 14.2564C4.19097 14.0702 4.21526 13.8748 4.20362 13.6798L4.19837 13.5915C4.19246 13.4922 4.14735 13.3993 4.07297 13.3333C3.99859 13.2673 3.90102 13.2335 3.80174 13.2394C3.70246 13.2453 3.60959 13.2905 3.54357 13.3648C3.47754 13.4392 3.44377 13.5368 3.44968 13.6361L3.45498 13.7245C3.46613 13.9057 3.41791 14.0856 3.31764 14.237L2.98703 13.6637C2.96243 13.621 2.92966 13.5836 2.89061 13.5536C2.85155 13.5236 2.80697 13.5016 2.75941 13.4888C2.71185 13.4761 2.66224 13.4728 2.61341 13.4792C2.56458 13.4856 2.51749 13.5015 2.47483 13.5261C2.43216 13.5507 2.39476 13.5835 2.36476 13.6226C2.33476 13.6616 2.31275 13.7062 2.29998 13.7538C2.28721 13.8013 2.28393 13.8509 2.29033 13.8998C2.29674 13.9486 2.31269 13.9957 2.33729 14.0383L2.66795 14.6117C2.48669 14.6227 2.30679 14.5743 2.15551 14.4738L2.08173 14.4248C1.99875 14.37 1.89738 14.3503 1.79994 14.3703C1.70249 14.3902 1.61695 14.448 1.56212 14.531C1.5073 14.6139 1.48768 14.7153 1.50759 14.8128C1.5275 14.9102 1.58531 14.9957 1.66829 15.0506L1.74212 15.0993C1.90531 15.2075 2.08701 15.2847 2.27814 15.327C2.14926 15.6005 2.08844 15.901 2.10085 16.203C2.11327 16.505 2.19855 16.7995 2.34943 17.0615ZM4.94818 15.5624C5.02245 15.6904 5.07072 15.8318 5.09026 15.9785C5.10979 16.1252 5.10019 16.2743 5.06201 16.4173C5.02383 16.5602 4.95781 16.6943 4.86775 16.8117C4.77769 16.9291 4.66534 17.0276 4.53715 17.1015C4.40897 17.1755 4.26745 17.2234 4.12072 17.2425C3.97398 17.2617 3.82491 17.2517 3.68204 17.2132C3.53916 17.1746 3.4053 17.1083 3.28812 17.0179C3.17093 16.9275 3.07272 16.8149 2.99912 16.6866C2.9007 16.5156 2.84893 16.3218 2.84898 16.1246C2.84903 15.9273 2.90091 15.7335 2.99942 15.5626C3.09792 15.3917 3.2396 15.2497 3.41026 15.1508C3.58092 15.0519 3.77457 14.9996 3.97183 14.9991C4.07094 14.9991 4.16961 15.0122 4.26531 15.038C4.40815 15.0759 4.54206 15.1418 4.65928 15.2318C4.77649 15.3218 4.87469 15.4342 4.94818 15.5624ZM15.8466 5.36066C15.7974 5.35901 15.7483 5.36708 15.7022 5.3844C15.6561 5.40171 15.6139 5.42794 15.5779 5.46158C15.5419 5.49523 15.513 5.53562 15.4926 5.58047C15.4723 5.62532 15.4609 5.67374 15.4593 5.72296L15.4563 5.81146C15.4498 6.00708 15.4794 6.20224 15.5435 6.38718C15.2429 6.42032 14.9548 6.52573 14.7038 6.69438C14.4528 6.86304 14.2464 7.08994 14.1021 7.35571C13.9481 7.63913 13.8699 7.95748 13.8749 8.27998C13.8799 8.60249 13.968 8.91825 14.1308 9.19674C14.2935 9.47523 14.5253 9.70704 14.8038 9.86975C15.0823 10.0325 15.3981 10.1206 15.7206 10.1256C16.0431 10.1306 16.3614 10.0523 16.6448 9.89833C16.9282 9.74434 17.1671 9.51984 17.3384 9.24653C17.5097 8.97322 17.6076 8.66035 17.6226 8.33815C17.6377 8.01596 17.5693 7.69533 17.4242 7.40727C17.6142 7.36017 17.7939 7.27848 17.9543 7.16629L18.0268 7.11557C18.1078 7.05838 18.1629 6.97143 18.18 6.87373C18.1971 6.77604 18.1747 6.67557 18.1179 6.59429C18.0611 6.51302 17.9744 6.45757 17.8767 6.44007C17.7791 6.42258 17.6785 6.44447 17.597 6.50094L17.5245 6.55166C17.3759 6.65596 17.1974 6.70901 17.0159 6.70279L17.3314 6.12102C17.3554 6.0777 17.3705 6.03006 17.376 5.98086C17.3815 5.93165 17.3771 5.88185 17.3632 5.83433C17.3493 5.78681 17.3262 5.74251 17.2951 5.70399C17.264 5.66546 17.2256 5.63348 17.1821 5.60987C17.1386 5.58627 17.0908 5.57152 17.0415 5.56647C16.9923 5.56142 16.9425 5.56617 16.8951 5.58045C16.8477 5.59472 16.8036 5.61825 16.7654 5.64966C16.7271 5.68107 16.6954 5.71975 16.6722 5.76346L16.3566 6.34527C16.2524 6.19657 16.1995 6.01795 16.206 5.83649L16.2089 5.74804C16.2106 5.69881 16.2025 5.64974 16.1852 5.60363C16.1679 5.55752 16.1417 5.51527 16.108 5.4793C16.0744 5.44333 16.034 5.41434 15.9891 5.39398C15.9443 5.37362 15.8958 5.3623 15.8466 5.36066ZM16.7391 8.78605C16.5968 9.04833 16.3562 9.24335 16.0701 9.32822C15.7841 9.41308 15.476 9.38084 15.2138 9.23858C14.9515 9.09632 14.7565 8.8557 14.6716 8.56965C14.5867 8.2836 14.619 7.97555 14.7612 7.71327C14.9037 7.45127 15.1443 7.25648 15.4302 7.17162C15.7161 7.08676 16.024 7.11876 16.2864 7.2606C16.5484 7.40308 16.7433 7.64371 16.8282 7.9297C16.9131 8.21569 16.881 8.52367 16.7391 8.78605ZM2.00008 5.33155C2.16521 5.47928 2.34843 5.60545 2.54533 5.70707C2.70041 6.24907 3.00622 6.7359 3.42718 7.11088C3.57606 7.24405 3.73779 7.36212 3.91 7.46333C4.13689 8.12951 4.56637 8.70808 5.13835 9.11808C5.71033 9.52809 6.39618 9.74901 7.09993 9.74994C7.16372 9.74994 7.22778 9.74816 7.29212 9.7446C8.05692 9.70393 8.78468 9.40234 9.35406 8.89011L10.6279 10.0294C10.6645 10.0625 10.7074 10.0881 10.754 10.1046C10.8005 10.1211 10.8499 10.1283 10.8992 10.1257C10.9486 10.123 10.9969 10.1107 11.0415 10.0893C11.086 10.068 11.1259 10.038 11.1588 10.0012C11.1918 9.96436 11.2171 9.92138 11.2334 9.87473C11.2497 9.82808 11.2566 9.77867 11.2537 9.72934C11.2508 9.68001 11.2382 9.63174 11.2166 9.5873C11.195 9.54286 11.1649 9.50313 11.1279 9.47038L9.85403 8.33108C10.1772 7.87689 10.3829 7.3497 10.4526 6.79662C10.5224 6.24353 10.454 5.68179 10.2536 5.1616C10.0532 4.6414 9.72705 4.17895 9.30429 3.81558C8.88154 3.4522 8.37535 3.19923 7.83095 3.07925C7.71124 2.91938 7.57595 2.77178 7.42707 2.63863C7.00757 2.26189 6.4897 2.01203 5.93373 1.91811C5.72693 1.60809 5.45649 1.34565 5.1404 1.14825C4.82431 0.950853 4.4698 0.823022 4.10047 0.773262C3.73114 0.723501 3.35545 0.752951 2.99838 0.859653C2.64132 0.966355 2.31106 1.14786 2.02959 1.3921C1.74811 1.63634 1.52187 1.93772 1.36591 2.27618C1.20994 2.61464 1.12784 2.98243 1.12504 3.35509C1.12225 3.72775 1.19884 4.09673 1.34971 4.43749C1.50059 4.77825 1.72229 5.08298 2.00008 5.33141V5.33155ZM2.35248 2.12497C2.51619 1.94093 2.71477 1.79118 2.93674 1.68439C3.15871 1.57761 3.39965 1.5159 3.64562 1.50285C3.68118 1.50088 3.71679 1.4999 3.7524 1.49989C4.08367 1.50031 4.40891 1.58849 4.69503 1.75544C4.98115 1.9224 5.21792 2.16218 5.38126 2.45038C5.41064 2.50221 5.45195 2.5463 5.50177 2.57899C5.55158 2.61168 5.60847 2.63203 5.66772 2.63835C6.13601 2.68738 6.57683 2.88319 6.92715 3.1978C7.06898 3.3245 7.19424 3.46861 7.29995 3.62671C7.32827 3.66911 7.36493 3.70529 7.4077 3.73304C7.45048 3.76078 7.49846 3.77952 7.54872 3.7881C7.9793 3.86206 8.38462 4.04233 8.72792 4.31255C9.07122 4.58278 9.34164 4.93442 9.51467 5.33559C9.6877 5.73676 9.75786 6.17477 9.7188 6.60991C9.67973 7.04505 9.53268 7.46357 9.29097 7.8275L8.34245 6.97907L8.50506 5.83921C8.51201 5.79045 8.5093 5.74081 8.49707 5.6931C8.48484 5.6454 8.46333 5.60057 8.43378 5.56118C8.40422 5.52179 8.3672 5.4886 8.32482 5.46352C8.28244 5.43843 8.23553 5.42194 8.18678 5.41499C8.13802 5.40803 8.08838 5.41075 8.04068 5.42298C7.99297 5.43521 7.94814 5.45672 7.90875 5.48627C7.82919 5.54596 7.77661 5.63481 7.76256 5.73327L7.67059 6.37813L6.94487 5.7291L7.10748 4.58924C7.11444 4.54049 7.11172 4.49084 7.09949 4.44314C7.08726 4.39543 7.06575 4.3506 7.0362 4.31121C7.00664 4.27182 6.96962 4.23863 6.92724 4.21355C6.88486 4.18847 6.83795 4.17198 6.7892 4.16502C6.74045 4.15806 6.6908 4.16078 6.6431 4.17301C6.59539 4.18524 6.55056 4.20675 6.51117 4.2363C6.43162 4.29599 6.37903 4.38484 6.36498 4.4833L6.27292 5.12807L5.5472 4.47922L5.70981 3.33936C5.71676 3.29061 5.71405 3.24096 5.70182 3.19326C5.68959 3.14556 5.66808 3.10073 5.63853 3.06134C5.60897 3.02194 5.57195 2.98876 5.52957 2.96367C5.48719 2.93859 5.44028 2.9221 5.39153 2.91514C5.34277 2.90819 5.29313 2.9109 5.24542 2.92313C5.19772 2.93536 5.15289 2.95687 5.1135 2.98643C5.07411 3.01598 5.04092 3.05301 5.01584 3.09539C4.99076 3.13777 4.97427 3.18467 4.96731 3.23343L4.87534 3.87833L4 3.09552C3.92563 3.03093 3.82882 2.99819 3.73051 3.00438C3.6322 3.01058 3.54027 3.05521 3.4746 3.12863C3.40892 3.20205 3.37478 3.29836 3.37953 3.39676C3.38429 3.49515 3.42758 3.58772 3.50003 3.65446L4.37537 4.43727L3.74472 4.60039C3.69687 4.61257 3.65191 4.63408 3.6124 4.66368C3.57288 4.69327 3.53961 4.73038 3.51447 4.77287C3.48933 4.81536 3.47283 4.8624 3.46592 4.91128C3.459 4.96016 3.46181 5.00993 3.47417 5.05772C3.48654 5.10552 3.50822 5.1504 3.53797 5.1898C3.56772 5.22919 3.60495 5.26233 3.64754 5.2873C3.69013 5.31227 3.73723 5.32858 3.78614 5.33531C3.83504 5.34204 3.8848 5.33904 3.93254 5.32649L5.04723 5.03821L5.7729 5.68724L5.1422 5.85041C5.09423 5.86247 5.04912 5.8839 5.00947 5.91346C4.96982 5.94302 4.93641 5.98014 4.91116 6.02267C4.88591 6.0652 4.86932 6.11231 4.86236 6.16127C4.85539 6.21024 4.85818 6.2601 4.87056 6.30799C4.88295 6.35587 4.90468 6.40084 4.93452 6.44029C4.96435 6.47974 5.00169 6.5129 5.04439 6.53785C5.0871 6.56281 5.13431 6.57908 5.18333 6.58571C5.23234 6.59234 5.28218 6.58921 5.32998 6.5765L6.44472 6.28818L7.17053 6.93744L6.53987 7.10057C6.4919 7.11262 6.44679 7.13405 6.40714 7.16362C6.36749 7.19318 6.33408 7.2303 6.30883 7.27283C6.28358 7.31536 6.267 7.36246 6.26003 7.41143C6.25306 7.4604 6.25585 7.51026 6.26824 7.55815C6.28062 7.60603 6.30235 7.65099 6.33219 7.69044C6.36202 7.72989 6.39936 7.76305 6.44207 7.78801C6.48477 7.81297 6.53198 7.82923 6.581 7.83587C6.63001 7.8425 6.67985 7.83937 6.72765 7.82666L7.84239 7.53833L8.7909 8.38677C8.45613 8.66754 8.05656 8.8603 7.62843 8.94755C7.2003 9.0348 6.75717 9.01379 6.33922 8.88641C5.92127 8.75904 5.54173 8.52934 5.23503 8.21815C4.92833 7.90696 4.70417 7.52412 4.58289 7.10436C4.56877 7.05537 4.54482 7.00977 4.51248 6.97035C4.48014 6.93093 4.44011 6.89852 4.39482 6.8751C4.22595 6.78763 4.06882 6.67916 3.92715 6.55227C3.57548 6.23899 3.33187 5.82253 3.23115 5.36244C3.21829 5.30426 3.19175 5.24998 3.15373 5.20411C3.11571 5.15823 3.06731 5.12207 3.01253 5.09863C2.73887 4.98153 2.49703 4.80096 2.307 4.57186C2.11697 4.34275 1.98421 4.0717 1.91971 3.78111C1.85521 3.49053 1.86082 3.18876 1.93608 2.90078C2.01133 2.61279 2.15407 2.34686 2.35248 2.12497ZM11.4732 4.46572L13.3453 5.714C13.4281 5.76916 13.5293 5.78918 13.6269 5.76968C13.7244 5.75017 13.8101 5.69273 13.8653 5.60999L14.4392 4.74918C14.8012 4.74871 15.1534 4.63188 15.4439 4.41591C15.7344 4.19995 15.9477 3.8963 16.0525 3.54981C16.1572 3.20332 16.1477 2.83234 16.0254 2.49165C15.9031 2.15096 15.6746 1.85861 15.3734 1.65777L14.4375 1.03349C14.1363 0.832774 13.7785 0.734231 13.417 0.752409C13.0555 0.770586 12.7094 0.904522 12.4299 1.13444C12.1503 1.36436 11.9521 1.67807 11.8645 2.02927C11.7768 2.38047 11.8045 2.75053 11.9432 3.08483L11.3692 3.94569C11.3419 3.98667 11.3229 4.03262 11.3133 4.08093C11.3038 4.12924 11.3038 4.17896 11.3135 4.22725C11.3231 4.27554 11.3422 4.32145 11.3696 4.36237C11.397 4.40329 11.4322 4.43841 11.4732 4.46572ZM12.6872 3.32038C12.7266 3.26137 12.7484 3.19241 12.7501 3.12152C12.7518 3.05062 12.7334 2.98069 12.697 2.91983C12.5874 2.73725 12.5432 2.5228 12.5718 2.31178C12.6003 2.10075 12.6998 1.90573 12.854 1.7588C13.0081 1.61187 13.2076 1.52179 13.4198 1.50338C13.6319 1.48498 13.844 1.53934 14.0212 1.65754L14.9572 2.28158C15.1641 2.4195 15.3077 2.63396 15.3565 2.87777C15.4052 3.12158 15.3552 3.37478 15.2172 3.58166C15.1184 3.72893 14.98 3.84532 14.818 3.91746C14.656 3.98961 14.4769 4.01456 14.3013 3.98947C14.2312 3.97926 14.1595 3.98917 14.0947 4.01803C14.0299 4.0469 13.9747 4.09354 13.9353 4.15255L13.4491 4.88183L12.2012 4.04994L12.6872 3.32038ZM10.236 14.0607C10.2592 14.1574 10.3199 14.2409 10.4047 14.2928L12.3238 15.4674C12.3658 15.4931 12.4124 15.5103 12.4611 15.518C12.5097 15.5257 12.5594 15.5237 12.6073 15.5122C12.6552 15.5007 12.7003 15.4798 12.7401 15.4509C12.78 15.4219 12.8137 15.3854 12.8394 15.3433L13.3796 14.4609C13.6566 14.449 13.9266 14.3694 14.1657 14.229C14.4049 14.0887 14.6061 13.8919 14.7516 13.6558C14.8673 13.4668 14.9447 13.2569 14.9792 13.038C15.0138 12.8191 15.0049 12.5955 14.953 12.38C14.9012 12.1646 14.8074 11.9614 14.677 11.7822C14.5467 11.603 14.3823 11.4512 14.1932 11.3355L13.2337 10.7484C13.0447 10.6327 12.8347 10.5553 12.6158 10.5208C12.3969 10.4862 12.1734 10.4951 11.9579 10.547C11.7424 10.5988 11.5393 10.6926 11.3601 10.823C11.1809 10.9533 11.0291 11.1177 10.9134 11.3068C10.7694 11.5437 10.6856 11.8124 10.6695 12.0893C10.6533 12.3661 10.7053 12.6427 10.8207 12.8948L10.2806 13.7773C10.2288 13.8621 10.2127 13.9641 10.236 14.0607ZM11.5737 13.1015C11.6108 13.041 11.6299 12.9713 11.6288 12.9004C11.6278 12.8294 11.6067 12.7603 11.568 12.7009C11.4715 12.5521 11.4189 12.3791 11.4162 12.2017C11.4136 12.0244 11.4611 11.8499 11.5532 11.6983C11.6174 11.5933 11.7017 11.502 11.8013 11.4296C11.9009 11.3572 12.0137 11.3051 12.1334 11.2763C12.2531 11.2474 12.3773 11.2425 12.499 11.2617C12.6206 11.2809 12.7372 11.3239 12.8422 11.3881L13.8018 11.9754C13.9068 12.0397 13.9981 12.124 14.0706 12.2236C14.143 12.3231 14.1951 12.436 14.2239 12.5557C14.2527 12.6754 14.2576 12.7996 14.2384 12.9212C14.2192 13.0428 14.1763 13.1595 14.112 13.2645C14.019 13.4155 13.8852 13.5372 13.7261 13.6155C13.5669 13.6938 13.3889 13.7257 13.2125 13.7074C13.142 13.7 13.0708 13.7127 13.0072 13.744C12.9436 13.7754 12.8902 13.8241 12.8531 13.8846L12.3956 14.6321L11.1162 13.8493L11.5737 13.1015ZM12.375 8.24994C12.5975 8.24994 12.815 8.18396 13 8.06035C13.185 7.93673 13.3292 7.76103 13.4144 7.55546C13.4995 7.34989 13.5218 7.12369 13.4784 6.90547C13.435 6.68724 13.3278 6.48678 13.1705 6.32945C13.0132 6.17211 12.8127 6.06497 12.5945 6.02156C12.3763 5.97815 12.1501 6.00043 11.9445 6.08558C11.7389 6.17073 11.5632 6.31492 11.4396 6.49993C11.316 6.68493 11.25 6.90244 11.25 7.12494C11.2503 7.42321 11.369 7.70916 11.5799 7.92007C11.7908 8.13097 12.0767 8.24961 12.375 8.24994ZM12.375 6.74994C12.4492 6.74994 12.5217 6.77193 12.5834 6.81314C12.645 6.85435 12.6931 6.91291 12.7215 6.98144C12.7498 7.04996 12.7573 7.12536 12.7428 7.1981C12.7283 7.27084 12.6926 7.33766 12.6402 7.39011C12.5877 7.44255 12.5209 7.47827 12.4482 7.49274C12.3754 7.50721 12.3 7.49978 12.2315 7.4714C12.163 7.44301 12.1044 7.39495 12.0632 7.33328C12.022 7.27161 12 7.19911 12 7.12494C12.0001 7.02552 12.0397 6.9302 12.11 6.8599C12.1803 6.7896 12.2756 6.75005 12.375 6.74994ZM2.54533 11.4119C2.91598 11.6785 3.36082 11.8222 3.81737 11.823C3.83003 11.823 3.84273 11.823 3.85539 11.8227L4.50667 11.811C4.5649 11.81 4.62209 11.7955 4.67371 11.7685C4.72534 11.7416 4.76997 11.703 4.80409 11.6558C4.8382 11.6086 4.86086 11.5541 4.87025 11.4966C4.87965 11.4391 4.87554 11.3803 4.85823 11.3247L4.66454 10.7027C4.52409 10.2547 4.24301 9.86378 3.86298 9.58799C3.71347 9.47976 3.5396 9.41006 3.35673 9.38504C3.17387 9.36002 2.98766 9.38046 2.81458 9.44455L2.81068 9.446C2.61993 9.51722 2.45208 9.63887 2.32503 9.79798C2.19798 9.95709 2.11649 10.1477 2.08926 10.3495C2.06203 10.5513 2.09007 10.7567 2.17039 10.9438C2.25072 11.1309 2.38027 11.2927 2.54533 11.4119ZM3.07033 10.1496L3.073 10.1486C3.13081 10.1269 3.19307 10.12 3.25424 10.1282C3.31541 10.1365 3.37358 10.1598 3.42358 10.196C3.6724 10.3764 3.85643 10.6323 3.94839 10.9256L3.99339 11.0701L3.84203 11.0728C3.53476 11.0774 3.23415 10.9832 2.98454 10.8039C2.92971 10.7643 2.8866 10.7106 2.85981 10.6485C2.83301 10.5864 2.82351 10.5182 2.83232 10.4511C2.84113 10.384 2.86793 10.3206 2.90986 10.2675C2.95179 10.2144 3.0073 10.1737 3.07051 10.1496H3.07033ZM7.50001 14.9999C7.94502 14.9999 8.38003 14.868 8.75005 14.6207C9.12006 14.3735 9.40844 14.0221 9.57874 13.611C9.74904 13.1998 9.7936 12.7474 9.70678 12.311C9.61996 11.8745 9.40567 11.4736 9.091 11.159C8.77633 10.8443 8.37542 10.63 7.93897 10.5432C7.50251 10.4564 7.05011 10.5009 6.63897 10.6712C6.22784 10.8415 5.87644 11.1299 5.62921 11.4999C5.38197 11.8699 5.25001 12.3049 5.25001 12.7499C5.25069 13.3465 5.48797 13.9184 5.90978 14.3402C6.33158 14.762 6.90348 14.9993 7.50001 14.9999ZM7.50001 11.2499C7.79668 11.2499 8.08669 11.3379 8.33337 11.5027C8.58004 11.6676 8.7723 11.9018 8.88583 12.1759C8.99936 12.45 9.02907 12.7516 8.97119 13.0426C8.91331 13.3335 8.77045 13.6008 8.56067 13.8106C8.35089 14.0204 8.08362 14.1632 7.79265 14.2211C7.50168 14.279 7.20008 14.2493 6.92599 14.1358C6.6519 14.0222 6.41763 13.83 6.25281 13.5833C6.08799 13.3366 6.00001 13.0466 6.00001 12.7499C6.00046 12.3523 6.15864 11.971 6.43985 11.6898C6.72105 11.4086 7.10232 11.2504 7.50001 11.2499Z"/>
</mask>
<path d="M17.8074 13.3655L17.1394 14.0336C17.1046 14.0684 17.077 14.1097 17.0581 14.1552C17.0393 14.2007 17.0296 14.2495 17.0296 14.2987C17.0295 14.348 17.0392 14.3968 17.0581 14.4423C17.0769 14.4878 17.1045 14.5291 17.1394 14.5639C17.1742 14.5988 17.2155 14.6264 17.261 14.6452C17.3065 14.6641 17.3553 14.6738 17.4045 14.6738C17.4538 14.6738 17.5026 14.6641 17.5481 14.6453C17.5936 14.6264 17.6349 14.5988 17.6697 14.564L18.3378 13.896L19.3519 14.0085C19.3658 14.01 19.3798 14.0108 19.3937 14.0108C19.4896 14.0108 19.5819 13.974 19.6515 13.9081C19.7212 13.8422 19.7629 13.7521 19.7681 13.6563C19.7734 13.5605 19.7417 13.4664 19.6797 13.3933C19.6177 13.3201 19.53 13.2735 19.4347 13.263L19.0169 13.2166L19.3839 12.8496L20.513 13.0754C20.5613 13.0851 20.611 13.0851 20.6593 13.0755C20.7076 13.066 20.7536 13.047 20.7945 13.0197C20.8355 12.9924 20.8707 12.9573 20.8981 12.9163C20.9255 12.8754 20.9446 12.8295 20.9543 12.7812C20.9639 12.7329 20.964 12.6832 20.9544 12.6349C20.9449 12.5866 20.9259 12.5406 20.8986 12.4996C20.8712 12.4587 20.8361 12.4235 20.7952 12.3961C20.7543 12.3687 20.7084 12.3496 20.6601 12.3399L20.0214 12.2122L20.4396 11.794L21.0988 11.9461C21.1957 11.9685 21.2976 11.9515 21.3819 11.8988C21.4663 11.8461 21.5262 11.762 21.5486 11.6651C21.571 11.5682 21.5539 11.4664 21.5012 11.382C21.4485 11.2977 21.3645 11.2377 21.2676 11.2153L21.065 11.1685L21.6473 10.5862C21.7169 10.5157 21.7558 10.4206 21.7555 10.3215C21.7552 10.2224 21.7157 10.1275 21.6457 10.0575C21.5756 9.98743 21.4807 9.94795 21.3816 9.94765C21.2826 9.94736 21.1874 9.98627 21.117 10.0559L20.5347 10.6381L20.4879 10.4356C20.4655 10.3387 20.4055 10.2546 20.3212 10.2019C20.2368 10.1492 20.135 10.1322 20.0381 10.1546C19.9412 10.1769 19.8571 10.2369 19.8044 10.3212C19.7517 10.4056 19.7347 10.5074 19.7571 10.6043L19.9092 11.2636L19.491 11.6818L19.3632 11.0431C19.3538 10.9946 19.3349 10.9484 19.3076 10.9072C19.2802 10.866 19.245 10.8306 19.204 10.8031C19.1629 10.7756 19.1169 10.7564 19.0684 10.7468C19.0199 10.7371 18.97 10.7371 18.9216 10.7468C18.8731 10.7565 18.827 10.7757 18.786 10.8033C18.745 10.8308 18.7098 10.8662 18.6825 10.9074C18.6552 10.9486 18.6363 10.9948 18.6269 11.0433C18.6175 11.0919 18.6178 11.1418 18.6278 11.1902L18.8536 12.3192L18.4866 12.6862L18.4402 12.2684C18.4277 12.1708 18.3774 12.082 18.3001 12.0212C18.2227 11.9604 18.1246 11.9323 18.0268 11.9432C17.929 11.9541 17.8394 12.003 17.7773 12.0793C17.7152 12.1556 17.6856 12.2533 17.6949 12.3513L17.8074 13.3655ZM2.34943 17.0615C2.47192 17.2752 2.63557 17.4625 2.83092 17.6125C3.02627 17.7626 3.24944 17.8724 3.48751 17.9356C3.64701 17.9786 3.81147 18.0004 3.97665 18.0005C4.43125 17.9997 4.87008 17.8337 5.2115 17.5336C5.55292 17.2334 5.77369 16.8195 5.83275 16.3687C5.89182 15.918 5.78515 15.4611 5.5326 15.0831C5.28004 14.7051 4.89878 14.4317 4.45975 14.3138C4.35237 14.2851 4.24268 14.2659 4.13195 14.2564C4.19097 14.0702 4.21526 13.8748 4.20362 13.6798L4.19837 13.5915C4.19246 13.4922 4.14735 13.3993 4.07297 13.3333C3.99859 13.2673 3.90102 13.2335 3.80174 13.2394C3.70246 13.2453 3.60959 13.2905 3.54357 13.3648C3.47754 13.4392 3.44377 13.5368 3.44968 13.6361L3.45498 13.7245C3.46613 13.9057 3.41791 14.0856 3.31764 14.237L2.98703 13.6637C2.96243 13.621 2.92966 13.5836 2.89061 13.5536C2.85155 13.5236 2.80697 13.5016 2.75941 13.4888C2.71185 13.4761 2.66224 13.4728 2.61341 13.4792C2.56458 13.4856 2.51749 13.5015 2.47483 13.5261C2.43216 13.5507 2.39476 13.5835 2.36476 13.6226C2.33476 13.6616 2.31275 13.7062 2.29998 13.7538C2.28721 13.8013 2.28393 13.8509 2.29033 13.8998C2.29674 13.9486 2.31269 13.9957 2.33729 14.0383L2.66795 14.6117C2.48669 14.6227 2.30679 14.5743 2.15551 14.4738L2.08173 14.4248C1.99875 14.37 1.89738 14.3503 1.79994 14.3703C1.70249 14.3902 1.61695 14.448 1.56212 14.531C1.5073 14.6139 1.48768 14.7153 1.50759 14.8128C1.5275 14.9102 1.58531 14.9957 1.66829 15.0506L1.74212 15.0993C1.90531 15.2075 2.08701 15.2847 2.27814 15.327C2.14926 15.6005 2.08844 15.901 2.10085 16.203C2.11327 16.505 2.19855 16.7995 2.34943 17.0615ZM4.94818 15.5624C5.02245 15.6904 5.07072 15.8318 5.09026 15.9785C5.10979 16.1252 5.10019 16.2743 5.06201 16.4173C5.02383 16.5602 4.95781 16.6943 4.86775 16.8117C4.77769 16.9291 4.66534 17.0276 4.53715 17.1015C4.40897 17.1755 4.26745 17.2234 4.12072 17.2425C3.97398 17.2617 3.82491 17.2517 3.68204 17.2132C3.53916 17.1746 3.4053 17.1083 3.28812 17.0179C3.17093 16.9275 3.07272 16.8149 2.99912 16.6866C2.9007 16.5156 2.84893 16.3218 2.84898 16.1246C2.84903 15.9273 2.90091 15.7335 2.99942 15.5626C3.09792 15.3917 3.2396 15.2497 3.41026 15.1508C3.58092 15.0519 3.77457 14.9996 3.97183 14.9991C4.07094 14.9991 4.16961 15.0122 4.26531 15.038C4.40815 15.0759 4.54206 15.1418 4.65928 15.2318C4.77649 15.3218 4.87469 15.4342 4.94818 15.5624ZM15.8466 5.36066C15.7974 5.35901 15.7483 5.36708 15.7022 5.3844C15.6561 5.40171 15.6139 5.42794 15.5779 5.46158C15.5419 5.49523 15.513 5.53562 15.4926 5.58047C15.4723 5.62532 15.4609 5.67374 15.4593 5.72296L15.4563 5.81146C15.4498 6.00708 15.4794 6.20224 15.5435 6.38718C15.2429 6.42032 14.9548 6.52573 14.7038 6.69438C14.4528 6.86304 14.2464 7.08994 14.1021 7.35571C13.9481 7.63913 13.8699 7.95748 13.8749 8.27998C13.8799 8.60249 13.968 8.91825 14.1308 9.19674C14.2935 9.47523 14.5253 9.70704 14.8038 9.86975C15.0823 10.0325 15.3981 10.1206 15.7206 10.1256C16.0431 10.1306 16.3614 10.0523 16.6448 9.89833C16.9282 9.74434 17.1671 9.51984 17.3384 9.24653C17.5097 8.97322 17.6076 8.66035 17.6226 8.33815C17.6377 8.01596 17.5693 7.69533 17.4242 7.40727C17.6142 7.36017 17.7939 7.27848 17.9543 7.16629L18.0268 7.11557C18.1078 7.05838 18.1629 6.97143 18.18 6.87373C18.1971 6.77604 18.1747 6.67557 18.1179 6.59429C18.0611 6.51302 17.9744 6.45757 17.8767 6.44007C17.7791 6.42258 17.6785 6.44447 17.597 6.50094L17.5245 6.55166C17.3759 6.65596 17.1974 6.70901 17.0159 6.70279L17.3314 6.12102C17.3554 6.0777 17.3705 6.03006 17.376 5.98086C17.3815 5.93165 17.3771 5.88185 17.3632 5.83433C17.3493 5.78681 17.3262 5.74251 17.2951 5.70399C17.264 5.66546 17.2256 5.63348 17.1821 5.60987C17.1386 5.58627 17.0908 5.57152 17.0415 5.56647C16.9923 5.56142 16.9425 5.56617 16.8951 5.58045C16.8477 5.59472 16.8036 5.61825 16.7654 5.64966C16.7271 5.68107 16.6954 5.71975 16.6722 5.76346L16.3566 6.34527C16.2524 6.19657 16.1995 6.01795 16.206 5.83649L16.2089 5.74804C16.2106 5.69881 16.2025 5.64974 16.1852 5.60363C16.1679 5.55752 16.1417 5.51527 16.108 5.4793C16.0744 5.44333 16.034 5.41434 15.9891 5.39398C15.9443 5.37362 15.8958 5.3623 15.8466 5.36066ZM16.7391 8.78605C16.5968 9.04833 16.3562 9.24335 16.0701 9.32822C15.7841 9.41308 15.476 9.38084 15.2138 9.23858C14.9515 9.09632 14.7565 8.8557 14.6716 8.56965C14.5867 8.2836 14.619 7.97555 14.7612 7.71327C14.9037 7.45127 15.1443 7.25648 15.4302 7.17162C15.7161 7.08676 16.024 7.11876 16.2864 7.2606C16.5484 7.40308 16.7433 7.64371 16.8282 7.9297C16.9131 8.21569 16.881 8.52367 16.7391 8.78605ZM2.00008 5.33155C2.16521 5.47928 2.34843 5.60545 2.54533 5.70707C2.70041 6.24907 3.00622 6.7359 3.42718 7.11088C3.57606 7.24405 3.73779 7.36212 3.91 7.46333C4.13689 8.12951 4.56637 8.70808 5.13835 9.11808C5.71033 9.52809 6.39618 9.74901 7.09993 9.74994C7.16372 9.74994 7.22778 9.74816 7.29212 9.7446C8.05692 9.70393 8.78468 9.40234 9.35406 8.89011L10.6279 10.0294C10.6645 10.0625 10.7074 10.0881 10.754 10.1046C10.8005 10.1211 10.8499 10.1283 10.8992 10.1257C10.9486 10.123 10.9969 10.1107 11.0415 10.0893C11.086 10.068 11.1259 10.038 11.1588 10.0012C11.1918 9.96436 11.2171 9.92138 11.2334 9.87473C11.2497 9.82808 11.2566 9.77867 11.2537 9.72934C11.2508 9.68001 11.2382 9.63174 11.2166 9.5873C11.195 9.54286 11.1649 9.50313 11.1279 9.47038L9.85403 8.33108C10.1772 7.87689 10.3829 7.3497 10.4526 6.79662C10.5224 6.24353 10.454 5.68179 10.2536 5.1616C10.0532 4.6414 9.72705 4.17895 9.30429 3.81558C8.88154 3.4522 8.37535 3.19923 7.83095 3.07925C7.71124 2.91938 7.57595 2.77178 7.42707 2.63863C7.00757 2.26189 6.4897 2.01203 5.93373 1.91811C5.72693 1.60809 5.45649 1.34565 5.1404 1.14825C4.82431 0.950853 4.4698 0.823022 4.10047 0.773262C3.73114 0.723501 3.35545 0.752951 2.99838 0.859653C2.64132 0.966355 2.31106 1.14786 2.02959 1.3921C1.74811 1.63634 1.52187 1.93772 1.36591 2.27618C1.20994 2.61464 1.12784 2.98243 1.12504 3.35509C1.12225 3.72775 1.19884 4.09673 1.34971 4.43749C1.50059 4.77825 1.72229 5.08298 2.00008 5.33141V5.33155ZM2.35248 2.12497C2.51619 1.94093 2.71477 1.79118 2.93674 1.68439C3.15871 1.57761 3.39965 1.5159 3.64562 1.50285C3.68118 1.50088 3.71679 1.4999 3.7524 1.49989C4.08367 1.50031 4.40891 1.58849 4.69503 1.75544C4.98115 1.9224 5.21792 2.16218 5.38126 2.45038C5.41064 2.50221 5.45195 2.5463 5.50177 2.57899C5.55158 2.61168 5.60847 2.63203 5.66772 2.63835C6.13601 2.68738 6.57683 2.88319 6.92715 3.1978C7.06898 3.3245 7.19424 3.46861 7.29995 3.62671C7.32827 3.66911 7.36493 3.70529 7.4077 3.73304C7.45048 3.76078 7.49846 3.77952 7.54872 3.7881C7.9793 3.86206 8.38462 4.04233 8.72792 4.31255C9.07122 4.58278 9.34164 4.93442 9.51467 5.33559C9.6877 5.73676 9.75786 6.17477 9.7188 6.60991C9.67973 7.04505 9.53268 7.46357 9.29097 7.8275L8.34245 6.97907L8.50506 5.83921C8.51201 5.79045 8.5093 5.74081 8.49707 5.6931C8.48484 5.6454 8.46333 5.60057 8.43378 5.56118C8.40422 5.52179 8.3672 5.4886 8.32482 5.46352C8.28244 5.43843 8.23553 5.42194 8.18678 5.41499C8.13802 5.40803 8.08838 5.41075 8.04068 5.42298C7.99297 5.43521 7.94814 5.45672 7.90875 5.48627C7.82919 5.54596 7.77661 5.63481 7.76256 5.73327L7.67059 6.37813L6.94487 5.7291L7.10748 4.58924C7.11444 4.54049 7.11172 4.49084 7.09949 4.44314C7.08726 4.39543 7.06575 4.3506 7.0362 4.31121C7.00664 4.27182 6.96962 4.23863 6.92724 4.21355C6.88486 4.18847 6.83795 4.17198 6.7892 4.16502C6.74045 4.15806 6.6908 4.16078 6.6431 4.17301C6.59539 4.18524 6.55056 4.20675 6.51117 4.2363C6.43162 4.29599 6.37903 4.38484 6.36498 4.4833L6.27292 5.12807L5.5472 4.47922L5.70981 3.33936C5.71676 3.29061 5.71405 3.24096 5.70182 3.19326C5.68959 3.14556 5.66808 3.10073 5.63853 3.06134C5.60897 3.02194 5.57195 2.98876 5.52957 2.96367C5.48719 2.93859 5.44028 2.9221 5.39153 2.91514C5.34277 2.90819 5.29313 2.9109 5.24542 2.92313C5.19772 2.93536 5.15289 2.95687 5.1135 2.98643C5.07411 3.01598 5.04092 3.05301 5.01584 3.09539C4.99076 3.13777 4.97427 3.18467 4.96731 3.23343L4.87534 3.87833L4 3.09552C3.92563 3.03093 3.82882 2.99819 3.73051 3.00438C3.6322 3.01058 3.54027 3.05521 3.4746 3.12863C3.40892 3.20205 3.37478 3.29836 3.37953 3.39676C3.38429 3.49515 3.42758 3.58772 3.50003 3.65446L4.37537 4.43727L3.74472 4.60039C3.69687 4.61257 3.65191 4.63408 3.6124 4.66368C3.57288 4.69327 3.53961 4.73038 3.51447 4.77287C3.48933 4.81536 3.47283 4.8624 3.46592 4.91128C3.459 4.96016 3.46181 5.00993 3.47417 5.05772C3.48654 5.10552 3.50822 5.1504 3.53797 5.1898C3.56772 5.22919 3.60495 5.26233 3.64754 5.2873C3.69013 5.31227 3.73723 5.32858 3.78614 5.33531C3.83504 5.34204 3.8848 5.33904 3.93254 5.32649L5.04723 5.03821L5.7729 5.68724L5.1422 5.85041C5.09423 5.86247 5.04912 5.8839 5.00947 5.91346C4.96982 5.94302 4.93641 5.98014 4.91116 6.02267C4.88591 6.0652 4.86932 6.11231 4.86236 6.16127C4.85539 6.21024 4.85818 6.2601 4.87056 6.30799C4.88295 6.35587 4.90468 6.40084 4.93452 6.44029C4.96435 6.47974 5.00169 6.5129 5.04439 6.53785C5.0871 6.56281 5.13431 6.57908 5.18333 6.58571C5.23234 6.59234 5.28218 6.58921 5.32998 6.5765L6.44472 6.28818L7.17053 6.93744L6.53987 7.10057C6.4919 7.11262 6.44679 7.13405 6.40714 7.16362C6.36749 7.19318 6.33408 7.2303 6.30883 7.27283C6.28358 7.31536 6.267 7.36246 6.26003 7.41143C6.25306 7.4604 6.25585 7.51026 6.26824 7.55815C6.28062 7.60603 6.30235 7.65099 6.33219 7.69044C6.36202 7.72989 6.39936 7.76305 6.44207 7.78801C6.48477 7.81297 6.53198 7.82923 6.581 7.83587C6.63001 7.8425 6.67985 7.83937 6.72765 7.82666L7.84239 7.53833L8.7909 8.38677C8.45613 8.66754 8.05656 8.8603 7.62843 8.94755C7.2003 9.0348 6.75717 9.01379 6.33922 8.88641C5.92127 8.75904 5.54173 8.52934 5.23503 8.21815C4.92833 7.90696 4.70417 7.52412 4.58289 7.10436C4.56877 7.05537 4.54482 7.00977 4.51248 6.97035C4.48014 6.93093 4.44011 6.89852 4.39482 6.8751C4.22595 6.78763 4.06882 6.67916 3.92715 6.55227C3.57548 6.23899 3.33187 5.82253 3.23115 5.36244C3.21829 5.30426 3.19175 5.24998 3.15373 5.20411C3.11571 5.15823 3.06731 5.12207 3.01253 5.09863C2.73887 4.98153 2.49703 4.80096 2.307 4.57186C2.11697 4.34275 1.98421 4.0717 1.91971 3.78111C1.85521 3.49053 1.86082 3.18876 1.93608 2.90078C2.01133 2.61279 2.15407 2.34686 2.35248 2.12497ZM11.4732 4.46572L13.3453 5.714C13.4281 5.76916 13.5293 5.78918 13.6269 5.76968C13.7244 5.75017 13.8101 5.69273 13.8653 5.60999L14.4392 4.74918C14.8012 4.74871 15.1534 4.63188 15.4439 4.41591C15.7344 4.19995 15.9477 3.8963 16.0525 3.54981C16.1572 3.20332 16.1477 2.83234 16.0254 2.49165C15.9031 2.15096 15.6746 1.85861 15.3734 1.65777L14.4375 1.03349C14.1363 0.832774 13.7785 0.734231 13.417 0.752409C13.0555 0.770586 12.7094 0.904522 12.4299 1.13444C12.1503 1.36436 11.9521 1.67807 11.8645 2.02927C11.7768 2.38047 11.8045 2.75053 11.9432 3.08483L11.3692 3.94569C11.3419 3.98667 11.3229 4.03262 11.3133 4.08093C11.3038 4.12924 11.3038 4.17896 11.3135 4.22725C11.3231 4.27554 11.3422 4.32145 11.3696 4.36237C11.397 4.40329 11.4322 4.43841 11.4732 4.46572ZM12.6872 3.32038C12.7266 3.26137 12.7484 3.19241 12.7501 3.12152C12.7518 3.05062 12.7334 2.98069 12.697 2.91983C12.5874 2.73725 12.5432 2.5228 12.5718 2.31178C12.6003 2.10075 12.6998 1.90573 12.854 1.7588C13.0081 1.61187 13.2076 1.52179 13.4198 1.50338C13.6319 1.48498 13.844 1.53934 14.0212 1.65754L14.9572 2.28158C15.1641 2.4195 15.3077 2.63396 15.3565 2.87777C15.4052 3.12158 15.3552 3.37478 15.2172 3.58166C15.1184 3.72893 14.98 3.84532 14.818 3.91746C14.656 3.98961 14.4769 4.01456 14.3013 3.98947C14.2312 3.97926 14.1595 3.98917 14.0947 4.01803C14.0299 4.0469 13.9747 4.09354 13.9353 4.15255L13.4491 4.88183L12.2012 4.04994L12.6872 3.32038ZM10.236 14.0607C10.2592 14.1574 10.3199 14.2409 10.4047 14.2928L12.3238 15.4674C12.3658 15.4931 12.4124 15.5103 12.4611 15.518C12.5097 15.5257 12.5594 15.5237 12.6073 15.5122C12.6552 15.5007 12.7003 15.4798 12.7401 15.4509C12.78 15.4219 12.8137 15.3854 12.8394 15.3433L13.3796 14.4609C13.6566 14.449 13.9266 14.3694 14.1657 14.229C14.4049 14.0887 14.6061 13.8919 14.7516 13.6558C14.8673 13.4668 14.9447 13.2569 14.9792 13.038C15.0138 12.8191 15.0049 12.5955 14.953 12.38C14.9012 12.1646 14.8074 11.9614 14.677 11.7822C14.5467 11.603 14.3823 11.4512 14.1932 11.3355L13.2337 10.7484C13.0447 10.6327 12.8347 10.5553 12.6158 10.5208C12.3969 10.4862 12.1734 10.4951 11.9579 10.547C11.7424 10.5988 11.5393 10.6926 11.3601 10.823C11.1809 10.9533 11.0291 11.1177 10.9134 11.3068C10.7694 11.5437 10.6856 11.8124 10.6695 12.0893C10.6533 12.3661 10.7053 12.6427 10.8207 12.8948L10.2806 13.7773C10.2288 13.8621 10.2127 13.9641 10.236 14.0607ZM11.5737 13.1015C11.6108 13.041 11.6299 12.9713 11.6288 12.9004C11.6278 12.8294 11.6067 12.7603 11.568 12.7009C11.4715 12.5521 11.4189 12.3791 11.4162 12.2017C11.4136 12.0244 11.4611 11.8499 11.5532 11.6983C11.6174 11.5933 11.7017 11.502 11.8013 11.4296C11.9009 11.3572 12.0137 11.3051 12.1334 11.2763C12.2531 11.2474 12.3773 11.2425 12.499 11.2617C12.6206 11.2809 12.7372 11.3239 12.8422 11.3881L13.8018 11.9754C13.9068 12.0397 13.9981 12.124 14.0706 12.2236C14.143 12.3231 14.1951 12.436 14.2239 12.5557C14.2527 12.6754 14.2576 12.7996 14.2384 12.9212C14.2192 13.0428 14.1763 13.1595 14.112 13.2645C14.019 13.4155 13.8852 13.5372 13.7261 13.6155C13.5669 13.6938 13.3889 13.7257 13.2125 13.7074C13.142 13.7 13.0708 13.7127 13.0072 13.744C12.9436 13.7754 12.8902 13.8241 12.8531 13.8846L12.3956 14.6321L11.1162 13.8493L11.5737 13.1015ZM12.375 8.24994C12.5975 8.24994 12.815 8.18396 13 8.06035C13.185 7.93673 13.3292 7.76103 13.4144 7.55546C13.4995 7.34989 13.5218 7.12369 13.4784 6.90547C13.435 6.68724 13.3278 6.48678 13.1705 6.32945C13.0132 6.17211 12.8127 6.06497 12.5945 6.02156C12.3763 5.97815 12.1501 6.00043 11.9445 6.08558C11.7389 6.17073 11.5632 6.31492 11.4396 6.49993C11.316 6.68493 11.25 6.90244 11.25 7.12494C11.2503 7.42321 11.369 7.70916 11.5799 7.92007C11.7908 8.13097 12.0767 8.24961 12.375 8.24994ZM12.375 6.74994C12.4492 6.74994 12.5217 6.77193 12.5834 6.81314C12.645 6.85435 12.6931 6.91291 12.7215 6.98144C12.7498 7.04996 12.7573 7.12536 12.7428 7.1981C12.7283 7.27084 12.6926 7.33766 12.6402 7.39011C12.5877 7.44255 12.5209 7.47827 12.4482 7.49274C12.3754 7.50721 12.3 7.49978 12.2315 7.4714C12.163 7.44301 12.1044 7.39495 12.0632 7.33328C12.022 7.27161 12 7.19911 12 7.12494C12.0001 7.02552 12.0397 6.9302 12.11 6.8599C12.1803 6.7896 12.2756 6.75005 12.375 6.74994ZM2.54533 11.4119C2.91598 11.6785 3.36082 11.8222 3.81737 11.823C3.83003 11.823 3.84273 11.823 3.85539 11.8227L4.50667 11.811C4.5649 11.81 4.62209 11.7955 4.67371 11.7685C4.72534 11.7416 4.76997 11.703 4.80409 11.6558C4.8382 11.6086 4.86086 11.5541 4.87025 11.4966C4.87965 11.4391 4.87554 11.3803 4.85823 11.3247L4.66454 10.7027C4.52409 10.2547 4.24301 9.86378 3.86298 9.58799C3.71347 9.47976 3.5396 9.41006 3.35673 9.38504C3.17387 9.36002 2.98766 9.38046 2.81458 9.44455L2.81068 9.446C2.61993 9.51722 2.45208 9.63887 2.32503 9.79798C2.19798 9.95709 2.11649 10.1477 2.08926 10.3495C2.06203 10.5513 2.09007 10.7567 2.17039 10.9438C2.25072 11.1309 2.38027 11.2927 2.54533 11.4119ZM3.07033 10.1496L3.073 10.1486C3.13081 10.1269 3.19307 10.12 3.25424 10.1282C3.31541 10.1365 3.37358 10.1598 3.42358 10.196C3.6724 10.3764 3.85643 10.6323 3.94839 10.9256L3.99339 11.0701L3.84203 11.0728C3.53476 11.0774 3.23415 10.9832 2.98454 10.8039C2.92971 10.7643 2.8866 10.7106 2.85981 10.6485C2.83301 10.5864 2.82351 10.5182 2.83232 10.4511C2.84113 10.384 2.86793 10.3206 2.90986 10.2675C2.95179 10.2144 3.0073 10.1737 3.07051 10.1496H3.07033ZM7.50001 14.9999C7.94502 14.9999 8.38003 14.868 8.75005 14.6207C9.12006 14.3735 9.40844 14.0221 9.57874 13.611C9.74904 13.1998 9.7936 12.7474 9.70678 12.311C9.61996 11.8745 9.40567 11.4736 9.091 11.159C8.77633 10.8443 8.37542 10.63 7.93897 10.5432C7.50251 10.4564 7.05011 10.5009 6.63897 10.6712C6.22784 10.8415 5.87644 11.1299 5.62921 11.4999C5.38197 11.8699 5.25001 12.3049 5.25001 12.7499C5.25069 13.3465 5.48797 13.9184 5.90978 14.3402C6.33158 14.762 6.90348 14.9993 7.50001 14.9999ZM7.50001 11.2499C7.79668 11.2499 8.08669 11.3379 8.33337 11.5027C8.58004 11.6676 8.7723 11.9018 8.88583 12.1759C8.99936 12.45 9.02907 12.7516 8.97119 13.0426C8.91331 13.3335 8.77045 13.6008 8.56067 13.8106C8.35089 14.0204 8.08362 14.1632 7.79265 14.2211C7.50168 14.279 7.20008 14.2493 6.92599 14.1358C6.6519 14.0222 6.41763 13.83 6.25281 13.5833C6.08799 13.3366 6.00001 13.0466 6.00001 12.7499C6.00046 12.3523 6.15864 11.971 6.43985 11.6898C6.72105 11.4086 7.10232 11.2504 7.50001 11.2499Z" fill="#2B2B2B"/>
<path d="M17.8074 13.3655L17.1394 14.0336C17.1046 14.0684 17.077 14.1097 17.0581 14.1552C17.0393 14.2007 17.0296 14.2495 17.0296 14.2987C17.0295 14.348 17.0392 14.3968 17.0581 14.4423C17.0769 14.4878 17.1045 14.5291 17.1394 14.5639C17.1742 14.5988 17.2155 14.6264 17.261 14.6452C17.3065 14.6641 17.3553 14.6738 17.4045 14.6738C17.4538 14.6738 17.5026 14.6641 17.5481 14.6453C17.5936 14.6264 17.6349 14.5988 17.6697 14.564L18.3378 13.896L19.3519 14.0085C19.3658 14.01 19.3798 14.0108 19.3937 14.0108C19.4896 14.0108 19.5819 13.974 19.6515 13.9081C19.7212 13.8422 19.7629 13.7521 19.7681 13.6563C19.7734 13.5605 19.7417 13.4664 19.6797 13.3933C19.6177 13.3201 19.53 13.2735 19.4347 13.263L19.0169 13.2166L19.3839 12.8496L20.513 13.0754C20.5613 13.0851 20.611 13.0851 20.6593 13.0755C20.7076 13.066 20.7536 13.047 20.7945 13.0197C20.8355 12.9924 20.8707 12.9573 20.8981 12.9163C20.9255 12.8754 20.9446 12.8295 20.9543 12.7812C20.9639 12.7329 20.964 12.6832 20.9544 12.6349C20.9449 12.5866 20.9259 12.5406 20.8986 12.4996C20.8712 12.4587 20.8361 12.4235 20.7952 12.3961C20.7543 12.3687 20.7084 12.3496 20.6601 12.3399L20.0214 12.2122L20.4396 11.794L21.0988 11.9461C21.1957 11.9685 21.2976 11.9515 21.3819 11.8988C21.4663 11.8461 21.5262 11.762 21.5486 11.6651C21.571 11.5682 21.5539 11.4664 21.5012 11.382C21.4485 11.2977 21.3645 11.2377 21.2676 11.2153L21.065 11.1685L21.6473 10.5862C21.7169 10.5157 21.7558 10.4206 21.7555 10.3215C21.7552 10.2224 21.7157 10.1275 21.6457 10.0575C21.5756 9.98743 21.4807 9.94795 21.3816 9.94765C21.2826 9.94736 21.1874 9.98627 21.117 10.0559L20.5347 10.6381L20.4879 10.4356C20.4655 10.3387 20.4055 10.2546 20.3212 10.2019C20.2368 10.1492 20.135 10.1322 20.0381 10.1546C19.9412 10.1769 19.8571 10.2369 19.8044 10.3212C19.7517 10.4056 19.7347 10.5074 19.7571 10.6043L19.9092 11.2636L19.491 11.6818L19.3632 11.0431C19.3538 10.9946 19.3349 10.9484 19.3076 10.9072C19.2802 10.866 19.245 10.8306 19.204 10.8031C19.1629 10.7756 19.1169 10.7564 19.0684 10.7468C19.0199 10.7371 18.97 10.7371 18.9216 10.7468C18.8731 10.7565 18.827 10.7757 18.786 10.8033C18.745 10.8308 18.7098 10.8662 18.6825 10.9074C18.6552 10.9486 18.6363 10.9948 18.6269 11.0433C18.6175 11.0919 18.6178 11.1418 18.6278 11.1902L18.8536 12.3192L18.4866 12.6862L18.4402 12.2684C18.4277 12.1708 18.3774 12.082 18.3001 12.0212C18.2227 11.9604 18.1246 11.9323 18.0268 11.9432C17.929 11.9541 17.8394 12.003 17.7773 12.0793C17.7152 12.1556 17.6856 12.2533 17.6949 12.3513L17.8074 13.3655ZM2.34943 17.0615C2.47192 17.2752 2.63557 17.4625 2.83092 17.6125C3.02627 17.7626 3.24944 17.8724 3.48751 17.9356C3.64701 17.9786 3.81147 18.0004 3.97665 18.0005C4.43125 17.9997 4.87008 17.8337 5.2115 17.5336C5.55292 17.2334 5.77369 16.8195 5.83275 16.3687C5.89182 15.918 5.78515 15.4611 5.5326 15.0831C5.28004 14.7051 4.89878 14.4317 4.45975 14.3138C4.35237 14.2851 4.24268 14.2659 4.13195 14.2564C4.19097 14.0702 4.21526 13.8748 4.20362 13.6798L4.19837 13.5915C4.19246 13.4922 4.14735 13.3993 4.07297 13.3333C3.99859 13.2673 3.90102 13.2335 3.80174 13.2394C3.70246 13.2453 3.60959 13.2905 3.54357 13.3648C3.47754 13.4392 3.44377 13.5368 3.44968 13.6361L3.45498 13.7245C3.46613 13.9057 3.41791 14.0856 3.31764 14.237L2.98703 13.6637C2.96243 13.621 2.92966 13.5836 2.89061 13.5536C2.85155 13.5236 2.80697 13.5016 2.75941 13.4888C2.71185 13.4761 2.66224 13.4728 2.61341 13.4792C2.56458 13.4856 2.51749 13.5015 2.47483 13.5261C2.43216 13.5507 2.39476 13.5835 2.36476 13.6226C2.33476 13.6616 2.31275 13.7062 2.29998 13.7538C2.28721 13.8013 2.28393 13.8509 2.29033 13.8998C2.29674 13.9486 2.31269 13.9957 2.33729 14.0383L2.66795 14.6117C2.48669 14.6227 2.30679 14.5743 2.15551 14.4738L2.08173 14.4248C1.99875 14.37 1.89738 14.3503 1.79994 14.3703C1.70249 14.3902 1.61695 14.448 1.56212 14.531C1.5073 14.6139 1.48768 14.7153 1.50759 14.8128C1.5275 14.9102 1.58531 14.9957 1.66829 15.0506L1.74212 15.0993C1.90531 15.2075 2.08701 15.2847 2.27814 15.327C2.14926 15.6005 2.08844 15.901 2.10085 16.203C2.11327 16.505 2.19855 16.7995 2.34943 17.0615ZM4.94818 15.5624C5.02245 15.6904 5.07072 15.8318 5.09026 15.9785C5.10979 16.1252 5.10019 16.2743 5.06201 16.4173C5.02383 16.5602 4.95781 16.6943 4.86775 16.8117C4.77769 16.9291 4.66534 17.0276 4.53715 17.1015C4.40897 17.1755 4.26745 17.2234 4.12072 17.2425C3.97398 17.2617 3.82491 17.2517 3.68204 17.2132C3.53916 17.1746 3.4053 17.1083 3.28812 17.0179C3.17093 16.9275 3.07272 16.8149 2.99912 16.6866C2.9007 16.5156 2.84893 16.3218 2.84898 16.1246C2.84903 15.9273 2.90091 15.7335 2.99942 15.5626C3.09792 15.3917 3.2396 15.2497 3.41026 15.1508C3.58092 15.0519 3.77457 14.9996 3.97183 14.9991C4.07094 14.9991 4.16961 15.0122 4.26531 15.038C4.40815 15.0759 4.54206 15.1418 4.65928 15.2318C4.77649 15.3218 4.87469 15.4342 4.94818 15.5624ZM15.8466 5.36066C15.7974 5.35901 15.7483 5.36708 15.7022 5.3844C15.6561 5.40171 15.6139 5.42794 15.5779 5.46158C15.5419 5.49523 15.513 5.53562 15.4926 5.58047C15.4723 5.62532 15.4609 5.67374 15.4593 5.72296L15.4563 5.81146C15.4498 6.00708 15.4794 6.20224 15.5435 6.38718C15.2429 6.42032 14.9548 6.52573 14.7038 6.69438C14.4528 6.86304 14.2464 7.08994 14.1021 7.35571C13.9481 7.63913 13.8699 7.95748 13.8749 8.27998C13.8799 8.60249 13.968 8.91825 14.1308 9.19674C14.2935 9.47523 14.5253 9.70704 14.8038 9.86975C15.0823 10.0325 15.3981 10.1206 15.7206 10.1256C16.0431 10.1306 16.3614 10.0523 16.6448 9.89833C16.9282 9.74434 17.1671 9.51984 17.3384 9.24653C17.5097 8.97322 17.6076 8.66035 17.6226 8.33815C17.6377 8.01596 17.5693 7.69533 17.4242 7.40727C17.6142 7.36017 17.7939 7.27848 17.9543 7.16629L18.0268 7.11557C18.1078 7.05838 18.1629 6.97143 18.18 6.87373C18.1971 6.77604 18.1747 6.67557 18.1179 6.59429C18.0611 6.51302 17.9744 6.45757 17.8767 6.44007C17.7791 6.42258 17.6785 6.44447 17.597 6.50094L17.5245 6.55166C17.3759 6.65596 17.1974 6.70901 17.0159 6.70279L17.3314 6.12102C17.3554 6.0777 17.3705 6.03006 17.376 5.98086C17.3815 5.93165 17.3771 5.88185 17.3632 5.83433C17.3493 5.78681 17.3262 5.74251 17.2951 5.70399C17.264 5.66546 17.2256 5.63348 17.1821 5.60987C17.1386 5.58627 17.0908 5.57152 17.0415 5.56647C16.9923 5.56142 16.9425 5.56617 16.8951 5.58045C16.8477 5.59472 16.8036 5.61825 16.7654 5.64966C16.7271 5.68107 16.6954 5.71975 16.6722 5.76346L16.3566 6.34527C16.2524 6.19657 16.1995 6.01795 16.206 5.83649L16.2089 5.74804C16.2106 5.69881 16.2025 5.64974 16.1852 5.60363C16.1679 5.55752 16.1417 5.51527 16.108 5.4793C16.0744 5.44333 16.034 5.41434 15.9891 5.39398C15.9443 5.37362 15.8958 5.3623 15.8466 5.36066ZM16.7391 8.78605C16.5968 9.04833 16.3562 9.24335 16.0701 9.32822C15.7841 9.41308 15.476 9.38084 15.2138 9.23858C14.9515 9.09632 14.7565 8.8557 14.6716 8.56965C14.5867 8.2836 14.619 7.97555 14.7612 7.71327C14.9037 7.45127 15.1443 7.25648 15.4302 7.17162C15.7161 7.08676 16.024 7.11876 16.2864 7.2606C16.5484 7.40308 16.7433 7.64371 16.8282 7.9297C16.9131 8.21569 16.881 8.52367 16.7391 8.78605ZM2.00008 5.33155C2.16521 5.47928 2.34843 5.60545 2.54533 5.70707C2.70041 6.24907 3.00622 6.7359 3.42718 7.11088C3.57606 7.24405 3.73779 7.36212 3.91 7.46333C4.13689 8.12951 4.56637 8.70808 5.13835 9.11808C5.71033 9.52809 6.39618 9.74901 7.09993 9.74994C7.16372 9.74994 7.22778 9.74816 7.29212 9.7446C8.05692 9.70393 8.78468 9.40234 9.35406 8.89011L10.6279 10.0294C10.6645 10.0625 10.7074 10.0881 10.754 10.1046C10.8005 10.1211 10.8499 10.1283 10.8992 10.1257C10.9486 10.123 10.9969 10.1107 11.0415 10.0893C11.086 10.068 11.1259 10.038 11.1588 10.0012C11.1918 9.96436 11.2171 9.92138 11.2334 9.87473C11.2497 9.82808 11.2566 9.77867 11.2537 9.72934C11.2508 9.68001 11.2382 9.63174 11.2166 9.5873C11.195 9.54286 11.1649 9.50313 11.1279 9.47038L9.85403 8.33108C10.1772 7.87689 10.3829 7.3497 10.4526 6.79662C10.5224 6.24353 10.454 5.68179 10.2536 5.1616C10.0532 4.6414 9.72705 4.17895 9.30429 3.81558C8.88154 3.4522 8.37535 3.19923 7.83095 3.07925C7.71124 2.91938 7.57595 2.77178 7.42707 2.63863C7.00757 2.26189 6.4897 2.01203 5.93373 1.91811C5.72693 1.60809 5.45649 1.34565 5.1404 1.14825C4.82431 0.950853 4.4698 0.823022 4.10047 0.773262C3.73114 0.723501 3.35545 0.752951 2.99838 0.859653C2.64132 0.966355 2.31106 1.14786 2.02959 1.3921C1.74811 1.63634 1.52187 1.93772 1.36591 2.27618C1.20994 2.61464 1.12784 2.98243 1.12504 3.35509C1.12225 3.72775 1.19884 4.09673 1.34971 4.43749C1.50059 4.77825 1.72229 5.08298 2.00008 5.33141V5.33155ZM2.35248 2.12497C2.51619 1.94093 2.71477 1.79118 2.93674 1.68439C3.15871 1.57761 3.39965 1.5159 3.64562 1.50285C3.68118 1.50088 3.71679 1.4999 3.7524 1.49989C4.08367 1.50031 4.40891 1.58849 4.69503 1.75544C4.98115 1.9224 5.21792 2.16218 5.38126 2.45038C5.41064 2.50221 5.45195 2.5463 5.50177 2.57899C5.55158 2.61168 5.60847 2.63203 5.66772 2.63835C6.13601 2.68738 6.57683 2.88319 6.92715 3.1978C7.06898 3.3245 7.19424 3.46861 7.29995 3.62671C7.32827 3.66911 7.36493 3.70529 7.4077 3.73304C7.45048 3.76078 7.49846 3.77952 7.54872 3.7881C7.9793 3.86206 8.38462 4.04233 8.72792 4.31255C9.07122 4.58278 9.34164 4.93442 9.51467 5.33559C9.6877 5.73676 9.75786 6.17477 9.7188 6.60991C9.67973 7.04505 9.53268 7.46357 9.29097 7.8275L8.34245 6.97907L8.50506 5.83921C8.51201 5.79045 8.5093 5.74081 8.49707 5.6931C8.48484 5.6454 8.46333 5.60057 8.43378 5.56118C8.40422 5.52179 8.3672 5.4886 8.32482 5.46352C8.28244 5.43843 8.23553 5.42194 8.18678 5.41499C8.13802 5.40803 8.08838 5.41075 8.04068 5.42298C7.99297 5.43521 7.94814 5.45672 7.90875 5.48627C7.82919 5.54596 7.77661 5.63481 7.76256 5.73327L7.67059 6.37813L6.94487 5.7291L7.10748 4.58924C7.11444 4.54049 7.11172 4.49084 7.09949 4.44314C7.08726 4.39543 7.06575 4.3506 7.0362 4.31121C7.00664 4.27182 6.96962 4.23863 6.92724 4.21355C6.88486 4.18847 6.83795 4.17198 6.7892 4.16502C6.74045 4.15806 6.6908 4.16078 6.6431 4.17301C6.59539 4.18524 6.55056 4.20675 6.51117 4.2363C6.43162 4.29599 6.37903 4.38484 6.36498 4.4833L6.27292 5.12807L5.5472 4.47922L5.70981 3.33936C5.71676 3.29061 5.71405 3.24096 5.70182 3.19326C5.68959 3.14556 5.66808 3.10073 5.63853 3.06134C5.60897 3.02194 5.57195 2.98876 5.52957 2.96367C5.48719 2.93859 5.44028 2.9221 5.39153 2.91514C5.34277 2.90819 5.29313 2.9109 5.24542 2.92313C5.19772 2.93536 5.15289 2.95687 5.1135 2.98643C5.07411 3.01598 5.04092 3.05301 5.01584 3.09539C4.99076 3.13777 4.97427 3.18467 4.96731 3.23343L4.87534 3.87833L4 3.09552C3.92563 3.03093 3.82882 2.99819 3.73051 3.00438C3.6322 3.01058 3.54027 3.05521 3.4746 3.12863C3.40892 3.20205 3.37478 3.29836 3.37953 3.39676C3.38429 3.49515 3.42758 3.58772 3.50003 3.65446L4.37537 4.43727L3.74472 4.60039C3.69687 4.61257 3.65191 4.63408 3.6124 4.66368C3.57288 4.69327 3.53961 4.73038 3.51447 4.77287C3.48933 4.81536 3.47283 4.8624 3.46592 4.91128C3.459 4.96016 3.46181 5.00993 3.47417 5.05772C3.48654 5.10552 3.50822 5.1504 3.53797 5.1898C3.56772 5.22919 3.60495 5.26233 3.64754 5.2873C3.69013 5.31227 3.73723 5.32858 3.78614 5.33531C3.83504 5.34204 3.8848 5.33904 3.93254 5.32649L5.04723 5.03821L5.7729 5.68724L5.1422 5.85041C5.09423 5.86247 5.04912 5.8839 5.00947 5.91346C4.96982 5.94302 4.93641 5.98014 4.91116 6.02267C4.88591 6.0652 4.86932 6.11231 4.86236 6.16127C4.85539 6.21024 4.85818 6.2601 4.87056 6.30799C4.88295 6.35587 4.90468 6.40084 4.93452 6.44029C4.96435 6.47974 5.00169 6.5129 5.04439 6.53785C5.0871 6.56281 5.13431 6.57908 5.18333 6.58571C5.23234 6.59234 5.28218 6.58921 5.32998 6.5765L6.44472 6.28818L7.17053 6.93744L6.53987 7.10057C6.4919 7.11262 6.44679 7.13405 6.40714 7.16362C6.36749 7.19318 6.33408 7.2303 6.30883 7.27283C6.28358 7.31536 6.267 7.36246 6.26003 7.41143C6.25306 7.4604 6.25585 7.51026 6.26824 7.55815C6.28062 7.60603 6.30235 7.65099 6.33219 7.69044C6.36202 7.72989 6.39936 7.76305 6.44207 7.78801C6.48477 7.81297 6.53198 7.82923 6.581 7.83587C6.63001 7.8425 6.67985 7.83937 6.72765 7.82666L7.84239 7.53833L8.7909 8.38677C8.45613 8.66754 8.05656 8.8603 7.62843 8.94755C7.2003 9.0348 6.75717 9.01379 6.33922 8.88641C5.92127 8.75904 5.54173 8.52934 5.23503 8.21815C4.92833 7.90696 4.70417 7.52412 4.58289 7.10436C4.56877 7.05537 4.54482 7.00977 4.51248 6.97035C4.48014 6.93093 4.44011 6.89852 4.39482 6.8751C4.22595 6.78763 4.06882 6.67916 3.92715 6.55227C3.57548 6.23899 3.33187 5.82253 3.23115 5.36244C3.21829 5.30426 3.19175 5.24998 3.15373 5.20411C3.11571 5.15823 3.06731 5.12207 3.01253 5.09863C2.73887 4.98153 2.49703 4.80096 2.307 4.57186C2.11697 4.34275 1.98421 4.0717 1.91971 3.78111C1.85521 3.49053 1.86082 3.18876 1.93608 2.90078C2.01133 2.61279 2.15407 2.34686 2.35248 2.12497ZM11.4732 4.46572L13.3453 5.714C13.4281 5.76916 13.5293 5.78918 13.6269 5.76968C13.7244 5.75017 13.8101 5.69273 13.8653 5.60999L14.4392 4.74918C14.8012 4.74871 15.1534 4.63188 15.4439 4.41591C15.7344 4.19995 15.9477 3.8963 16.0525 3.54981C16.1572 3.20332 16.1477 2.83234 16.0254 2.49165C15.9031 2.15096 15.6746 1.85861 15.3734 1.65777L14.4375 1.03349C14.1363 0.832774 13.7785 0.734231 13.417 0.752409C13.0555 0.770586 12.7094 0.904522 12.4299 1.13444C12.1503 1.36436 11.9521 1.67807 11.8645 2.02927C11.7768 2.38047 11.8045 2.75053 11.9432 3.08483L11.3692 3.94569C11.3419 3.98667 11.3229 4.03262 11.3133 4.08093C11.3038 4.12924 11.3038 4.17896 11.3135 4.22725C11.3231 4.27554 11.3422 4.32145 11.3696 4.36237C11.397 4.40329 11.4322 4.43841 11.4732 4.46572ZM12.6872 3.32038C12.7266 3.26137 12.7484 3.19241 12.7501 3.12152C12.7518 3.05062 12.7334 2.98069 12.697 2.91983C12.5874 2.73725 12.5432 2.5228 12.5718 2.31178C12.6003 2.10075 12.6998 1.90573 12.854 1.7588C13.0081 1.61187 13.2076 1.52179 13.4198 1.50338C13.6319 1.48498 13.844 1.53934 14.0212 1.65754L14.9572 2.28158C15.1641 2.4195 15.3077 2.63396 15.3565 2.87777C15.4052 3.12158 15.3552 3.37478 15.2172 3.58166C15.1184 3.72893 14.98 3.84532 14.818 3.91746C14.656 3.98961 14.4769 4.01456 14.3013 3.98947C14.2312 3.97926 14.1595 3.98917 14.0947 4.01803C14.0299 4.0469 13.9747 4.09354 13.9353 4.15255L13.4491 4.88183L12.2012 4.04994L12.6872 3.32038ZM10.236 14.0607C10.2592 14.1574 10.3199 14.2409 10.4047 14.2928L12.3238 15.4674C12.3658 15.4931 12.4124 15.5103 12.4611 15.518C12.5097 15.5257 12.5594 15.5237 12.6073 15.5122C12.6552 15.5007 12.7003 15.4798 12.7401 15.4509C12.78 15.4219 12.8137 15.3854 12.8394 15.3433L13.3796 14.4609C13.6566 14.449 13.9266 14.3694 14.1657 14.229C14.4049 14.0887 14.6061 13.8919 14.7516 13.6558C14.8673 13.4668 14.9447 13.2569 14.9792 13.038C15.0138 12.8191 15.0049 12.5955 14.953 12.38C14.9012 12.1646 14.8074 11.9614 14.677 11.7822C14.5467 11.603 14.3823 11.4512 14.1932 11.3355L13.2337 10.7484C13.0447 10.6327 12.8347 10.5553 12.6158 10.5208C12.3969 10.4862 12.1734 10.4951 11.9579 10.547C11.7424 10.5988 11.5393 10.6926 11.3601 10.823C11.1809 10.9533 11.0291 11.1177 10.9134 11.3068C10.7694 11.5437 10.6856 11.8124 10.6695 12.0893C10.6533 12.3661 10.7053 12.6427 10.8207 12.8948L10.2806 13.7773C10.2288 13.8621 10.2127 13.9641 10.236 14.0607ZM11.5737 13.1015C11.6108 13.041 11.6299 12.9713 11.6288 12.9004C11.6278 12.8294 11.6067 12.7603 11.568 12.7009C11.4715 12.5521 11.4189 12.3791 11.4162 12.2017C11.4136 12.0244 11.4611 11.8499 11.5532 11.6983C11.6174 11.5933 11.7017 11.502 11.8013 11.4296C11.9009 11.3572 12.0137 11.3051 12.1334 11.2763C12.2531 11.2474 12.3773 11.2425 12.499 11.2617C12.6206 11.2809 12.7372 11.3239 12.8422 11.3881L13.8018 11.9754C13.9068 12.0397 13.9981 12.124 14.0706 12.2236C14.143 12.3231 14.1951 12.436 14.2239 12.5557C14.2527 12.6754 14.2576 12.7996 14.2384 12.9212C14.2192 13.0428 14.1763 13.1595 14.112 13.2645C14.019 13.4155 13.8852 13.5372 13.7261 13.6155C13.5669 13.6938 13.3889 13.7257 13.2125 13.7074C13.142 13.7 13.0708 13.7127 13.0072 13.744C12.9436 13.7754 12.8902 13.8241 12.8531 13.8846L12.3956 14.6321L11.1162 13.8493L11.5737 13.1015ZM12.375 8.24994C12.5975 8.24994 12.815 8.18396 13 8.06035C13.185 7.93673 13.3292 7.76103 13.4144 7.55546C13.4995 7.34989 13.5218 7.12369 13.4784 6.90547C13.435 6.68724 13.3278 6.48678 13.1705 6.32945C13.0132 6.17211 12.8127 6.06497 12.5945 6.02156C12.3763 5.97815 12.1501 6.00043 11.9445 6.08558C11.7389 6.17073 11.5632 6.31492 11.4396 6.49993C11.316 6.68493 11.25 6.90244 11.25 7.12494C11.2503 7.42321 11.369 7.70916 11.5799 7.92007C11.7908 8.13097 12.0767 8.24961 12.375 8.24994ZM12.375 6.74994C12.4492 6.74994 12.5217 6.77193 12.5834 6.81314C12.645 6.85435 12.6931 6.91291 12.7215 6.98144C12.7498 7.04996 12.7573 7.12536 12.7428 7.1981C12.7283 7.27084 12.6926 7.33766 12.6402 7.39011C12.5877 7.44255 12.5209 7.47827 12.4482 7.49274C12.3754 7.50721 12.3 7.49978 12.2315 7.4714C12.163 7.44301 12.1044 7.39495 12.0632 7.33328C12.022 7.27161 12 7.19911 12 7.12494C12.0001 7.02552 12.0397 6.9302 12.11 6.8599C12.1803 6.7896 12.2756 6.75005 12.375 6.74994ZM2.54533 11.4119C2.91598 11.6785 3.36082 11.8222 3.81737 11.823C3.83003 11.823 3.84273 11.823 3.85539 11.8227L4.50667 11.811C4.5649 11.81 4.62209 11.7955 4.67371 11.7685C4.72534 11.7416 4.76997 11.703 4.80409 11.6558C4.8382 11.6086 4.86086 11.5541 4.87025 11.4966C4.87965 11.4391 4.87554 11.3803 4.85823 11.3247L4.66454 10.7027C4.52409 10.2547 4.24301 9.86378 3.86298 9.58799C3.71347 9.47976 3.5396 9.41006 3.35673 9.38504C3.17387 9.36002 2.98766 9.38046 2.81458 9.44455L2.81068 9.446C2.61993 9.51722 2.45208 9.63887 2.32503 9.79798C2.19798 9.95709 2.11649 10.1477 2.08926 10.3495C2.06203 10.5513 2.09007 10.7567 2.17039 10.9438C2.25072 11.1309 2.38027 11.2927 2.54533 11.4119ZM3.07033 10.1496L3.073 10.1486C3.13081 10.1269 3.19307 10.12 3.25424 10.1282C3.31541 10.1365 3.37358 10.1598 3.42358 10.196C3.6724 10.3764 3.85643 10.6323 3.94839 10.9256L3.99339 11.0701L3.84203 11.0728C3.53476 11.0774 3.23415 10.9832 2.98454 10.8039C2.92971 10.7643 2.8866 10.7106 2.85981 10.6485C2.83301 10.5864 2.82351 10.5182 2.83232 10.4511C2.84113 10.384 2.86793 10.3206 2.90986 10.2675C2.95179 10.2144 3.0073 10.1737 3.07051 10.1496H3.07033ZM7.50001 14.9999C7.94502 14.9999 8.38003 14.868 8.75005 14.6207C9.12006 14.3735 9.40844 14.0221 9.57874 13.611C9.74904 13.1998 9.7936 12.7474 9.70678 12.311C9.61996 11.8745 9.40567 11.4736 9.091 11.159C8.77633 10.8443 8.37542 10.63 7.93897 10.5432C7.50251 10.4564 7.05011 10.5009 6.63897 10.6712C6.22784 10.8415 5.87644 11.1299 5.62921 11.4999C5.38197 11.8699 5.25001 12.3049 5.25001 12.7499C5.25069 13.3465 5.48797 13.9184 5.90978 14.3402C6.33158 14.762 6.90348 14.9993 7.50001 14.9999ZM7.50001 11.2499C7.79668 11.2499 8.08669 11.3379 8.33337 11.5027C8.58004 11.6676 8.7723 11.9018 8.88583 12.1759C8.99936 12.45 9.02907 12.7516 8.97119 13.0426C8.91331 13.3335 8.77045 13.6008 8.56067 13.8106C8.35089 14.0204 8.08362 14.1632 7.79265 14.2211C7.50168 14.279 7.20008 14.2493 6.92599 14.1358C6.6519 14.0222 6.41763 13.83 6.25281 13.5833C6.08799 13.3366 6.00001 13.0466 6.00001 12.7499C6.00046 12.3523 6.15864 11.971 6.43985 11.6898C6.72105 11.4086 7.10232 11.2504 7.50001 11.2499Z" stroke="#2B2B2B" stroke-width="0.2" mask="url(#path-3-outside-1_4222_12457)"/>
<path d="M8.06027 13.5053L8.05993 13.5051L8.05993 13.5051L7.5 13.2251L6.94015 13.505L6.94008 13.505L6.91772 13.4603C6.86576 13.4864 6.80843 13.5 6.75029 13.5L8.06027 13.5053ZM8.06027 13.5053C8.16096 13.5547 8.27708 13.5622 8.38334 13.5264C8.48959 13.4905 8.57735 13.4141 8.62751 13.3138C8.67767 13.2135 8.68615 13.0974 8.65111 12.9909C8.61607 12.8844 8.54034 12.796 8.44044 12.7451L8.44008 12.7449L7.92501 12.4873V12C7.92501 11.8873 7.88023 11.7792 7.80053 11.6995C7.72082 11.6198 7.61272 11.575 7.50001 11.575C7.38729 11.575 7.27919 11.6198 7.19948 11.6995C7.11978 11.7792 7.07501 11.8873 7.07501 12V12.4873L6.55993 12.7449L6.55992 12.7449C6.47427 12.7877 6.40561 12.8582 6.36504 12.945C6.32448 13.0317 6.3144 13.1296 6.33644 13.2228C6.35848 13.316 6.41134 13.399 6.48646 13.4584C6.56158 13.5178 6.65456 13.5501 6.75032 13.55L8.06027 13.5053Z" fill="#2B2B2B" stroke="#2B2B2B" stroke-width="0.1"/>
</g>
<defs>
<clipPath id="clip0_4222_12457">
<rect width="24" height="24" fill="white"/>
</clipPath>
</defs>
</svg>
