<svg width="25" height="24" viewBox="0 0 25 24" fill="none" xmlns="http://www.w3.org/2000/svg">
<g opacity="0.6" clip-path="url(#clip0_4222_12601)">
<mask id="path-1-outside-1_4222_12601" maskUnits="userSpaceOnUse" x="-0.125" y="-0.625" width="25" height="25" fill="black">
<rect fill="white" x="-0.125" y="-0.625" width="25" height="25"/>
<path d="M23 18.375H21.0718C20.9041 17.7296 20.3221 17.25 19.625 17.25V14.6152C19.9476 14.8634 20.3429 14.9986 20.75 15C21.7839 15 22.625 14.1589 22.625 13.125C22.6249 13.0062 22.6128 12.8877 22.589 12.7714C22.8327 12.5997 23.0313 12.3717 23.1682 12.1069C23.305 11.842 23.3759 11.5481 23.375 11.25C23.3758 10.9925 23.3227 10.7376 23.2193 10.5018C23.1158 10.266 22.9642 10.0543 22.7743 9.8805C22.9215 9.61031 22.9991 9.3077 23 9C22.9996 8.53685 22.826 8.0906 22.5133 7.749C22.587 7.54921 22.6248 7.33796 22.625 7.125C22.6245 6.66579 22.4556 6.2227 22.1505 5.87954C21.8453 5.53639 21.425 5.31695 20.969 5.26275C20.6784 4.58063 20.0071 4.125 19.25 4.125C18.4929 4.125 17.8216 4.58063 17.531 5.26275C17.075 5.31695 16.6547 5.53639 16.3495 5.87954C16.0444 6.2227 15.8756 6.66579 15.875 7.125C15.875 7.33725 15.9125 7.54612 15.9867 7.749C15.7941 7.9635 15.654 8.21989 15.5776 8.49788C15.1186 8.10562 14.579 7.875 14 7.875C13.286 7.875 12.6305 8.22075 12.1149 8.79562C12.0661 8.28927 11.8435 7.81544 11.4849 7.45463L10.4052 6.375H12.125V5.61975C12.1237 5.44375 12.0805 5.27059 11.9991 5.11456C11.9176 4.95853 11.8002 4.82411 11.6566 4.72237C10.2976 3.74755 9.20899 2.44301 8.49312 0.9315C8.33075 0.588 7.99775 0.375 7.625 0.375C7.25225 0.375 6.91925 0.588 6.75688 0.9315C6.04133 2.44333 4.95248 3.74797 3.593 4.72237C3.44949 4.82419 3.33222 4.95865 3.25085 5.11466C3.16949 5.27068 3.12635 5.4438 3.125 5.61975V6.375H4.84475L3.76512 7.45463C3.35665 7.86541 3.12664 8.4207 3.125 9V9.375H4.84475L3.76512 10.4546C3.35665 10.8654 3.12664 11.4207 3.125 12V12.375H7.25V13.875C6.79079 13.8756 6.3477 14.0444 6.00454 14.3495C5.66139 14.6547 5.44195 15.075 5.38775 15.531C5.05044 15.6744 4.76275 15.9138 4.56045 16.2195C4.35816 16.5251 4.2502 16.8835 4.25 17.25C4.25 17.6644 4.38837 18.0626 4.62387 18.375C4.32582 18.3757 4.04019 18.4945 3.82954 18.7053C3.6189 18.9162 3.5004 19.2019 3.5 19.5C3.5 19.5995 3.46049 19.6948 3.39016 19.7652C3.31984 19.8355 3.22446 19.875 3.125 19.875H2C1.37975 19.875 0.875 20.3797 0.875 21C0.875 21.6203 1.37975 22.125 2 22.125H3.944C3.89959 22.2451 3.87624 22.372 3.875 22.5C3.875 23.1203 4.37975 23.625 5 23.625H19.625C20.2453 23.625 20.75 23.1203 20.75 22.5C20.75 21.8797 20.2453 21.375 19.625 21.375H18.5C18.4005 21.375 18.3052 21.3355 18.2348 21.2652C18.1645 21.1948 18.125 21.0995 18.125 21C18.125 20.9005 18.1645 20.8052 18.2348 20.7348C18.3052 20.6645 18.4005 20.625 18.5 20.625H23C23.6203 20.625 24.125 20.1203 24.125 19.5C24.125 18.8797 23.6203 18.375 23 18.375ZM20.2663 18.375H15.2356C15.3241 18.2221 15.4638 18.1054 15.6301 18.0457L15.8904 17.955L15.8814 17.6794C15.8815 17.6611 15.8793 17.6428 15.875 17.625C15.875 17.0047 16.3798 16.5 17 16.5C17.4005 16.5 17.774 16.7213 17.975 17.0771L18.0639 17.235L18.2431 17.2631C18.5319 17.3089 18.7681 17.5215 18.845 17.8054L18.9552 18.2126L19.3468 18.0551C19.7075 17.9111 20.0859 18.0784 20.2663 18.375ZM14.375 16.0894C15.2113 15.945 15.9399 15.3263 16.4165 14.4345C16.5904 14.6122 16.7978 14.7536 17.0267 14.8507C17.2555 14.9478 17.5014 14.9985 17.75 15C18.1737 15 18.5607 14.8534 18.875 14.6152V16.7122C18.7688 16.648 18.6549 16.5973 18.536 16.5615C18.3646 16.3122 18.1354 16.1081 17.8679 15.9667C17.6003 15.8254 17.3026 15.751 17 15.75C16.533 15.7505 16.0829 15.9251 15.7377 16.2396C15.3924 16.5542 15.1768 16.986 15.1329 17.451C14.9592 17.5501 14.8071 17.6829 14.6854 17.8416C14.5637 18.0002 14.4749 18.1816 14.4241 18.375H14.375V16.0894ZM16.6734 8.12963L16.9167 7.93313L16.7671 7.65863C16.6757 7.4955 16.6268 7.31199 16.625 7.125C16.625 6.50475 17.1298 6 17.7256 5.99887L18.0897 6.01763L18.1647 5.72287C18.2919 5.22375 18.7385 4.875 19.25 4.875C19.7615 4.875 20.2081 5.22375 20.3356 5.72287L20.4106 6.01763L20.7151 6.00488C20.735 6.00413 20.7549 6.00187 20.75 6C21.3703 6 21.875 6.50475 21.875 7.125C21.875 7.30538 21.827 7.485 21.7329 7.65825L21.5833 7.93275L21.8266 8.12925C21.958 8.23337 22.0642 8.36569 22.1375 8.51641C22.2108 8.66713 22.2492 8.83241 22.25 9C22.25 9.333 22.1019 9.57675 21.9777 9.723L21.6909 10.0609L22.0719 10.2874C22.2475 10.3896 22.3917 10.5379 22.4891 10.7162C22.5866 10.8945 22.6334 11.096 22.6245 11.299C22.6157 11.502 22.5515 11.6987 22.439 11.8678C22.3264 12.037 22.1698 12.1722 21.986 12.2587L21.6774 12.408L21.7985 12.7286C21.8495 12.8636 21.875 12.9967 21.875 13.125C21.875 13.7452 21.3703 14.25 20.75 14.25C20.1297 14.25 19.625 13.7452 19.625 13.125V12.132L21.0429 10.3594L20.4567 9.89062L19.625 10.9305V7.125H18.875V9.4305L18.0429 8.39062L17.4567 8.85938L18.875 10.632V13.125C18.875 13.7452 18.3703 14.25 17.75 14.25C17.5437 14.2487 17.3416 14.191 17.1657 14.0832C16.9898 13.9754 16.8466 13.8216 16.7518 13.6384C16.9108 13.1355 17 12.582 17 12C17 10.9579 16.7154 10.0076 16.25 9.28088V9C16.25 8.664 16.4041 8.34675 16.6734 8.12963ZM14 8.625C15.2409 8.625 16.25 10.1389 16.25 12C16.25 13.6691 15.4374 15.0551 14.375 15.3244V12.507L15.7929 10.7344L15.2067 10.2656L14.375 11.3055V10.125H13.625V13.0114L12.812 11.7919L12.188 12.2078L13.625 14.3636V15.3244C12.5626 15.0555 11.75 13.6691 11.75 12C11.75 10.1389 12.7591 8.625 14 8.625ZM11.6877 9.375C11.523 9.65332 11.3882 9.94835 11.2857 10.2551L10.4052 9.375H11.6877ZM4.29538 10.9849L5.90525 9.375H6.5V8.625H3.92563C3.99139 8.38322 4.1188 8.16265 4.29538 7.98487L5.90525 6.375H6.5V5.625H3.875V5.61975C3.875 5.50763 3.93125 5.40263 4.02988 5.33175C5.49285 4.28304 6.66467 2.87905 7.43488 1.25213C7.50875 1.09462 7.74087 1.09462 7.81512 1.25213C8.58544 2.87887 9.75708 4.28281 11.2198 5.33175C11.3188 5.40263 11.375 5.508 11.375 5.61975L8.75 5.625V6.375H9.34475L10.9546 7.98487C11.132 8.16225 11.2591 8.38463 11.3244 8.625H8.75V9.375H9.34475L10.9546 10.9849C10.9966 11.0269 11.0349 11.0711 11.0709 11.1173C11.0446 11.283 11.0251 11.4521 11.0139 11.625H3.92563C3.99123 11.3832 4.11866 11.1625 4.29538 10.9849ZM8 12.375H11.0139C11.141 14.3033 12.2367 15.8497 13.625 16.0894V18.375H12.119C12.3647 18.0513 12.4985 17.6564 12.5 17.25C12.5 16.2161 11.6589 15.375 10.625 15.375C10.5076 15.375 10.3891 15.387 10.2714 15.411C10.0997 15.1673 9.87177 14.9686 9.60691 14.8317C9.34206 14.6949 9.04811 14.624 8.75 14.625H8.74213C8.54889 14.3692 8.29341 14.167 8 14.0377V12.375ZM5.84787 16.1644L6.14262 16.0894L6.12987 15.7849C6.1303 15.7727 6.12878 15.7606 6.12538 15.7489L6.125 15.7496C6.125 15.1294 6.62975 14.6246 7.25 14.6246C7.65163 14.6246 8.02512 14.8463 8.22575 15.2029L8.38363 15.4219L8.6375 15.3862C8.67425 15.3817 8.71138 15.375 8.75 15.375C9.182 15.375 9.56863 15.6195 9.75875 16.0136L9.908 16.3234L10.2294 16.2011C11.0011 15.9086 11.7504 16.5004 11.75 17.25C11.75 17.5725 11.6112 17.8804 11.3686 18.0938L11.1515 18.375H5.64388L5.381 18.0938C5.26127 17.9882 5.16538 17.8584 5.09969 17.7129C5.034 17.5674 5.00001 17.4096 5 17.25C5 16.7385 5.34875 16.2919 5.84787 16.1644ZM23 19.875H18.5C17.8797 19.875 17.375 20.3797 17.375 21C17.375 21.132 17.402 21.2572 17.444 21.375H16.625V22.125H19.625C19.7245 22.125 19.8198 22.1645 19.8902 22.2348C19.9605 22.3052 20 22.4005 20 22.5C20 22.5995 19.9605 22.6948 19.8902 22.7652C19.8198 22.8355 19.7245 22.875 19.625 22.875H5C4.90054 22.875 4.80516 22.8355 4.73484 22.7652C4.66451 22.6948 4.625 22.5995 4.625 22.5C4.625 22.4005 4.66451 22.3052 4.73484 22.2348C4.80516 22.1645 4.90054 22.125 5 22.125H7.25V21.375H2C1.90054 21.375 1.80516 21.3355 1.73483 21.2652C1.66451 21.1948 1.625 21.0995 1.625 21C1.625 20.9005 1.66451 20.8052 1.73483 20.7348C1.80516 20.6645 1.90054 20.625 2 20.625H3.125C3.74525 20.625 4.25 20.1203 4.25 19.5C4.25 19.4005 4.28951 19.3052 4.35984 19.2348C4.43016 19.1645 4.52554 19.125 4.625 19.125H23C23.0995 19.125 23.1948 19.1645 23.2652 19.2348C23.3355 19.3052 23.375 19.4005 23.375 19.5C23.375 19.5995 23.3355 19.6948 23.2652 19.7652C23.1948 19.8355 23.0995 19.875 23 19.875Z"/>
</mask>
<path d="M23 18.375H21.0718C20.9041 17.7296 20.3221 17.25 19.625 17.25V14.6152C19.9476 14.8634 20.3429 14.9986 20.75 15C21.7839 15 22.625 14.1589 22.625 13.125C22.6249 13.0062 22.6128 12.8877 22.589 12.7714C22.8327 12.5997 23.0313 12.3717 23.1682 12.1069C23.305 11.842 23.3759 11.5481 23.375 11.25C23.3758 10.9925 23.3227 10.7376 23.2193 10.5018C23.1158 10.266 22.9642 10.0543 22.7743 9.8805C22.9215 9.61031 22.9991 9.3077 23 9C22.9996 8.53685 22.826 8.0906 22.5133 7.749C22.587 7.54921 22.6248 7.33796 22.625 7.125C22.6245 6.66579 22.4556 6.2227 22.1505 5.87954C21.8453 5.53639 21.425 5.31695 20.969 5.26275C20.6784 4.58063 20.0071 4.125 19.25 4.125C18.4929 4.125 17.8216 4.58063 17.531 5.26275C17.075 5.31695 16.6547 5.53639 16.3495 5.87954C16.0444 6.2227 15.8756 6.66579 15.875 7.125C15.875 7.33725 15.9125 7.54612 15.9867 7.749C15.7941 7.9635 15.654 8.21989 15.5776 8.49788C15.1186 8.10562 14.579 7.875 14 7.875C13.286 7.875 12.6305 8.22075 12.1149 8.79562C12.0661 8.28927 11.8435 7.81544 11.4849 7.45463L10.4052 6.375H12.125V5.61975C12.1237 5.44375 12.0805 5.27059 11.9991 5.11456C11.9176 4.95853 11.8002 4.82411 11.6566 4.72237C10.2976 3.74755 9.20899 2.44301 8.49312 0.9315C8.33075 0.588 7.99775 0.375 7.625 0.375C7.25225 0.375 6.91925 0.588 6.75688 0.9315C6.04133 2.44333 4.95248 3.74797 3.593 4.72237C3.44949 4.82419 3.33222 4.95865 3.25085 5.11466C3.16949 5.27068 3.12635 5.4438 3.125 5.61975V6.375H4.84475L3.76512 7.45463C3.35665 7.86541 3.12664 8.4207 3.125 9V9.375H4.84475L3.76512 10.4546C3.35665 10.8654 3.12664 11.4207 3.125 12V12.375H7.25V13.875C6.79079 13.8756 6.3477 14.0444 6.00454 14.3495C5.66139 14.6547 5.44195 15.075 5.38775 15.531C5.05044 15.6744 4.76275 15.9138 4.56045 16.2195C4.35816 16.5251 4.2502 16.8835 4.25 17.25C4.25 17.6644 4.38837 18.0626 4.62387 18.375C4.32582 18.3757 4.04019 18.4945 3.82954 18.7053C3.6189 18.9162 3.5004 19.2019 3.5 19.5C3.5 19.5995 3.46049 19.6948 3.39016 19.7652C3.31984 19.8355 3.22446 19.875 3.125 19.875H2C1.37975 19.875 0.875 20.3797 0.875 21C0.875 21.6203 1.37975 22.125 2 22.125H3.944C3.89959 22.2451 3.87624 22.372 3.875 22.5C3.875 23.1203 4.37975 23.625 5 23.625H19.625C20.2453 23.625 20.75 23.1203 20.75 22.5C20.75 21.8797 20.2453 21.375 19.625 21.375H18.5C18.4005 21.375 18.3052 21.3355 18.2348 21.2652C18.1645 21.1948 18.125 21.0995 18.125 21C18.125 20.9005 18.1645 20.8052 18.2348 20.7348C18.3052 20.6645 18.4005 20.625 18.5 20.625H23C23.6203 20.625 24.125 20.1203 24.125 19.5C24.125 18.8797 23.6203 18.375 23 18.375ZM20.2663 18.375H15.2356C15.3241 18.2221 15.4638 18.1054 15.6301 18.0457L15.8904 17.955L15.8814 17.6794C15.8815 17.6611 15.8793 17.6428 15.875 17.625C15.875 17.0047 16.3798 16.5 17 16.5C17.4005 16.5 17.774 16.7213 17.975 17.0771L18.0639 17.235L18.2431 17.2631C18.5319 17.3089 18.7681 17.5215 18.845 17.8054L18.9552 18.2126L19.3468 18.0551C19.7075 17.9111 20.0859 18.0784 20.2663 18.375ZM14.375 16.0894C15.2113 15.945 15.9399 15.3263 16.4165 14.4345C16.5904 14.6122 16.7978 14.7536 17.0267 14.8507C17.2555 14.9478 17.5014 14.9985 17.75 15C18.1737 15 18.5607 14.8534 18.875 14.6152V16.7122C18.7688 16.648 18.6549 16.5973 18.536 16.5615C18.3646 16.3122 18.1354 16.1081 17.8679 15.9667C17.6003 15.8254 17.3026 15.751 17 15.75C16.533 15.7505 16.0829 15.9251 15.7377 16.2396C15.3924 16.5542 15.1768 16.986 15.1329 17.451C14.9592 17.5501 14.8071 17.6829 14.6854 17.8416C14.5637 18.0002 14.4749 18.1816 14.4241 18.375H14.375V16.0894ZM16.6734 8.12963L16.9167 7.93313L16.7671 7.65863C16.6757 7.4955 16.6268 7.31199 16.625 7.125C16.625 6.50475 17.1298 6 17.7256 5.99887L18.0897 6.01763L18.1647 5.72287C18.2919 5.22375 18.7385 4.875 19.25 4.875C19.7615 4.875 20.2081 5.22375 20.3356 5.72287L20.4106 6.01763L20.7151 6.00488C20.735 6.00413 20.7549 6.00187 20.75 6C21.3703 6 21.875 6.50475 21.875 7.125C21.875 7.30538 21.827 7.485 21.7329 7.65825L21.5833 7.93275L21.8266 8.12925C21.958 8.23337 22.0642 8.36569 22.1375 8.51641C22.2108 8.66713 22.2492 8.83241 22.25 9C22.25 9.333 22.1019 9.57675 21.9777 9.723L21.6909 10.0609L22.0719 10.2874C22.2475 10.3896 22.3917 10.5379 22.4891 10.7162C22.5866 10.8945 22.6334 11.096 22.6245 11.299C22.6157 11.502 22.5515 11.6987 22.439 11.8678C22.3264 12.037 22.1698 12.1722 21.986 12.2587L21.6774 12.408L21.7985 12.7286C21.8495 12.8636 21.875 12.9967 21.875 13.125C21.875 13.7452 21.3703 14.25 20.75 14.25C20.1297 14.25 19.625 13.7452 19.625 13.125V12.132L21.0429 10.3594L20.4567 9.89062L19.625 10.9305V7.125H18.875V9.4305L18.0429 8.39062L17.4567 8.85938L18.875 10.632V13.125C18.875 13.7452 18.3703 14.25 17.75 14.25C17.5437 14.2487 17.3416 14.191 17.1657 14.0832C16.9898 13.9754 16.8466 13.8216 16.7518 13.6384C16.9108 13.1355 17 12.582 17 12C17 10.9579 16.7154 10.0076 16.25 9.28088V9C16.25 8.664 16.4041 8.34675 16.6734 8.12963ZM14 8.625C15.2409 8.625 16.25 10.1389 16.25 12C16.25 13.6691 15.4374 15.0551 14.375 15.3244V12.507L15.7929 10.7344L15.2067 10.2656L14.375 11.3055V10.125H13.625V13.0114L12.812 11.7919L12.188 12.2078L13.625 14.3636V15.3244C12.5626 15.0555 11.75 13.6691 11.75 12C11.75 10.1389 12.7591 8.625 14 8.625ZM11.6877 9.375C11.523 9.65332 11.3882 9.94835 11.2857 10.2551L10.4052 9.375H11.6877ZM4.29538 10.9849L5.90525 9.375H6.5V8.625H3.92563C3.99139 8.38322 4.1188 8.16265 4.29538 7.98487L5.90525 6.375H6.5V5.625H3.875V5.61975C3.875 5.50763 3.93125 5.40263 4.02988 5.33175C5.49285 4.28304 6.66467 2.87905 7.43488 1.25213C7.50875 1.09462 7.74087 1.09462 7.81512 1.25213C8.58544 2.87887 9.75708 4.28281 11.2198 5.33175C11.3188 5.40263 11.375 5.508 11.375 5.61975L8.75 5.625V6.375H9.34475L10.9546 7.98487C11.132 8.16225 11.2591 8.38463 11.3244 8.625H8.75V9.375H9.34475L10.9546 10.9849C10.9966 11.0269 11.0349 11.0711 11.0709 11.1173C11.0446 11.283 11.0251 11.4521 11.0139 11.625H3.92563C3.99123 11.3832 4.11866 11.1625 4.29538 10.9849ZM8 12.375H11.0139C11.141 14.3033 12.2367 15.8497 13.625 16.0894V18.375H12.119C12.3647 18.0513 12.4985 17.6564 12.5 17.25C12.5 16.2161 11.6589 15.375 10.625 15.375C10.5076 15.375 10.3891 15.387 10.2714 15.411C10.0997 15.1673 9.87177 14.9686 9.60691 14.8317C9.34206 14.6949 9.04811 14.624 8.75 14.625H8.74213C8.54889 14.3692 8.29341 14.167 8 14.0377V12.375ZM5.84787 16.1644L6.14262 16.0894L6.12987 15.7849C6.1303 15.7727 6.12878 15.7606 6.12538 15.7489L6.125 15.7496C6.125 15.1294 6.62975 14.6246 7.25 14.6246C7.65163 14.6246 8.02512 14.8463 8.22575 15.2029L8.38363 15.4219L8.6375 15.3862C8.67425 15.3817 8.71138 15.375 8.75 15.375C9.182 15.375 9.56863 15.6195 9.75875 16.0136L9.908 16.3234L10.2294 16.2011C11.0011 15.9086 11.7504 16.5004 11.75 17.25C11.75 17.5725 11.6112 17.8804 11.3686 18.0938L11.1515 18.375H5.64388L5.381 18.0938C5.26127 17.9882 5.16538 17.8584 5.09969 17.7129C5.034 17.5674 5.00001 17.4096 5 17.25C5 16.7385 5.34875 16.2919 5.84787 16.1644ZM23 19.875H18.5C17.8797 19.875 17.375 20.3797 17.375 21C17.375 21.132 17.402 21.2572 17.444 21.375H16.625V22.125H19.625C19.7245 22.125 19.8198 22.1645 19.8902 22.2348C19.9605 22.3052 20 22.4005 20 22.5C20 22.5995 19.9605 22.6948 19.8902 22.7652C19.8198 22.8355 19.7245 22.875 19.625 22.875H5C4.90054 22.875 4.80516 22.8355 4.73484 22.7652C4.66451 22.6948 4.625 22.5995 4.625 22.5C4.625 22.4005 4.66451 22.3052 4.73484 22.2348C4.80516 22.1645 4.90054 22.125 5 22.125H7.25V21.375H2C1.90054 21.375 1.80516 21.3355 1.73483 21.2652C1.66451 21.1948 1.625 21.0995 1.625 21C1.625 20.9005 1.66451 20.8052 1.73483 20.7348C1.80516 20.6645 1.90054 20.625 2 20.625H3.125C3.74525 20.625 4.25 20.1203 4.25 19.5C4.25 19.4005 4.28951 19.3052 4.35984 19.2348C4.43016 19.1645 4.52554 19.125 4.625 19.125H23C23.0995 19.125 23.1948 19.1645 23.2652 19.2348C23.3355 19.3052 23.375 19.4005 23.375 19.5C23.375 19.5995 23.3355 19.6948 23.2652 19.7652C23.1948 19.8355 23.0995 19.875 23 19.875Z" fill="#2B2B2B"/>
<path d="M23 18.375H21.0718C20.9041 17.7296 20.3221 17.25 19.625 17.25V14.6152C19.9476 14.8634 20.3429 14.9986 20.75 15C21.7839 15 22.625 14.1589 22.625 13.125C22.6249 13.0062 22.6128 12.8877 22.589 12.7714C22.8327 12.5997 23.0313 12.3717 23.1682 12.1069C23.305 11.842 23.3759 11.5481 23.375 11.25C23.3758 10.9925 23.3227 10.7376 23.2193 10.5018C23.1158 10.266 22.9642 10.0543 22.7743 9.8805C22.9215 9.61031 22.9991 9.3077 23 9C22.9996 8.53685 22.826 8.0906 22.5133 7.749C22.587 7.54921 22.6248 7.33796 22.625 7.125C22.6245 6.66579 22.4556 6.2227 22.1505 5.87954C21.8453 5.53639 21.425 5.31695 20.969 5.26275C20.6784 4.58063 20.0071 4.125 19.25 4.125C18.4929 4.125 17.8216 4.58063 17.531 5.26275C17.075 5.31695 16.6547 5.53639 16.3495 5.87954C16.0444 6.2227 15.8756 6.66579 15.875 7.125C15.875 7.33725 15.9125 7.54612 15.9867 7.749C15.7941 7.9635 15.654 8.21989 15.5776 8.49788C15.1186 8.10562 14.579 7.875 14 7.875C13.286 7.875 12.6305 8.22075 12.1149 8.79562C12.0661 8.28927 11.8435 7.81544 11.4849 7.45463L10.4052 6.375H12.125V5.61975C12.1237 5.44375 12.0805 5.27059 11.9991 5.11456C11.9176 4.95853 11.8002 4.82411 11.6566 4.72237C10.2976 3.74755 9.20899 2.44301 8.49312 0.9315C8.33075 0.588 7.99775 0.375 7.625 0.375C7.25225 0.375 6.91925 0.588 6.75688 0.9315C6.04133 2.44333 4.95248 3.74797 3.593 4.72237C3.44949 4.82419 3.33222 4.95865 3.25085 5.11466C3.16949 5.27068 3.12635 5.4438 3.125 5.61975V6.375H4.84475L3.76512 7.45463C3.35665 7.86541 3.12664 8.4207 3.125 9V9.375H4.84475L3.76512 10.4546C3.35665 10.8654 3.12664 11.4207 3.125 12V12.375H7.25V13.875C6.79079 13.8756 6.3477 14.0444 6.00454 14.3495C5.66139 14.6547 5.44195 15.075 5.38775 15.531C5.05044 15.6744 4.76275 15.9138 4.56045 16.2195C4.35816 16.5251 4.2502 16.8835 4.25 17.25C4.25 17.6644 4.38837 18.0626 4.62387 18.375C4.32582 18.3757 4.04019 18.4945 3.82954 18.7053C3.6189 18.9162 3.5004 19.2019 3.5 19.5C3.5 19.5995 3.46049 19.6948 3.39016 19.7652C3.31984 19.8355 3.22446 19.875 3.125 19.875H2C1.37975 19.875 0.875 20.3797 0.875 21C0.875 21.6203 1.37975 22.125 2 22.125H3.944C3.89959 22.2451 3.87624 22.372 3.875 22.5C3.875 23.1203 4.37975 23.625 5 23.625H19.625C20.2453 23.625 20.75 23.1203 20.75 22.5C20.75 21.8797 20.2453 21.375 19.625 21.375H18.5C18.4005 21.375 18.3052 21.3355 18.2348 21.2652C18.1645 21.1948 18.125 21.0995 18.125 21C18.125 20.9005 18.1645 20.8052 18.2348 20.7348C18.3052 20.6645 18.4005 20.625 18.5 20.625H23C23.6203 20.625 24.125 20.1203 24.125 19.5C24.125 18.8797 23.6203 18.375 23 18.375ZM20.2663 18.375H15.2356C15.3241 18.2221 15.4638 18.1054 15.6301 18.0457L15.8904 17.955L15.8814 17.6794C15.8815 17.6611 15.8793 17.6428 15.875 17.625C15.875 17.0047 16.3798 16.5 17 16.5C17.4005 16.5 17.774 16.7213 17.975 17.0771L18.0639 17.235L18.2431 17.2631C18.5319 17.3089 18.7681 17.5215 18.845 17.8054L18.9552 18.2126L19.3468 18.0551C19.7075 17.9111 20.0859 18.0784 20.2663 18.375ZM14.375 16.0894C15.2113 15.945 15.9399 15.3263 16.4165 14.4345C16.5904 14.6122 16.7978 14.7536 17.0267 14.8507C17.2555 14.9478 17.5014 14.9985 17.75 15C18.1737 15 18.5607 14.8534 18.875 14.6152V16.7122C18.7688 16.648 18.6549 16.5973 18.536 16.5615C18.3646 16.3122 18.1354 16.1081 17.8679 15.9667C17.6003 15.8254 17.3026 15.751 17 15.75C16.533 15.7505 16.0829 15.9251 15.7377 16.2396C15.3924 16.5542 15.1768 16.986 15.1329 17.451C14.9592 17.5501 14.8071 17.6829 14.6854 17.8416C14.5637 18.0002 14.4749 18.1816 14.4241 18.375H14.375V16.0894ZM16.6734 8.12963L16.9167 7.93313L16.7671 7.65863C16.6757 7.4955 16.6268 7.31199 16.625 7.125C16.625 6.50475 17.1298 6 17.7256 5.99887L18.0897 6.01763L18.1647 5.72287C18.2919 5.22375 18.7385 4.875 19.25 4.875C19.7615 4.875 20.2081 5.22375 20.3356 5.72287L20.4106 6.01763L20.7151 6.00488C20.735 6.00413 20.7549 6.00187 20.75 6C21.3703 6 21.875 6.50475 21.875 7.125C21.875 7.30538 21.827 7.485 21.7329 7.65825L21.5833 7.93275L21.8266 8.12925C21.958 8.23337 22.0642 8.36569 22.1375 8.51641C22.2108 8.66713 22.2492 8.83241 22.25 9C22.25 9.333 22.1019 9.57675 21.9777 9.723L21.6909 10.0609L22.0719 10.2874C22.2475 10.3896 22.3917 10.5379 22.4891 10.7162C22.5866 10.8945 22.6334 11.096 22.6245 11.299C22.6157 11.502 22.5515 11.6987 22.439 11.8678C22.3264 12.037 22.1698 12.1722 21.986 12.2587L21.6774 12.408L21.7985 12.7286C21.8495 12.8636 21.875 12.9967 21.875 13.125C21.875 13.7452 21.3703 14.25 20.75 14.25C20.1297 14.25 19.625 13.7452 19.625 13.125V12.132L21.0429 10.3594L20.4567 9.89062L19.625 10.9305V7.125H18.875V9.4305L18.0429 8.39062L17.4567 8.85938L18.875 10.632V13.125C18.875 13.7452 18.3703 14.25 17.75 14.25C17.5437 14.2487 17.3416 14.191 17.1657 14.0832C16.9898 13.9754 16.8466 13.8216 16.7518 13.6384C16.9108 13.1355 17 12.582 17 12C17 10.9579 16.7154 10.0076 16.25 9.28088V9C16.25 8.664 16.4041 8.34675 16.6734 8.12963ZM14 8.625C15.2409 8.625 16.25 10.1389 16.25 12C16.25 13.6691 15.4374 15.0551 14.375 15.3244V12.507L15.7929 10.7344L15.2067 10.2656L14.375 11.3055V10.125H13.625V13.0114L12.812 11.7919L12.188 12.2078L13.625 14.3636V15.3244C12.5626 15.0555 11.75 13.6691 11.75 12C11.75 10.1389 12.7591 8.625 14 8.625ZM11.6877 9.375C11.523 9.65332 11.3882 9.94835 11.2857 10.2551L10.4052 9.375H11.6877ZM4.29538 10.9849L5.90525 9.375H6.5V8.625H3.92563C3.99139 8.38322 4.1188 8.16265 4.29538 7.98487L5.90525 6.375H6.5V5.625H3.875V5.61975C3.875 5.50763 3.93125 5.40263 4.02988 5.33175C5.49285 4.28304 6.66467 2.87905 7.43488 1.25213C7.50875 1.09462 7.74087 1.09462 7.81512 1.25213C8.58544 2.87887 9.75708 4.28281 11.2198 5.33175C11.3188 5.40263 11.375 5.508 11.375 5.61975L8.75 5.625V6.375H9.34475L10.9546 7.98487C11.132 8.16225 11.2591 8.38463 11.3244 8.625H8.75V9.375H9.34475L10.9546 10.9849C10.9966 11.0269 11.0349 11.0711 11.0709 11.1173C11.0446 11.283 11.0251 11.4521 11.0139 11.625H3.92563C3.99123 11.3832 4.11866 11.1625 4.29538 10.9849ZM8 12.375H11.0139C11.141 14.3033 12.2367 15.8497 13.625 16.0894V18.375H12.119C12.3647 18.0513 12.4985 17.6564 12.5 17.25C12.5 16.2161 11.6589 15.375 10.625 15.375C10.5076 15.375 10.3891 15.387 10.2714 15.411C10.0997 15.1673 9.87177 14.9686 9.60691 14.8317C9.34206 14.6949 9.04811 14.624 8.75 14.625H8.74213C8.54889 14.3692 8.29341 14.167 8 14.0377V12.375ZM5.84787 16.1644L6.14262 16.0894L6.12987 15.7849C6.1303 15.7727 6.12878 15.7606 6.12538 15.7489L6.125 15.7496C6.125 15.1294 6.62975 14.6246 7.25 14.6246C7.65163 14.6246 8.02512 14.8463 8.22575 15.2029L8.38363 15.4219L8.6375 15.3862C8.67425 15.3817 8.71138 15.375 8.75 15.375C9.182 15.375 9.56863 15.6195 9.75875 16.0136L9.908 16.3234L10.2294 16.2011C11.0011 15.9086 11.7504 16.5004 11.75 17.25C11.75 17.5725 11.6112 17.8804 11.3686 18.0938L11.1515 18.375H5.64388L5.381 18.0938C5.26127 17.9882 5.16538 17.8584 5.09969 17.7129C5.034 17.5674 5.00001 17.4096 5 17.25C5 16.7385 5.34875 16.2919 5.84787 16.1644ZM23 19.875H18.5C17.8797 19.875 17.375 20.3797 17.375 21C17.375 21.132 17.402 21.2572 17.444 21.375H16.625V22.125H19.625C19.7245 22.125 19.8198 22.1645 19.8902 22.2348C19.9605 22.3052 20 22.4005 20 22.5C20 22.5995 19.9605 22.6948 19.8902 22.7652C19.8198 22.8355 19.7245 22.875 19.625 22.875H5C4.90054 22.875 4.80516 22.8355 4.73484 22.7652C4.66451 22.6948 4.625 22.5995 4.625 22.5C4.625 22.4005 4.66451 22.3052 4.73484 22.2348C4.80516 22.1645 4.90054 22.125 5 22.125H7.25V21.375H2C1.90054 21.375 1.80516 21.3355 1.73483 21.2652C1.66451 21.1948 1.625 21.0995 1.625 21C1.625 20.9005 1.66451 20.8052 1.73483 20.7348C1.80516 20.6645 1.90054 20.625 2 20.625H3.125C3.74525 20.625 4.25 20.1203 4.25 19.5C4.25 19.4005 4.28951 19.3052 4.35984 19.2348C4.43016 19.1645 4.52554 19.125 4.625 19.125H23C23.0995 19.125 23.1948 19.1645 23.2652 19.2348C23.3355 19.3052 23.375 19.4005 23.375 19.5C23.375 19.5995 23.3355 19.6948 23.2652 19.7652C23.1948 19.8355 23.0995 19.875 23 19.875Z" stroke="#2B2B2B" stroke-width="0.4" mask="url(#path-1-outside-1_4222_12601)"/>
<path d="M7.25 19.775H7.15V19.875V20.625V20.725H7.25H8.5625C8.6104 20.725 8.65 20.7646 8.65 20.8125C8.65 21.3849 9.11515 21.85 9.6875 21.85H11H11.1V21.75V21V20.9H11H9.68761C9.66439 20.8999 9.64215 20.8907 9.62574 20.8743C9.6093 20.8578 9.60005 20.8355 9.6 20.8123C9.59989 20.24 9.13479 19.775 8.5625 19.775H7.25Z" fill="#2B2B2B" stroke="#2B2B2B" stroke-width="0.2"/>
</g>
<defs>
<clipPath id="clip0_4222_12601">
<rect width="24" height="24" fill="white" transform="translate(0.5)"/>
</clipPath>
</defs>
</svg>
