<svg width="25" height="24" viewBox="0 0 25 24" fill="none" xmlns="http://www.w3.org/2000/svg">
<g opacity="0.6">
<path d="M15.3013 8.31771L15.3012 8.31776C15.2433 8.3409 15.1813 8.3524 15.1189 8.35161C15.0566 8.35081 14.9949 8.33774 14.9376 8.31312C14.8803 8.28851 14.8283 8.25285 14.7848 8.20817C14.7412 8.16349 14.7069 8.11067 14.6838 8.05273C14.6606 7.99478 14.6491 7.93285 14.6499 7.87046C14.6507 7.80807 14.6638 7.74645 14.6884 7.68911C14.713 7.63178 14.7487 7.57985 14.7933 7.5363C14.838 7.49275 14.8908 7.45843 14.9487 7.43529C14.9488 7.43529 14.9488 7.43528 14.9488 7.43527L18.3136 6.08958L17.8517 4.24037L17.8513 4.23871L17.8513 4.2387C17.7775 3.91988 17.8318 3.58482 18.0026 3.30566C18.1734 3.0265 18.447 2.82558 18.7645 2.74616C19.0819 2.66674 19.4179 2.71517 19.7 2.88102C19.9821 3.04688 20.1878 3.31689 20.2728 3.63292L20.2733 3.63458L20.2733 3.63459L20.9935 6.50889C20.9935 6.50898 20.9936 6.50907 20.9936 6.50915C21.0838 6.86238 21.0499 7.23586 20.8976 7.56709C20.7453 7.89836 20.4838 8.16725 20.1569 8.32874C20.1569 8.32876 20.1568 8.32878 20.1568 8.3288L15.9465 10.4313L15.6023 13.8755L15.8613 16.7298L15.3013 8.31771ZM15.3013 8.31771L16.7354 7.74259M15.3013 8.31771L16.7354 7.74259M16.7354 7.74259L17.1464 8.77059L15.2877 9.69994L15.2877 9.69995L15.3324 9.78939C15.2757 9.8177 15.2272 9.85988 15.1913 9.91201C15.1553 9.96414 15.1332 10.0245 15.1269 10.0875L14.7875 13.5M16.7354 7.74259L11.375 13.4C11.249 13.4 11.1282 13.4501 11.0391 13.5391C10.95 13.6282 10.9 13.749 10.9 13.875C10.9 14.001 10.95 14.1218 11.0391 14.2109C11.1282 14.3 11.249 14.35 11.375 14.35H14.6913M14.7875 13.5V13.4H14.697L14.688 13.4901L14.7875 13.5ZM14.7875 13.5H11.375C11.2755 13.5 11.1802 13.5395 11.1098 13.6099C11.0395 13.6802 11 13.7756 11 13.875C11 13.9745 11.0395 14.0699 11.1098 14.1402C11.1802 14.2105 11.2755 14.25 11.375 14.25H14.7826M14.7826 14.25L14.683 14.2591L14.6913 14.35M14.7826 14.25V14.35H14.6913M14.7826 14.25L14.6913 14.35M14.6913 14.35L14.9152 16.8143L14.6913 14.35Z" fill="#2B2B2B" stroke="#2B2B2B" stroke-width="0.2"/>
<mask id="path-2-outside-1_4222_12510" maskUnits="userSpaceOnUse" x="1.72005" y="-0.25" width="20" height="24" fill="black">
<rect fill="white" x="1.72005" y="-0.25" width="20" height="24"/>
<path d="M10.7926 20.9625C10.8782 20.9197 10.9443 20.8458 10.9772 20.756C11.0101 20.6661 11.0074 20.567 10.9696 20.4791L9.9635 18.1316L11.9544 16.7096L12.8052 18.8374C12.9712 19.2555 13.2593 19.6138 13.632 19.8658C14.0046 20.1178 14.4445 20.2517 14.8944 20.25H18.5C18.5006 20.7471 18.6983 21.2236 19.0498 21.5751C19.4013 21.9267 19.8779 22.1244 20.375 22.125C20.4745 22.125 20.5698 22.0855 20.6402 22.0151C20.7105 21.9448 20.75 21.8494 20.75 21.75V17.625C20.75 17.5255 20.7105 17.4301 20.6402 17.3598C20.5698 17.2895 20.4745 17.25 20.375 17.25H19.25C19.1759 17.2501 19.1036 17.272 19.0419 17.313L18.0365 17.9835L15.5532 17.6287C15.4548 17.6146 15.3547 17.6402 15.2751 17.6998C15.1955 17.7595 15.1429 17.8483 15.1287 17.9467C15.1146 18.0452 15.1402 18.1452 15.1998 18.2248C15.2595 18.3044 15.3483 18.3571 15.4467 18.3712L17.8775 18.7185L18.2682 19.5H14.8932C14.5932 19.501 14.2999 19.4116 14.0515 19.2433C13.8031 19.0751 13.6112 18.8358 13.5009 18.5569L12.4722 15.9855C12.4511 15.9327 12.4183 15.8854 12.3762 15.8472C12.3342 15.809 12.284 15.7809 12.2294 15.7649C12.1749 15.7489 12.1174 15.7456 12.0614 15.7551C12.0054 15.7646 11.9522 15.7867 11.906 15.8197L9.281 17.6947C9.21136 17.7444 9.16082 17.8165 9.13776 17.8989C9.11471 17.9813 9.12052 18.0691 9.15425 18.1477L10.1397 20.4476L9.2465 20.895L7.6625 18.6311C7.46662 18.354 7.37102 18.0184 7.39147 17.6797C7.41192 17.3409 7.5472 17.0193 7.775 16.7677L10.1529 14.1259C10.1883 14.0866 10.215 14.0402 10.2312 13.9899C10.2474 13.9395 10.2528 13.8863 10.247 13.8337L9.872 10.4587C9.86636 10.4078 9.85034 10.3586 9.82493 10.3141C9.79951 10.2695 9.76525 10.2307 9.72425 10.2L8.37912 9.19123V7.35936L10.0816 8.21061C10.1339 8.23667 10.1916 8.25015 10.25 8.24998H11C11 8.64781 11.158 9.02934 11.4393 9.31064C11.7206 9.59195 12.1022 9.74998 12.5 9.74998C12.8978 9.74998 13.2794 9.59195 13.5607 9.31064C13.842 9.02934 14 8.64781 14 8.24998V7.67248C14.2357 7.4622 14.4243 7.20453 14.5536 6.91631C14.6828 6.6281 14.7498 6.31585 14.75 5.99998V5.38873C15.1625 5.1793 15.4923 4.83688 15.686 4.41682C15.8798 3.99677 15.9262 3.52363 15.8178 3.07392C15.7094 2.62421 15.4525 2.22421 15.0886 1.9386C14.7247 1.65298 14.2751 1.49845 13.8125 1.49998H13.2931C12.2939 1.49899 11.3097 1.25648 10.4244 0.793106C10.3802 0.769878 10.3319 0.755697 10.2821 0.751396C10.2324 0.747094 10.1824 0.752758 10.1349 0.768055C10.0874 0.783352 10.0434 0.807974 10.0055 0.84048C9.96767 0.872985 9.93668 0.91272 9.91437 0.957356L9.49625 1.79398C9.22942 2.32522 9.15872 2.93362 9.29661 3.51189C9.43451 4.09017 9.77215 4.60119 10.25 4.95486V5.99998C10.2501 6.55424 10.4559 7.08872 10.8275 7.49998H10.34L8.1875 6.42448C8.12603 6.38899 8.05576 6.37167 7.98484 6.37454C7.91392 6.3774 7.84527 6.40033 7.78687 6.44067C7.72847 6.481 7.68272 6.53708 7.65492 6.60239C7.62713 6.6677 7.61845 6.73956 7.62987 6.80961V8.69998L5.81525 7.56598C5.46358 7.346 5.16893 7.04596 4.95537 6.69036L3.54462 4.33761C3.48499 4.23194 3.46873 4.10724 3.49927 3.98981C3.5298 3.87238 3.60475 3.77141 3.70831 3.70817C3.81186 3.64494 3.93593 3.6244 4.05434 3.65088C4.17274 3.67736 4.27624 3.74879 4.343 3.85011L5.81187 6.19986C5.8538 6.26781 5.91653 6.32041 5.99075 6.34986L6.66575 6.61948C6.71175 6.63943 6.76129 6.64995 6.81142 6.65042C6.86156 6.65089 6.91129 6.64129 6.95765 6.62221C7.00402 6.60313 7.04609 6.57494 7.08137 6.53931C7.11666 6.50369 7.14444 6.46135 7.16307 6.4148C7.18171 6.36825 7.19082 6.31844 7.18986 6.26831C7.18891 6.21817 7.17791 6.16874 7.15752 6.12294C7.13713 6.07713 7.10777 6.03588 7.07115 6.00162C7.03454 5.96736 6.99143 5.94079 6.94437 5.92348L6.38375 5.69848L4.97862 3.44998C4.89491 3.3135 4.78513 3.19484 4.65555 3.10078C4.52597 3.00672 4.37914 2.93911 4.22344 2.9018C3.90897 2.82644 3.57745 2.87909 3.30181 3.04817C3.02617 3.21724 2.82898 3.48889 2.75363 3.80336C2.67827 4.11782 2.73092 4.44934 2.9 4.72498L4.31075 7.07586C4.5856 7.53249 4.96421 7.91791 5.41587 8.20086L7.76412 9.66861L7.7735 9.67573L9.14375 10.7036L9.48125 13.7501L7.21587 16.2667C6.87397 16.6439 6.67077 17.1263 6.63975 17.6344C6.60874 18.1425 6.75176 18.646 7.04525 19.062L8.42187 21.0289C7.98854 21.1065 7.59625 21.3339 7.31352 21.6713C7.03078 22.0087 6.87557 22.4348 6.875 22.875C6.875 22.9744 6.91451 23.0698 6.98483 23.1401C7.05516 23.2105 7.15054 23.25 7.25 23.25H11.375C11.4745 23.25 11.5698 23.2105 11.6402 23.1401C11.7105 23.0698 11.75 22.9744 11.75 22.875V21.75C11.75 21.6505 11.7105 21.5551 11.6402 21.4848C11.5698 21.4145 11.4745 21.375 11.375 21.375C11.2755 21.375 11.1802 21.4145 11.1098 21.4848C11.0395 21.5551 11 21.6505 11 21.75V22.5H7.68912C7.76697 22.2808 7.91071 22.091 8.10064 21.9568C8.29058 21.8225 8.5174 21.7503 8.75 21.75H9.125C9.183 21.749 9.23999 21.7347 9.2915 21.708L10.7926 20.9625ZM13.25 8.24998C13.25 8.44889 13.171 8.63966 13.0303 8.78031C12.8897 8.92096 12.6989 8.99998 12.5 8.99998C12.3011 8.99998 12.1103 8.92096 11.9697 8.78031C11.829 8.63966 11.75 8.44889 11.75 8.24998V8.11873C12.2347 8.29374 12.7653 8.29374 13.25 8.11873V8.24998ZM14 5.99998C14 6.39781 13.842 6.77934 13.5607 7.06064C13.2794 7.34195 12.8978 7.49998 12.5 7.49998C12.1022 7.49998 11.7206 7.34195 11.4393 7.06064C11.158 6.77934 11 6.39781 11 5.99998V4.32561L11.756 3.82161C12.4372 4.22728 13.208 4.4585 14 4.49473V5.99998ZM10.013 3.27861C9.936 2.8891 9.9902 2.48505 10.1671 2.12961L10.4191 1.62523C11.3217 2.03584 12.3016 2.24884 13.2931 2.24998H13.8125C14.1606 2.24998 14.4944 2.38826 14.7406 2.6344C14.9867 2.88054 15.125 3.21438 15.125 3.56248C15.1241 3.90339 14.9895 4.23034 14.75 4.47298V4.12498C14.75 4.02552 14.7105 3.93014 14.6402 3.85982C14.5698 3.78949 14.4745 3.74998 14.375 3.74998H14.225C13.4174 3.75085 12.6277 3.51173 11.9562 3.06298C11.8946 3.02187 11.8222 2.99992 11.7481 2.99992C11.674 2.99992 11.6016 3.02187 11.54 3.06298L10.415 3.81298C10.3655 3.84608 10.3248 3.89058 10.2961 3.94273C10.1571 3.74318 10.0607 3.5171 10.013 3.27861ZM18.6084 18.5036L19.3625 18H20V21.3109C19.7808 21.233 19.5911 21.0893 19.4568 20.8993C19.3225 20.7094 19.2503 20.4826 19.25 20.25V19.875C19.249 19.817 19.2342 19.76 19.2069 19.7089L18.6084 18.5036Z"/>
</mask>
<path d="M10.7926 20.9625C10.8782 20.9197 10.9443 20.8458 10.9772 20.756C11.0101 20.6661 11.0074 20.567 10.9696 20.4791L9.9635 18.1316L11.9544 16.7096L12.8052 18.8374C12.9712 19.2555 13.2593 19.6138 13.632 19.8658C14.0046 20.1178 14.4445 20.2517 14.8944 20.25H18.5C18.5006 20.7471 18.6983 21.2236 19.0498 21.5751C19.4013 21.9267 19.8779 22.1244 20.375 22.125C20.4745 22.125 20.5698 22.0855 20.6402 22.0151C20.7105 21.9448 20.75 21.8494 20.75 21.75V17.625C20.75 17.5255 20.7105 17.4301 20.6402 17.3598C20.5698 17.2895 20.4745 17.25 20.375 17.25H19.25C19.1759 17.2501 19.1036 17.272 19.0419 17.313L18.0365 17.9835L15.5532 17.6287C15.4548 17.6146 15.3547 17.6402 15.2751 17.6998C15.1955 17.7595 15.1429 17.8483 15.1287 17.9467C15.1146 18.0452 15.1402 18.1452 15.1998 18.2248C15.2595 18.3044 15.3483 18.3571 15.4467 18.3712L17.8775 18.7185L18.2682 19.5H14.8932C14.5932 19.501 14.2999 19.4116 14.0515 19.2433C13.8031 19.0751 13.6112 18.8358 13.5009 18.5569L12.4722 15.9855C12.4511 15.9327 12.4183 15.8854 12.3762 15.8472C12.3342 15.809 12.284 15.7809 12.2294 15.7649C12.1749 15.7489 12.1174 15.7456 12.0614 15.7551C12.0054 15.7646 11.9522 15.7867 11.906 15.8197L9.281 17.6947C9.21136 17.7444 9.16082 17.8165 9.13776 17.8989C9.11471 17.9813 9.12052 18.0691 9.15425 18.1477L10.1397 20.4476L9.2465 20.895L7.6625 18.6311C7.46662 18.354 7.37102 18.0184 7.39147 17.6797C7.41192 17.3409 7.5472 17.0193 7.775 16.7677L10.1529 14.1259C10.1883 14.0866 10.215 14.0402 10.2312 13.9899C10.2474 13.9395 10.2528 13.8863 10.247 13.8337L9.872 10.4587C9.86636 10.4078 9.85034 10.3586 9.82493 10.3141C9.79951 10.2695 9.76525 10.2307 9.72425 10.2L8.37912 9.19123V7.35936L10.0816 8.21061C10.1339 8.23667 10.1916 8.25015 10.25 8.24998H11C11 8.64781 11.158 9.02934 11.4393 9.31064C11.7206 9.59195 12.1022 9.74998 12.5 9.74998C12.8978 9.74998 13.2794 9.59195 13.5607 9.31064C13.842 9.02934 14 8.64781 14 8.24998V7.67248C14.2357 7.4622 14.4243 7.20453 14.5536 6.91631C14.6828 6.6281 14.7498 6.31585 14.75 5.99998V5.38873C15.1625 5.1793 15.4923 4.83688 15.686 4.41682C15.8798 3.99677 15.9262 3.52363 15.8178 3.07392C15.7094 2.62421 15.4525 2.22421 15.0886 1.9386C14.7247 1.65298 14.2751 1.49845 13.8125 1.49998H13.2931C12.2939 1.49899 11.3097 1.25648 10.4244 0.793106C10.3802 0.769878 10.3319 0.755697 10.2821 0.751396C10.2324 0.747094 10.1824 0.752758 10.1349 0.768055C10.0874 0.783352 10.0434 0.807974 10.0055 0.84048C9.96767 0.872985 9.93668 0.91272 9.91437 0.957356L9.49625 1.79398C9.22942 2.32522 9.15872 2.93362 9.29661 3.51189C9.43451 4.09017 9.77215 4.60119 10.25 4.95486V5.99998C10.2501 6.55424 10.4559 7.08872 10.8275 7.49998H10.34L8.1875 6.42448C8.12603 6.38899 8.05576 6.37167 7.98484 6.37454C7.91392 6.3774 7.84527 6.40033 7.78687 6.44067C7.72847 6.481 7.68272 6.53708 7.65492 6.60239C7.62713 6.6677 7.61845 6.73956 7.62987 6.80961V8.69998L5.81525 7.56598C5.46358 7.346 5.16893 7.04596 4.95537 6.69036L3.54462 4.33761C3.48499 4.23194 3.46873 4.10724 3.49927 3.98981C3.5298 3.87238 3.60475 3.77141 3.70831 3.70817C3.81186 3.64494 3.93593 3.6244 4.05434 3.65088C4.17274 3.67736 4.27624 3.74879 4.343 3.85011L5.81187 6.19986C5.8538 6.26781 5.91653 6.32041 5.99075 6.34986L6.66575 6.61948C6.71175 6.63943 6.76129 6.64995 6.81142 6.65042C6.86156 6.65089 6.91129 6.64129 6.95765 6.62221C7.00402 6.60313 7.04609 6.57494 7.08137 6.53931C7.11666 6.50369 7.14444 6.46135 7.16307 6.4148C7.18171 6.36825 7.19082 6.31844 7.18986 6.26831C7.18891 6.21817 7.17791 6.16874 7.15752 6.12294C7.13713 6.07713 7.10777 6.03588 7.07115 6.00162C7.03454 5.96736 6.99143 5.94079 6.94437 5.92348L6.38375 5.69848L4.97862 3.44998C4.89491 3.3135 4.78513 3.19484 4.65555 3.10078C4.52597 3.00672 4.37914 2.93911 4.22344 2.9018C3.90897 2.82644 3.57745 2.87909 3.30181 3.04817C3.02617 3.21724 2.82898 3.48889 2.75363 3.80336C2.67827 4.11782 2.73092 4.44934 2.9 4.72498L4.31075 7.07586C4.5856 7.53249 4.96421 7.91791 5.41587 8.20086L7.76412 9.66861L7.7735 9.67573L9.14375 10.7036L9.48125 13.7501L7.21587 16.2667C6.87397 16.6439 6.67077 17.1263 6.63975 17.6344C6.60874 18.1425 6.75176 18.646 7.04525 19.062L8.42187 21.0289C7.98854 21.1065 7.59625 21.3339 7.31352 21.6713C7.03078 22.0087 6.87557 22.4348 6.875 22.875C6.875 22.9744 6.91451 23.0698 6.98483 23.1401C7.05516 23.2105 7.15054 23.25 7.25 23.25H11.375C11.4745 23.25 11.5698 23.2105 11.6402 23.1401C11.7105 23.0698 11.75 22.9744 11.75 22.875V21.75C11.75 21.6505 11.7105 21.5551 11.6402 21.4848C11.5698 21.4145 11.4745 21.375 11.375 21.375C11.2755 21.375 11.1802 21.4145 11.1098 21.4848C11.0395 21.5551 11 21.6505 11 21.75V22.5H7.68912C7.76697 22.2808 7.91071 22.091 8.10064 21.9568C8.29058 21.8225 8.5174 21.7503 8.75 21.75H9.125C9.183 21.749 9.23999 21.7347 9.2915 21.708L10.7926 20.9625ZM13.25 8.24998C13.25 8.44889 13.171 8.63966 13.0303 8.78031C12.8897 8.92096 12.6989 8.99998 12.5 8.99998C12.3011 8.99998 12.1103 8.92096 11.9697 8.78031C11.829 8.63966 11.75 8.44889 11.75 8.24998V8.11873C12.2347 8.29374 12.7653 8.29374 13.25 8.11873V8.24998ZM14 5.99998C14 6.39781 13.842 6.77934 13.5607 7.06064C13.2794 7.34195 12.8978 7.49998 12.5 7.49998C12.1022 7.49998 11.7206 7.34195 11.4393 7.06064C11.158 6.77934 11 6.39781 11 5.99998V4.32561L11.756 3.82161C12.4372 4.22728 13.208 4.4585 14 4.49473V5.99998ZM10.013 3.27861C9.936 2.8891 9.9902 2.48505 10.1671 2.12961L10.4191 1.62523C11.3217 2.03584 12.3016 2.24884 13.2931 2.24998H13.8125C14.1606 2.24998 14.4944 2.38826 14.7406 2.6344C14.9867 2.88054 15.125 3.21438 15.125 3.56248C15.1241 3.90339 14.9895 4.23034 14.75 4.47298V4.12498C14.75 4.02552 14.7105 3.93014 14.6402 3.85982C14.5698 3.78949 14.4745 3.74998 14.375 3.74998H14.225C13.4174 3.75085 12.6277 3.51173 11.9562 3.06298C11.8946 3.02187 11.8222 2.99992 11.7481 2.99992C11.674 2.99992 11.6016 3.02187 11.54 3.06298L10.415 3.81298C10.3655 3.84608 10.3248 3.89058 10.2961 3.94273C10.1571 3.74318 10.0607 3.5171 10.013 3.27861ZM18.6084 18.5036L19.3625 18H20V21.3109C19.7808 21.233 19.5911 21.0893 19.4568 20.8993C19.3225 20.7094 19.2503 20.4826 19.25 20.25V19.875C19.249 19.817 19.2342 19.76 19.2069 19.7089L18.6084 18.5036Z" fill="#2B2B2B"/>
<path d="M10.7926 20.9625C10.8782 20.9197 10.9443 20.8458 10.9772 20.756C11.0101 20.6661 11.0074 20.567 10.9696 20.4791L9.9635 18.1316L11.9544 16.7096L12.8052 18.8374C12.9712 19.2555 13.2593 19.6138 13.632 19.8658C14.0046 20.1178 14.4445 20.2517 14.8944 20.25H18.5C18.5006 20.7471 18.6983 21.2236 19.0498 21.5751C19.4013 21.9267 19.8779 22.1244 20.375 22.125C20.4745 22.125 20.5698 22.0855 20.6402 22.0151C20.7105 21.9448 20.75 21.8494 20.75 21.75V17.625C20.75 17.5255 20.7105 17.4301 20.6402 17.3598C20.5698 17.2895 20.4745 17.25 20.375 17.25H19.25C19.1759 17.2501 19.1036 17.272 19.0419 17.313L18.0365 17.9835L15.5532 17.6287C15.4548 17.6146 15.3547 17.6402 15.2751 17.6998C15.1955 17.7595 15.1429 17.8483 15.1287 17.9467C15.1146 18.0452 15.1402 18.1452 15.1998 18.2248C15.2595 18.3044 15.3483 18.3571 15.4467 18.3712L17.8775 18.7185L18.2682 19.5H14.8932C14.5932 19.501 14.2999 19.4116 14.0515 19.2433C13.8031 19.0751 13.6112 18.8358 13.5009 18.5569L12.4722 15.9855C12.4511 15.9327 12.4183 15.8854 12.3762 15.8472C12.3342 15.809 12.284 15.7809 12.2294 15.7649C12.1749 15.7489 12.1174 15.7456 12.0614 15.7551C12.0054 15.7646 11.9522 15.7867 11.906 15.8197L9.281 17.6947C9.21136 17.7444 9.16082 17.8165 9.13776 17.8989C9.11471 17.9813 9.12052 18.0691 9.15425 18.1477L10.1397 20.4476L9.2465 20.895L7.6625 18.6311C7.46662 18.354 7.37102 18.0184 7.39147 17.6797C7.41192 17.3409 7.5472 17.0193 7.775 16.7677L10.1529 14.1259C10.1883 14.0866 10.215 14.0402 10.2312 13.9899C10.2474 13.9395 10.2528 13.8863 10.247 13.8337L9.872 10.4587C9.86636 10.4078 9.85034 10.3586 9.82493 10.3141C9.79951 10.2695 9.76525 10.2307 9.72425 10.2L8.37912 9.19123V7.35936L10.0816 8.21061C10.1339 8.23667 10.1916 8.25015 10.25 8.24998H11C11 8.64781 11.158 9.02934 11.4393 9.31064C11.7206 9.59195 12.1022 9.74998 12.5 9.74998C12.8978 9.74998 13.2794 9.59195 13.5607 9.31064C13.842 9.02934 14 8.64781 14 8.24998V7.67248C14.2357 7.4622 14.4243 7.20453 14.5536 6.91631C14.6828 6.6281 14.7498 6.31585 14.75 5.99998V5.38873C15.1625 5.1793 15.4923 4.83688 15.686 4.41682C15.8798 3.99677 15.9262 3.52363 15.8178 3.07392C15.7094 2.62421 15.4525 2.22421 15.0886 1.9386C14.7247 1.65298 14.2751 1.49845 13.8125 1.49998H13.2931C12.2939 1.49899 11.3097 1.25648 10.4244 0.793106C10.3802 0.769878 10.3319 0.755697 10.2821 0.751396C10.2324 0.747094 10.1824 0.752758 10.1349 0.768055C10.0874 0.783352 10.0434 0.807974 10.0055 0.84048C9.96767 0.872985 9.93668 0.91272 9.91437 0.957356L9.49625 1.79398C9.22942 2.32522 9.15872 2.93362 9.29661 3.51189C9.43451 4.09017 9.77215 4.60119 10.25 4.95486V5.99998C10.2501 6.55424 10.4559 7.08872 10.8275 7.49998H10.34L8.1875 6.42448C8.12603 6.38899 8.05576 6.37167 7.98484 6.37454C7.91392 6.3774 7.84527 6.40033 7.78687 6.44067C7.72847 6.481 7.68272 6.53708 7.65492 6.60239C7.62713 6.6677 7.61845 6.73956 7.62987 6.80961V8.69998L5.81525 7.56598C5.46358 7.346 5.16893 7.04596 4.95537 6.69036L3.54462 4.33761C3.48499 4.23194 3.46873 4.10724 3.49927 3.98981C3.5298 3.87238 3.60475 3.77141 3.70831 3.70817C3.81186 3.64494 3.93593 3.6244 4.05434 3.65088C4.17274 3.67736 4.27624 3.74879 4.343 3.85011L5.81187 6.19986C5.8538 6.26781 5.91653 6.32041 5.99075 6.34986L6.66575 6.61948C6.71175 6.63943 6.76129 6.64995 6.81142 6.65042C6.86156 6.65089 6.91129 6.64129 6.95765 6.62221C7.00402 6.60313 7.04609 6.57494 7.08137 6.53931C7.11666 6.50369 7.14444 6.46135 7.16307 6.4148C7.18171 6.36825 7.19082 6.31844 7.18986 6.26831C7.18891 6.21817 7.17791 6.16874 7.15752 6.12294C7.13713 6.07713 7.10777 6.03588 7.07115 6.00162C7.03454 5.96736 6.99143 5.94079 6.94437 5.92348L6.38375 5.69848L4.97862 3.44998C4.89491 3.3135 4.78513 3.19484 4.65555 3.10078C4.52597 3.00672 4.37914 2.93911 4.22344 2.9018C3.90897 2.82644 3.57745 2.87909 3.30181 3.04817C3.02617 3.21724 2.82898 3.48889 2.75363 3.80336C2.67827 4.11782 2.73092 4.44934 2.9 4.72498L4.31075 7.07586C4.5856 7.53249 4.96421 7.91791 5.41587 8.20086L7.76412 9.66861L7.7735 9.67573L9.14375 10.7036L9.48125 13.7501L7.21587 16.2667C6.87397 16.6439 6.67077 17.1263 6.63975 17.6344C6.60874 18.1425 6.75176 18.646 7.04525 19.062L8.42187 21.0289C7.98854 21.1065 7.59625 21.3339 7.31352 21.6713C7.03078 22.0087 6.87557 22.4348 6.875 22.875C6.875 22.9744 6.91451 23.0698 6.98483 23.1401C7.05516 23.2105 7.15054 23.25 7.25 23.25H11.375C11.4745 23.25 11.5698 23.2105 11.6402 23.1401C11.7105 23.0698 11.75 22.9744 11.75 22.875V21.75C11.75 21.6505 11.7105 21.5551 11.6402 21.4848C11.5698 21.4145 11.4745 21.375 11.375 21.375C11.2755 21.375 11.1802 21.4145 11.1098 21.4848C11.0395 21.5551 11 21.6505 11 21.75V22.5H7.68912C7.76697 22.2808 7.91071 22.091 8.10064 21.9568C8.29058 21.8225 8.5174 21.7503 8.75 21.75H9.125C9.183 21.749 9.23999 21.7347 9.2915 21.708L10.7926 20.9625ZM13.25 8.24998C13.25 8.44889 13.171 8.63966 13.0303 8.78031C12.8897 8.92096 12.6989 8.99998 12.5 8.99998C12.3011 8.99998 12.1103 8.92096 11.9697 8.78031C11.829 8.63966 11.75 8.44889 11.75 8.24998V8.11873C12.2347 8.29374 12.7653 8.29374 13.25 8.11873V8.24998ZM14 5.99998C14 6.39781 13.842 6.77934 13.5607 7.06064C13.2794 7.34195 12.8978 7.49998 12.5 7.49998C12.1022 7.49998 11.7206 7.34195 11.4393 7.06064C11.158 6.77934 11 6.39781 11 5.99998V4.32561L11.756 3.82161C12.4372 4.22728 13.208 4.4585 14 4.49473V5.99998ZM10.013 3.27861C9.936 2.8891 9.9902 2.48505 10.1671 2.12961L10.4191 1.62523C11.3217 2.03584 12.3016 2.24884 13.2931 2.24998H13.8125C14.1606 2.24998 14.4944 2.38826 14.7406 2.6344C14.9867 2.88054 15.125 3.21438 15.125 3.56248C15.1241 3.90339 14.9895 4.23034 14.75 4.47298V4.12498C14.75 4.02552 14.7105 3.93014 14.6402 3.85982C14.5698 3.78949 14.4745 3.74998 14.375 3.74998H14.225C13.4174 3.75085 12.6277 3.51173 11.9562 3.06298C11.8946 3.02187 11.8222 2.99992 11.7481 2.99992C11.674 2.99992 11.6016 3.02187 11.54 3.06298L10.415 3.81298C10.3655 3.84608 10.3248 3.89058 10.2961 3.94273C10.1571 3.74318 10.0607 3.5171 10.013 3.27861ZM18.6084 18.5036L19.3625 18H20V21.3109C19.7808 21.233 19.5911 21.0893 19.4568 20.8993C19.3225 20.7094 19.2503 20.4826 19.25 20.25V19.875C19.249 19.817 19.2342 19.76 19.2069 19.7089L18.6084 18.5036Z" stroke="#2B2B2B" stroke-width="0.4" mask="url(#path-2-outside-1_4222_12510)"/>
<path d="M21.4623 11.7889L21.4622 11.789C21.4309 11.807 21.4034 11.831 21.3814 11.8597C21.3594 11.8883 21.3433 11.921 21.3339 11.9559C21.3245 11.9908 21.3221 12.0272 21.3268 12.063C21.3315 12.0988 21.3432 12.1333 21.3613 12.1646L21.4987 12.4028L22.3871 11.8903L21.4623 11.7889ZM21.4623 11.7889L22.8982 10.9598M21.4623 11.7889L22.8982 10.9598M22.8982 10.9598C22.9051 11.1215 22.8735 11.2832 22.8054 11.4314C22.7169 11.6238 22.5706 11.7841 22.3872 11.8902L22.8982 10.9598ZM2.65 10.8751V12.6842C2.5604 12.6625 2.46847 12.651 2.37597 12.6501L2.37597 12.6501H2.375C2.13272 12.6501 1.89588 12.7219 1.69443 12.8565C1.49298 12.9911 1.33597 13.1825 1.24325 13.4063C1.15053 13.6301 1.12627 13.8765 1.17354 14.1141C1.22081 14.3517 1.33748 14.57 1.50879 14.7413C1.68011 14.9126 1.89839 15.0293 2.13602 15.0766C2.37364 15.1238 2.61995 15.0996 2.84379 15.0068C3.06763 14.9141 3.25895 14.7571 3.39355 14.5557C3.52816 14.3542 3.6 14.1174 3.6 13.8751V12.8501H5.65V13.8092C5.5604 13.7875 5.46847 13.776 5.37597 13.7751V13.7751H5.375C5.13272 13.7751 4.89588 13.8469 4.69443 13.9815C4.49298 14.1161 4.33597 14.3075 4.24325 14.5313C4.15053 14.7551 4.12627 15.0015 4.17354 15.2391C4.22081 15.4767 4.33748 15.695 4.50879 15.8663C4.68011 16.0376 4.89839 16.1543 5.13602 16.2016C5.37364 16.2488 5.61995 16.2246 5.84379 16.1318C6.06763 16.0391 6.25895 15.8821 6.39355 15.6807C6.52816 15.4792 6.6 15.2424 6.6 15.0001V10.8751C6.6 10.7491 6.54996 10.6283 6.46088 10.5392C6.3718 10.4501 6.25098 10.4001 6.125 10.4001H3.125C2.99902 10.4001 2.87821 10.4501 2.78913 10.5392C2.70005 10.6283 2.65 10.7491 2.65 10.8751ZM21.9741 13.2255L22.8625 12.713L22.8626 12.7129C23.3158 12.4506 23.6464 12.0193 23.782 11.5136C23.9175 11.0078 23.847 10.469 23.5858 10.0152L23.5858 10.0151C23.5546 9.96105 23.513 9.91365 23.4635 9.87564C23.414 9.83763 23.3574 9.80975 23.2971 9.7936C23.2368 9.77746 23.1739 9.77336 23.112 9.78154C23.0502 9.78971 22.9905 9.81 22.9365 9.84123L21.9741 13.2255ZM22.9364 9.84128L20.9866 10.9662C20.8471 11.0466 20.7248 11.1536 20.6267 11.2813C20.5287 11.409 20.4567 11.5547 20.415 11.7102C20.3733 11.8657 20.3626 12.0278 20.3836 12.1875C20.4046 12.3471 20.4569 12.501 20.5374 12.6403C20.5374 12.6404 20.5374 12.6404 20.5374 12.6404L20.9124 13.2898L20.9125 13.29L21.4443 14.2077C21.2426 14.27 21.0596 14.3838 20.9141 14.539C20.7367 14.728 20.6241 14.9686 20.5926 15.2258C20.561 15.4831 20.6121 15.7438 20.7385 15.9701C20.8649 16.1964 21.06 16.3766 21.2956 16.4846C21.5313 16.5927 21.7951 16.6229 22.0491 16.5711C22.303 16.5192 22.5339 16.3879 22.7083 16.1961C22.8827 16.0043 22.9915 15.7621 23.0191 15.5043C23.0466 15.2466 22.9915 14.9868 22.8616 14.7626L22.8616 14.7626L22.775 14.8126L22.8615 14.7625L22.9364 9.84128ZM2.375 14.1501C2.32061 14.1501 2.26744 14.134 2.22222 14.1037C2.177 14.0735 2.14175 14.0306 2.12093 13.9803C2.10012 13.9301 2.09467 13.8748 2.10528 13.8214C2.1159 13.7681 2.14209 13.7191 2.18055 13.6806C2.21901 13.6422 2.26801 13.616 2.32135 13.6054C2.3747 13.5948 2.42999 13.6002 2.48024 13.621C2.53049 13.6418 2.57344 13.6771 2.60365 13.7223C2.63387 13.7675 2.65 13.8207 2.65 13.8751C2.65 13.948 2.62103 14.018 2.56945 14.0695C2.51788 14.1211 2.44794 14.1501 2.375 14.1501ZM3.6 11.3501H5.65V11.9001H3.6V11.3501ZM5.375 15.2751C5.32061 15.2751 5.26744 15.259 5.22222 15.2287C5.177 15.1985 5.14175 15.1556 5.12093 15.1053C5.10012 15.0551 5.09467 14.9998 5.10528 14.9464C5.1159 14.8931 5.14209 14.8441 5.18055 14.8056C5.21901 14.7672 5.26801 14.741 5.32135 14.7304C5.3747 14.7198 5.42999 14.7252 5.48024 14.746C5.53049 14.7668 5.57344 14.8021 5.60365 14.8473C5.63387 14.8925 5.65 14.9457 5.65 15.0001C5.65 15.073 5.62103 15.143 5.56946 15.1945C5.51788 15.2461 5.44794 15.2751 5.375 15.2751ZM22.0672 15.4463C22.0507 15.5077 22.0134 15.5615 21.9617 15.5985C21.9099 15.6355 21.847 15.6535 21.7835 15.6493C21.72 15.6451 21.66 15.6191 21.6136 15.5756C21.5671 15.5321 21.5372 15.4738 21.5289 15.4108C21.5207 15.3477 21.5345 15.2837 21.5681 15.2297C21.6016 15.1757 21.6529 15.135 21.7131 15.1145C21.7734 15.0941 21.8388 15.0951 21.8984 15.1175C21.9579 15.1399 22.0078 15.1822 22.0397 15.2373C22.0578 15.2686 22.0695 15.3032 22.0742 15.339C22.079 15.3749 22.0766 15.4113 22.0672 15.4463Z" fill="#2B2B2B" stroke="#2B2B2B" stroke-width="0.2"/>
</g>
</svg>
