<svg width="24" height="24" viewBox="0 0 24 24" fill="none" xmlns="http://www.w3.org/2000/svg">
<g clip-path="url(#clip0_4222_12551)">
<g opacity="0.6">
<path d="M5.34656 10.8307C3.26043 10.8307 1.56336 12.5277 1.56336 14.6139C1.56336 16.7 3.26043 18.3971 5.34656 18.3971C7.4327 18.3971 9.12977 16.7 9.12977 14.6139C9.12977 12.5277 7.4327 10.8307 5.34656 10.8307ZM5.34656 17.4842C3.76393 17.4842 2.47624 16.1965 2.47624 14.6139C2.47624 13.0313 3.76393 11.7435 5.34656 11.7435C6.92919 11.7435 8.21689 13.0313 8.21689 14.6139C8.21689 16.1965 6.92919 17.4842 5.34656 17.4842ZM11.9999 13.4446C11.3551 13.4446 10.8306 13.969 10.8306 14.6139C10.8306 15.2587 11.3551 15.7832 11.9999 15.7832C12.6447 15.7832 13.1692 15.2587 13.1692 14.6139C13.1692 13.969 12.6447 13.4446 11.9999 13.4446ZM11.9999 14.8703C11.8586 14.8703 11.7435 14.7552 11.7435 14.6139C11.7435 14.4725 11.8586 14.3574 11.9999 14.3574C12.1412 14.3574 12.2563 14.4725 12.2563 14.6139C12.2563 14.7552 12.1412 14.8703 11.9999 14.8703Z" fill="#2B2B2B" stroke="#2B2B2B" stroke-width="0.2"/>
<mask id="path-2-outside-1_4222_12551" maskUnits="userSpaceOnUse" x="-1" y="3.03955" width="26" height="18" fill="black">
<rect fill="white" x="-1" y="3.03955" width="26" height="18"/>
<path d="M22.722 11.1492C22.7151 11.1388 22.7077 11.1287 22.6997 11.1191L18.5497 6.09689C18.5487 6.09568 18.5477 6.09441 18.5467 6.09324L17.6317 4.98591C17.6291 4.98277 17.6268 4.97944 17.6242 4.9763C17.3676 4.68215 17.051 4.44635 16.6958 4.28477C16.3405 4.12319 15.9547 4.03958 15.5644 4.03955C14.0631 4.03955 12.841 5.25657 12.8321 6.75582L12.832 6.76013C12.832 6.76416 12.8317 6.76814 12.8317 6.77227C12.8317 6.77588 12.8321 6.77935 12.8323 6.78296C12.8324 6.78661 12.8321 6.79018 12.8324 6.79383L12.8959 7.84144H11.1043L11.1678 6.79383C11.1681 6.79018 11.1678 6.78661 11.1679 6.78296C11.1681 6.77939 11.1685 6.77588 11.1685 6.77227C11.1685 6.76824 11.1682 6.76425 11.1682 6.76013L11.1681 6.75582C11.1591 5.25657 9.93713 4.03955 8.43581 4.03955C8.04551 4.0396 7.65974 4.12322 7.30445 4.2848C6.94916 4.44638 6.63259 4.68217 6.37603 4.9763C6.3727 4.98014 6.36984 4.98422 6.3667 4.98816L5.45316 6.09347C5.45241 6.09436 5.45175 6.0953 5.45091 6.09614L4.93308 6.72272C4.90313 6.75874 4.88065 6.80036 4.86695 6.84516C4.85324 6.88995 4.84859 6.93702 4.85325 6.98363C4.85756 7.0302 4.87103 7.07546 4.89288 7.11681C4.91474 7.15816 4.94455 7.19478 4.98061 7.22457C5.04458 7.27729 5.12487 7.30618 5.20777 7.30632C5.26026 7.30644 5.31213 7.29491 5.35962 7.27255C5.40711 7.2502 5.44905 7.21757 5.48241 7.17703L5.95898 6.60033C6.41997 6.32375 6.94755 6.17786 7.48514 6.17832C8.84016 6.17832 10.0134 7.08483 10.3568 8.38885L10.1249 12.2169C9.24455 10.4691 7.43344 9.26714 5.34652 9.26714C4.70765 9.2666 4.07391 9.38113 3.47564 9.60525L4.57416 8.27583C4.6042 8.23986 4.62677 8.19826 4.64055 8.15346C4.65433 8.10866 4.65904 8.06156 4.65441 8.01493C4.65002 7.96833 4.63647 7.92306 4.61454 7.88171C4.59261 7.84037 4.56274 7.80376 4.52663 7.77399C4.49054 7.74415 4.44892 7.72171 4.40415 7.70798C4.35938 7.69424 4.31234 7.68946 4.26573 7.69392C4.21911 7.69837 4.17383 7.71198 4.13248 7.73396C4.09113 7.75593 4.05451 7.78585 4.02473 7.82199L1.30013 11.1193C1.29216 11.1289 1.28484 11.1389 1.278 11.1491C0.481594 12.083 0 13.2931 0 14.6138C0 17.5619 2.39845 19.9604 5.34656 19.9604C7.19644 19.9604 8.8297 19.0159 9.78998 17.584H14.21C15.1703 19.0159 16.8036 19.9604 18.6534 19.9604C21.6015 19.9604 24 17.5619 24 14.6138C24 13.2931 23.5184 12.083 22.722 11.1492ZM5.34656 19.2475C2.7915 19.2475 0.712875 17.1688 0.712875 14.6138C0.712875 12.0587 2.79155 9.98011 5.34656 9.98011C7.90158 9.98011 9.98025 12.0588 9.98025 14.6138C9.9803 17.1688 7.90162 19.2475 5.34656 19.2475ZM15.5643 4.75243C15.8513 4.75251 16.135 4.81371 16.3964 4.93198C16.6579 5.05024 16.8912 5.22285 17.0807 5.4383L17.1484 5.52019C16.9392 5.4838 16.7272 5.4655 16.5149 5.46549C15.3169 5.46549 14.2339 6.03736 13.5561 6.95152L13.5448 6.76458C13.5489 5.65439 14.4532 4.75243 15.5643 4.75243ZM11.061 8.55427H12.939L13.011 9.7425H10.989L11.061 8.55427ZM10.9458 10.4554H13.0541L13.1261 11.6432H10.8738L10.9458 10.4554ZM7.48514 5.46549C7.27284 5.4655 7.06093 5.48379 6.85177 5.52014L6.91955 5.43811L6.92016 5.43727C7.1097 5.2221 7.34287 5.04975 7.60418 4.93166C7.86548 4.81357 8.14892 4.75246 8.43567 4.75238C9.54684 4.75238 10.4511 5.65435 10.4553 6.76454L10.444 6.95147C9.76612 6.03736 8.68308 5.46549 7.48514 5.46549ZM10.1925 16.8712C10.5116 16.1889 10.6909 15.4287 10.693 14.6275L10.8306 12.3561H13.1693L13.307 14.6275C13.3091 15.4287 13.4884 16.1889 13.8075 16.8712H10.1925ZM13.6432 8.38889C13.9866 7.08488 15.1598 6.17836 16.5149 6.17836C17.0525 6.17795 17.5801 6.32385 18.0411 6.60043L20.524 9.60516C19.9415 9.38686 19.3112 9.26719 18.6534 9.26719C16.5666 9.26719 14.7555 10.4692 13.8751 12.217L13.6432 8.38889ZM18.6534 19.2475C16.0984 19.2475 14.0198 17.1688 14.0198 14.6138C14.0198 12.0587 16.0984 9.98011 18.6534 9.98011C21.2085 9.98011 23.2871 12.0588 23.2871 14.6138C23.2871 17.1688 21.2085 19.2475 18.6534 19.2475Z"/>
</mask>
<path d="M22.722 11.1492C22.7151 11.1388 22.7077 11.1287 22.6997 11.1191L18.5497 6.09689C18.5487 6.09568 18.5477 6.09441 18.5467 6.09324L17.6317 4.98591C17.6291 4.98277 17.6268 4.97944 17.6242 4.9763C17.3676 4.68215 17.051 4.44635 16.6958 4.28477C16.3405 4.12319 15.9547 4.03958 15.5644 4.03955C14.0631 4.03955 12.841 5.25657 12.8321 6.75582L12.832 6.76013C12.832 6.76416 12.8317 6.76814 12.8317 6.77227C12.8317 6.77588 12.8321 6.77935 12.8323 6.78296C12.8324 6.78661 12.8321 6.79018 12.8324 6.79383L12.8959 7.84144H11.1043L11.1678 6.79383C11.1681 6.79018 11.1678 6.78661 11.1679 6.78296C11.1681 6.77939 11.1685 6.77588 11.1685 6.77227C11.1685 6.76824 11.1682 6.76425 11.1682 6.76013L11.1681 6.75582C11.1591 5.25657 9.93713 4.03955 8.43581 4.03955C8.04551 4.0396 7.65974 4.12322 7.30445 4.2848C6.94916 4.44638 6.63259 4.68217 6.37603 4.9763C6.3727 4.98014 6.36984 4.98422 6.3667 4.98816L5.45316 6.09347C5.45241 6.09436 5.45175 6.0953 5.45091 6.09614L4.93308 6.72272C4.90313 6.75874 4.88065 6.80036 4.86695 6.84516C4.85324 6.88995 4.84859 6.93702 4.85325 6.98363C4.85756 7.0302 4.87103 7.07546 4.89288 7.11681C4.91474 7.15816 4.94455 7.19478 4.98061 7.22457C5.04458 7.27729 5.12487 7.30618 5.20777 7.30632C5.26026 7.30644 5.31213 7.29491 5.35962 7.27255C5.40711 7.2502 5.44905 7.21757 5.48241 7.17703L5.95898 6.60033C6.41997 6.32375 6.94755 6.17786 7.48514 6.17832C8.84016 6.17832 10.0134 7.08483 10.3568 8.38885L10.1249 12.2169C9.24455 10.4691 7.43344 9.26714 5.34652 9.26714C4.70765 9.2666 4.07391 9.38113 3.47564 9.60525L4.57416 8.27583C4.6042 8.23986 4.62677 8.19826 4.64055 8.15346C4.65433 8.10866 4.65904 8.06156 4.65441 8.01493C4.65002 7.96833 4.63647 7.92306 4.61454 7.88171C4.59261 7.84037 4.56274 7.80376 4.52663 7.77399C4.49054 7.74415 4.44892 7.72171 4.40415 7.70798C4.35938 7.69424 4.31234 7.68946 4.26573 7.69392C4.21911 7.69837 4.17383 7.71198 4.13248 7.73396C4.09113 7.75593 4.05451 7.78585 4.02473 7.82199L1.30013 11.1193C1.29216 11.1289 1.28484 11.1389 1.278 11.1491C0.481594 12.083 0 13.2931 0 14.6138C0 17.5619 2.39845 19.9604 5.34656 19.9604C7.19644 19.9604 8.8297 19.0159 9.78998 17.584H14.21C15.1703 19.0159 16.8036 19.9604 18.6534 19.9604C21.6015 19.9604 24 17.5619 24 14.6138C24 13.2931 23.5184 12.083 22.722 11.1492ZM5.34656 19.2475C2.7915 19.2475 0.712875 17.1688 0.712875 14.6138C0.712875 12.0587 2.79155 9.98011 5.34656 9.98011C7.90158 9.98011 9.98025 12.0588 9.98025 14.6138C9.9803 17.1688 7.90162 19.2475 5.34656 19.2475ZM15.5643 4.75243C15.8513 4.75251 16.135 4.81371 16.3964 4.93198C16.6579 5.05024 16.8912 5.22285 17.0807 5.4383L17.1484 5.52019C16.9392 5.4838 16.7272 5.4655 16.5149 5.46549C15.3169 5.46549 14.2339 6.03736 13.5561 6.95152L13.5448 6.76458C13.5489 5.65439 14.4532 4.75243 15.5643 4.75243ZM11.061 8.55427H12.939L13.011 9.7425H10.989L11.061 8.55427ZM10.9458 10.4554H13.0541L13.1261 11.6432H10.8738L10.9458 10.4554ZM7.48514 5.46549C7.27284 5.4655 7.06093 5.48379 6.85177 5.52014L6.91955 5.43811L6.92016 5.43727C7.1097 5.2221 7.34287 5.04975 7.60418 4.93166C7.86548 4.81357 8.14892 4.75246 8.43567 4.75238C9.54684 4.75238 10.4511 5.65435 10.4553 6.76454L10.444 6.95147C9.76612 6.03736 8.68308 5.46549 7.48514 5.46549ZM10.1925 16.8712C10.5116 16.1889 10.6909 15.4287 10.693 14.6275L10.8306 12.3561H13.1693L13.307 14.6275C13.3091 15.4287 13.4884 16.1889 13.8075 16.8712H10.1925ZM13.6432 8.38889C13.9866 7.08488 15.1598 6.17836 16.5149 6.17836C17.0525 6.17795 17.5801 6.32385 18.0411 6.60043L20.524 9.60516C19.9415 9.38686 19.3112 9.26719 18.6534 9.26719C16.5666 9.26719 14.7555 10.4692 13.8751 12.217L13.6432 8.38889ZM18.6534 19.2475C16.0984 19.2475 14.0198 17.1688 14.0198 14.6138C14.0198 12.0587 16.0984 9.98011 18.6534 9.98011C21.2085 9.98011 23.2871 12.0588 23.2871 14.6138C23.2871 17.1688 21.2085 19.2475 18.6534 19.2475Z" fill="#2B2B2B"/>
<path d="M22.722 11.1492C22.7151 11.1388 22.7077 11.1287 22.6997 11.1191L18.5497 6.09689C18.5487 6.09568 18.5477 6.09441 18.5467 6.09324L17.6317 4.98591C17.6291 4.98277 17.6268 4.97944 17.6242 4.9763C17.3676 4.68215 17.051 4.44635 16.6958 4.28477C16.3405 4.12319 15.9547 4.03958 15.5644 4.03955C14.0631 4.03955 12.841 5.25657 12.8321 6.75582L12.832 6.76013C12.832 6.76416 12.8317 6.76814 12.8317 6.77227C12.8317 6.77588 12.8321 6.77935 12.8323 6.78296C12.8324 6.78661 12.8321 6.79018 12.8324 6.79383L12.8959 7.84144H11.1043L11.1678 6.79383C11.1681 6.79018 11.1678 6.78661 11.1679 6.78296C11.1681 6.77939 11.1685 6.77588 11.1685 6.77227C11.1685 6.76824 11.1682 6.76425 11.1682 6.76013L11.1681 6.75582C11.1591 5.25657 9.93713 4.03955 8.43581 4.03955C8.04551 4.0396 7.65974 4.12322 7.30445 4.2848C6.94916 4.44638 6.63259 4.68217 6.37603 4.9763C6.3727 4.98014 6.36984 4.98422 6.3667 4.98816L5.45316 6.09347C5.45241 6.09436 5.45175 6.0953 5.45091 6.09614L4.93308 6.72272C4.90313 6.75874 4.88065 6.80036 4.86695 6.84516C4.85324 6.88995 4.84859 6.93702 4.85325 6.98363C4.85756 7.0302 4.87103 7.07546 4.89288 7.11681C4.91474 7.15816 4.94455 7.19478 4.98061 7.22457C5.04458 7.27729 5.12487 7.30618 5.20777 7.30632C5.26026 7.30644 5.31213 7.29491 5.35962 7.27255C5.40711 7.2502 5.44905 7.21757 5.48241 7.17703L5.95898 6.60033C6.41997 6.32375 6.94755 6.17786 7.48514 6.17832C8.84016 6.17832 10.0134 7.08483 10.3568 8.38885L10.1249 12.2169C9.24455 10.4691 7.43344 9.26714 5.34652 9.26714C4.70765 9.2666 4.07391 9.38113 3.47564 9.60525L4.57416 8.27583C4.6042 8.23986 4.62677 8.19826 4.64055 8.15346C4.65433 8.10866 4.65904 8.06156 4.65441 8.01493C4.65002 7.96833 4.63647 7.92306 4.61454 7.88171C4.59261 7.84037 4.56274 7.80376 4.52663 7.77399C4.49054 7.74415 4.44892 7.72171 4.40415 7.70798C4.35938 7.69424 4.31234 7.68946 4.26573 7.69392C4.21911 7.69837 4.17383 7.71198 4.13248 7.73396C4.09113 7.75593 4.05451 7.78585 4.02473 7.82199L1.30013 11.1193C1.29216 11.1289 1.28484 11.1389 1.278 11.1491C0.481594 12.083 0 13.2931 0 14.6138C0 17.5619 2.39845 19.9604 5.34656 19.9604C7.19644 19.9604 8.8297 19.0159 9.78998 17.584H14.21C15.1703 19.0159 16.8036 19.9604 18.6534 19.9604C21.6015 19.9604 24 17.5619 24 14.6138C24 13.2931 23.5184 12.083 22.722 11.1492ZM5.34656 19.2475C2.7915 19.2475 0.712875 17.1688 0.712875 14.6138C0.712875 12.0587 2.79155 9.98011 5.34656 9.98011C7.90158 9.98011 9.98025 12.0588 9.98025 14.6138C9.9803 17.1688 7.90162 19.2475 5.34656 19.2475ZM15.5643 4.75243C15.8513 4.75251 16.135 4.81371 16.3964 4.93198C16.6579 5.05024 16.8912 5.22285 17.0807 5.4383L17.1484 5.52019C16.9392 5.4838 16.7272 5.4655 16.5149 5.46549C15.3169 5.46549 14.2339 6.03736 13.5561 6.95152L13.5448 6.76458C13.5489 5.65439 14.4532 4.75243 15.5643 4.75243ZM11.061 8.55427H12.939L13.011 9.7425H10.989L11.061 8.55427ZM10.9458 10.4554H13.0541L13.1261 11.6432H10.8738L10.9458 10.4554ZM7.48514 5.46549C7.27284 5.4655 7.06093 5.48379 6.85177 5.52014L6.91955 5.43811L6.92016 5.43727C7.1097 5.2221 7.34287 5.04975 7.60418 4.93166C7.86548 4.81357 8.14892 4.75246 8.43567 4.75238C9.54684 4.75238 10.4511 5.65435 10.4553 6.76454L10.444 6.95147C9.76612 6.03736 8.68308 5.46549 7.48514 5.46549ZM10.1925 16.8712C10.5116 16.1889 10.6909 15.4287 10.693 14.6275L10.8306 12.3561H13.1693L13.307 14.6275C13.3091 15.4287 13.4884 16.1889 13.8075 16.8712H10.1925ZM13.6432 8.38889C13.9866 7.08488 15.1598 6.17836 16.5149 6.17836C17.0525 6.17795 17.5801 6.32385 18.0411 6.60043L20.524 9.60516C19.9415 9.38686 19.3112 9.26719 18.6534 9.26719C16.5666 9.26719 14.7555 10.4692 13.8751 12.217L13.6432 8.38889ZM18.6534 19.2475C16.0984 19.2475 14.0198 17.1688 14.0198 14.6138C14.0198 12.0587 16.0984 9.98011 18.6534 9.98011C21.2085 9.98011 23.2871 12.0588 23.2871 14.6138C23.2871 17.1688 21.2085 19.2475 18.6534 19.2475Z" stroke="#2B2B2B" stroke-width="0.4" mask="url(#path-2-outside-1_4222_12551)"/>
<path d="M18.6534 10.8307C16.5673 10.8307 14.8702 12.5277 14.8702 14.6139C14.8702 16.7 16.5673 18.3971 18.6534 18.3971C20.7396 18.3971 22.4366 16.7 22.4366 14.6139C22.4366 12.5277 20.7395 10.8307 18.6534 10.8307ZM18.6534 17.4842C17.0708 17.4842 15.7831 16.1965 15.7831 14.6139C15.7831 13.0313 17.0708 11.7435 18.6534 11.7435C20.2361 11.7435 21.5238 13.0313 21.5238 14.6139C21.5238 16.1965 20.2361 17.4842 18.6534 17.4842Z" fill="#2B2B2B" stroke="#2B2B2B" stroke-width="0.2"/>
</g>
</g>
<defs>
<clipPath id="clip0_4222_12551">
<rect width="24" height="24" fill="white"/>
</clipPath>
</defs>
</svg>
