<svg width="26" height="26" viewBox="0 0 26 26" fill="none" xmlns="http://www.w3.org/2000/svg">
<mask id="path-1-outside-1_4222_12425" maskUnits="userSpaceOnUse" x="0.00375366" y="0" width="26" height="26" fill="black">
<rect fill="white" x="0.00375366" width="26" height="26"/>
<path d="M24.6213 24.2502H21.5667C23.0019 22.8962 22.5586 20.5558 20.8055 19.7765C20.7699 19.7606 21.0459 19.8433 16.6071 18.5453C16.6081 18.0571 16.612 17.633 16.6188 17.2624H19.3205C20.8519 17.2624 21.6696 15.4876 20.7347 14.3207L20.0219 13.4294C19.9598 13.3518 19.8694 13.302 19.7706 13.291C19.6718 13.28 19.5727 13.3087 19.495 13.3708C19.4566 13.4016 19.4245 13.4396 19.4008 13.4827C19.377 13.5258 19.362 13.5732 19.3565 13.6221C19.3511 13.6711 19.3553 13.7206 19.369 13.7679C19.3827 13.8152 19.4056 13.8593 19.4363 13.8978L20.1493 14.7893C20.6969 15.4727 20.2174 16.5127 19.3205 16.5127C13.1384 16.5127 13.568 16.5463 13.455 16.4342C13.3406 16.3189 13.3749 16.529 13.3749 12.8004C13.9385 13.0895 14.1235 14.3246 14.1246 14.9485C14.1246 15.0479 14.1641 15.1433 14.2344 15.2136C14.3047 15.2839 14.4001 15.3234 14.4995 15.3234H17.8022C18.114 15.3234 18.2901 14.9629 18.0971 14.717L16.2939 12.4204C16.2637 12.3813 16.226 12.3484 16.183 12.3239C16.1401 12.2994 16.0926 12.2836 16.0435 12.2774C15.9944 12.2713 15.9446 12.275 15.8969 12.2882C15.8492 12.3014 15.8046 12.324 15.7657 12.3545C15.7267 12.3851 15.6942 12.4231 15.6701 12.4662C15.6459 12.5094 15.6305 12.557 15.6248 12.6061C15.619 12.6553 15.6231 12.7051 15.6367 12.7527C15.6504 12.8002 15.6733 12.8447 15.7042 12.8833L16.2617 13.5935C16.1754 13.917 16.1058 14.2208 16.0498 14.5736H14.8582C14.7595 13.2972 14.2622 11.9172 13 11.9876C11.7374 11.9174 11.2407 13.2949 11.1418 14.5736H9.95023C9.89418 14.2208 9.8246 13.9171 9.73833 13.5935L10.2959 12.8833C10.3263 12.8446 10.3487 12.8003 10.362 12.7529C10.3753 12.7055 10.3791 12.6559 10.3732 12.607C10.3673 12.5581 10.3518 12.5109 10.3277 12.468C10.3035 12.4251 10.2711 12.3874 10.2324 12.357C10.1937 12.3266 10.1494 12.3041 10.102 12.2909C10.0545 12.2776 10.005 12.2738 9.95611 12.2797C9.90723 12.2856 9.85999 12.301 9.81709 12.3252C9.77419 12.3493 9.73647 12.3817 9.70609 12.4204L7.90295 14.717C7.7104 14.9622 7.88519 15.3234 8.19779 15.3234H11.5005C11.7073 15.3234 11.875 15.1556 11.8754 14.9488C11.8766 14.3202 12.0627 13.0889 12.6252 12.8004C12.6252 16.5242 12.6586 16.3197 12.5472 16.4321C12.4311 16.5472 12.889 16.5127 6.67952 16.5127C5.78327 16.5127 5.30272 15.4732 5.85094 14.789L8.891 10.9875C9.65627 10.441 10.5569 10.1524 11.4982 10.1524C14.5472 10.1524 15.6615 9.9607 17.0932 10.9673L17.5206 11.5022C17.5513 11.5406 17.5893 11.5727 17.6324 11.5965C17.6755 11.6202 17.7229 11.6353 17.7718 11.6408C17.8208 11.6462 17.8703 11.642 17.9176 11.6283C17.9649 11.6146 18.009 11.5918 18.0475 11.561C18.0859 11.5303 18.118 11.4923 18.1417 11.4492C18.1655 11.4061 18.1806 11.3587 18.186 11.3098C18.1915 11.2609 18.1873 11.2113 18.1736 11.164C18.1599 11.1167 18.1371 11.0726 18.1064 11.0341C17.6176 10.4224 17.6314 10.4304 17.5723 10.388C16.7447 9.79236 15.7611 9.4517 14.7423 9.40794C15.0528 9.06853 15.1354 8.79252 15.4487 8.0817C15.7779 7.33203 15.9602 6.51305 15.9602 5.66436C15.9602 4.78672 15.5058 3.9399 14.6677 3.41212C14.6677 2.63962 14.7532 2.06376 14.1792 1.48752C13.1364 0.448906 11.3322 1.17594 11.3322 2.66783V3.41212C10.5522 3.90335 10.0396 4.72046 10.0396 5.66436C10.0396 6.49529 10.2118 7.3086 10.5514 8.08221C10.8899 8.85002 10.962 9.08498 11.2581 9.4085C10.1872 9.45667 9.19639 9.8294 8.40665 10.4124C8.34564 10.4576 8.54142 10.2239 5.26551 14.3204C4.31087 15.5119 5.17676 17.2624 6.67943 17.2624H9.38111C9.3879 17.633 9.39175 18.0571 9.39283 18.5453C4.94738 19.8452 5.23013 19.7606 5.19466 19.7763C3.43697 20.5564 3.00258 22.901 4.43515 24.2502H1.37864C1.27921 24.2502 1.18386 24.2897 1.11355 24.36C1.04325 24.4303 1.00375 24.5257 1.00375 24.6251C1.00375 24.7245 1.04325 24.8199 1.11355 24.8902C1.18386 24.9605 1.27921 25 1.37864 25H24.6213C24.7208 25 24.8161 24.9605 24.8864 24.8902C24.9567 24.8199 24.9962 24.7245 24.9962 24.6251C24.9962 24.5257 24.9567 24.4303 24.8864 24.36C24.8161 24.2897 24.7208 24.2502 24.6213 24.2502ZM16.8526 14.3462L17.0312 14.5736H16.8097C16.8232 14.4959 16.8375 14.4204 16.8526 14.3462ZM9.14732 14.3462C9.16251 14.4204 9.17675 14.4959 9.19025 14.5736H8.96874L9.14732 14.3462ZM12.082 2.66783C12.082 1.85378 13.0723 1.44333 13.6491 2.01769C13.964 2.33391 13.9179 2.65753 13.9179 3.07275C13.3189 2.8945 12.681 2.8945 12.082 3.07275L12.082 2.66783ZM11.4237 4.27959C12.543 3.26216 14.4632 3.61216 15.0532 4.93114C14.0344 4.72172 13.3918 5.13536 12.8581 5.47955C12.2403 5.87814 11.7839 6.17209 10.7896 5.6772C10.7896 5.11961 11.0297 4.63775 11.4237 4.27959ZM10.8611 6.52298C11.8626 6.88587 12.4832 6.61361 13.2645 6.10963C13.8165 5.75354 14.2991 5.443 15.2094 5.7489C15.1894 6.97027 14.7758 7.74941 14.4295 8.53512C13.9223 9.6883 12.0771 9.68713 11.5704 8.53484C11.2234 7.74782 10.9908 7.29641 10.8611 6.52298ZM9.98683 23.1196C9.52886 23.3486 8.98791 23.5379 8.79709 24.2427H8.20403V22.6739L9.98683 23.1196ZM9.61091 24.2427C9.74231 24.0478 9.74995 24.0763 11.2286 23.337C11.2367 23.3329 11.2547 23.3229 11.2673 23.3146C11.9708 22.8456 12.0695 22.7303 12.4308 22.7303C12.6121 22.7301 12.7889 22.787 12.9359 22.8931C13.083 22.9991 13.1929 23.1489 13.2499 23.321L13.2906 23.4432C13.3204 23.5328 13.383 23.6079 13.4658 23.6534C13.5486 23.6989 13.6456 23.7115 13.7372 23.6886L17.7959 22.6739V24.2428H9.61091V24.2427ZM4.32615 22.2671C4.32615 21.4881 4.78276 20.7897 5.47699 20.4715L9.82174 19.201H13.8941C13.9935 19.201 14.0889 19.1615 14.1592 19.0912C14.2295 19.0209 14.269 18.9256 14.269 18.8262C14.269 18.7267 14.2295 18.6314 14.1592 18.5611C14.0889 18.4908 13.9935 18.4513 13.8941 18.4513H10.1424C10.1411 18.0034 10.1373 17.6103 10.131 17.2624H12.3537C12.5907 17.2624 12.816 17.1817 12.9998 17.0319C13.182 17.1813 13.4105 17.2628 13.6461 17.2624H15.8689C15.8596 17.7772 15.8571 18.3131 15.8571 18.828C15.8574 18.9024 15.8799 18.9749 15.9215 19.0365C16.0305 19.1973 15.7528 19.0767 20.5228 20.4715C21.769 21.0438 22.0694 22.69 21.0952 23.6642C20.7221 24.0373 20.2259 24.2428 19.6982 24.2428H18.5456V22.4866L18.908 22.396C18.9558 22.384 19.0007 22.3628 19.0402 22.3335C19.0798 22.3042 19.1132 22.2674 19.1385 22.2251C19.1638 22.1829 19.1806 22.1361 19.1878 22.0874C19.1951 22.0387 19.1927 21.9891 19.1807 21.9413C19.1688 21.8936 19.1476 21.8486 19.1183 21.8091C19.089 21.7695 19.0522 21.7361 19.0099 21.7108C18.9677 21.6854 18.9209 21.6687 18.8722 21.6614C18.8235 21.6542 18.7739 21.6566 18.7261 21.6686L13.8778 22.8806C13.4321 21.9735 12.2982 21.7261 11.5041 22.2557L10.9909 22.5978L7.27366 21.6686C7.2259 21.6566 7.17625 21.6542 7.12756 21.6614C7.07886 21.6687 7.03207 21.6855 6.98985 21.7108C6.90459 21.7619 6.84314 21.8449 6.81902 21.9413C6.79491 22.0378 6.8101 22.1399 6.86125 22.2251C6.91241 22.3104 6.99534 22.3719 7.0918 22.396L7.45417 22.4866V24.2428H6.30173C5.21237 24.2427 4.32615 23.3565 4.32615 22.2671Z"/>
</mask>
<path d="M24.6213 24.2502H21.5667C23.0019 22.8962 22.5586 20.5558 20.8055 19.7765C20.7699 19.7606 21.0459 19.8433 16.6071 18.5453C16.6081 18.0571 16.612 17.633 16.6188 17.2624H19.3205C20.8519 17.2624 21.6696 15.4876 20.7347 14.3207L20.0219 13.4294C19.9598 13.3518 19.8694 13.302 19.7706 13.291C19.6718 13.28 19.5727 13.3087 19.495 13.3708C19.4566 13.4016 19.4245 13.4396 19.4008 13.4827C19.377 13.5258 19.362 13.5732 19.3565 13.6221C19.3511 13.6711 19.3553 13.7206 19.369 13.7679C19.3827 13.8152 19.4056 13.8593 19.4363 13.8978L20.1493 14.7893C20.6969 15.4727 20.2174 16.5127 19.3205 16.5127C13.1384 16.5127 13.568 16.5463 13.455 16.4342C13.3406 16.3189 13.3749 16.529 13.3749 12.8004C13.9385 13.0895 14.1235 14.3246 14.1246 14.9485C14.1246 15.0479 14.1641 15.1433 14.2344 15.2136C14.3047 15.2839 14.4001 15.3234 14.4995 15.3234H17.8022C18.114 15.3234 18.2901 14.9629 18.0971 14.717L16.2939 12.4204C16.2637 12.3813 16.226 12.3484 16.183 12.3239C16.1401 12.2994 16.0926 12.2836 16.0435 12.2774C15.9944 12.2713 15.9446 12.275 15.8969 12.2882C15.8492 12.3014 15.8046 12.324 15.7657 12.3545C15.7267 12.3851 15.6942 12.4231 15.6701 12.4662C15.6459 12.5094 15.6305 12.557 15.6248 12.6061C15.619 12.6553 15.6231 12.7051 15.6367 12.7527C15.6504 12.8002 15.6733 12.8447 15.7042 12.8833L16.2617 13.5935C16.1754 13.917 16.1058 14.2208 16.0498 14.5736H14.8582C14.7595 13.2972 14.2622 11.9172 13 11.9876C11.7374 11.9174 11.2407 13.2949 11.1418 14.5736H9.95023C9.89418 14.2208 9.8246 13.9171 9.73833 13.5935L10.2959 12.8833C10.3263 12.8446 10.3487 12.8003 10.362 12.7529C10.3753 12.7055 10.3791 12.6559 10.3732 12.607C10.3673 12.5581 10.3518 12.5109 10.3277 12.468C10.3035 12.4251 10.2711 12.3874 10.2324 12.357C10.1937 12.3266 10.1494 12.3041 10.102 12.2909C10.0545 12.2776 10.005 12.2738 9.95611 12.2797C9.90723 12.2856 9.85999 12.301 9.81709 12.3252C9.77419 12.3493 9.73647 12.3817 9.70609 12.4204L7.90295 14.717C7.7104 14.9622 7.88519 15.3234 8.19779 15.3234H11.5005C11.7073 15.3234 11.875 15.1556 11.8754 14.9488C11.8766 14.3202 12.0627 13.0889 12.6252 12.8004C12.6252 16.5242 12.6586 16.3197 12.5472 16.4321C12.4311 16.5472 12.889 16.5127 6.67952 16.5127C5.78327 16.5127 5.30272 15.4732 5.85094 14.789L8.891 10.9875C9.65627 10.441 10.5569 10.1524 11.4982 10.1524C14.5472 10.1524 15.6615 9.9607 17.0932 10.9673L17.5206 11.5022C17.5513 11.5406 17.5893 11.5727 17.6324 11.5965C17.6755 11.6202 17.7229 11.6353 17.7718 11.6408C17.8208 11.6462 17.8703 11.642 17.9176 11.6283C17.9649 11.6146 18.009 11.5918 18.0475 11.561C18.0859 11.5303 18.118 11.4923 18.1417 11.4492C18.1655 11.4061 18.1806 11.3587 18.186 11.3098C18.1915 11.2609 18.1873 11.2113 18.1736 11.164C18.1599 11.1167 18.1371 11.0726 18.1064 11.0341C17.6176 10.4224 17.6314 10.4304 17.5723 10.388C16.7447 9.79236 15.7611 9.4517 14.7423 9.40794C15.0528 9.06853 15.1354 8.79252 15.4487 8.0817C15.7779 7.33203 15.9602 6.51305 15.9602 5.66436C15.9602 4.78672 15.5058 3.9399 14.6677 3.41212C14.6677 2.63962 14.7532 2.06376 14.1792 1.48752C13.1364 0.448906 11.3322 1.17594 11.3322 2.66783V3.41212C10.5522 3.90335 10.0396 4.72046 10.0396 5.66436C10.0396 6.49529 10.2118 7.3086 10.5514 8.08221C10.8899 8.85002 10.962 9.08498 11.2581 9.4085C10.1872 9.45667 9.19639 9.8294 8.40665 10.4124C8.34564 10.4576 8.54142 10.2239 5.26551 14.3204C4.31087 15.5119 5.17676 17.2624 6.67943 17.2624H9.38111C9.3879 17.633 9.39175 18.0571 9.39283 18.5453C4.94738 19.8452 5.23013 19.7606 5.19466 19.7763C3.43697 20.5564 3.00258 22.901 4.43515 24.2502H1.37864C1.27921 24.2502 1.18386 24.2897 1.11355 24.36C1.04325 24.4303 1.00375 24.5257 1.00375 24.6251C1.00375 24.7245 1.04325 24.8199 1.11355 24.8902C1.18386 24.9605 1.27921 25 1.37864 25H24.6213C24.7208 25 24.8161 24.9605 24.8864 24.8902C24.9567 24.8199 24.9962 24.7245 24.9962 24.6251C24.9962 24.5257 24.9567 24.4303 24.8864 24.36C24.8161 24.2897 24.7208 24.2502 24.6213 24.2502ZM16.8526 14.3462L17.0312 14.5736H16.8097C16.8232 14.4959 16.8375 14.4204 16.8526 14.3462ZM9.14732 14.3462C9.16251 14.4204 9.17675 14.4959 9.19025 14.5736H8.96874L9.14732 14.3462ZM12.082 2.66783C12.082 1.85378 13.0723 1.44333 13.6491 2.01769C13.964 2.33391 13.9179 2.65753 13.9179 3.07275C13.3189 2.8945 12.681 2.8945 12.082 3.07275L12.082 2.66783ZM11.4237 4.27959C12.543 3.26216 14.4632 3.61216 15.0532 4.93114C14.0344 4.72172 13.3918 5.13536 12.8581 5.47955C12.2403 5.87814 11.7839 6.17209 10.7896 5.6772C10.7896 5.11961 11.0297 4.63775 11.4237 4.27959ZM10.8611 6.52298C11.8626 6.88587 12.4832 6.61361 13.2645 6.10963C13.8165 5.75354 14.2991 5.443 15.2094 5.7489C15.1894 6.97027 14.7758 7.74941 14.4295 8.53512C13.9223 9.6883 12.0771 9.68713 11.5704 8.53484C11.2234 7.74782 10.9908 7.29641 10.8611 6.52298ZM9.98683 23.1196C9.52886 23.3486 8.98791 23.5379 8.79709 24.2427H8.20403V22.6739L9.98683 23.1196ZM9.61091 24.2427C9.74231 24.0478 9.74995 24.0763 11.2286 23.337C11.2367 23.3329 11.2547 23.3229 11.2673 23.3146C11.9708 22.8456 12.0695 22.7303 12.4308 22.7303C12.6121 22.7301 12.7889 22.787 12.9359 22.8931C13.083 22.9991 13.1929 23.1489 13.2499 23.321L13.2906 23.4432C13.3204 23.5328 13.383 23.6079 13.4658 23.6534C13.5486 23.6989 13.6456 23.7115 13.7372 23.6886L17.7959 22.6739V24.2428H9.61091V24.2427ZM4.32615 22.2671C4.32615 21.4881 4.78276 20.7897 5.47699 20.4715L9.82174 19.201H13.8941C13.9935 19.201 14.0889 19.1615 14.1592 19.0912C14.2295 19.0209 14.269 18.9256 14.269 18.8262C14.269 18.7267 14.2295 18.6314 14.1592 18.5611C14.0889 18.4908 13.9935 18.4513 13.8941 18.4513H10.1424C10.1411 18.0034 10.1373 17.6103 10.131 17.2624H12.3537C12.5907 17.2624 12.816 17.1817 12.9998 17.0319C13.182 17.1813 13.4105 17.2628 13.6461 17.2624H15.8689C15.8596 17.7772 15.8571 18.3131 15.8571 18.828C15.8574 18.9024 15.8799 18.9749 15.9215 19.0365C16.0305 19.1973 15.7528 19.0767 20.5228 20.4715C21.769 21.0438 22.0694 22.69 21.0952 23.6642C20.7221 24.0373 20.2259 24.2428 19.6982 24.2428H18.5456V22.4866L18.908 22.396C18.9558 22.384 19.0007 22.3628 19.0402 22.3335C19.0798 22.3042 19.1132 22.2674 19.1385 22.2251C19.1638 22.1829 19.1806 22.1361 19.1878 22.0874C19.1951 22.0387 19.1927 21.9891 19.1807 21.9413C19.1688 21.8936 19.1476 21.8486 19.1183 21.8091C19.089 21.7695 19.0522 21.7361 19.0099 21.7108C18.9677 21.6854 18.9209 21.6687 18.8722 21.6614C18.8235 21.6542 18.7739 21.6566 18.7261 21.6686L13.8778 22.8806C13.4321 21.9735 12.2982 21.7261 11.5041 22.2557L10.9909 22.5978L7.27366 21.6686C7.2259 21.6566 7.17625 21.6542 7.12756 21.6614C7.07886 21.6687 7.03207 21.6855 6.98985 21.7108C6.90459 21.7619 6.84314 21.8449 6.81902 21.9413C6.79491 22.0378 6.8101 22.1399 6.86125 22.2251C6.91241 22.3104 6.99534 22.3719 7.0918 22.396L7.45417 22.4866V24.2428H6.30173C5.21237 24.2427 4.32615 23.3565 4.32615 22.2671Z" fill="#2B2B2B"/>
<path d="M24.6213 24.2502H21.5667C23.0019 22.8962 22.5586 20.5558 20.8055 19.7765C20.7699 19.7606 21.0459 19.8433 16.6071 18.5453C16.6081 18.0571 16.612 17.633 16.6188 17.2624H19.3205C20.8519 17.2624 21.6696 15.4876 20.7347 14.3207L20.0219 13.4294C19.9598 13.3518 19.8694 13.302 19.7706 13.291C19.6718 13.28 19.5727 13.3087 19.495 13.3708C19.4566 13.4016 19.4245 13.4396 19.4008 13.4827C19.377 13.5258 19.362 13.5732 19.3565 13.6221C19.3511 13.6711 19.3553 13.7206 19.369 13.7679C19.3827 13.8152 19.4056 13.8593 19.4363 13.8978L20.1493 14.7893C20.6969 15.4727 20.2174 16.5127 19.3205 16.5127C13.1384 16.5127 13.568 16.5463 13.455 16.4342C13.3406 16.3189 13.3749 16.529 13.3749 12.8004C13.9385 13.0895 14.1235 14.3246 14.1246 14.9485C14.1246 15.0479 14.1641 15.1433 14.2344 15.2136C14.3047 15.2839 14.4001 15.3234 14.4995 15.3234H17.8022C18.114 15.3234 18.2901 14.9629 18.0971 14.717L16.2939 12.4204C16.2637 12.3813 16.226 12.3484 16.183 12.3239C16.1401 12.2994 16.0926 12.2836 16.0435 12.2774C15.9944 12.2713 15.9446 12.275 15.8969 12.2882C15.8492 12.3014 15.8046 12.324 15.7657 12.3545C15.7267 12.3851 15.6942 12.4231 15.6701 12.4662C15.6459 12.5094 15.6305 12.557 15.6248 12.6061C15.619 12.6553 15.6231 12.7051 15.6367 12.7527C15.6504 12.8002 15.6733 12.8447 15.7042 12.8833L16.2617 13.5935C16.1754 13.917 16.1058 14.2208 16.0498 14.5736H14.8582C14.7595 13.2972 14.2622 11.9172 13 11.9876C11.7374 11.9174 11.2407 13.2949 11.1418 14.5736H9.95023C9.89418 14.2208 9.8246 13.9171 9.73833 13.5935L10.2959 12.8833C10.3263 12.8446 10.3487 12.8003 10.362 12.7529C10.3753 12.7055 10.3791 12.6559 10.3732 12.607C10.3673 12.5581 10.3518 12.5109 10.3277 12.468C10.3035 12.4251 10.2711 12.3874 10.2324 12.357C10.1937 12.3266 10.1494 12.3041 10.102 12.2909C10.0545 12.2776 10.005 12.2738 9.95611 12.2797C9.90723 12.2856 9.85999 12.301 9.81709 12.3252C9.77419 12.3493 9.73647 12.3817 9.70609 12.4204L7.90295 14.717C7.7104 14.9622 7.88519 15.3234 8.19779 15.3234H11.5005C11.7073 15.3234 11.875 15.1556 11.8754 14.9488C11.8766 14.3202 12.0627 13.0889 12.6252 12.8004C12.6252 16.5242 12.6586 16.3197 12.5472 16.4321C12.4311 16.5472 12.889 16.5127 6.67952 16.5127C5.78327 16.5127 5.30272 15.4732 5.85094 14.789L8.891 10.9875C9.65627 10.441 10.5569 10.1524 11.4982 10.1524C14.5472 10.1524 15.6615 9.9607 17.0932 10.9673L17.5206 11.5022C17.5513 11.5406 17.5893 11.5727 17.6324 11.5965C17.6755 11.6202 17.7229 11.6353 17.7718 11.6408C17.8208 11.6462 17.8703 11.642 17.9176 11.6283C17.9649 11.6146 18.009 11.5918 18.0475 11.561C18.0859 11.5303 18.118 11.4923 18.1417 11.4492C18.1655 11.4061 18.1806 11.3587 18.186 11.3098C18.1915 11.2609 18.1873 11.2113 18.1736 11.164C18.1599 11.1167 18.1371 11.0726 18.1064 11.0341C17.6176 10.4224 17.6314 10.4304 17.5723 10.388C16.7447 9.79236 15.7611 9.4517 14.7423 9.40794C15.0528 9.06853 15.1354 8.79252 15.4487 8.0817C15.7779 7.33203 15.9602 6.51305 15.9602 5.66436C15.9602 4.78672 15.5058 3.9399 14.6677 3.41212C14.6677 2.63962 14.7532 2.06376 14.1792 1.48752C13.1364 0.448906 11.3322 1.17594 11.3322 2.66783V3.41212C10.5522 3.90335 10.0396 4.72046 10.0396 5.66436C10.0396 6.49529 10.2118 7.3086 10.5514 8.08221C10.8899 8.85002 10.962 9.08498 11.2581 9.4085C10.1872 9.45667 9.19639 9.8294 8.40665 10.4124C8.34564 10.4576 8.54142 10.2239 5.26551 14.3204C4.31087 15.5119 5.17676 17.2624 6.67943 17.2624H9.38111C9.3879 17.633 9.39175 18.0571 9.39283 18.5453C4.94738 19.8452 5.23013 19.7606 5.19466 19.7763C3.43697 20.5564 3.00258 22.901 4.43515 24.2502H1.37864C1.27921 24.2502 1.18386 24.2897 1.11355 24.36C1.04325 24.4303 1.00375 24.5257 1.00375 24.6251C1.00375 24.7245 1.04325 24.8199 1.11355 24.8902C1.18386 24.9605 1.27921 25 1.37864 25H24.6213C24.7208 25 24.8161 24.9605 24.8864 24.8902C24.9567 24.8199 24.9962 24.7245 24.9962 24.6251C24.9962 24.5257 24.9567 24.4303 24.8864 24.36C24.8161 24.2897 24.7208 24.2502 24.6213 24.2502ZM16.8526 14.3462L17.0312 14.5736H16.8097C16.8232 14.4959 16.8375 14.4204 16.8526 14.3462ZM9.14732 14.3462C9.16251 14.4204 9.17675 14.4959 9.19025 14.5736H8.96874L9.14732 14.3462ZM12.082 2.66783C12.082 1.85378 13.0723 1.44333 13.6491 2.01769C13.964 2.33391 13.9179 2.65753 13.9179 3.07275C13.3189 2.8945 12.681 2.8945 12.082 3.07275L12.082 2.66783ZM11.4237 4.27959C12.543 3.26216 14.4632 3.61216 15.0532 4.93114C14.0344 4.72172 13.3918 5.13536 12.8581 5.47955C12.2403 5.87814 11.7839 6.17209 10.7896 5.6772C10.7896 5.11961 11.0297 4.63775 11.4237 4.27959ZM10.8611 6.52298C11.8626 6.88587 12.4832 6.61361 13.2645 6.10963C13.8165 5.75354 14.2991 5.443 15.2094 5.7489C15.1894 6.97027 14.7758 7.74941 14.4295 8.53512C13.9223 9.6883 12.0771 9.68713 11.5704 8.53484C11.2234 7.74782 10.9908 7.29641 10.8611 6.52298ZM9.98683 23.1196C9.52886 23.3486 8.98791 23.5379 8.79709 24.2427H8.20403V22.6739L9.98683 23.1196ZM9.61091 24.2427C9.74231 24.0478 9.74995 24.0763 11.2286 23.337C11.2367 23.3329 11.2547 23.3229 11.2673 23.3146C11.9708 22.8456 12.0695 22.7303 12.4308 22.7303C12.6121 22.7301 12.7889 22.787 12.9359 22.8931C13.083 22.9991 13.1929 23.1489 13.2499 23.321L13.2906 23.4432C13.3204 23.5328 13.383 23.6079 13.4658 23.6534C13.5486 23.6989 13.6456 23.7115 13.7372 23.6886L17.7959 22.6739V24.2428H9.61091V24.2427ZM4.32615 22.2671C4.32615 21.4881 4.78276 20.7897 5.47699 20.4715L9.82174 19.201H13.8941C13.9935 19.201 14.0889 19.1615 14.1592 19.0912C14.2295 19.0209 14.269 18.9256 14.269 18.8262C14.269 18.7267 14.2295 18.6314 14.1592 18.5611C14.0889 18.4908 13.9935 18.4513 13.8941 18.4513H10.1424C10.1411 18.0034 10.1373 17.6103 10.131 17.2624H12.3537C12.5907 17.2624 12.816 17.1817 12.9998 17.0319C13.182 17.1813 13.4105 17.2628 13.6461 17.2624H15.8689C15.8596 17.7772 15.8571 18.3131 15.8571 18.828C15.8574 18.9024 15.8799 18.9749 15.9215 19.0365C16.0305 19.1973 15.7528 19.0767 20.5228 20.4715C21.769 21.0438 22.0694 22.69 21.0952 23.6642C20.7221 24.0373 20.2259 24.2428 19.6982 24.2428H18.5456V22.4866L18.908 22.396C18.9558 22.384 19.0007 22.3628 19.0402 22.3335C19.0798 22.3042 19.1132 22.2674 19.1385 22.2251C19.1638 22.1829 19.1806 22.1361 19.1878 22.0874C19.1951 22.0387 19.1927 21.9891 19.1807 21.9413C19.1688 21.8936 19.1476 21.8486 19.1183 21.8091C19.089 21.7695 19.0522 21.7361 19.0099 21.7108C18.9677 21.6854 18.9209 21.6687 18.8722 21.6614C18.8235 21.6542 18.7739 21.6566 18.7261 21.6686L13.8778 22.8806C13.4321 21.9735 12.2982 21.7261 11.5041 22.2557L10.9909 22.5978L7.27366 21.6686C7.2259 21.6566 7.17625 21.6542 7.12756 21.6614C7.07886 21.6687 7.03207 21.6855 6.98985 21.7108C6.90459 21.7619 6.84314 21.8449 6.81902 21.9413C6.79491 22.0378 6.8101 22.1399 6.86125 22.2251C6.91241 22.3104 6.99534 22.3719 7.0918 22.396L7.45417 22.4866V24.2428H6.30173C5.21237 24.2427 4.32615 23.3565 4.32615 22.2671Z" stroke="#2B2B2B" stroke-width="0.4" mask="url(#path-1-outside-1_4222_12425)"/>
<path d="M18.3983 12.8395C18.4412 12.8936 18.4944 12.9386 18.5547 12.9721C18.6153 13.0056 18.6818 13.0269 18.7506 13.0346C18.8193 13.0423 18.889 13.0364 18.9554 13.0171C19.0219 12.9978 19.0838 12.9656 19.1378 12.9223C19.1918 12.8789 19.2366 12.8254 19.2698 12.7647C19.303 12.7039 19.3238 12.6373 19.3311 12.5685C19.3384 12.4997 19.3321 12.4301 19.3124 12.3637C19.2928 12.2976 19.2603 12.2359 19.2168 12.1823L19.1582 12.1094C19.1153 12.0553 19.0621 12.0103 19.0017 11.9768C18.9412 11.9433 18.8746 11.922 18.8059 11.9143C18.7371 11.9066 18.6675 11.9125 18.6011 11.9318C18.5346 11.9511 18.4726 11.9833 18.4187 12.0266C18.3647 12.07 18.3199 12.1235 18.2867 12.1842C18.2535 12.245 18.2327 12.3116 18.2253 12.3804C18.218 12.4492 18.2244 12.5188 18.2441 12.5851C18.2637 12.6513 18.2962 12.713 18.3397 12.7666L18.3983 12.8395Z" fill="#2B2B2B" stroke="#2B2B2B" stroke-width="0.3"/>
</svg>
