<svg width="69" height="40" viewBox="0 0 69 40" fill="none" xmlns="http://www.w3.org/2000/svg">
<path opacity="0.6" d="M24.6745 9.40905C23.955 8.47792 22.8123 7.95215 21.6189 8.00343C20.4254 8.05455 19.3342 8.67593 18.701 9.66521L13.4639 17.8422H10.2062C9.62138 17.8428 9.06058 18.0699 8.64692 18.4739C8.23325 18.8779 8.00065 19.4255 8 19.9965V29.8455C8.00063 30.4166 8.23322 30.9642 8.64692 31.3682C9.0606 31.7719 9.62138 31.9993 10.2062 31.9999H25.9305C26.6907 31.9989 27.4299 31.7544 28.0341 31.3039C28.6386 30.8534 29.0749 30.2217 29.2764 29.5057L31.9002 20.1099H31.8999C32.1325 19.2769 31.9542 18.3857 31.4175 17.6996C30.8807 17.0135 30.0471 16.6109 29.1629 16.6109H24.0632L25.2648 12.509C25.5801 11.4426 25.3614 10.2936 24.6746 9.409L24.6745 9.40905ZM9.89089 29.8457V19.9967C9.89089 19.8267 10.0319 19.689 10.206 19.689H13.0427V30.1532H10.206C10.0319 30.1532 9.89089 30.0153 9.89089 29.8455V29.8457ZM29.1623 18.4582V18.458C29.4565 18.4588 29.7339 18.5932 29.9124 18.8215C30.091 19.0499 30.1507 19.3465 30.0739 19.6239L27.4502 29.0196V29.0199C27.3588 29.3453 27.1606 29.6324 26.886 29.8372C26.6115 30.0421 26.2754 30.1532 25.93 30.1536H14.9335V19.0304L20.3054 10.6403C20.6245 10.1881 21.142 9.90821 21.7039 9.88389C22.2655 9.85978 22.8062 10.0941 23.1648 10.517C23.4954 10.941 23.6007 11.4927 23.4485 12.0043L21.9042 17.2809C21.8227 17.5594 21.8797 17.8593 22.0585 18.0905C22.237 18.3218 22.5165 18.4578 22.813 18.4578L29.1623 18.4582Z" fill="#2B2B2B"/>
<path opacity="0.6" d="M42.343 27.956V23.9936H43.0241C43.2528 23.8113 43.4666 23.5545 43.6655 23.223C43.8643 22.8916 44.0334 22.4375 44.1726 21.8608C44.3118 21.2841 44.4079 20.5384 44.4609 19.6236L44.7294 15.3182H51.2372V23.9936H52.3707V27.946H50.6009V25.5H44.1129V27.956H42.343ZM45.1719 23.9936H49.4673V16.8643H46.3899L46.2308 19.6236C46.1877 20.3163 46.1181 20.9361 46.022 21.483C45.9259 22.0298 45.8049 22.5121 45.6591 22.9297C45.5133 23.344 45.3509 23.6986 45.1719 23.9936ZM55.9913 25.6541C55.5074 25.6541 55.0716 25.5679 54.6838 25.3956C54.2993 25.2199 53.9944 24.9614 53.769 24.62C53.5469 24.2786 53.4359 23.8577 53.4359 23.3572C53.4359 22.9264 53.5154 22.5701 53.6745 22.2884C53.8336 22.0066 54.0507 21.7812 54.3258 21.6122C54.6009 21.4432 54.9108 21.3156 55.2555 21.2294C55.6035 21.1399 55.9631 21.0753 56.3343 21.0355C56.7818 20.9891 57.1447 20.9477 57.4231 20.9112C57.7015 20.8714 57.9037 20.8118 58.0297 20.7322C58.1589 20.6494 58.2235 20.5218 58.2235 20.3494V20.3196C58.2235 19.9451 58.1125 19.6551 57.8904 19.4496C57.6684 19.2441 57.3485 19.1413 56.9309 19.1413C56.4901 19.1413 56.1404 19.2375 55.8819 19.4297C55.6267 19.6219 55.4544 19.849 55.3649 20.1108L53.6845 19.8722C53.8171 19.4081 54.0358 19.0204 54.3407 18.7088C54.6457 18.3939 55.0185 18.1586 55.4593 18.0028C55.9002 17.8438 56.3874 17.7642 56.921 17.7642C57.2889 17.7642 57.6551 17.8073 58.0197 17.8935C58.3843 17.9796 58.7174 18.1222 59.019 18.321C59.3206 18.5166 59.5626 18.7834 59.7449 19.1214C59.9305 19.4595 60.0233 19.8821 60.0233 20.3892V25.5H58.2931V24.451H58.2335C58.1241 24.6631 57.97 24.862 57.7711 25.0476C57.5756 25.2299 57.3287 25.3774 57.0304 25.4901C56.7354 25.5994 56.389 25.6541 55.9913 25.6541ZM56.4586 24.3317C56.8199 24.3317 57.1331 24.2604 57.3983 24.1179C57.6634 23.9721 57.8672 23.7798 58.0098 23.5412C58.1556 23.3026 58.2285 23.0424 58.2285 22.7607V21.8608C58.1722 21.9072 58.0761 21.9503 57.9402 21.9901C57.8076 22.0298 57.6584 22.0646 57.4927 22.0945C57.327 22.1243 57.1629 22.1508 57.0005 22.174C56.8381 22.1972 56.6973 22.2171 56.5779 22.2337C56.3095 22.2701 56.0692 22.3298 55.8571 22.4126C55.6449 22.4955 55.4776 22.6115 55.3549 22.7607C55.2323 22.9065 55.171 23.0954 55.171 23.3274C55.171 23.6589 55.292 23.9091 55.5339 24.0781C55.7759 24.2472 56.0841 24.3317 56.4586 24.3317Z" fill="#2B2B2B"/>
</svg>
