<svg width="34" height="34" viewBox="0 0 34 34" fill="none" xmlns="http://www.w3.org/2000/svg">
<rect width="34" height="34" rx="8" fill="#F5F5F5"/>
<path d="M9.66107 13.8596L9.00257 13.107L9.66107 13.8596ZM14.7611 9.39709L14.1026 8.64451L14.1026 8.64451L14.7611 9.39709ZM19.2391 9.39709L18.5806 10.1497L19.2391 9.39709ZM24.3391 13.8596L23.6806 14.6122L24.3391 13.8596ZM16.3972 8.22396L16.6807 9.1829L16.3972 8.22396ZM17.6028 8.22396L17.3193 9.1829L17.6028 8.22396ZM8.56903 15.3026L9.53655 15.5554L8.56903 15.3026ZM8.86679 14.6462L8.03941 14.0846H8.03941L8.86679 14.6462ZM9.66003 25.269L10.114 24.378H10.114L9.66003 25.269ZM8.73161 24.3403L7.8406 24.7942H7.8406L8.73161 24.3403ZM25.2686 24.3403L24.3776 23.8863L25.2686 24.3403ZM24.3395 25.269L23.8855 24.378L24.3395 25.269ZM25.431 15.3026L24.4635 15.5554L25.431 15.3026ZM25.1332 14.6462L25.9606 14.0846V14.0846L25.1332 14.6462ZM20.8946 16.6451C21.2851 16.2546 21.2851 15.6214 20.8946 15.2309C20.5041 14.8403 19.8709 14.8403 19.4804 15.2309L20.8946 16.6451ZM15.9375 20.188L15.2304 20.8951C15.6209 21.2856 16.2541 21.2856 16.6446 20.8951L15.9375 20.188ZM14.5196 17.3559C14.1291 16.9653 13.4959 16.9653 13.1054 17.3559C12.7149 17.7464 12.7149 18.3796 13.1054 18.7701L14.5196 17.3559ZM24.5 16.4184V22.1006H26.5V16.4184H24.5ZM22.1002 24.5005H11.9002V26.5005H22.1002V24.5005ZM9.5 22.1006V16.4184H7.5V22.1006H9.5ZM10.3196 14.6122L15.4196 10.1497L14.1026 8.64451L9.00257 13.107L10.3196 14.6122ZM18.5806 10.1497L23.6806 14.6122L24.9976 13.107L19.8976 8.64451L18.5806 10.1497ZM15.4196 10.1497C15.8278 9.79248 16.0919 9.56222 16.3081 9.40053C16.5143 9.24635 16.6164 9.20192 16.6807 9.1829L16.1136 7.26501C15.7315 7.378 15.4122 7.57308 15.1103 7.79893C14.8183 8.01728 14.4876 8.30759 14.1026 8.64451L15.4196 10.1497ZM19.8976 8.64451C19.5125 8.30754 19.1818 8.01724 18.8898 7.79887C18.5877 7.57302 18.2684 7.37798 17.8864 7.26501L17.3193 9.1829C17.3836 9.20194 17.4859 9.24641 17.6921 9.40059C17.9083 9.56226 18.1725 9.79253 18.5806 10.1497L19.8976 8.64451ZM16.6807 9.1829C16.889 9.12132 17.111 9.12132 17.3193 9.1829L17.8864 7.26501C17.308 7.09395 16.692 7.09395 16.1136 7.26501L16.6807 9.1829ZM9.5 16.4184C9.5 15.7983 9.50759 15.6662 9.53655 15.5554L7.60152 15.0498C7.49241 15.4673 7.5 15.903 7.5 16.4184H9.5ZM9.00257 13.107C8.61483 13.4463 8.28183 13.7275 8.03941 14.0846L9.69417 15.2079C9.75847 15.1132 9.85278 15.0206 10.3196 14.6122L9.00257 13.107ZM9.53655 15.5554C9.56898 15.4313 9.62231 15.3137 9.69417 15.2079L8.03941 14.0846C7.83946 14.3792 7.69144 14.7056 7.60152 15.0498L9.53655 15.5554ZM11.9002 24.5005C11.2886 24.5005 10.89 24.4997 10.5856 24.4749C10.2929 24.451 10.1767 24.4099 10.114 24.378L9.20604 26.16C9.5979 26.3596 10.0068 26.4343 10.423 26.4683C10.8275 26.5013 11.3217 26.5005 11.9002 26.5005V24.5005ZM7.5 22.1006C7.5 22.6791 7.49922 23.1732 7.53227 23.5777C7.56628 23.9939 7.641 24.4025 7.8406 24.7942L9.62262 23.8863C9.59061 23.8234 9.54953 23.7073 9.52563 23.4148C9.50078 23.1106 9.5 22.7121 9.5 22.1006H7.5ZM10.114 24.378C9.90262 24.2702 9.73062 24.0982 9.62262 23.8863L7.8406 24.7942C8.14007 25.382 8.61776 25.8602 9.20604 26.16L10.114 24.378ZM24.5 22.1006C24.5 22.7122 24.4993 23.1107 24.4745 23.415C24.4506 23.7075 24.4096 23.8236 24.3776 23.8863L26.1596 24.7942C26.3593 24.4024 26.4339 23.9937 26.4679 23.5775C26.5008 23.1731 26.5 22.679 26.5 22.1006H24.5ZM22.1002 26.5005C22.6787 26.5005 23.1727 26.5013 23.5771 26.4683C23.9932 26.4343 24.4018 26.3596 24.7935 26.16L23.8855 24.378C23.8227 24.41 23.7067 24.451 23.4143 24.4749C23.1102 24.4997 22.7118 24.5005 22.1002 24.5005V26.5005ZM24.3776 23.8863C24.2699 24.0976 24.0976 24.2699 23.8855 24.378L24.7935 26.16C25.3811 25.8606 25.8598 25.3826 26.1596 24.7942L24.3776 23.8863ZM26.5 16.4184C26.5 15.9031 26.5076 15.4673 26.3985 15.0498L24.4635 15.5554C24.4924 15.6662 24.5 15.7982 24.5 16.4184H26.5ZM23.6806 14.6122C24.147 15.0203 24.2414 15.1131 24.3058 15.2079L25.9606 14.0846C25.7182 13.7276 25.3857 13.4466 24.9976 13.107L23.6806 14.6122ZM26.3985 15.0498C26.3086 14.7055 26.1604 14.379 25.9606 14.0846L24.3058 15.2079C24.3777 15.3139 24.4311 15.4314 24.4635 15.5554L26.3985 15.0498ZM19.4804 15.2309L15.2304 19.4809L16.6446 20.8951L20.8946 16.6451L19.4804 15.2309ZM16.6446 19.4809L14.5196 17.3559L13.1054 18.7701L15.2304 20.8951L16.6446 19.4809Z" fill="#2B2B2B"/>
</svg>
