<svg width="34" height="34" viewBox="0 0 34 34" fill="none" xmlns="http://www.w3.org/2000/svg">
<rect width="34" height="34" rx="8" fill="#F5F5F5"/>
<circle cx="17" cy="17" r="9" stroke="#2B2B2B" stroke-width="2" stroke-linecap="round" stroke-linejoin="round"/>
<path d="M13.1696 12.2506C13.2736 11.9165 13.7264 11.9165 13.8304 12.2506L14.1824 13.3816C14.2289 13.531 14.3623 13.6322 14.5128 13.6322H15.652C15.9885 13.6322 16.1284 14.0817 15.8561 14.2882L14.9345 14.9872C14.8128 15.0795 14.7618 15.2432 14.8083 15.3926L15.1604 16.5237C15.2643 16.8578 14.898 17.1356 14.6258 16.9291L13.7042 16.2301C13.5824 16.1377 13.4176 16.1377 13.2958 16.2301L12.3742 16.9291C12.102 17.1356 11.7357 16.8578 11.8396 16.5237L12.1917 15.3926C12.2382 15.2432 12.1872 15.0795 12.0655 14.9872L11.1439 14.2882C10.8716 14.0817 11.0115 13.6322 11.348 13.6322H12.4872C12.6377 13.6322 12.7711 13.531 12.8176 13.3816L13.1696 12.2506Z" fill="#2B2B2B"/>
<path d="M20.1696 12.2506C20.2736 11.9165 20.7264 11.9165 20.8304 12.2506L21.1824 13.3816C21.2289 13.531 21.3623 13.6322 21.5128 13.6322H22.652C22.9885 13.6322 23.1284 14.0817 22.8561 14.2882L21.9345 14.9872C21.8128 15.0795 21.7618 15.2432 21.8083 15.3926L22.1604 16.5237C22.2643 16.8578 21.898 17.1356 21.6258 16.9291L20.7042 16.2301C20.5824 16.1377 20.4176 16.1377 20.2958 16.2301L19.3742 16.9291C19.102 17.1356 18.7357 16.8578 18.8396 16.5237L19.1917 15.3926C19.2382 15.2432 19.1872 15.0795 19.0655 14.9872L18.1439 14.2882C17.8716 14.0817 18.0115 13.6322 18.348 13.6322H19.4872C19.6377 13.6322 19.7711 13.531 19.8176 13.3816L20.1696 12.2506Z" fill="#2B2B2B"/>
<path d="M13 20L13.4 20.3C15.5333 21.9 18.4667 21.9 20.6 20.3L21 20" stroke="#2B2B2B" stroke-width="2" stroke-linecap="round" stroke-linejoin="round"/>
</svg>
