<svg width="34" height="34" viewBox="0 0 34 34" fill="none" xmlns="http://www.w3.org/2000/svg">
<rect width="34" height="34" rx="8" fill="#F5F5F5"/>
<path d="M16.1232 25.3255L16.7567 24.5517L16.1232 25.3255ZM17.877 25.3255L18.5105 26.0992L17.877 25.3255ZM16.7288 25.7135L16.9999 24.7509H16.9999L16.7288 25.7135ZM17.271 25.7135L17.542 26.6761L17.271 25.7135ZM17 15C16.4477 15 16 14.5523 16 14H14C14 15.6569 15.3431 17 17 17V15ZM16 14C16 13.4477 16.4477 13 17 13V11C15.3431 11 14 12.3431 14 14H16ZM17 13C17.5523 13 18 13.4477 18 14H20C20 12.3431 18.6569 11 17 11V13ZM18 14C18 14.5523 17.5523 15 17 15V17C18.6569 17 20 15.6569 20 14H18ZM16.7567 24.5517C15.8543 23.8128 14.3952 22.4879 13.1689 20.7829C11.9376 19.071 11 17.0586 11 14.9231H9C9 17.6394 10.1846 20.059 11.5453 21.9508C12.9109 23.8495 14.5134 25.2998 15.4897 26.0992L16.7567 24.5517ZM11 14.9231C11 13.3558 11.6294 11.8504 12.7534 10.7387L11.3471 9.31671C9.84557 10.8017 9 12.8182 9 14.9231H11ZM12.7534 10.7387C13.8778 9.62669 15.4052 9 17 9V7C14.8819 7 12.8482 7.83208 11.3471 9.31671L12.7534 10.7387ZM17 9C18.5949 9 20.1222 9.62669 21.2466 10.7387L22.6529 9.31672C21.1518 7.8321 19.1182 7 17 7V9ZM21.2466 10.7387C22.3706 11.8504 23 13.3557 23 14.9231H25C25 12.8182 24.1544 10.8017 22.6529 9.31672L21.2466 10.7387ZM23 14.9231C23 17.0585 22.0624 19.071 20.8311 20.7829C19.6049 22.4879 18.1459 23.8128 17.2434 24.5517L18.5105 26.0992C19.4868 25.2998 21.0892 23.8495 22.4548 21.9507C23.8154 20.059 25 17.6394 25 14.9231H23ZM15.4897 26.0992C15.7162 26.2847 16.017 26.5519 16.4578 26.6761L16.9999 24.7509C17.0053 24.7524 17.0139 24.7556 17.0219 24.7594C17.0286 24.7626 17.0261 24.7622 17.0103 24.7516C16.993 24.7399 16.9662 24.7205 16.9221 24.6857C16.8774 24.6505 16.8263 24.6087 16.7567 24.5517L15.4897 26.0992ZM17.2434 24.5517C17.1739 24.6086 17.1228 24.6504 17.0781 24.6856C17.0341 24.7203 17.0073 24.7397 16.99 24.7514C16.9742 24.762 16.9716 24.7625 16.9782 24.7593C16.9861 24.7555 16.9946 24.7524 17 24.7509L17.542 26.6761C17.9827 26.552 18.2833 26.2852 18.5105 26.0992L17.2434 24.5517ZM16.4578 26.6761C16.7913 26.7699 17.2086 26.7699 17.542 26.6761L17 24.7509C17.0109 24.7479 17.0181 24.7464 17.0212 24.7458C17.0245 24.7451 17.0253 24.7451 17.0236 24.7453C17.0219 24.7455 17.0188 24.7458 17.0144 24.7461C17.0101 24.7463 17.0052 24.7465 16.9999 24.7465C16.9947 24.7465 16.9898 24.7463 16.9854 24.7461C16.981 24.7458 16.9779 24.7455 16.9763 24.7453C16.9746 24.7451 16.9754 24.7451 16.9786 24.7458C16.9817 24.7464 16.989 24.7479 16.9999 24.7509L16.4578 26.6761Z" fill="#2B2B2B"/>
</svg>
