<svg width="34" height="34" viewBox="0 0 34 34" fill="none" xmlns="http://www.w3.org/2000/svg">
<rect width="34" height="34" rx="8" fill="white" fill-opacity="0.15"/>
<path d="M8.21799 11.092L9.10899 11.546L8.21799 11.092ZM9.0918 10.218L9.54579 11.109L9.0918 10.218ZM9.0918 23.782L9.54579 22.891H9.54579L9.0918 23.782ZM8.21799 22.908L7.32698 23.362H7.32698L8.21799 22.908ZM25.7822 22.908L24.8912 22.454L25.7822 22.908ZM24.9078 23.782L24.4538 22.891L24.9078 23.782ZM25.7822 11.092L24.8912 11.546V11.546L25.7822 11.092ZM24.9078 10.218L25.3618 9.32698V9.32698L24.9078 10.218ZM9.58917 10.192C9.14292 9.8666 8.51738 9.96458 8.19199 10.4108C7.8666 10.8571 7.96458 11.4826 8.41083 11.808L9.58917 10.192ZM17.2286 17L16.6394 17.808C16.9987 18.07 17.4877 18.0633 17.8397 17.7915L17.2286 17ZM25.6111 11.7915C26.0482 11.454 26.129 10.826 25.7915 10.3889C25.454 9.95173 24.826 9.87095 24.3888 10.2085L25.6111 11.7915ZM25 13.2V20.8H27V13.2H25ZM22.8002 23H11.2002V25H22.8002V23ZM9 20.8V13.2H7V20.8H9ZM11.2002 11H22.8002V9H11.2002V11ZM9 13.2C9 12.6234 9.00078 12.2511 9.02393 11.9678C9.04612 11.6962 9.0838 11.5955 9.10899 11.546L7.32698 10.6381C7.13419 11.0164 7.06287 11.4096 7.03057 11.805C6.99922 12.1886 7 12.6564 7 13.2H9ZM11.2002 9C10.6566 9 10.1887 8.99922 9.80498 9.03057C9.40962 9.06286 9.01624 9.13416 8.63781 9.32698L9.54579 11.109C9.59517 11.0838 9.69595 11.0461 9.9678 11.0239C10.2513 11.0008 10.6237 11 11.2002 11V9ZM9.10899 11.546C9.205 11.3576 9.35788 11.2047 9.54579 11.109L8.63781 9.32698C8.07306 9.61473 7.61447 10.0738 7.32698 10.6381L9.10899 11.546ZM11.2002 23C10.6237 23 10.2513 22.9992 9.96782 22.9761C9.69598 22.9538 9.59519 22.9161 9.54579 22.891L8.63781 24.673C9.01623 24.8658 9.40959 24.9371 9.80496 24.9694C10.1887 25.0008 10.6566 25 11.2002 25V23ZM7 20.8C7 21.3435 6.99922 21.8113 7.03057 22.195C7.06287 22.5904 7.13418 22.9836 7.32698 23.362L9.10899 22.454C9.08381 22.4046 9.04613 22.3039 9.02393 22.0322C9.00078 21.7488 9 21.3765 9 20.8H7ZM9.54579 22.891C9.35778 22.7952 9.20494 22.6424 9.10899 22.454L7.32698 23.362C7.61452 23.9264 8.07317 24.3853 8.63781 24.673L9.54579 22.891ZM25 20.8C25 21.3766 24.9993 21.7489 24.9762 22.0323C24.954 22.3041 24.9163 22.4047 24.8912 22.454L26.6732 23.362C26.8661 22.9835 26.9373 22.5902 26.9696 22.1949C27.0008 21.8112 27 21.3434 27 20.8H25ZM22.8002 25C23.3438 25 23.8115 25.0008 24.1951 24.9694C24.5904 24.9371 24.9835 24.8657 25.3618 24.673L24.4538 22.891C24.4043 22.9162 24.3036 22.9539 24.0321 22.9761C23.7489 22.9992 23.3767 23 22.8002 23V25ZM24.8912 22.454C24.7956 22.6417 24.6425 22.7948 24.4538 22.891L25.3618 24.673C25.9257 24.3856 26.3854 23.927 26.6732 23.362L24.8912 22.454ZM27 13.2C27 12.6565 27.0008 12.1887 26.9695 11.8051C26.9373 11.4098 26.8661 11.0165 26.6732 10.6381L24.8912 11.546C24.9164 11.5954 24.954 11.696 24.9762 11.9677C24.9993 12.2511 25 12.6233 25 13.2H27ZM22.8002 11C23.3768 11 23.7489 11.0008 24.0321 11.0239C24.3036 11.0461 24.4043 11.0838 24.4538 11.109L25.3618 9.32698C24.9835 9.13421 24.5904 9.06288 24.1951 9.03057C23.8115 8.99922 23.3437 9 22.8002 9V11ZM26.6732 10.6381C26.3854 10.0732 25.9259 9.61439 25.3618 9.32698L24.4538 11.109C24.6424 11.2051 24.7956 11.3583 24.8912 11.546L26.6732 10.6381ZM8.41083 11.808L16.6394 17.808L17.8177 16.192L9.58917 10.192L8.41083 11.808ZM17.8397 17.7915L25.6111 11.7915L24.3888 10.2085L16.6175 16.2085L17.8397 17.7915Z" fill="white"/>
</svg>
