<svg width="34" height="34" viewBox="0 0 34 34" fill="none" xmlns="http://www.w3.org/2000/svg">
<rect width="34" height="34" rx="8" fill="white" fill-opacity="0.15"/>
<path d="M24.8002 14.0391L25.4252 13.2585V13.2585L24.8002 14.0391ZM19.2012 9.55626L18.5762 10.3369L19.2012 9.55626ZM15.271 9.50194L14.6679 8.70431L15.271 9.50194ZM9.27002 14.0397L9.87317 14.8374L9.27002 14.0397ZM8.40332 14.7905L7.60503 14.1882L8.40332 14.7905ZM8.07624 15.4481L9.03812 15.7216L8.07624 15.4481ZM17.7715 8.61095L17.4967 9.57245L17.7715 8.61095ZM16.726 8.59642L16.9741 9.56517L16.726 8.59642ZM25.9282 15.4298L24.9641 15.6953L25.9282 15.4298ZM25.6194 14.7873L26.4292 14.2006L25.6194 14.7873ZM24.9078 25.782L24.4538 24.891L24.9078 25.782ZM25.7822 24.9079L24.8912 24.4539L25.7822 24.9079ZM9.0918 25.782L9.54579 24.891H9.54579L9.0918 25.782ZM8.21799 24.9079L7.32698 25.3619H7.32698L8.21799 24.9079ZM9.58917 14.192C9.14292 13.8666 8.51738 13.9646 8.19199 14.4108C7.8666 14.8571 7.96458 15.4826 8.41083 15.808L9.58917 14.192ZM17.2286 21L16.6394 21.808C16.9987 22.07 17.4877 22.0632 17.8397 21.7915L17.2286 21ZM25.6111 15.7915C26.0482 15.454 26.129 14.826 25.7915 14.3889C25.454 13.9517 24.826 13.8709 24.3888 14.2084L25.6111 15.7915ZM11.2002 27H22.8002V25H11.2002V27ZM27 22.8V16.5372H25V22.8H27ZM25.4252 13.2585L19.8262 8.77564L18.5762 10.3369L24.1752 14.8197L25.4252 13.2585ZM14.6679 8.70431L8.66687 13.2421L9.87317 14.8374L15.8742 10.2996L14.6679 8.70431ZM7 16.592V22.7999H9V16.592H7ZM8.66687 13.2421C8.24755 13.5592 7.8767 13.8281 7.60503 14.1882L9.20161 15.3928C9.26576 15.3077 9.36102 15.2246 9.87317 14.8374L8.66687 13.2421ZM9 16.592C9 15.9505 9.00896 15.8242 9.03812 15.7216L7.11437 15.1746C6.99104 15.6084 7 16.0658 7 16.592H9ZM7.60503 14.1882C7.38177 14.4841 7.21558 14.8186 7.11437 15.1746L9.03812 15.7216C9.07197 15.6025 9.12743 15.4911 9.20161 15.3928L7.60503 14.1882ZM19.8262 8.77564C19.2028 8.27654 18.6732 7.82862 18.0463 7.64944L17.4967 9.57245C17.6429 9.61423 17.8091 9.72274 18.5762 10.3369L19.8262 8.77564ZM15.8742 10.2996C16.6584 9.70654 16.8269 9.60285 16.9741 9.56517L16.478 7.62767C15.8461 7.78945 15.3043 8.22304 14.6679 8.70431L15.8742 10.2996ZM18.0463 7.64944C17.5347 7.50324 16.9936 7.49565 16.478 7.62767L16.9741 9.56517C17.1458 9.52119 17.3261 9.52369 17.4967 9.57245L18.0463 7.64944ZM27 16.5372C27 16.0282 27.0084 15.5858 26.8923 15.1643L24.9641 15.6953C24.9916 15.795 25 15.9172 25 16.5372H27ZM24.1752 14.8197C24.6586 15.2068 24.7488 15.29 24.8096 15.374L26.4292 14.2006C26.1729 13.8468 25.8232 13.5772 25.4252 13.2585L24.1752 14.8197ZM26.8923 15.1643C26.7969 14.8175 26.6397 14.4912 26.4292 14.2006L24.8096 15.374C24.8801 15.4714 24.9324 15.5803 24.9641 15.6953L26.8923 15.1643ZM22.8002 27C23.3438 27 23.8115 27.0008 24.1951 26.9694C24.5904 26.9371 24.9835 26.8657 25.3618 26.673L24.4538 24.891C24.4043 24.9162 24.3036 24.9539 24.0321 24.976C23.7489 24.9992 23.3767 25 22.8002 25V27ZM25 22.8C25 23.3767 24.9993 23.7489 24.9762 24.0323C24.954 24.304 24.9164 24.4046 24.8912 24.4539L26.6732 25.3619C26.8661 24.9834 26.9373 24.5901 26.9695 24.1948C27.0008 23.8112 27 23.3435 27 22.8H25ZM25.3618 26.673C25.9259 26.3856 26.3854 25.9268 26.6732 25.3619L24.8912 24.4539C24.7955 24.6417 24.6423 24.7949 24.4538 24.891L25.3618 26.673ZM11.2002 25C10.6237 25 10.2513 24.9992 9.96782 24.976C9.69598 24.9538 9.59519 24.9161 9.54579 24.891L8.63781 26.673C9.01623 26.8658 9.40959 26.9371 9.80496 26.9694C10.1887 27.0008 10.6566 27 11.2002 27V25ZM7 22.7999C7 23.3434 6.99922 23.8113 7.03057 24.1949C7.06287 24.5903 7.13419 24.9835 7.32698 25.3619L9.10899 24.4539C9.0838 24.4045 9.04612 24.3037 9.02393 24.0321C9.00078 23.7487 9 23.3765 9 22.7999H7ZM9.54579 24.891C9.3579 24.7952 9.20501 24.6423 9.10899 24.4539L7.32698 25.3619C7.61446 25.9261 8.07304 26.3852 8.63781 26.673L9.54579 24.891ZM8.41083 15.808L16.6394 21.808L17.8177 20.192L9.58917 14.192L8.41083 15.808ZM17.8397 21.7915L25.6111 15.7915L24.3888 14.2084L16.6175 20.2084L17.8397 21.7915Z" fill="white"/>
</svg>
