<svg width="25" height="24" viewBox="0 0 25 24" fill="none" xmlns="http://www.w3.org/2000/svg">
<path d="M12.5 11C13.6046 11 14.5 10.1046 14.5 9C14.5 7.89543 13.6046 7 12.5 7C11.3954 7 10.5 7.89543 10.5 9C10.5 10.1046 11.3954 11 12.5 11Z" stroke="#2B2B2B" stroke-width="2" stroke-linecap="round" stroke-linejoin="round"/>
<path d="M12.5 21C12.5 21 19.5 16.1538 19.5 9.92308C19.5 8.08696 18.7625 6.32605 17.4497 5.02772C16.137 3.72939 14.3565 3 12.5 3C10.6435 3 8.86301 3.72939 7.55025 5.02772C6.2375 6.32605 5.5 8.08696 5.5 9.92308C5.5 16.1538 12.5 21 12.5 21Z" stroke="#2B2B2B" stroke-width="2" stroke-linecap="round" stroke-linejoin="round"/>
</svg>
