<svg width="34" height="34" viewBox="0 0 34 34" fill="none" xmlns="http://www.w3.org/2000/svg">
<rect width="34" height="34" rx="8" fill="#F5F5F5"/>
<path d="M17.8746 16.6247L20.6231 18.6861L20.6231 18.6861L20.5631 18.7661C20.9055 19.0225 20.9752 19.5082 20.718 19.8499L17.8746 16.6247ZM17.8746 16.6247V12.4145C17.8746 11.9309 17.4835 11.5399 17 11.5399C16.5164 11.5399 16.1253 11.9309 16.1253 12.4145V17.0621C16.1253 17.3373 16.2546 17.5971 16.4752 17.7618L17.8746 16.6247ZM20.0976 20.2605C20.3636 20.2605 20.6264 20.1408 20.7981 19.9097L19.6335 20.0056C19.7673 20.1063 19.9301 20.1606 20.0975 20.1605V20.2605C20.0976 20.2605 20.0976 20.2605 20.0976 20.2605ZM19.5734 20.0854C19.5734 20.0854 19.5734 20.0854 19.5734 20.0855L16.4754 17.7619L19.5734 20.0854Z" fill="#E56553" stroke="#E56553" stroke-width="0.2"/>
<path d="M17 6.9C11.4304 6.9 6.9 11.4304 6.9 17C6.9 22.5696 11.4304 27.1 17 27.1C22.5696 27.1 27.1 22.5696 27.1 17C27.1 11.4304 22.5696 6.9 17 6.9ZM17 25.3508C12.396 25.3508 8.64918 21.604 8.64918 17C8.64918 12.396 12.396 8.64918 17 8.64918C21.6047 8.64918 25.3508 12.396 25.3508 17C25.3508 21.604 21.604 25.3508 17 25.3508Z" fill="#E56553" stroke="#E56553" stroke-width="0.2"/>
</svg>
