<svg width="34" height="34" viewBox="0 0 34 34" fill="none" xmlns="http://www.w3.org/2000/svg">
<rect width="34" height="34" rx="8" fill="#F5F5F5"/>
<path d="M16.1586 7.30996C16.5522 6.6972 17.4478 6.6972 17.8414 7.30996L20.5395 11.5106C20.6749 11.7215 20.8846 11.8738 21.1269 11.9374L25.9558 13.2054C26.6602 13.3904 26.9369 14.2422 26.4758 14.8058L23.3145 18.67C23.1558 18.8639 23.0757 19.1103 23.0901 19.3605L23.3764 24.3449C23.4181 25.0719 22.6935 25.5984 22.015 25.334L17.363 23.5215C17.1296 23.4305 16.8704 23.4305 16.637 23.5215L11.985 25.334C11.3065 25.5984 10.5819 25.0719 10.6236 24.3449L10.9099 19.3605C10.9243 19.1103 10.8442 18.8639 10.6855 18.67L7.52422 14.8058C7.06307 14.2422 7.33983 13.3904 8.04423 13.2054L12.8731 11.9374C13.1154 11.8738 13.3251 11.7215 13.4605 11.5106L16.1586 7.30996Z" stroke="#2B2B2B" stroke-width="2"/>
</svg>
