<svg width="34" height="34" viewBox="0 0 34 34" fill="none" xmlns="http://www.w3.org/2000/svg">
<rect width="34" height="34" rx="8" fill="#F5F5F5"/>
<path d="M25.5 22.1006V16.4184V16.4176C25.5 15.8504 25.5 15.5666 25.431 15.3026C25.3698 15.0685 25.2691 14.8464 25.1332 14.6462C24.9798 14.4203 24.7664 14.2334 24.3391 13.8596L19.2391 9.39709C18.4459 8.70298 18.0492 8.35596 17.6028 8.22396C17.2095 8.10764 16.7905 8.10764 16.3972 8.22396C15.951 8.35589 15.5548 8.7026 14.7624 9.39595L14.7611 9.39709L9.66107 13.8596L9.66005 13.8605C9.23347 14.2337 9.02003 14.4205 8.86679 14.6462C8.73089 14.8464 8.63021 15.0685 8.56903 15.3026C8.5 15.5668 8.5 15.8506 8.5 16.4184V22.1006C8.5 23.2907 8.5 23.8857 8.73161 24.3403C8.93534 24.7401 9.26019 25.0652 9.66003 25.269C10.1144 25.5005 10.7096 25.5005 11.8987 25.5005H11.9002H22.1002H22.1017C23.2908 25.5005 23.8852 25.5005 24.3395 25.269C24.7394 25.0652 25.0649 24.7401 25.2686 24.3403C25.5 23.8861 25.5 23.2918 25.5 22.1041V22.1006Z" stroke="#2B2B2B" stroke-width="2" stroke-linecap="round" stroke-linejoin="round"/>
</svg>
