<svg width="34" height="34" viewBox="0 0 34 34" fill="none" xmlns="http://www.w3.org/2000/svg">
<rect width="34" height="34" rx="8" fill="#F5F5F5"/>
<path d="M9 12C8.44772 12 8 12.4477 8 13C8 13.5523 8.44772 14 9 14V12ZM25 14C25.5523 14 26 13.5523 26 13C26 12.4477 25.5523 12 25 12V14ZM22 7C22 6.44772 21.5523 6 21 6C20.4477 6 20 6.44772 20 7H22ZM20 9C20 9.55228 20.4477 10 21 10C21.5523 10 22 9.55228 22 9H20ZM14 7C14 6.44772 13.5523 6 13 6C12.4477 6 12 6.44772 12 7H14ZM12 9C12 9.55228 12.4477 10 13 10C13.5523 10 14 9.55228 14 9H12ZM10.0918 24.782L10.5458 23.891H10.5458L10.0918 24.782ZM9.21799 23.908L8.32698 24.362H8.32698L9.21799 23.908ZM24.7822 23.908L23.8912 23.454L24.7822 23.908ZM23.9078 24.782L23.4538 23.891L23.9078 24.782ZM23.9078 9.21799L24.3618 8.32698V8.32698L23.9078 9.21799ZM24.7822 10.092L23.8912 10.546L24.7822 10.092ZM10.0918 9.21799L10.5458 10.109L10.0918 9.21799ZM9.21799 10.092L10.109 10.546L9.21799 10.092ZM9 14H25V12H9V14ZM20 7V9H22V7H20ZM12 7V9H14V7H12ZM12.2002 10H21.8002V8H12.2002V10ZM24 12.2V21.8H26V12.2H24ZM21.8002 24H12.2002V26H21.8002V24ZM10 21.8V12.2H8V21.8H10ZM12.2002 24C11.6237 24 11.2513 23.9992 10.9678 23.9761C10.696 23.9538 10.5952 23.9161 10.5458 23.891L9.63781 25.673C10.0162 25.8658 10.4096 25.9371 10.805 25.9694C11.1887 26.0008 11.6566 26 12.2002 26V24ZM8 21.8C8 22.3435 7.99922 22.8113 8.03057 23.195C8.06287 23.5904 8.13418 23.9836 8.32698 24.362L10.109 23.454C10.0838 23.4046 10.0461 23.3039 10.0239 23.0322C10.0008 22.7488 10 22.3765 10 21.8H8ZM10.5458 23.891C10.3578 23.7952 10.2049 23.6424 10.109 23.454L8.32698 24.362C8.61452 24.9264 9.07317 25.3853 9.63781 25.673L10.5458 23.891ZM24 21.8C24 22.3766 23.9993 22.7489 23.9762 23.0323C23.954 23.3041 23.9163 23.4047 23.8912 23.454L25.6732 24.362C25.8661 23.9835 25.9373 23.5902 25.9696 23.1949C26.0008 22.8112 26 22.3434 26 21.8H24ZM21.8002 26C22.3438 26 22.8115 26.0008 23.1951 25.9694C23.5904 25.9371 23.9835 25.8657 24.3618 25.673L23.4538 23.891C23.4043 23.9162 23.3036 23.9539 23.0321 23.9761C22.7489 23.9992 22.3767 24 21.8002 24V26ZM23.8912 23.454C23.7956 23.6417 23.6425 23.7948 23.4538 23.891L24.3618 25.673C24.9257 25.3856 25.3853 24.927 25.6732 24.362L23.8912 23.454ZM21.8002 10C22.3768 10 22.7489 10.0008 23.0321 10.0239C23.3036 10.0461 23.4043 10.0838 23.4538 10.109L24.3618 8.32698C23.9835 8.13421 23.5904 8.06288 23.1951 8.03057C22.8115 7.99922 22.3437 8 21.8002 8V10ZM26 12.2C26 11.6565 26.0008 11.1887 25.9695 10.8051C25.9373 10.4098 25.8661 10.0165 25.6732 9.63805L23.8912 10.546C23.9164 10.5954 23.954 10.696 23.9762 10.9677C23.9993 11.2511 24 11.6233 24 12.2H26ZM23.4538 10.109C23.6424 10.2051 23.7956 10.3583 23.8912 10.546L25.6732 9.63805C25.3854 9.07315 24.9259 8.61439 24.3618 8.32698L23.4538 10.109ZM12.2002 8C11.6566 8 11.1887 7.99922 10.805 8.03057C10.4096 8.06286 10.0162 8.13416 9.63781 8.32698L10.5458 10.109C10.5952 10.0838 10.6959 10.0461 10.9678 10.0239C11.2513 10.0008 11.6237 10 12.2002 10V8ZM10 12.2C10 11.6234 10.0008 11.2511 10.0239 10.9678C10.0461 10.6962 10.0838 10.5955 10.109 10.546L8.32698 9.63805C8.13419 10.0164 8.06287 10.4096 8.03057 10.805C7.99922 11.1886 8 11.6564 8 12.2H10ZM9.63781 8.32698C9.07306 8.61473 8.61447 9.07382 8.32698 9.63805L10.109 10.546C10.205 10.3576 10.3579 10.2047 10.5458 10.109L9.63781 8.32698Z" fill="#E56553"/>
</svg>
