<svg width="34" height="34" viewBox="0 0 34 34" fill="none" xmlns="http://www.w3.org/2000/svg">
<rect width="34" height="34" rx="8" fill="#F5F5F5"/>
<path d="M12.5103 24.8018C13.8317 25.5639 15.365 26 17.0001 26C21.9707 26 26 21.9706 26 17C26 12.0294 21.9706 8 17 8C12.0294 8 8 12.0294 8 17C8 18.6351 8.43604 20.1684 9.19819 21.4899L9.19883 21.491C9.2737 21.6208 9.31123 21.6859 9.32816 21.7471C9.34396 21.8043 9.34918 21.8553 9.34513 21.9144C9.34084 21.9772 9.31914 22.0423 9.27629 22.1708L9.27468 22.1757L8.50586 24.4821L8.50526 24.4839C8.34281 24.9713 8.26154 25.2151 8.3194 25.3773C8.36981 25.5187 8.4812 25.63 8.62256 25.6804C8.785 25.7383 9.02953 25.6569 9.51807 25.494L11.8245 24.7252L11.8261 24.7247C11.9568 24.6811 12.0221 24.6594 12.0854 24.655C12.1446 24.651 12.1958 24.6561 12.2529 24.6719C12.3143 24.6888 12.3797 24.7265 12.5103 24.8018Z" stroke="#2B2B2B" stroke-width="2" stroke-linecap="round" stroke-linejoin="round"/>
</svg>
