<svg width="20" height="14" viewBox="0 0 20 14" fill="none" xmlns="http://www.w3.org/2000/svg">
<path d="M20 3.36719V2.3125C20 1.10438 19.0206 0.125 17.8125 0.125H2.1875C0.979375 0.125 0 1.10438 0 2.3125V3.36719C0 3.41899 0.0205775 3.46867 0.0572057 3.50529C0.0938339 3.54192 0.143512 3.5625 0.195312 3.5625H19.8047C19.8565 3.5625 19.9062 3.54192 19.9428 3.50529C19.9794 3.46867 20 3.41899 20 3.36719ZM0 5.00781V11.6875C0 12.8956 0.979375 13.875 2.1875 13.875H17.8125C19.0206 13.875 20 12.8956 20 11.6875V5.00781C20 4.95601 19.9794 4.90633 19.9428 4.86971C19.9062 4.83308 19.8565 4.8125 19.8047 4.8125H0.195312C0.143512 4.8125 0.0938339 4.83308 0.0572057 4.86971C0.0205775 4.90633 0 4.95601 0 5.00781ZM5 10.125C5 10.4702 4.72016 10.75 4.375 10.75H3.75C3.40484 10.75 3.125 10.4702 3.125 10.125V9.5C3.125 9.15484 3.40484 8.875 3.75 8.875H4.375C4.72016 8.875 5 9.15484 5 9.5V10.125Z" fill="#E56553"/>
</svg>
