<svg width="24" height="20" viewBox="0 0 24 20" fill="none" xmlns="http://www.w3.org/2000/svg">
<path d="M16.1754 3.41512V0.754873C16.1754 0.337968 15.8374 0 15.4205 0H8.57947C8.16256 0 7.82459 0.337968 7.82459 0.754873V3.41512H5.68414V19.0159H18.3158V3.41512H16.1754ZM14.6656 3.40912H9.33434V1.50975H14.6656V3.40912H14.6656ZM2.56598 3.41512C1.15111 3.41512 0 4.56618 0 5.98105V16.45C0 17.8648 1.15111 19.0159 2.56598 19.0159H4.1744V3.41512H2.56598ZM21.434 3.41512H19.8256V19.0159H21.434C22.8489 19.0159 24 17.8648 24 16.45V5.98105C24 4.56618 22.8488 3.41512 21.434 3.41512Z" fill="#4546C0"/>
</svg>
