<svg width="24" height="24" viewBox="0 0 24 24" fill="none" xmlns="http://www.w3.org/2000/svg">
<path d="M5.25 7.5C6.49264 7.5 7.5 6.49264 7.5 5.25C7.5 4.00736 6.49264 3 5.25 3C4.00736 3 3 4.00736 3 5.25C3 6.49264 4.00736 7.5 5.25 7.5Z" fill="#2B2B2B"/>
<path d="M5.25 14.25C6.49264 14.25 7.5 13.2426 7.5 12C7.5 10.7574 6.49264 9.75 5.25 9.75C4.00736 9.75 3 10.7574 3 12C3 13.2426 4.00736 14.25 5.25 14.25Z" fill="#2B2B2B"/>
<path d="M12 7.5C13.2426 7.5 14.25 6.49264 14.25 5.25C14.25 4.00736 13.2426 3 12 3C10.7574 3 9.75 4.00736 9.75 5.25C9.75 6.49264 10.7574 7.5 12 7.5Z" fill="#2B2B2B"/>
<path d="M12 14.25C13.2426 14.25 14.25 13.2426 14.25 12C14.25 10.7574 13.2426 9.75 12 9.75C10.7574 9.75 9.75 10.7574 9.75 12C9.75 13.2426 10.7574 14.25 12 14.25Z" fill="#2B2B2B"/>
<path d="M12 21C13.2426 21 14.25 19.9926 14.25 18.75C14.25 17.5074 13.2426 16.5 12 16.5C10.7574 16.5 9.75 17.5074 9.75 18.75C9.75 19.9926 10.7574 21 12 21Z" fill="#2B2B2B"/>
<path d="M18.75 7.5C19.9926 7.5 21 6.49264 21 5.25C21 4.00736 19.9926 3 18.75 3C17.5074 3 16.5 4.00736 16.5 5.25C16.5 6.49264 17.5074 7.5 18.75 7.5Z" fill="#2B2B2B"/>
<path d="M18.75 14.25C19.9926 14.25 21 13.2426 21 12C21 10.7574 19.9926 9.75 18.75 9.75C17.5074 9.75 16.5 10.7574 16.5 12C16.5 13.2426 17.5074 14.25 18.75 14.25Z" fill="#2B2B2B"/>
</svg>
