<svg width="24" height="24" viewBox="0 0 24 24" fill="none" xmlns="http://www.w3.org/2000/svg">
<path d="M14.986 8.47385L12.4538 2.98394C12.2751 2.5965 11.7244 2.5965 11.5457 2.98394L9.01347 8.47385C8.94064 8.63175 8.791 8.74047 8.61831 8.76095L2.61459 9.47278C2.19089 9.52302 2.02073 10.0467 2.33398 10.3364L6.77269 14.4412C6.90036 14.5593 6.95752 14.7352 6.92363 14.9057L5.74537 20.8356C5.66222 21.2541 6.1077 21.5777 6.48001 21.3693L11.7555 18.4163C11.9073 18.3314 12.0922 18.3314 12.244 18.4163L17.5195 21.3693C17.8918 21.5777 18.3373 21.2541 18.2541 20.8356L17.0759 14.9057C17.042 14.7352 17.0991 14.5593 17.2268 14.4412L21.6655 10.3364C21.9788 10.0467 21.8086 9.52302 21.3849 9.47278L15.3812 8.76095C15.2085 8.74047 15.0589 8.63175 14.986 8.47385Z" stroke="#2B2B2B" stroke-width="2" stroke-linecap="round" stroke-linejoin="round"/>
</svg>
