<svg width="95" height="95" viewBox="0 0 95 95" fill="none" xmlns="http://www.w3.org/2000/svg">
<g filter="url(#filter0_b_2613_9656)">
<g clip-path="url(#clip0_2613_9656)">
<rect width="95" height="95" rx="47.5" fill="#2B2B2B"/>
<path d="M15.5 -3.5L15.5 -0.5" stroke="#2B2B2B" stroke-width="2" stroke-linecap="round" stroke-linejoin="round"/>
<path d="M19.5 0.5L11.5 0.5" stroke="#2B2B2B" stroke-width="2" stroke-linecap="round" stroke-linejoin="round"/>
<path fill-rule="evenodd" clip-rule="evenodd" d="M34.9585 29.583C35.948 29.583 36.7501 30.3852 36.7501 31.3747V35.4809C37.7228 34.6108 38.8021 33.8579 39.9672 33.2424C42.6346 31.833 45.6445 31.2003 48.6536 31.416C51.6627 31.6317 54.5506 32.6872 56.9897 34.4626C59.4288 36.238 61.321 38.662 62.4511 41.4592C62.8218 42.3766 62.3786 43.4209 61.4611 43.7915C60.5436 44.1622 59.4994 43.719 59.1287 42.8015C58.2497 40.6259 56.7781 38.7406 54.881 37.3597C52.9838 35.9788 50.7377 35.1579 48.3974 34.9902C46.0568 34.8224 43.7157 35.3146 41.6411 36.4107C40.5654 36.979 39.5836 37.698 38.7229 38.5413H43.9168C44.9063 38.5413 45.7085 39.3435 45.7085 40.333C45.7085 41.3225 44.9063 42.1247 43.9168 42.1247H34.9585C33.969 42.1247 33.1668 41.3225 33.1668 40.333V31.3747C33.1668 30.3852 33.969 29.583 34.9585 29.583ZM33.5385 51.2078C34.4559 50.8371 35.5001 51.2804 35.8708 52.1978C36.7498 54.3734 38.2215 56.2588 40.1186 57.6396C42.0156 59.0204 44.2628 59.8414 46.6033 60.0092C48.9437 60.177 51.2839 59.6848 53.3586 58.5886C54.4343 58.0203 55.4159 57.3014 56.2763 56.458H51.0835C50.094 56.458 49.2918 55.6559 49.2918 54.6663C49.2918 53.6768 50.094 52.8747 51.0835 52.8747H60.0418C61.0313 52.8747 61.8335 53.6768 61.8335 54.6663V63.6247C61.8335 64.6142 61.0313 65.4163 60.0418 65.4163C59.0523 65.4163 58.2501 64.6142 58.2501 63.6247V59.5176C57.2775 60.388 56.198 61.1412 55.0326 61.7569C52.3652 63.1663 49.3563 63.7991 46.3471 63.5834C43.3381 63.3677 40.4491 62.3122 38.0098 60.5367C35.5707 58.7614 33.6785 56.3373 32.5484 53.5402C32.1777 52.6227 32.621 51.5785 33.5385 51.2078Z" fill="white"/>
</g>
</g>
<defs>
<filter id="filter0_b_2613_9656" x="-16" y="-16" width="127" height="127" filterUnits="userSpaceOnUse" color-interpolation-filters="sRGB">
<feFlood flood-opacity="0" result="BackgroundImageFix"/>
<feGaussianBlur in="BackgroundImageFix" stdDeviation="8"/>
<feComposite in2="SourceAlpha" operator="in" result="effect1_backgroundBlur_2613_9656"/>
<feBlend mode="normal" in="SourceGraphic" in2="effect1_backgroundBlur_2613_9656" result="shape"/>
</filter>
<clipPath id="clip0_2613_9656">
<rect width="95" height="95" rx="47.5" fill="white"/>
</clipPath>
</defs>
</svg>
