<svg width="33" height="37" viewBox="0 0 33 37" fill="none" xmlns="http://www.w3.org/2000/svg">
<g filter="url(#filter0_d_2985_8386)">
<path d="M8.80893 16.0012L17.9469 16.0012M25.4092 17.8867L9.01821 26.5643C7.54883 27.3422 6.81425 27.7312 6.32981 27.6193C5.90969 27.5223 5.56268 27.2284 5.39792 26.8299C5.20794 26.3705 5.47047 25.5815 5.99622 24.0042L8.439 16.6759C8.52243 16.4256 8.5641 16.3004 8.58067 16.1724C8.59538 16.0588 8.59565 15.9439 8.58095 15.8303C8.56438 15.7023 8.52244 15.5769 8.43901 15.3266L5.99623 7.99831C5.47047 6.42103 5.20745 5.63245 5.39743 5.17299C5.56219 4.77453 5.90967 4.48035 6.32979 4.38334C6.81423 4.27148 7.54891 4.66054 9.01829 5.43845L25.4092 14.116C26.5644 14.7276 27.1419 15.0332 27.3307 15.4411C27.4952 15.7964 27.4954 16.2063 27.3309 16.5616C27.1421 16.9695 26.5643 17.2751 25.4092 17.8867Z" stroke="#E56553" stroke-width="2" stroke-linecap="round" stroke-linejoin="round"/>
</g>
<defs>
<filter id="filter0_d_2985_8386" x="-4" y="0" width="40" height="40" filterUnits="userSpaceOnUse" color-interpolation-filters="sRGB">
<feFlood flood-opacity="0" result="BackgroundImageFix"/>
<feColorMatrix in="SourceAlpha" type="matrix" values="0 0 0 0 0 0 0 0 0 0 0 0 0 0 0 0 0 0 127 0" result="hardAlpha"/>
<feOffset dy="4"/>
<feGaussianBlur stdDeviation="2"/>
<feComposite in2="hardAlpha" operator="out"/>
<feColorMatrix type="matrix" values="0 0 0 0 0 0 0 0 0 0 0 0 0 0 0 0 0 0 0.25 0"/>
<feBlend mode="normal" in2="BackgroundImageFix" result="effect1_dropShadow_2985_8386"/>
<feBlend mode="normal" in="SourceGraphic" in2="effect1_dropShadow_2985_8386" result="shape"/>
</filter>
</defs>
</svg>
