<svg width="24" height="24" viewBox="0 0 24 24" fill="none" xmlns="http://www.w3.org/2000/svg">
<g clip-path="url(#clip0_1294_4876)">
<path d="M3 9V7C3 6.44772 3.44772 6 4 6H20C20.5523 6 21 6.44772 21 7V9M3 15V17C3 17.5523 3.44772 18 4 18H20C20.5523 18 21 17.5523 21 17V15" stroke="#2B2B2B" stroke-width="2" stroke-linecap="round" stroke-linejoin="round"/>
<path d="M21 15C19.3431 15 18 13.6569 18 12C18 10.3431 19.3431 9 21 9" stroke="#2B2B2B" stroke-width="2" stroke-linecap="round" stroke-linejoin="round"/>
<path d="M3 9C4.65685 9 6 10.3431 6 12C6 13.6569 4.65685 15 3 15" stroke="#2B2B2B" stroke-width="2" stroke-linecap="round" stroke-linejoin="round"/>
<path d="M14 6V18" stroke="#2B2B2B" stroke-width="2" stroke-linecap="round" stroke-linejoin="round"/>
</g>
<defs>
<clipPath id="clip0_1294_4876">
<rect width="24" height="24" fill="white"/>
</clipPath>
</defs>
</svg>
