<svg width="24" height="24" viewBox="0 0 24 24" fill="none" xmlns="http://www.w3.org/2000/svg">
<path d="M5 14V13C4.71011 13 4.43448 13.1258 4.24455 13.3448C4.05461 13.5638 3.96905 13.8544 4.01005 14.1414L5 14ZM19 14L19.9899 14.1414C20.0309 13.8544 19.9454 13.5638 19.7555 13.3448C19.5655 13.1258 19.2899 13 19 13V14ZM18.1227 20.1414L17.1327 20L18.1227 20.1414ZM5.87735 20.1414L6.8673 20L5.87735 20.1414ZM5 15H19V13H5V15ZM18.0101 13.8586L17.1327 20L19.1126 20.2828L19.9899 14.1414L18.0101 13.8586ZM17.1327 20H6.8673V22H17.1327V20ZM6.8673 20L5.98995 13.8586L4.01005 14.1414L4.8874 20.2828L6.8673 20ZM6.8673 20H6.8673L4.8874 20.2828C5.02815 21.2681 5.87199 22 6.8673 22V20ZM17.1327 20V20V22C18.128 22 18.9718 21.2681 19.1126 20.2828L17.1327 20Z" fill="#2B2B2B"/>
<path d="M14 21L14 14" stroke="#2B2B2B" stroke-width="2" stroke-linecap="round" stroke-linejoin="round"/>
<path d="M10 21L10 14" stroke="#2B2B2B" stroke-width="2" stroke-linecap="round" stroke-linejoin="round"/>
<path d="M5 14C3.71228 13.6908 3 12.5274 3 11.25C3 10.2538 3.57781 9.38141 4.44296 8.89893C4.77097 8.716 5 8.39362 5 8.04167C5 5.25723 7.46243 3 10.5 3C11.6319 3 12.684 3.31345 13.5585 3.85082C13.9304 4.07933 14.4138 4.10296 14.846 3.99587C15.0545 3.94422 15.2737 3.91667 15.5 3.91667C16.8807 3.91667 18 4.94268 18 6.20833C18 6.51793 18.1969 6.81987 18.5096 6.93679C19.9704 7.48291 21 8.79791 21 10.3333C21 11.7636 20.3031 13.3956 19 14H5Z" stroke="#2B2B2B" stroke-width="2" stroke-linecap="round" stroke-linejoin="round"/>
</svg>
