<svg width="24" height="24" viewBox="0 0 24 24" fill="none" xmlns="http://www.w3.org/2000/svg">
<path d="M10.27 20.7675L9.37555 20.3203L10.27 20.7675ZM8.41978 20.6144L9.37555 20.3203L8.41978 20.6144ZM14.0673 13.6201L13.6201 12.7257L14.0673 13.6201ZM13.6201 14.0673L14.5145 14.5145L13.6201 14.0673ZM20.6144 8.41978L20.3203 9.37556L20.6144 8.41978ZM20.7675 10.27L21.2148 11.1644L20.7675 10.27ZM4.8053 3.55543L4.51121 4.51121L4.8053 3.55543ZM3.55543 4.8053L4.51121 4.51121L3.55543 4.8053ZM4.51121 4.51121L20.3203 9.37556L20.9085 7.464L5.09938 2.59965L4.51121 4.51121ZM20.3203 9.37555L13.6201 12.7257L14.5145 14.5145L21.2148 11.1644L20.3203 9.37555ZM12.7257 13.6201L9.37555 20.3203L11.1644 21.2148L14.5145 14.5145L12.7257 13.6201ZM9.37555 20.3203L4.51121 4.51121L2.59965 5.09938L7.464 20.9085L9.37555 20.3203ZM9.37555 20.3203H9.37555L7.464 20.9085C7.99462 22.633 10.3575 22.8286 11.1644 21.2148L9.37555 20.3203ZM13.6201 12.7257C13.233 12.9192 12.9192 13.233 12.7257 13.6201L14.5145 14.5145V14.5145L13.6201 12.7257ZM20.3203 9.37556L20.3203 9.37555L21.2148 11.1644C22.8286 10.3575 22.633 7.99462 20.9085 7.464L20.3203 9.37556ZM5.09938 2.59965C3.56483 2.12748 2.12748 3.56483 2.59965 5.09938L4.51121 4.51121L4.51121 4.51121L5.09938 2.59965Z" fill="#2B2B2B"/>
</svg>
