<svg width="24" height="24" viewBox="0 0 24 24" fill="none" xmlns="http://www.w3.org/2000/svg">
<path d="M6.6857 15H17.3143M6.51427 13H17.4857M7.08937 7H16.9106C17.4966 7 17.957 7.50156 17.907 8.0854L16.8784 20.0854C16.834 20.6027 16.4012 21 15.882 21H8.11794C7.59876 21 7.16593 20.6027 7.12159 20.0854L6.09302 8.0854C6.04298 7.50156 6.50339 7 7.08937 7Z" stroke="#2B2B2B" stroke-width="2" stroke-linecap="round" stroke-linejoin="round"/>
<path d="M19.145 5.50386L18.0022 3.50386C17.8241 3.19229 17.4928 3 17.1339 3L6.86602 3C6.50716 3 6.17582 3.19229 5.99777 3.50386L4.85491 5.50386C4.47397 6.17052 4.95534 7 5.72316 7L18.2768 7C19.0446 7 19.526 6.17052 19.145 5.50386Z" stroke="#2B2B2B" stroke-width="2" stroke-linecap="round" stroke-linejoin="round"/>
</svg>
