<svg width="24" height="24" viewBox="0 0 24 24" fill="none" xmlns="http://www.w3.org/2000/svg">
<path d="M14 15L21 15" stroke="#2B2B2B" stroke-width="2" stroke-linecap="round" stroke-linejoin="round"/>
<path d="M3 15H5" stroke="#2B2B2B" stroke-width="2" stroke-linecap="round" stroke-linejoin="round"/>
<path d="M7.5 17.5C8.88071 17.5 10 16.3807 10 15C10 13.6193 8.88071 12.5 7.5 12.5C6.11929 12.5 5 13.6193 5 15C5 16.3807 6.11929 17.5 7.5 17.5Z" stroke="#2B2B2B" stroke-width="2" stroke-linecap="round" stroke-linejoin="round"/>
<path d="M20 9H21" stroke="#2B2B2B" stroke-width="2" stroke-linecap="round" stroke-linejoin="round"/>
<path d="M3 9H10" stroke="#2B2B2B" stroke-width="2" stroke-linecap="round" stroke-linejoin="round"/>
<path d="M16.5 11.5C17.8807 11.5 19 10.3807 19 9C19 7.61929 17.8807 6.5 16.5 6.5C15.1193 6.5 14 7.61929 14 9C14 10.3807 15.1193 11.5 16.5 11.5Z" stroke="#2B2B2B" stroke-width="2" stroke-linecap="round" stroke-linejoin="round"/>
</svg>
