<svg width="24" height="25" viewBox="0 0 24 25" fill="none" xmlns="http://www.w3.org/2000/svg">
<path d="M21 15.3V7.69995V7.69666C21 6.57875 21 6.01945 20.7822 5.59204C20.5905 5.21572 20.2841 4.90973 19.9078 4.71799C19.48 4.5 18.9203 4.5 17.8002 4.5H6.2002C5.08009 4.5 4.51962 4.5 4.0918 4.71799C3.71547 4.90973 3.40973 5.21572 3.21799 5.59204C3 6.01986 3 6.57985 3 7.69995V19.171C3 20.2367 3 20.7696 3.21846 21.0432C3.40845 21.2813 3.69644 21.4197 4.00098 21.4194C4.35115 21.419 4.76744 21.0861 5.59961 20.4203L7.12357 19.2012C7.44844 18.9413 7.61084 18.8114 7.79172 18.719C7.95219 18.637 8.12279 18.5771 8.29932 18.5408C8.49829 18.5 8.70652 18.5 9.12256 18.5H17.8001C18.9202 18.5 19.48 18.5 19.9078 18.282C20.2841 18.0902 20.5905 17.7844 20.7822 17.408C21 16.9806 21 16.4212 21 15.3032V15.3Z" stroke="#E56553" stroke-width="2" stroke-linecap="round" stroke-linejoin="round"/>
</svg>
