<svg width="15" height="15" viewBox="0 0 15 15" fill="none" xmlns="http://www.w3.org/2000/svg">
<path d="M6.63589 1.48359C7.02162 0.821321 7.97838 0.821321 8.36411 1.48359L10.0261 4.33706C10.1674 4.57966 10.4042 4.75169 10.6786 4.81111L13.906 5.50999C14.655 5.67219 14.9507 6.58212 14.44 7.15363L12.2398 9.61605C12.0527 9.82541 11.9623 10.1038 11.9906 10.3831L12.3232 13.6685C12.4004 14.431 11.6264 14.9934 10.9251 14.6843L7.90325 13.3527C7.64634 13.2395 7.35366 13.2395 7.09675 13.3527L4.07494 14.6843C3.3736 14.9934 2.59957 14.431 2.67678 13.6685L3.00942 10.3831C3.0377 10.1038 2.94726 9.82541 2.7602 9.61605L0.559971 7.15363C0.049316 6.58212 0.344969 5.67219 1.09402 5.50999L4.32142 4.81111C4.59581 4.75169 4.83259 4.57966 4.97389 4.33706L6.63589 1.48359Z" fill="#E56553"/>
</svg>
