<svg width="44" height="44" viewBox="0 0 44 44" fill="none" xmlns="http://www.w3.org/2000/svg">
<rect width="44" height="44" rx="8" fill="#E56553"/>
<path fill-rule="evenodd" clip-rule="evenodd" d="M27.625 13H16.3752C14.511 13 13 14.5765 13 16.5208V27.4787C13 29.4235 14.511 31 16.3752 31H27.625C29.4891 31 31 29.4235 31 27.4787V16.5208C31 14.5765 29.4891 13 27.625 13Z" stroke="white" stroke-width="2" stroke-linecap="round" stroke-linejoin="round"/>
<path d="M25.4589 27C27 27 27 27 27 25.5036V22.2156C27 21.6826 26.708 21.1899 26.2334 20.9218L23.5463 19.4048C22.5903 18.8651 21.4095 18.8651 20.4535 19.4048L17.7666 20.9218C17.292 21.1899 17 21.6826 17 22.2156V25.5036C17 27 17 27 18.5412 27H25.4589Z" stroke="white" stroke-width="2" stroke-linecap="round" stroke-linejoin="round"/>
</svg>
