<svg width="25" height="25" viewBox="0 0 25 25" fill="none" xmlns="http://www.w3.org/2000/svg">
<circle cx="12.9" cy="12.5" r="9" stroke="#2B2B2B" stroke-width="2" stroke-linecap="round" stroke-linejoin="round"/>
<path d="M9.0696 7.75057C9.17358 7.41648 9.62634 7.41648 9.73033 7.75057L10.0824 8.88161C10.1289 9.03102 10.2622 9.13218 10.4127 9.13218H11.5519C11.8884 9.13218 12.0283 9.5817 11.7561 9.78818L10.8345 10.4872C10.7127 10.5795 10.6618 10.7432 10.7083 10.8926L11.0603 12.0237C11.1643 12.3578 10.798 12.6356 10.5258 12.4291L9.60414 11.7301C9.48239 11.6377 9.31753 11.6377 9.19579 11.7301L8.27415 12.4291C8.00192 12.6356 7.63562 12.3578 7.73961 12.0237L8.09164 10.8926C8.13815 10.7432 8.0872 10.5795 7.96546 10.4872L7.04382 9.78818C6.77158 9.5817 6.91149 9.13218 7.24799 9.13218H8.3872C8.53769 9.13218 8.67106 9.03102 8.71757 8.88161L9.0696 7.75057Z" fill="#2B2B2B"/>
<path d="M16.0696 7.75057C16.1736 7.41648 16.6263 7.41648 16.7303 7.75057L17.0824 8.88161C17.1289 9.03102 17.2622 9.13218 17.4127 9.13218H18.5519C18.8884 9.13218 19.0283 9.5817 18.7561 9.78818L17.8345 10.4872C17.7127 10.5795 17.6618 10.7432 17.7083 10.8926L18.0603 12.0237C18.1643 12.3578 17.798 12.6356 17.5258 12.4291L16.6041 11.7301C16.4824 11.6377 16.3175 11.6377 16.1958 11.7301L15.2742 12.4291C15.0019 12.6356 14.6356 12.3578 14.7396 12.0237L15.0916 10.8926C15.1381 10.7432 15.0872 10.5795 14.9655 10.4872L14.0438 9.78818C13.7716 9.5817 13.9115 9.13218 14.248 9.13218H15.3872C15.5377 9.13218 15.6711 9.03102 15.7176 8.88161L16.0696 7.75057Z" fill="#2B2B2B"/>
<path d="M8.89996 15.5L9.29996 15.8C11.4333 17.4 14.3666 17.4 16.5 15.8L16.9 15.5" stroke="#2B2B2B" stroke-width="2" stroke-linecap="round" stroke-linejoin="round"/>
</svg>
