<svg width="25" height="25" viewBox="0 0 25 25" fill="none" xmlns="http://www.w3.org/2000/svg">
<path fill-rule="evenodd" clip-rule="evenodd" d="M18.125 3.5H6.87516C5.01099 3.5 3.5 5.07651 3.5 7.02077V17.9787C3.5 19.9235 5.01099 21.5 6.87516 21.5H18.125C19.9891 21.5 21.5 19.9235 21.5 17.9787V7.02077C21.5 5.07651 19.9891 3.5 18.125 3.5Z" stroke="#E56553" stroke-width="2" stroke-linecap="round" stroke-linejoin="round"/>
<path d="M15.9589 17.5C17.5 17.5 17.5 17.5 17.5 16.0036V12.7156C17.5 12.1826 17.208 11.6899 16.7334 11.4218L14.0463 9.90483C13.0903 9.36506 11.9095 9.36506 10.9535 9.90483L8.26662 11.4218C7.79199 11.6899 7.5 12.1826 7.5 12.7156V16.0036C7.5 17.5 7.5 17.5 9.04116 17.5H15.9589Z" stroke="#E56553" stroke-width="2" stroke-linecap="round" stroke-linejoin="round"/>
</svg>
