<svg width="25" height="25" viewBox="0 0 25 25" fill="none" xmlns="http://www.w3.org/2000/svg">
<path d="M9.09998 17.5V16.5C8.54769 16.5 8.09998 16.9477 8.09998 17.5H9.09998ZM15.1 17.5H16.1C16.1 16.9477 15.6523 16.5 15.1 16.5V17.5ZM9.09998 18.5H15.1V16.5H9.09998V18.5ZM14.1 17.5V18.5H16.1V17.5H14.1ZM10.1 18.5V17.5H8.09998V18.5H10.1ZM12.1 20.5C10.9954 20.5 10.1 19.6046 10.1 18.5H8.09998C8.09998 20.7091 9.89084 22.5 12.1 22.5V20.5ZM14.1 18.5C14.1 19.6046 13.2045 20.5 12.1 20.5V22.5C14.3091 22.5 16.1 20.7091 16.1 18.5H14.1Z" fill="#2B2B2B"/>
<path d="M4.39287 15.2071L3.68576 14.5L3.68576 14.5L4.39287 15.2071ZM4.90369 14.6962L5.6108 15.4033L5.6108 15.4033L4.90369 14.6962ZM19.2962 14.6962L20.0034 13.9891L20.0034 13.9891L19.2962 14.6962ZM19.8071 15.2071L20.5142 14.5L20.5142 14.5L19.8071 15.2071ZM12.1 3.49994L12.1 4.49994L12.1 3.49994ZM19.1 16.5H5.09998V18.5H19.1V16.5ZM5.09998 16.5V15.9142H3.09998V16.5H5.09998ZM5.09998 15.9142L5.6108 15.4033L4.19659 13.9891L3.68576 14.5L5.09998 15.9142ZM6.09998 14.2224V10.4999H4.09998V14.2224H6.09998ZM18.1 10.4999V14.2223H20.1V10.4999H18.1ZM18.5891 15.4033L19.1 15.9142L20.5142 14.5L20.0034 13.9891L18.5891 15.4033ZM19.1 15.9142V16.5H21.1V15.9142H19.1ZM19.1 15.9142L19.1 15.9142H21.1C21.1 15.3837 20.8893 14.875 20.5142 14.5L19.1 15.9142ZM18.1 14.2223C18.1 14.6653 18.2759 15.0901 18.5891 15.4033L20.0034 13.9891C20.0652 14.051 20.1 14.1349 20.1 14.2223H18.1ZM20.1 10.4999C20.1 6.08165 16.5182 2.49993 12.1 2.49994L12.1 4.49994C15.4137 4.49993 18.1 7.18623 18.1 10.4999H20.1ZM6.09998 10.4999C6.09998 7.18624 8.78626 4.49995 12.1 4.49994L12.1 2.49994C7.68169 2.49995 4.09998 6.08167 4.09998 10.4999H6.09998ZM5.6108 15.4033C5.92401 15.0901 6.09998 14.6653 6.09998 14.2224H4.09998C4.09998 14.1349 4.13473 14.051 4.19659 13.9891L5.6108 15.4033ZM5.09998 15.9142H5.09998L3.68576 14.5C3.31069 14.875 3.09998 15.3837 3.09998 15.9142H5.09998ZM5.09998 16.5H3.09998C3.09998 17.6045 3.99541 18.5 5.09998 18.5V16.5ZM19.1 18.5C20.2045 18.5 21.1 17.6045 21.1 16.5H19.1V18.5Z" fill="#2B2B2B"/>
</svg>
