<svg width="25" height="24" viewBox="0 0 25 24" fill="none" xmlns="http://www.w3.org/2000/svg">
<path d="M12.5 21C16.9183 21 20.5 17.4183 20.5 13C20.5 8.58172 16.9183 5 12.5 5C8.08172 5 4.5 8.58172 4.5 13C4.5 17.4183 8.08172 21 12.5 21Z" stroke="#2B2B2B" stroke-width="2" stroke-miterlimit="10" stroke-linecap="round" stroke-linejoin="round"/>
<path d="M11.5 13C11.5 13.5523 11.9477 14 12.5 14C13.0523 14 13.5 13.5523 13.5 13H11.5ZM13.5 9C13.5 8.44772 13.0523 8 12.5 8C11.9477 8 11.5 8.44772 11.5 9H13.5ZM13.5 13V9H11.5V13H13.5Z" fill="#2B2B2B"/>
<path d="M21.5 6L19.5 4" stroke="#2B2B2B" stroke-width="2" stroke-linecap="round" stroke-linejoin="round"/>
<path d="M10.5 2L14.5 2" stroke="#2B2B2B" stroke-width="2" stroke-linecap="round" stroke-linejoin="round"/>
</svg>
