<svg width="36" height="24" viewBox="0 0 36 24" fill="none" xmlns="http://www.w3.org/2000/svg">
<defs>
<linearGradient id="paint0_linear_1923_5881" x1="16.4131" y1="18.5193" x2="16.7468" y2="6.67932" gradientUnits="userSpaceOnUse">
<stop stop-color="#222357"/>
<stop offset="1" stop-color="#254AA5"/>
</linearGradient>
</defs>
<path d="M18.4636 10.4451C18.4432 12.051 19.8948 12.9472 20.9883 13.48C22.1118 14.0267 22.4892 14.3773 22.4847 14.8662C22.4763 15.6144 21.5885 15.9447 20.7578 15.9575C19.3084 15.9799 18.4657 15.5662 17.7958 15.2532L17.2736 17.6964C17.9458 18.0061 19.1905 18.2762 20.4811 18.2881C23.5108 18.2881 25.4929 16.7926 25.5036 14.4738C25.5155 11.531 21.4332 11.3681 21.4611 10.0528C21.4707 9.65392 21.8513 9.2283 22.6852 9.12008C23.098 9.06541 24.2375 9.02358 25.5294 9.6185L26.0365 7.25471C25.3417 7.00174 24.4488 6.7595 23.3371 6.7595C20.4854 6.7595 18.4798 8.27539 18.4636 10.4451V10.4451ZM30.9088 6.96311C30.3556 6.96311 29.8894 7.28581 29.6813 7.78102L25.3536 18.1145H28.381L28.9835 16.4495H32.683L33.0325 18.1145H35.7008L33.3723 6.96311H30.9088V6.96311ZM31.3324 9.97551L32.2061 14.163H29.8133L31.3324 9.97551V9.97551ZM14.793 6.96325L12.4066 18.1143H15.2915L17.6768 6.96297H14.793V6.96325ZM10.5252 6.96297L7.52242 14.5532L6.30775 8.09954C6.16523 7.37911 5.60238 6.96311 4.97734 6.96311H0.068752L0 7.28693C1.00771 7.50559 2.15265 7.85828 2.8463 8.23565C3.27081 8.46617 3.39186 8.66768 3.53131 9.21547L5.83193 18.1145H8.88058L13.5546 6.96311H10.5252" fill="url(#paint0_linear_1923_5881)"/>
</svg>
